G04 #@! TF.GenerationSoftware,KiCad,Pcbnew,(5.1.7)-1*
G04 #@! TF.CreationDate,2020-11-09T22:13:17+01:00*
G04 #@! TF.ProjectId,vario,76617269-6f2e-46b6-9963-61645f706362,v1.0*
G04 #@! TF.SameCoordinates,Original*
G04 #@! TF.FileFunction,Profile,NP*
%FSLAX46Y46*%
G04 Gerber Fmt 4.6, Leading zero omitted, Abs format (unit mm)*
G04 Created by KiCad (PCBNEW (5.1.7)-1) date 2020-11-09 22:13:17*
%MOMM*%
%LPD*%
G01*
G04 APERTURE LIST*
G04 #@! TA.AperFunction,Profile*
%ADD10C,0.050000*%
G04 #@! TD*
G04 #@! TA.AperFunction,Profile*
%ADD11C,0.120000*%
G04 #@! TD*
G04 APERTURE END LIST*
D10*
X138796000Y-45824000D02*
G75*
G03*
X138796000Y-45824000I-576000J0D01*
G01*
X217492000Y-131064000D02*
G75*
G03*
X217492000Y-131064000I-576000J0D01*
G01*
D11*
X228900000Y-45010000D02*
X223900000Y-45010000D01*
X218900000Y-40010000D02*
X218900000Y-36010000D01*
X135900000Y-45010000D02*
X130900000Y-45010000D01*
X140900000Y-36010000D02*
X140900000Y-40010000D01*
X140900000Y-128010000D02*
X140900000Y-132010000D01*
X135900000Y-123010000D02*
X130900000Y-123010000D01*
X218900000Y-128010000D02*
X218900000Y-132010000D01*
X228900000Y-123010000D02*
X223900000Y-123010000D01*
X179900000Y-133010000D02*
X141900000Y-133010000D01*
X129900000Y-122010000D02*
X129900000Y-46010000D01*
X141900000Y-35010000D02*
X217900000Y-35010000D01*
X229900000Y-46010000D02*
X229900000Y-122010000D01*
X217900000Y-133010000D02*
X179900000Y-133010000D01*
X228900000Y-123010000D02*
X228900000Y-123010000D01*
X130900000Y-45010000D02*
X130900000Y-45010000D01*
X130900000Y-123010000D02*
X130900000Y-123010000D01*
X140900000Y-40010000D02*
G75*
G02*
X135900000Y-45010000I-5000000J0D01*
G01*
X135900000Y-123010000D02*
G75*
G02*
X140900000Y-128010000I0J-5000000D01*
G01*
X218900000Y-128010000D02*
G75*
G02*
X223900000Y-123010000I5000000J0D01*
G01*
X223900000Y-45010000D02*
G75*
G02*
X218900000Y-40010000I0J5000000D01*
G01*
X218900000Y-132010000D02*
G75*
G02*
X217900000Y-133010000I-1000000J0D01*
G01*
X229900000Y-122010000D02*
G75*
G02*
X228900000Y-123010000I-1000000J0D01*
G01*
X228900000Y-45010000D02*
G75*
G02*
X229900000Y-46010000I0J-1000000D01*
G01*
X217900000Y-35010000D02*
G75*
G02*
X218900000Y-36010000I0J-1000000D01*
G01*
X140900000Y-36010000D02*
G75*
G02*
X141900000Y-35010000I1000000J0D01*
G01*
X129900000Y-46010000D02*
G75*
G02*
X130900000Y-45010000I1000000J0D01*
G01*
X141900000Y-133010000D02*
G75*
G02*
X140900000Y-132010000I0J1000000D01*
G01*
X130900000Y-123010000D02*
G75*
G02*
X129900000Y-122010000I0J1000000D01*
G01*
M02*
