G04 #@! TF.GenerationSoftware,KiCad,Pcbnew,(5.1.7)-1*
G04 #@! TF.CreationDate,2020-11-09T22:13:17+01:00*
G04 #@! TF.ProjectId,vario,76617269-6f2e-46b6-9963-61645f706362,v1.0*
G04 #@! TF.SameCoordinates,Original*
G04 #@! TF.FileFunction,Legend,Top*
G04 #@! TF.FilePolarity,Positive*
%FSLAX46Y46*%
G04 Gerber Fmt 4.6, Leading zero omitted, Abs format (unit mm)*
G04 Created by KiCad (PCBNEW (5.1.7)-1) date 2020-11-09 22:13:17*
%MOMM*%
%LPD*%
G01*
G04 APERTURE LIST*
%ADD10C,0.400000*%
%ADD11C,0.150000*%
%ADD12C,0.200000*%
%ADD13C,0.250000*%
%ADD14C,1.000000*%
%ADD15C,0.300000*%
%ADD16C,0.120000*%
%ADD17C,0.100000*%
G04 APERTURE END LIST*
D10*
X171445238Y-127781428D02*
X172207142Y-127781428D01*
X171730952Y-127114761D02*
X171730952Y-128829047D01*
X171826190Y-129019523D01*
X172016666Y-129114761D01*
X172207142Y-129114761D01*
X172873809Y-129114761D02*
X172873809Y-127114761D01*
X173730952Y-129114761D02*
X173730952Y-128067142D01*
X173635714Y-127876666D01*
X173445238Y-127781428D01*
X173159523Y-127781428D01*
X172969047Y-127876666D01*
X172873809Y-127971904D01*
X175445238Y-129019523D02*
X175254761Y-129114761D01*
X174873809Y-129114761D01*
X174683333Y-129019523D01*
X174588095Y-128829047D01*
X174588095Y-128067142D01*
X174683333Y-127876666D01*
X174873809Y-127781428D01*
X175254761Y-127781428D01*
X175445238Y-127876666D01*
X175540476Y-128067142D01*
X175540476Y-128257619D01*
X174588095Y-128448095D01*
D11*
X200887619Y-131412380D02*
X201220952Y-132412380D01*
X201554285Y-131412380D01*
X202411428Y-132412380D02*
X201840000Y-132412380D01*
X202125714Y-132412380D02*
X202125714Y-131412380D01*
X202030476Y-131555238D01*
X201935238Y-131650476D01*
X201840000Y-131698095D01*
X202840000Y-132317142D02*
X202887619Y-132364761D01*
X202840000Y-132412380D01*
X202792380Y-132364761D01*
X202840000Y-132317142D01*
X202840000Y-132412380D01*
X203506666Y-131412380D02*
X203601904Y-131412380D01*
X203697142Y-131460000D01*
X203744761Y-131507619D01*
X203792380Y-131602857D01*
X203840000Y-131793333D01*
X203840000Y-132031428D01*
X203792380Y-132221904D01*
X203744761Y-132317142D01*
X203697142Y-132364761D01*
X203601904Y-132412380D01*
X203506666Y-132412380D01*
X203411428Y-132364761D01*
X203363809Y-132317142D01*
X203316190Y-132221904D01*
X203268571Y-132031428D01*
X203268571Y-131793333D01*
X203316190Y-131602857D01*
X203363809Y-131507619D01*
X203411428Y-131460000D01*
X203506666Y-131412380D01*
X204982857Y-131507619D02*
X205030476Y-131460000D01*
X205125714Y-131412380D01*
X205363809Y-131412380D01*
X205459047Y-131460000D01*
X205506666Y-131507619D01*
X205554285Y-131602857D01*
X205554285Y-131698095D01*
X205506666Y-131840952D01*
X204935238Y-132412380D01*
X205554285Y-132412380D01*
X206173333Y-131412380D02*
X206268571Y-131412380D01*
X206363809Y-131460000D01*
X206411428Y-131507619D01*
X206459047Y-131602857D01*
X206506666Y-131793333D01*
X206506666Y-132031428D01*
X206459047Y-132221904D01*
X206411428Y-132317142D01*
X206363809Y-132364761D01*
X206268571Y-132412380D01*
X206173333Y-132412380D01*
X206078095Y-132364761D01*
X206030476Y-132317142D01*
X205982857Y-132221904D01*
X205935238Y-132031428D01*
X205935238Y-131793333D01*
X205982857Y-131602857D01*
X206030476Y-131507619D01*
X206078095Y-131460000D01*
X206173333Y-131412380D01*
X206887619Y-131507619D02*
X206935238Y-131460000D01*
X207030476Y-131412380D01*
X207268571Y-131412380D01*
X207363809Y-131460000D01*
X207411428Y-131507619D01*
X207459047Y-131602857D01*
X207459047Y-131698095D01*
X207411428Y-131840952D01*
X206840000Y-132412380D01*
X207459047Y-132412380D01*
X208078095Y-131412380D02*
X208173333Y-131412380D01*
X208268571Y-131460000D01*
X208316190Y-131507619D01*
X208363809Y-131602857D01*
X208411428Y-131793333D01*
X208411428Y-132031428D01*
X208363809Y-132221904D01*
X208316190Y-132317142D01*
X208268571Y-132364761D01*
X208173333Y-132412380D01*
X208078095Y-132412380D01*
X207982857Y-132364761D01*
X207935238Y-132317142D01*
X207887619Y-132221904D01*
X207840000Y-132031428D01*
X207840000Y-131793333D01*
X207887619Y-131602857D01*
X207935238Y-131507619D01*
X207982857Y-131460000D01*
X208078095Y-131412380D01*
X208840000Y-132031428D02*
X209601904Y-132031428D01*
X210601904Y-132412380D02*
X210030476Y-132412380D01*
X210316190Y-132412380D02*
X210316190Y-131412380D01*
X210220952Y-131555238D01*
X210125714Y-131650476D01*
X210030476Y-131698095D01*
X211554285Y-132412380D02*
X210982857Y-132412380D01*
X211268571Y-132412380D02*
X211268571Y-131412380D01*
X211173333Y-131555238D01*
X211078095Y-131650476D01*
X210982857Y-131698095D01*
X211982857Y-132031428D02*
X212744761Y-132031428D01*
X213411428Y-131412380D02*
X213506666Y-131412380D01*
X213601904Y-131460000D01*
X213649523Y-131507619D01*
X213697142Y-131602857D01*
X213744761Y-131793333D01*
X213744761Y-132031428D01*
X213697142Y-132221904D01*
X213649523Y-132317142D01*
X213601904Y-132364761D01*
X213506666Y-132412380D01*
X213411428Y-132412380D01*
X213316190Y-132364761D01*
X213268571Y-132317142D01*
X213220952Y-132221904D01*
X213173333Y-132031428D01*
X213173333Y-131793333D01*
X213220952Y-131602857D01*
X213268571Y-131507619D01*
X213316190Y-131460000D01*
X213411428Y-131412380D01*
X214220952Y-132412380D02*
X214411428Y-132412380D01*
X214506666Y-132364761D01*
X214554285Y-132317142D01*
X214649523Y-132174285D01*
X214697142Y-131983809D01*
X214697142Y-131602857D01*
X214649523Y-131507619D01*
X214601904Y-131460000D01*
X214506666Y-131412380D01*
X214316190Y-131412380D01*
X214220952Y-131460000D01*
X214173333Y-131507619D01*
X214125714Y-131602857D01*
X214125714Y-131840952D01*
X214173333Y-131936190D01*
X214220952Y-131983809D01*
X214316190Y-132031428D01*
X214506666Y-132031428D01*
X214601904Y-131983809D01*
X214649523Y-131936190D01*
X214697142Y-131840952D01*
D12*
X133074285Y-71172857D02*
X133074285Y-69972857D01*
X133474285Y-70830000D01*
X133874285Y-69972857D01*
X133874285Y-71172857D01*
X134960000Y-71172857D02*
X134960000Y-70544285D01*
X134902857Y-70430000D01*
X134788571Y-70372857D01*
X134560000Y-70372857D01*
X134445714Y-70430000D01*
X134960000Y-71115714D02*
X134845714Y-71172857D01*
X134560000Y-71172857D01*
X134445714Y-71115714D01*
X134388571Y-71001428D01*
X134388571Y-70887142D01*
X134445714Y-70772857D01*
X134560000Y-70715714D01*
X134845714Y-70715714D01*
X134960000Y-70658571D01*
X135417142Y-71172857D02*
X136045714Y-70372857D01*
X135417142Y-70372857D02*
X136045714Y-71172857D01*
X136502857Y-71172857D02*
X136502857Y-70372857D01*
X136502857Y-69972857D02*
X136445714Y-70030000D01*
X136502857Y-70087142D01*
X136560000Y-70030000D01*
X136502857Y-69972857D01*
X136502857Y-70087142D01*
X137074285Y-71172857D02*
X137074285Y-70372857D01*
X137074285Y-70487142D02*
X137131428Y-70430000D01*
X137245714Y-70372857D01*
X137417142Y-70372857D01*
X137531428Y-70430000D01*
X137588571Y-70544285D01*
X137588571Y-71172857D01*
X137588571Y-70544285D02*
X137645714Y-70430000D01*
X137760000Y-70372857D01*
X137931428Y-70372857D01*
X138045714Y-70430000D01*
X138102857Y-70544285D01*
X138102857Y-71172857D01*
X138674285Y-71172857D02*
X138674285Y-70372857D01*
X138674285Y-69972857D02*
X138617142Y-70030000D01*
X138674285Y-70087142D01*
X138731428Y-70030000D01*
X138674285Y-69972857D01*
X138674285Y-70087142D01*
X139417142Y-71172857D02*
X139302857Y-71115714D01*
X139245714Y-71001428D01*
X139245714Y-69972857D01*
X139874285Y-71172857D02*
X139874285Y-70372857D01*
X139874285Y-69972857D02*
X139817142Y-70030000D01*
X139874285Y-70087142D01*
X139931428Y-70030000D01*
X139874285Y-69972857D01*
X139874285Y-70087142D01*
X140960000Y-71172857D02*
X140960000Y-70544285D01*
X140902857Y-70430000D01*
X140788571Y-70372857D01*
X140560000Y-70372857D01*
X140445714Y-70430000D01*
X140960000Y-71115714D02*
X140845714Y-71172857D01*
X140560000Y-71172857D01*
X140445714Y-71115714D01*
X140388571Y-71001428D01*
X140388571Y-70887142D01*
X140445714Y-70772857D01*
X140560000Y-70715714D01*
X140845714Y-70715714D01*
X140960000Y-70658571D01*
X141531428Y-70372857D02*
X141531428Y-71172857D01*
X141531428Y-70487142D02*
X141588571Y-70430000D01*
X141702857Y-70372857D01*
X141874285Y-70372857D01*
X141988571Y-70430000D01*
X142045714Y-70544285D01*
X142045714Y-71172857D01*
X143931428Y-70544285D02*
X144102857Y-70601428D01*
X144160000Y-70658571D01*
X144217142Y-70772857D01*
X144217142Y-70944285D01*
X144160000Y-71058571D01*
X144102857Y-71115714D01*
X143988571Y-71172857D01*
X143531428Y-71172857D01*
X143531428Y-69972857D01*
X143931428Y-69972857D01*
X144045714Y-70030000D01*
X144102857Y-70087142D01*
X144160000Y-70201428D01*
X144160000Y-70315714D01*
X144102857Y-70430000D01*
X144045714Y-70487142D01*
X143931428Y-70544285D01*
X143531428Y-70544285D01*
X145188571Y-71115714D02*
X145074285Y-71172857D01*
X144845714Y-71172857D01*
X144731428Y-71115714D01*
X144674285Y-71001428D01*
X144674285Y-70544285D01*
X144731428Y-70430000D01*
X144845714Y-70372857D01*
X145074285Y-70372857D01*
X145188571Y-70430000D01*
X145245714Y-70544285D01*
X145245714Y-70658571D01*
X144674285Y-70772857D01*
X145588571Y-70372857D02*
X146045714Y-70372857D01*
X145760000Y-69972857D02*
X145760000Y-71001428D01*
X145817142Y-71115714D01*
X145931428Y-71172857D01*
X146045714Y-71172857D01*
X146331428Y-70372857D02*
X146960000Y-70372857D01*
X146331428Y-71172857D01*
X146960000Y-71172857D01*
D11*
X133040476Y-68625714D02*
X133040476Y-69625714D01*
X133040476Y-68673333D02*
X133135714Y-68625714D01*
X133326190Y-68625714D01*
X133421428Y-68673333D01*
X133469047Y-68720952D01*
X133516666Y-68816190D01*
X133516666Y-69101904D01*
X133469047Y-69197142D01*
X133421428Y-69244761D01*
X133326190Y-69292380D01*
X133135714Y-69292380D01*
X133040476Y-69244761D01*
X134373809Y-69244761D02*
X134278571Y-69292380D01*
X134088095Y-69292380D01*
X133992857Y-69244761D01*
X133945238Y-69197142D01*
X133897619Y-69101904D01*
X133897619Y-68816190D01*
X133945238Y-68720952D01*
X133992857Y-68673333D01*
X134088095Y-68625714D01*
X134278571Y-68625714D01*
X134373809Y-68673333D01*
X134802380Y-69292380D02*
X134802380Y-68292380D01*
X134802380Y-68673333D02*
X134897619Y-68625714D01*
X135088095Y-68625714D01*
X135183333Y-68673333D01*
X135230952Y-68720952D01*
X135278571Y-68816190D01*
X135278571Y-69101904D01*
X135230952Y-69197142D01*
X135183333Y-69244761D01*
X135088095Y-69292380D01*
X134897619Y-69292380D01*
X134802380Y-69244761D01*
X135707142Y-69292380D02*
X135707142Y-68292380D01*
X135945238Y-68292380D01*
X136088095Y-68340000D01*
X136183333Y-68435238D01*
X136230952Y-68530476D01*
X136278571Y-68720952D01*
X136278571Y-68863809D01*
X136230952Y-69054285D01*
X136183333Y-69149523D01*
X136088095Y-69244761D01*
X135945238Y-69292380D01*
X135707142Y-69292380D01*
X137088095Y-69244761D02*
X136992857Y-69292380D01*
X136802380Y-69292380D01*
X136707142Y-69244761D01*
X136659523Y-69149523D01*
X136659523Y-68768571D01*
X136707142Y-68673333D01*
X136802380Y-68625714D01*
X136992857Y-68625714D01*
X137088095Y-68673333D01*
X137135714Y-68768571D01*
X137135714Y-68863809D01*
X136659523Y-68959047D01*
X137516666Y-69244761D02*
X137611904Y-69292380D01*
X137802380Y-69292380D01*
X137897619Y-69244761D01*
X137945238Y-69149523D01*
X137945238Y-69101904D01*
X137897619Y-69006666D01*
X137802380Y-68959047D01*
X137659523Y-68959047D01*
X137564285Y-68911428D01*
X137516666Y-68816190D01*
X137516666Y-68768571D01*
X137564285Y-68673333D01*
X137659523Y-68625714D01*
X137802380Y-68625714D01*
X137897619Y-68673333D01*
X138373809Y-69292380D02*
X138373809Y-68625714D01*
X138373809Y-68292380D02*
X138326190Y-68340000D01*
X138373809Y-68387619D01*
X138421428Y-68340000D01*
X138373809Y-68292380D01*
X138373809Y-68387619D01*
X139278571Y-68625714D02*
X139278571Y-69435238D01*
X139230952Y-69530476D01*
X139183333Y-69578095D01*
X139088095Y-69625714D01*
X138945238Y-69625714D01*
X138850000Y-69578095D01*
X139278571Y-69244761D02*
X139183333Y-69292380D01*
X138992857Y-69292380D01*
X138897619Y-69244761D01*
X138850000Y-69197142D01*
X138802380Y-69101904D01*
X138802380Y-68816190D01*
X138850000Y-68720952D01*
X138897619Y-68673333D01*
X138992857Y-68625714D01*
X139183333Y-68625714D01*
X139278571Y-68673333D01*
X139754761Y-68625714D02*
X139754761Y-69292380D01*
X139754761Y-68720952D02*
X139802380Y-68673333D01*
X139897619Y-68625714D01*
X140040476Y-68625714D01*
X140135714Y-68673333D01*
X140183333Y-68768571D01*
X140183333Y-69292380D01*
X140659523Y-69197142D02*
X140707142Y-69244761D01*
X140659523Y-69292380D01*
X140611904Y-69244761D01*
X140659523Y-69197142D01*
X140659523Y-69292380D01*
X140659523Y-68673333D02*
X140707142Y-68720952D01*
X140659523Y-68768571D01*
X140611904Y-68720952D01*
X140659523Y-68673333D01*
X140659523Y-68768571D01*
D10*
X171589047Y-131959523D02*
X171874761Y-132054761D01*
X172350952Y-132054761D01*
X172541428Y-131959523D01*
X172636666Y-131864285D01*
X172731904Y-131673809D01*
X172731904Y-131483333D01*
X172636666Y-131292857D01*
X172541428Y-131197619D01*
X172350952Y-131102380D01*
X171970000Y-131007142D01*
X171779523Y-130911904D01*
X171684285Y-130816666D01*
X171589047Y-130626190D01*
X171589047Y-130435714D01*
X171684285Y-130245238D01*
X171779523Y-130150000D01*
X171970000Y-130054761D01*
X172446190Y-130054761D01*
X172731904Y-130150000D01*
X173970000Y-130054761D02*
X174350952Y-130054761D01*
X174541428Y-130150000D01*
X174731904Y-130340476D01*
X174827142Y-130721428D01*
X174827142Y-131388095D01*
X174731904Y-131769047D01*
X174541428Y-131959523D01*
X174350952Y-132054761D01*
X173970000Y-132054761D01*
X173779523Y-131959523D01*
X173589047Y-131769047D01*
X173493809Y-131388095D01*
X173493809Y-130721428D01*
X173589047Y-130340476D01*
X173779523Y-130150000D01*
X173970000Y-130054761D01*
X175589047Y-131483333D02*
X176541428Y-131483333D01*
X175398571Y-132054761D02*
X176065238Y-130054761D01*
X176731904Y-132054761D01*
X178541428Y-132054761D02*
X177874761Y-131102380D01*
X177398571Y-132054761D02*
X177398571Y-130054761D01*
X178160476Y-130054761D01*
X178350952Y-130150000D01*
X178446190Y-130245238D01*
X178541428Y-130435714D01*
X178541428Y-130721428D01*
X178446190Y-130911904D01*
X178350952Y-131007142D01*
X178160476Y-131102380D01*
X177398571Y-131102380D01*
X180922380Y-132054761D02*
X180922380Y-130054761D01*
X181874761Y-132054761D02*
X181874761Y-130054761D01*
X183017619Y-132054761D01*
X183017619Y-130054761D01*
X183874761Y-131959523D02*
X184160476Y-132054761D01*
X184636666Y-132054761D01*
X184827142Y-131959523D01*
X184922380Y-131864285D01*
X185017619Y-131673809D01*
X185017619Y-131483333D01*
X184922380Y-131292857D01*
X184827142Y-131197619D01*
X184636666Y-131102380D01*
X184255714Y-131007142D01*
X184065238Y-130911904D01*
X183970000Y-130816666D01*
X183874761Y-130626190D01*
X183874761Y-130435714D01*
X183970000Y-130245238D01*
X184065238Y-130150000D01*
X184255714Y-130054761D01*
X184731904Y-130054761D01*
X185017619Y-130150000D01*
X185589047Y-130054761D02*
X186731904Y-130054761D01*
X186160476Y-132054761D02*
X186160476Y-130054761D01*
X188541428Y-132054761D02*
X187874761Y-131102380D01*
X187398571Y-132054761D02*
X187398571Y-130054761D01*
X188160476Y-130054761D01*
X188350952Y-130150000D01*
X188446190Y-130245238D01*
X188541428Y-130435714D01*
X188541428Y-130721428D01*
X188446190Y-130911904D01*
X188350952Y-131007142D01*
X188160476Y-131102380D01*
X187398571Y-131102380D01*
X189398571Y-130054761D02*
X189398571Y-131673809D01*
X189493809Y-131864285D01*
X189589047Y-131959523D01*
X189779523Y-132054761D01*
X190160476Y-132054761D01*
X190350952Y-131959523D01*
X190446190Y-131864285D01*
X190541428Y-131673809D01*
X190541428Y-130054761D01*
X191493809Y-132054761D02*
X191493809Y-130054761D01*
X192160476Y-131483333D01*
X192827142Y-130054761D01*
X192827142Y-132054761D01*
X193779523Y-131007142D02*
X194446190Y-131007142D01*
X194731904Y-132054761D02*
X193779523Y-132054761D01*
X193779523Y-130054761D01*
X194731904Y-130054761D01*
X195589047Y-132054761D02*
X195589047Y-130054761D01*
X196731904Y-132054761D01*
X196731904Y-130054761D01*
X197398571Y-130054761D02*
X198541428Y-130054761D01*
X197970000Y-132054761D02*
X197970000Y-130054761D01*
D11*
X184246190Y-113092380D02*
X184246190Y-112092380D01*
X184627142Y-112092380D01*
X184722380Y-112140000D01*
X184770000Y-112187619D01*
X184817619Y-112282857D01*
X184817619Y-112425714D01*
X184770000Y-112520952D01*
X184722380Y-112568571D01*
X184627142Y-112616190D01*
X184246190Y-112616190D01*
X185246190Y-113092380D02*
X185246190Y-112425714D01*
X185246190Y-112092380D02*
X185198571Y-112140000D01*
X185246190Y-112187619D01*
X185293809Y-112140000D01*
X185246190Y-112092380D01*
X185246190Y-112187619D01*
X185579523Y-112425714D02*
X185960476Y-112425714D01*
X185722380Y-112092380D02*
X185722380Y-112949523D01*
X185770000Y-113044761D01*
X185865238Y-113092380D01*
X185960476Y-113092380D01*
X186436666Y-113092380D02*
X186341428Y-113044761D01*
X186293809Y-112997142D01*
X186246190Y-112901904D01*
X186246190Y-112616190D01*
X186293809Y-112520952D01*
X186341428Y-112473333D01*
X186436666Y-112425714D01*
X186579523Y-112425714D01*
X186674761Y-112473333D01*
X186722380Y-112520952D01*
X186770000Y-112616190D01*
X186770000Y-112901904D01*
X186722380Y-112997142D01*
X186674761Y-113044761D01*
X186579523Y-113092380D01*
X186436666Y-113092380D01*
X187055714Y-112425714D02*
X187436666Y-112425714D01*
X187198571Y-112092380D02*
X187198571Y-112949523D01*
X187246190Y-113044761D01*
X187341428Y-113092380D01*
X187436666Y-113092380D01*
D13*
X216127619Y-46162380D02*
X216794285Y-46162380D01*
X216127619Y-47162380D01*
X216794285Y-47162380D01*
X217175238Y-46781428D02*
X217937142Y-46781428D01*
X217556190Y-47162380D02*
X217556190Y-46400476D01*
X214390000Y-46607142D02*
X214437619Y-46654761D01*
X214390000Y-46702380D01*
X214342380Y-46654761D01*
X214390000Y-46607142D01*
X214390000Y-46702380D01*
D14*
X215390000Y-46650000D02*
G75*
G03*
X215390000Y-46650000I-1000000J0D01*
G01*
D13*
X213790952Y-52886190D02*
X213790952Y-53362380D01*
X213457619Y-52362380D02*
X213790952Y-52886190D01*
X214124285Y-52362380D01*
X214457619Y-52981428D02*
X215219523Y-52981428D01*
X214838571Y-53362380D02*
X214838571Y-52600476D01*
X206787619Y-46002380D02*
X207454285Y-47002380D01*
X207454285Y-46002380D02*
X206787619Y-47002380D01*
X207835238Y-46621428D02*
X208597142Y-46621428D01*
X208216190Y-47002380D02*
X208216190Y-46240476D01*
D14*
X214390000Y-51650000D02*
X215390000Y-50650000D01*
X214390000Y-51650000D02*
X213390000Y-50650000D01*
X214390000Y-47650000D02*
X214390000Y-51650000D01*
X209390000Y-46650000D02*
X210390000Y-47650000D01*
X209390000Y-46650000D02*
X210390000Y-45650000D01*
X213390000Y-46650000D02*
X209390000Y-46650000D01*
D11*
X170570000Y-55482142D02*
X170522380Y-55529761D01*
X170379523Y-55577380D01*
X170284285Y-55577380D01*
X170141428Y-55529761D01*
X170046190Y-55434523D01*
X169998571Y-55339285D01*
X169950952Y-55148809D01*
X169950952Y-55005952D01*
X169998571Y-54815476D01*
X170046190Y-54720238D01*
X170141428Y-54625000D01*
X170284285Y-54577380D01*
X170379523Y-54577380D01*
X170522380Y-54625000D01*
X170570000Y-54672619D01*
X170950952Y-55291666D02*
X171427142Y-55291666D01*
X170855714Y-55577380D02*
X171189047Y-54577380D01*
X171522380Y-55577380D01*
X171855714Y-55577380D02*
X171855714Y-54577380D01*
X172427142Y-55577380D01*
X172427142Y-54577380D01*
X173427142Y-55577380D02*
X172855714Y-55577380D01*
X173141428Y-55577380D02*
X173141428Y-54577380D01*
X173046190Y-54720238D01*
X172950952Y-54815476D01*
X172855714Y-54863095D01*
X170379523Y-56227380D02*
X170950952Y-56227380D01*
X170665238Y-57227380D02*
X170665238Y-56227380D01*
X171665238Y-57179761D02*
X171570000Y-57227380D01*
X171379523Y-57227380D01*
X171284285Y-57179761D01*
X171236666Y-57084523D01*
X171236666Y-56703571D01*
X171284285Y-56608333D01*
X171379523Y-56560714D01*
X171570000Y-56560714D01*
X171665238Y-56608333D01*
X171712857Y-56703571D01*
X171712857Y-56798809D01*
X171236666Y-56894047D01*
X172141428Y-57227380D02*
X172141428Y-56560714D01*
X172141428Y-56751190D02*
X172189047Y-56655952D01*
X172236666Y-56608333D01*
X172331904Y-56560714D01*
X172427142Y-56560714D01*
X172760476Y-57227380D02*
X172760476Y-56560714D01*
X172760476Y-56655952D02*
X172808095Y-56608333D01*
X172903333Y-56560714D01*
X173046190Y-56560714D01*
X173141428Y-56608333D01*
X173189047Y-56703571D01*
X173189047Y-57227380D01*
X173189047Y-56703571D02*
X173236666Y-56608333D01*
X173331904Y-56560714D01*
X173474761Y-56560714D01*
X173570000Y-56608333D01*
X173617619Y-56703571D01*
X173617619Y-57227380D01*
X130690952Y-88702380D02*
X130214761Y-88702380D01*
X130214761Y-87702380D01*
X131024285Y-88178571D02*
X131357619Y-88178571D01*
X131500476Y-88702380D02*
X131024285Y-88702380D01*
X131024285Y-87702380D01*
X131500476Y-87702380D01*
X131929047Y-88702380D02*
X131929047Y-87702380D01*
X132167142Y-87702380D01*
X132310000Y-87750000D01*
X132405238Y-87845238D01*
X132452857Y-87940476D01*
X132500476Y-88130952D01*
X132500476Y-88273809D01*
X132452857Y-88464285D01*
X132405238Y-88559523D01*
X132310000Y-88654761D01*
X132167142Y-88702380D01*
X131929047Y-88702380D01*
X132833809Y-87702380D02*
X133452857Y-87702380D01*
X133119523Y-88083333D01*
X133262380Y-88083333D01*
X133357619Y-88130952D01*
X133405238Y-88178571D01*
X133452857Y-88273809D01*
X133452857Y-88511904D01*
X133405238Y-88607142D01*
X133357619Y-88654761D01*
X133262380Y-88702380D01*
X132976666Y-88702380D01*
X132881428Y-88654761D01*
X132833809Y-88607142D01*
X130670952Y-82582380D02*
X130194761Y-82582380D01*
X130194761Y-81582380D01*
X131004285Y-82058571D02*
X131337619Y-82058571D01*
X131480476Y-82582380D02*
X131004285Y-82582380D01*
X131004285Y-81582380D01*
X131480476Y-81582380D01*
X131909047Y-82582380D02*
X131909047Y-81582380D01*
X132147142Y-81582380D01*
X132290000Y-81630000D01*
X132385238Y-81725238D01*
X132432857Y-81820476D01*
X132480476Y-82010952D01*
X132480476Y-82153809D01*
X132432857Y-82344285D01*
X132385238Y-82439523D01*
X132290000Y-82534761D01*
X132147142Y-82582380D01*
X131909047Y-82582380D01*
X132861428Y-81677619D02*
X132909047Y-81630000D01*
X133004285Y-81582380D01*
X133242380Y-81582380D01*
X133337619Y-81630000D01*
X133385238Y-81677619D01*
X133432857Y-81772857D01*
X133432857Y-81868095D01*
X133385238Y-82010952D01*
X132813809Y-82582380D01*
X133432857Y-82582380D01*
X130650952Y-76312380D02*
X130174761Y-76312380D01*
X130174761Y-75312380D01*
X130984285Y-75788571D02*
X131317619Y-75788571D01*
X131460476Y-76312380D02*
X130984285Y-76312380D01*
X130984285Y-75312380D01*
X131460476Y-75312380D01*
X131889047Y-76312380D02*
X131889047Y-75312380D01*
X132127142Y-75312380D01*
X132270000Y-75360000D01*
X132365238Y-75455238D01*
X132412857Y-75550476D01*
X132460476Y-75740952D01*
X132460476Y-75883809D01*
X132412857Y-76074285D01*
X132365238Y-76169523D01*
X132270000Y-76264761D01*
X132127142Y-76312380D01*
X131889047Y-76312380D01*
X133412857Y-76312380D02*
X132841428Y-76312380D01*
X133127142Y-76312380D02*
X133127142Y-75312380D01*
X133031904Y-75455238D01*
X132936666Y-75550476D01*
X132841428Y-75598095D01*
X205762380Y-93737142D02*
X205286190Y-94070476D01*
X205762380Y-94308571D02*
X204762380Y-94308571D01*
X204762380Y-93927619D01*
X204810000Y-93832380D01*
X204857619Y-93784761D01*
X204952857Y-93737142D01*
X205095714Y-93737142D01*
X205190952Y-93784761D01*
X205238571Y-93832380D01*
X205286190Y-93927619D01*
X205286190Y-94308571D01*
X204762380Y-93022857D02*
X205476666Y-93022857D01*
X205619523Y-93070476D01*
X205714761Y-93165714D01*
X205762380Y-93308571D01*
X205762380Y-93403809D01*
X205095714Y-92118095D02*
X205762380Y-92118095D01*
X204714761Y-92356190D02*
X205429047Y-92594285D01*
X205429047Y-91975238D01*
X204762380Y-91118095D02*
X204762380Y-91594285D01*
X205238571Y-91641904D01*
X205190952Y-91594285D01*
X205143333Y-91499047D01*
X205143333Y-91260952D01*
X205190952Y-91165714D01*
X205238571Y-91118095D01*
X205333809Y-91070476D01*
X205571904Y-91070476D01*
X205667142Y-91118095D01*
X205714761Y-91165714D01*
X205762380Y-91260952D01*
X205762380Y-91499047D01*
X205714761Y-91594285D01*
X205667142Y-91641904D01*
X205667142Y-89308571D02*
X205714761Y-89356190D01*
X205762380Y-89499047D01*
X205762380Y-89594285D01*
X205714761Y-89737142D01*
X205619523Y-89832380D01*
X205524285Y-89880000D01*
X205333809Y-89927619D01*
X205190952Y-89927619D01*
X205000476Y-89880000D01*
X204905238Y-89832380D01*
X204810000Y-89737142D01*
X204762380Y-89594285D01*
X204762380Y-89499047D01*
X204810000Y-89356190D01*
X204857619Y-89308571D01*
X205476666Y-88927619D02*
X205476666Y-88451428D01*
X205762380Y-89022857D02*
X204762380Y-88689523D01*
X205762380Y-88356190D01*
X205762380Y-88022857D02*
X204762380Y-88022857D01*
X205762380Y-87451428D01*
X204762380Y-87451428D01*
X205892380Y-80098095D02*
X205416190Y-80431428D01*
X205892380Y-80669523D02*
X204892380Y-80669523D01*
X204892380Y-80288571D01*
X204940000Y-80193333D01*
X204987619Y-80145714D01*
X205082857Y-80098095D01*
X205225714Y-80098095D01*
X205320952Y-80145714D01*
X205368571Y-80193333D01*
X205416190Y-80288571D01*
X205416190Y-80669523D01*
X204892380Y-79383809D02*
X205606666Y-79383809D01*
X205749523Y-79431428D01*
X205844761Y-79526666D01*
X205892380Y-79669523D01*
X205892380Y-79764761D01*
X205225714Y-78479047D02*
X205892380Y-78479047D01*
X204844761Y-78717142D02*
X205559047Y-78955238D01*
X205559047Y-78336190D01*
X204892380Y-77479047D02*
X204892380Y-77955238D01*
X205368571Y-78002857D01*
X205320952Y-77955238D01*
X205273333Y-77860000D01*
X205273333Y-77621904D01*
X205320952Y-77526666D01*
X205368571Y-77479047D01*
X205463809Y-77431428D01*
X205701904Y-77431428D01*
X205797142Y-77479047D01*
X205844761Y-77526666D01*
X205892380Y-77621904D01*
X205892380Y-77860000D01*
X205844761Y-77955238D01*
X205797142Y-78002857D01*
X205511428Y-77002857D02*
X205511428Y-76240952D01*
X205892380Y-75764761D02*
X204892380Y-75764761D01*
X204940000Y-74764761D02*
X204892380Y-74860000D01*
X204892380Y-75002857D01*
X204940000Y-75145714D01*
X205035238Y-75240952D01*
X205130476Y-75288571D01*
X205320952Y-75336190D01*
X205463809Y-75336190D01*
X205654285Y-75288571D01*
X205749523Y-75240952D01*
X205844761Y-75145714D01*
X205892380Y-75002857D01*
X205892380Y-74907619D01*
X205844761Y-74764761D01*
X205797142Y-74717142D01*
X205463809Y-74717142D01*
X205463809Y-74907619D01*
X205797142Y-73717142D02*
X205844761Y-73764761D01*
X205892380Y-73907619D01*
X205892380Y-74002857D01*
X205844761Y-74145714D01*
X205749523Y-74240952D01*
X205654285Y-74288571D01*
X205463809Y-74336190D01*
X205320952Y-74336190D01*
X205130476Y-74288571D01*
X205035238Y-74240952D01*
X204940000Y-74145714D01*
X204892380Y-74002857D01*
X204892380Y-73907619D01*
X204940000Y-73764761D01*
X204987619Y-73717142D01*
X204987619Y-72574285D02*
X204940000Y-72526666D01*
X204892380Y-72431428D01*
X204892380Y-72193333D01*
X204940000Y-72098095D01*
X204987619Y-72050476D01*
X205082857Y-72002857D01*
X205178095Y-72002857D01*
X205320952Y-72050476D01*
X205892380Y-72621904D01*
X205892380Y-72002857D01*
X205952380Y-65798095D02*
X205476190Y-66131428D01*
X205952380Y-66369523D02*
X204952380Y-66369523D01*
X204952380Y-65988571D01*
X205000000Y-65893333D01*
X205047619Y-65845714D01*
X205142857Y-65798095D01*
X205285714Y-65798095D01*
X205380952Y-65845714D01*
X205428571Y-65893333D01*
X205476190Y-65988571D01*
X205476190Y-66369523D01*
X204952380Y-65083809D02*
X205666666Y-65083809D01*
X205809523Y-65131428D01*
X205904761Y-65226666D01*
X205952380Y-65369523D01*
X205952380Y-65464761D01*
X205285714Y-64179047D02*
X205952380Y-64179047D01*
X204904761Y-64417142D02*
X205619047Y-64655238D01*
X205619047Y-64036190D01*
X204952380Y-63179047D02*
X204952380Y-63655238D01*
X205428571Y-63702857D01*
X205380952Y-63655238D01*
X205333333Y-63560000D01*
X205333333Y-63321904D01*
X205380952Y-63226666D01*
X205428571Y-63179047D01*
X205523809Y-63131428D01*
X205761904Y-63131428D01*
X205857142Y-63179047D01*
X205904761Y-63226666D01*
X205952380Y-63321904D01*
X205952380Y-63560000D01*
X205904761Y-63655238D01*
X205857142Y-63702857D01*
X205571428Y-62702857D02*
X205571428Y-61940952D01*
X205952380Y-61464761D02*
X204952380Y-61464761D01*
X205000000Y-60464761D02*
X204952380Y-60560000D01*
X204952380Y-60702857D01*
X205000000Y-60845714D01*
X205095238Y-60940952D01*
X205190476Y-60988571D01*
X205380952Y-61036190D01*
X205523809Y-61036190D01*
X205714285Y-60988571D01*
X205809523Y-60940952D01*
X205904761Y-60845714D01*
X205952380Y-60702857D01*
X205952380Y-60607619D01*
X205904761Y-60464761D01*
X205857142Y-60417142D01*
X205523809Y-60417142D01*
X205523809Y-60607619D01*
X205857142Y-59417142D02*
X205904761Y-59464761D01*
X205952380Y-59607619D01*
X205952380Y-59702857D01*
X205904761Y-59845714D01*
X205809523Y-59940952D01*
X205714285Y-59988571D01*
X205523809Y-60036190D01*
X205380952Y-60036190D01*
X205190476Y-59988571D01*
X205095238Y-59940952D01*
X205000000Y-59845714D01*
X204952380Y-59702857D01*
X204952380Y-59607619D01*
X205000000Y-59464761D01*
X205047619Y-59417142D01*
X205952380Y-57702857D02*
X205952380Y-58274285D01*
X205952380Y-57988571D02*
X204952380Y-57988571D01*
X205095238Y-58083809D01*
X205190476Y-58179047D01*
X205238095Y-58274285D01*
X204233809Y-101638333D02*
X204614761Y-101638333D01*
X204157619Y-101866904D02*
X204424285Y-101066904D01*
X204690952Y-101866904D01*
X205300476Y-101828809D02*
X205224285Y-101866904D01*
X205071904Y-101866904D01*
X204995714Y-101828809D01*
X204957619Y-101790714D01*
X204919523Y-101714523D01*
X204919523Y-101485952D01*
X204957619Y-101409761D01*
X204995714Y-101371666D01*
X205071904Y-101333571D01*
X205224285Y-101333571D01*
X205300476Y-101371666D01*
X205986190Y-101828809D02*
X205910000Y-101866904D01*
X205757619Y-101866904D01*
X205681428Y-101828809D01*
X205643333Y-101790714D01*
X205605238Y-101714523D01*
X205605238Y-101485952D01*
X205643333Y-101409761D01*
X205681428Y-101371666D01*
X205757619Y-101333571D01*
X205910000Y-101333571D01*
X205986190Y-101371666D01*
X204119523Y-103216904D02*
X204119523Y-102416904D01*
X204386190Y-102988333D01*
X204652857Y-102416904D01*
X204652857Y-103216904D01*
X205376666Y-103216904D02*
X205376666Y-102797857D01*
X205338571Y-102721666D01*
X205262380Y-102683571D01*
X205110000Y-102683571D01*
X205033809Y-102721666D01*
X205376666Y-103178809D02*
X205300476Y-103216904D01*
X205110000Y-103216904D01*
X205033809Y-103178809D01*
X204995714Y-103102619D01*
X204995714Y-103026428D01*
X205033809Y-102950238D01*
X205110000Y-102912142D01*
X205300476Y-102912142D01*
X205376666Y-102874047D01*
X206100476Y-102683571D02*
X206100476Y-103331190D01*
X206062380Y-103407380D01*
X206024285Y-103445476D01*
X205948095Y-103483571D01*
X205833809Y-103483571D01*
X205757619Y-103445476D01*
X206100476Y-103178809D02*
X206024285Y-103216904D01*
X205871904Y-103216904D01*
X205795714Y-103178809D01*
X205757619Y-103140714D01*
X205719523Y-103064523D01*
X205719523Y-102835952D01*
X205757619Y-102759761D01*
X205795714Y-102721666D01*
X205871904Y-102683571D01*
X206024285Y-102683571D01*
X206100476Y-102721666D01*
X203269047Y-96020000D02*
X203173809Y-95972380D01*
X203030952Y-95972380D01*
X202888095Y-96020000D01*
X202792857Y-96115238D01*
X202745238Y-96210476D01*
X202697619Y-96400952D01*
X202697619Y-96543809D01*
X202745238Y-96734285D01*
X202792857Y-96829523D01*
X202888095Y-96924761D01*
X203030952Y-96972380D01*
X203126190Y-96972380D01*
X203269047Y-96924761D01*
X203316666Y-96877142D01*
X203316666Y-96543809D01*
X203126190Y-96543809D01*
X203650000Y-96305714D02*
X203888095Y-96972380D01*
X204126190Y-96305714D02*
X203888095Y-96972380D01*
X203792857Y-97210476D01*
X203745238Y-97258095D01*
X203650000Y-97305714D01*
X204507142Y-96972380D02*
X204507142Y-96305714D01*
X204507142Y-96496190D02*
X204554761Y-96400952D01*
X204602380Y-96353333D01*
X204697619Y-96305714D01*
X204792857Y-96305714D01*
X205269047Y-96972380D02*
X205173809Y-96924761D01*
X205126190Y-96877142D01*
X205078571Y-96781904D01*
X205078571Y-96496190D01*
X205126190Y-96400952D01*
X205173809Y-96353333D01*
X205269047Y-96305714D01*
X205411904Y-96305714D01*
X205507142Y-96353333D01*
X205554761Y-96400952D01*
X205602380Y-96496190D01*
X205602380Y-96781904D01*
X205554761Y-96877142D01*
X205507142Y-96924761D01*
X205411904Y-96972380D01*
X205269047Y-96972380D01*
X183302380Y-114322380D02*
X183302380Y-113322380D01*
X183683333Y-113322380D01*
X183778571Y-113370000D01*
X183826190Y-113417619D01*
X183873809Y-113512857D01*
X183873809Y-113655714D01*
X183826190Y-113750952D01*
X183778571Y-113798571D01*
X183683333Y-113846190D01*
X183302380Y-113846190D01*
X184302380Y-114322380D02*
X184302380Y-113655714D01*
X184302380Y-113846190D02*
X184350000Y-113750952D01*
X184397619Y-113703333D01*
X184492857Y-113655714D01*
X184588095Y-113655714D01*
X185302380Y-114274761D02*
X185207142Y-114322380D01*
X185016666Y-114322380D01*
X184921428Y-114274761D01*
X184873809Y-114179523D01*
X184873809Y-113798571D01*
X184921428Y-113703333D01*
X185016666Y-113655714D01*
X185207142Y-113655714D01*
X185302380Y-113703333D01*
X185350000Y-113798571D01*
X185350000Y-113893809D01*
X184873809Y-113989047D01*
X185730952Y-114274761D02*
X185826190Y-114322380D01*
X186016666Y-114322380D01*
X186111904Y-114274761D01*
X186159523Y-114179523D01*
X186159523Y-114131904D01*
X186111904Y-114036666D01*
X186016666Y-113989047D01*
X185873809Y-113989047D01*
X185778571Y-113941428D01*
X185730952Y-113846190D01*
X185730952Y-113798571D01*
X185778571Y-113703333D01*
X185873809Y-113655714D01*
X186016666Y-113655714D01*
X186111904Y-113703333D01*
X186540476Y-114274761D02*
X186635714Y-114322380D01*
X186826190Y-114322380D01*
X186921428Y-114274761D01*
X186969047Y-114179523D01*
X186969047Y-114131904D01*
X186921428Y-114036666D01*
X186826190Y-113989047D01*
X186683333Y-113989047D01*
X186588095Y-113941428D01*
X186540476Y-113846190D01*
X186540476Y-113798571D01*
X186588095Y-113703333D01*
X186683333Y-113655714D01*
X186826190Y-113655714D01*
X186921428Y-113703333D01*
X187826190Y-113655714D02*
X187826190Y-114322380D01*
X187397619Y-113655714D02*
X187397619Y-114179523D01*
X187445238Y-114274761D01*
X187540476Y-114322380D01*
X187683333Y-114322380D01*
X187778571Y-114274761D01*
X187826190Y-114227142D01*
X188302380Y-114322380D02*
X188302380Y-113655714D01*
X188302380Y-113846190D02*
X188350000Y-113750952D01*
X188397619Y-113703333D01*
X188492857Y-113655714D01*
X188588095Y-113655714D01*
X189302380Y-114274761D02*
X189207142Y-114322380D01*
X189016666Y-114322380D01*
X188921428Y-114274761D01*
X188873809Y-114179523D01*
X188873809Y-113798571D01*
X188921428Y-113703333D01*
X189016666Y-113655714D01*
X189207142Y-113655714D01*
X189302380Y-113703333D01*
X189350000Y-113798571D01*
X189350000Y-113893809D01*
X188873809Y-113989047D01*
X190492857Y-114036666D02*
X190969047Y-114036666D01*
X190397619Y-114322380D02*
X190730952Y-113322380D01*
X191064285Y-114322380D01*
X191397619Y-114322380D02*
X191397619Y-113322380D01*
X191397619Y-113703333D02*
X191492857Y-113655714D01*
X191683333Y-113655714D01*
X191778571Y-113703333D01*
X191826190Y-113750952D01*
X191873809Y-113846190D01*
X191873809Y-114131904D01*
X191826190Y-114227142D01*
X191778571Y-114274761D01*
X191683333Y-114322380D01*
X191492857Y-114322380D01*
X191397619Y-114274761D01*
X192254761Y-114274761D02*
X192350000Y-114322380D01*
X192540476Y-114322380D01*
X192635714Y-114274761D01*
X192683333Y-114179523D01*
X192683333Y-114131904D01*
X192635714Y-114036666D01*
X192540476Y-113989047D01*
X192397619Y-113989047D01*
X192302380Y-113941428D01*
X192254761Y-113846190D01*
X192254761Y-113798571D01*
X192302380Y-113703333D01*
X192397619Y-113655714D01*
X192540476Y-113655714D01*
X192635714Y-113703333D01*
X193254761Y-114322380D02*
X193159523Y-114274761D01*
X193111904Y-114227142D01*
X193064285Y-114131904D01*
X193064285Y-113846190D01*
X193111904Y-113750952D01*
X193159523Y-113703333D01*
X193254761Y-113655714D01*
X193397619Y-113655714D01*
X193492857Y-113703333D01*
X193540476Y-113750952D01*
X193588095Y-113846190D01*
X193588095Y-114131904D01*
X193540476Y-114227142D01*
X193492857Y-114274761D01*
X193397619Y-114322380D01*
X193254761Y-114322380D01*
X194159523Y-114322380D02*
X194064285Y-114274761D01*
X194016666Y-114179523D01*
X194016666Y-113322380D01*
X194969047Y-113655714D02*
X194969047Y-114322380D01*
X194540476Y-113655714D02*
X194540476Y-114179523D01*
X194588095Y-114274761D01*
X194683333Y-114322380D01*
X194826190Y-114322380D01*
X194921428Y-114274761D01*
X194969047Y-114227142D01*
X195302380Y-113655714D02*
X195683333Y-113655714D01*
X195445238Y-113322380D02*
X195445238Y-114179523D01*
X195492857Y-114274761D01*
X195588095Y-114322380D01*
X195683333Y-114322380D01*
X196397619Y-114274761D02*
X196302380Y-114322380D01*
X196111904Y-114322380D01*
X196016666Y-114274761D01*
X195969047Y-114179523D01*
X195969047Y-113798571D01*
X196016666Y-113703333D01*
X196111904Y-113655714D01*
X196302380Y-113655714D01*
X196397619Y-113703333D01*
X196445238Y-113798571D01*
X196445238Y-113893809D01*
X195969047Y-113989047D01*
X183084761Y-93474761D02*
X183227619Y-93522380D01*
X183465714Y-93522380D01*
X183560952Y-93474761D01*
X183608571Y-93427142D01*
X183656190Y-93331904D01*
X183656190Y-93236666D01*
X183608571Y-93141428D01*
X183560952Y-93093809D01*
X183465714Y-93046190D01*
X183275238Y-92998571D01*
X183180000Y-92950952D01*
X183132380Y-92903333D01*
X183084761Y-92808095D01*
X183084761Y-92712857D01*
X183132380Y-92617619D01*
X183180000Y-92570000D01*
X183275238Y-92522380D01*
X183513333Y-92522380D01*
X183656190Y-92570000D01*
X183941904Y-92855714D02*
X184322857Y-92855714D01*
X184084761Y-92522380D02*
X184084761Y-93379523D01*
X184132380Y-93474761D01*
X184227619Y-93522380D01*
X184322857Y-93522380D01*
X185084761Y-93522380D02*
X185084761Y-92998571D01*
X185037142Y-92903333D01*
X184941904Y-92855714D01*
X184751428Y-92855714D01*
X184656190Y-92903333D01*
X185084761Y-93474761D02*
X184989523Y-93522380D01*
X184751428Y-93522380D01*
X184656190Y-93474761D01*
X184608571Y-93379523D01*
X184608571Y-93284285D01*
X184656190Y-93189047D01*
X184751428Y-93141428D01*
X184989523Y-93141428D01*
X185084761Y-93093809D01*
X185418095Y-92855714D02*
X185799047Y-92855714D01*
X185560952Y-92522380D02*
X185560952Y-93379523D01*
X185608571Y-93474761D01*
X185703809Y-93522380D01*
X185799047Y-93522380D01*
X186132380Y-93522380D02*
X186132380Y-92855714D01*
X186132380Y-92522380D02*
X186084761Y-92570000D01*
X186132380Y-92617619D01*
X186180000Y-92570000D01*
X186132380Y-92522380D01*
X186132380Y-92617619D01*
X187037142Y-93474761D02*
X186941904Y-93522380D01*
X186751428Y-93522380D01*
X186656190Y-93474761D01*
X186608571Y-93427142D01*
X186560952Y-93331904D01*
X186560952Y-93046190D01*
X186608571Y-92950952D01*
X186656190Y-92903333D01*
X186751428Y-92855714D01*
X186941904Y-92855714D01*
X187037142Y-92903333D01*
X188227619Y-93522380D02*
X188227619Y-92522380D01*
X188608571Y-92522380D01*
X188703809Y-92570000D01*
X188751428Y-92617619D01*
X188799047Y-92712857D01*
X188799047Y-92855714D01*
X188751428Y-92950952D01*
X188703809Y-92998571D01*
X188608571Y-93046190D01*
X188227619Y-93046190D01*
X189227619Y-93522380D02*
X189227619Y-92855714D01*
X189227619Y-93046190D02*
X189275238Y-92950952D01*
X189322857Y-92903333D01*
X189418095Y-92855714D01*
X189513333Y-92855714D01*
X190227619Y-93474761D02*
X190132380Y-93522380D01*
X189941904Y-93522380D01*
X189846666Y-93474761D01*
X189799047Y-93379523D01*
X189799047Y-92998571D01*
X189846666Y-92903333D01*
X189941904Y-92855714D01*
X190132380Y-92855714D01*
X190227619Y-92903333D01*
X190275238Y-92998571D01*
X190275238Y-93093809D01*
X189799047Y-93189047D01*
X190656190Y-93474761D02*
X190751428Y-93522380D01*
X190941904Y-93522380D01*
X191037142Y-93474761D01*
X191084761Y-93379523D01*
X191084761Y-93331904D01*
X191037142Y-93236666D01*
X190941904Y-93189047D01*
X190799047Y-93189047D01*
X190703809Y-93141428D01*
X190656190Y-93046190D01*
X190656190Y-92998571D01*
X190703809Y-92903333D01*
X190799047Y-92855714D01*
X190941904Y-92855714D01*
X191037142Y-92903333D01*
X191465714Y-93474761D02*
X191560952Y-93522380D01*
X191751428Y-93522380D01*
X191846666Y-93474761D01*
X191894285Y-93379523D01*
X191894285Y-93331904D01*
X191846666Y-93236666D01*
X191751428Y-93189047D01*
X191608571Y-93189047D01*
X191513333Y-93141428D01*
X191465714Y-93046190D01*
X191465714Y-92998571D01*
X191513333Y-92903333D01*
X191608571Y-92855714D01*
X191751428Y-92855714D01*
X191846666Y-92903333D01*
X192751428Y-92855714D02*
X192751428Y-93522380D01*
X192322857Y-92855714D02*
X192322857Y-93379523D01*
X192370476Y-93474761D01*
X192465714Y-93522380D01*
X192608571Y-93522380D01*
X192703809Y-93474761D01*
X192751428Y-93427142D01*
X193227619Y-93522380D02*
X193227619Y-92855714D01*
X193227619Y-93046190D02*
X193275238Y-92950952D01*
X193322857Y-92903333D01*
X193418095Y-92855714D01*
X193513333Y-92855714D01*
X194227619Y-93474761D02*
X194132380Y-93522380D01*
X193941904Y-93522380D01*
X193846666Y-93474761D01*
X193799047Y-93379523D01*
X193799047Y-92998571D01*
X193846666Y-92903333D01*
X193941904Y-92855714D01*
X194132380Y-92855714D01*
X194227619Y-92903333D01*
X194275238Y-92998571D01*
X194275238Y-93093809D01*
X193799047Y-93189047D01*
X200317380Y-85708571D02*
X199317380Y-85708571D01*
X199317380Y-85470476D01*
X199365000Y-85327619D01*
X199460238Y-85232380D01*
X199555476Y-85184761D01*
X199745952Y-85137142D01*
X199888809Y-85137142D01*
X200079285Y-85184761D01*
X200174523Y-85232380D01*
X200269761Y-85327619D01*
X200317380Y-85470476D01*
X200317380Y-85708571D01*
X200317380Y-84708571D02*
X199650714Y-84708571D01*
X199317380Y-84708571D02*
X199365000Y-84756190D01*
X199412619Y-84708571D01*
X199365000Y-84660952D01*
X199317380Y-84708571D01*
X199412619Y-84708571D01*
X199650714Y-84375238D02*
X199650714Y-83994285D01*
X200317380Y-84232380D02*
X199460238Y-84232380D01*
X199365000Y-84184761D01*
X199317380Y-84089523D01*
X199317380Y-83994285D01*
X199650714Y-83803809D02*
X199650714Y-83422857D01*
X200317380Y-83660952D02*
X199460238Y-83660952D01*
X199365000Y-83613333D01*
X199317380Y-83518095D01*
X199317380Y-83422857D01*
X200269761Y-82708571D02*
X200317380Y-82803809D01*
X200317380Y-82994285D01*
X200269761Y-83089523D01*
X200174523Y-83137142D01*
X199793571Y-83137142D01*
X199698333Y-83089523D01*
X199650714Y-82994285D01*
X199650714Y-82803809D01*
X199698333Y-82708571D01*
X199793571Y-82660952D01*
X199888809Y-82660952D01*
X199984047Y-83137142D01*
X200317380Y-82232380D02*
X199650714Y-82232380D01*
X199841190Y-82232380D02*
X199745952Y-82184761D01*
X199698333Y-82137142D01*
X199650714Y-82041904D01*
X199650714Y-81946666D01*
X200269761Y-81232380D02*
X200317380Y-81327619D01*
X200317380Y-81518095D01*
X200269761Y-81613333D01*
X200174523Y-81660952D01*
X199793571Y-81660952D01*
X199698333Y-81613333D01*
X199650714Y-81518095D01*
X199650714Y-81327619D01*
X199698333Y-81232380D01*
X199793571Y-81184761D01*
X199888809Y-81184761D01*
X199984047Y-81660952D01*
X199650714Y-80756190D02*
X200317380Y-80756190D01*
X199745952Y-80756190D02*
X199698333Y-80708571D01*
X199650714Y-80613333D01*
X199650714Y-80470476D01*
X199698333Y-80375238D01*
X199793571Y-80327619D01*
X200317380Y-80327619D01*
X199650714Y-79994285D02*
X199650714Y-79613333D01*
X199317380Y-79851428D02*
X200174523Y-79851428D01*
X200269761Y-79803809D01*
X200317380Y-79708571D01*
X200317380Y-79613333D01*
X200317380Y-79280000D02*
X199650714Y-79280000D01*
X199317380Y-79280000D02*
X199365000Y-79327619D01*
X199412619Y-79280000D01*
X199365000Y-79232380D01*
X199317380Y-79280000D01*
X199412619Y-79280000D01*
X200317380Y-78375238D02*
X199793571Y-78375238D01*
X199698333Y-78422857D01*
X199650714Y-78518095D01*
X199650714Y-78708571D01*
X199698333Y-78803809D01*
X200269761Y-78375238D02*
X200317380Y-78470476D01*
X200317380Y-78708571D01*
X200269761Y-78803809D01*
X200174523Y-78851428D01*
X200079285Y-78851428D01*
X199984047Y-78803809D01*
X199936428Y-78708571D01*
X199936428Y-78470476D01*
X199888809Y-78375238D01*
X200317380Y-77756190D02*
X200269761Y-77851428D01*
X200174523Y-77899047D01*
X199317380Y-77899047D01*
X201967380Y-84780000D02*
X200967380Y-84780000D01*
X200967380Y-84399047D01*
X201015000Y-84303809D01*
X201062619Y-84256190D01*
X201157857Y-84208571D01*
X201300714Y-84208571D01*
X201395952Y-84256190D01*
X201443571Y-84303809D01*
X201491190Y-84399047D01*
X201491190Y-84780000D01*
X201967380Y-83780000D02*
X201300714Y-83780000D01*
X201491190Y-83780000D02*
X201395952Y-83732380D01*
X201348333Y-83684761D01*
X201300714Y-83589523D01*
X201300714Y-83494285D01*
X201919761Y-82780000D02*
X201967380Y-82875238D01*
X201967380Y-83065714D01*
X201919761Y-83160952D01*
X201824523Y-83208571D01*
X201443571Y-83208571D01*
X201348333Y-83160952D01*
X201300714Y-83065714D01*
X201300714Y-82875238D01*
X201348333Y-82780000D01*
X201443571Y-82732380D01*
X201538809Y-82732380D01*
X201634047Y-83208571D01*
X201919761Y-82351428D02*
X201967380Y-82256190D01*
X201967380Y-82065714D01*
X201919761Y-81970476D01*
X201824523Y-81922857D01*
X201776904Y-81922857D01*
X201681666Y-81970476D01*
X201634047Y-82065714D01*
X201634047Y-82208571D01*
X201586428Y-82303809D01*
X201491190Y-82351428D01*
X201443571Y-82351428D01*
X201348333Y-82303809D01*
X201300714Y-82208571D01*
X201300714Y-82065714D01*
X201348333Y-81970476D01*
X201919761Y-81541904D02*
X201967380Y-81446666D01*
X201967380Y-81256190D01*
X201919761Y-81160952D01*
X201824523Y-81113333D01*
X201776904Y-81113333D01*
X201681666Y-81160952D01*
X201634047Y-81256190D01*
X201634047Y-81399047D01*
X201586428Y-81494285D01*
X201491190Y-81541904D01*
X201443571Y-81541904D01*
X201348333Y-81494285D01*
X201300714Y-81399047D01*
X201300714Y-81256190D01*
X201348333Y-81160952D01*
X201300714Y-80256190D02*
X201967380Y-80256190D01*
X201300714Y-80684761D02*
X201824523Y-80684761D01*
X201919761Y-80637142D01*
X201967380Y-80541904D01*
X201967380Y-80399047D01*
X201919761Y-80303809D01*
X201872142Y-80256190D01*
X201967380Y-79780000D02*
X201300714Y-79780000D01*
X201491190Y-79780000D02*
X201395952Y-79732380D01*
X201348333Y-79684761D01*
X201300714Y-79589523D01*
X201300714Y-79494285D01*
X201919761Y-78780000D02*
X201967380Y-78875238D01*
X201967380Y-79065714D01*
X201919761Y-79160952D01*
X201824523Y-79208571D01*
X201443571Y-79208571D01*
X201348333Y-79160952D01*
X201300714Y-79065714D01*
X201300714Y-78875238D01*
X201348333Y-78780000D01*
X201443571Y-78732380D01*
X201538809Y-78732380D01*
X201634047Y-79208571D01*
X210225238Y-35982380D02*
X210844285Y-35982380D01*
X210510952Y-36363333D01*
X210653809Y-36363333D01*
X210749047Y-36410952D01*
X210796666Y-36458571D01*
X210844285Y-36553809D01*
X210844285Y-36791904D01*
X210796666Y-36887142D01*
X210749047Y-36934761D01*
X210653809Y-36982380D01*
X210368095Y-36982380D01*
X210272857Y-36934761D01*
X210225238Y-36887142D01*
X211272857Y-36887142D02*
X211320476Y-36934761D01*
X211272857Y-36982380D01*
X211225238Y-36934761D01*
X211272857Y-36887142D01*
X211272857Y-36982380D01*
X211653809Y-35982380D02*
X212272857Y-35982380D01*
X211939523Y-36363333D01*
X212082380Y-36363333D01*
X212177619Y-36410952D01*
X212225238Y-36458571D01*
X212272857Y-36553809D01*
X212272857Y-36791904D01*
X212225238Y-36887142D01*
X212177619Y-36934761D01*
X212082380Y-36982380D01*
X211796666Y-36982380D01*
X211701428Y-36934761D01*
X211653809Y-36887142D01*
X212558571Y-35982380D02*
X212891904Y-36982380D01*
X213225238Y-35982380D01*
X213510952Y-36696666D02*
X213987142Y-36696666D01*
X213415714Y-36982380D02*
X213749047Y-35982380D01*
X214082380Y-36982380D01*
X176440000Y-59407142D02*
X176487619Y-59454761D01*
X176440000Y-59502380D01*
X176392380Y-59454761D01*
X176440000Y-59407142D01*
X176440000Y-59502380D01*
X135965714Y-111930000D02*
X135870476Y-111882380D01*
X135727619Y-111882380D01*
X135584761Y-111930000D01*
X135489523Y-112025238D01*
X135441904Y-112120476D01*
X135394285Y-112310952D01*
X135394285Y-112453809D01*
X135441904Y-112644285D01*
X135489523Y-112739523D01*
X135584761Y-112834761D01*
X135727619Y-112882380D01*
X135822857Y-112882380D01*
X135965714Y-112834761D01*
X136013333Y-112787142D01*
X136013333Y-112453809D01*
X135822857Y-112453809D01*
X136441904Y-112882380D02*
X136441904Y-111882380D01*
X136822857Y-111882380D01*
X136918095Y-111930000D01*
X136965714Y-111977619D01*
X137013333Y-112072857D01*
X137013333Y-112215714D01*
X136965714Y-112310952D01*
X136918095Y-112358571D01*
X136822857Y-112406190D01*
X136441904Y-112406190D01*
X137394285Y-112834761D02*
X137537142Y-112882380D01*
X137775238Y-112882380D01*
X137870476Y-112834761D01*
X137918095Y-112787142D01*
X137965714Y-112691904D01*
X137965714Y-112596666D01*
X137918095Y-112501428D01*
X137870476Y-112453809D01*
X137775238Y-112406190D01*
X137584761Y-112358571D01*
X137489523Y-112310952D01*
X137441904Y-112263333D01*
X137394285Y-112168095D01*
X137394285Y-112072857D01*
X137441904Y-111977619D01*
X137489523Y-111930000D01*
X137584761Y-111882380D01*
X137822857Y-111882380D01*
X137965714Y-111930000D01*
X153720000Y-83247142D02*
X153767619Y-83294761D01*
X153720000Y-83342380D01*
X153672380Y-83294761D01*
X153720000Y-83247142D01*
X153720000Y-83342380D01*
X152040000Y-37547142D02*
X152087619Y-37594761D01*
X152040000Y-37642380D01*
X151992380Y-37594761D01*
X152040000Y-37547142D01*
X152040000Y-37642380D01*
X153550000Y-45397142D02*
X153597619Y-45444761D01*
X153550000Y-45492380D01*
X153502380Y-45444761D01*
X153550000Y-45397142D01*
X153550000Y-45492380D01*
X172540000Y-52117142D02*
X172587619Y-52164761D01*
X172540000Y-52212380D01*
X172492380Y-52164761D01*
X172540000Y-52117142D01*
X172540000Y-52212380D01*
X182020000Y-42087142D02*
X182067619Y-42134761D01*
X182020000Y-42182380D01*
X181972380Y-42134761D01*
X182020000Y-42087142D01*
X182020000Y-42182380D01*
X190170000Y-84527142D02*
X190217619Y-84574761D01*
X190170000Y-84622380D01*
X190122380Y-84574761D01*
X190170000Y-84527142D01*
X190170000Y-84622380D01*
X197700000Y-93907142D02*
X197747619Y-93954761D01*
X197700000Y-94002380D01*
X197652380Y-93954761D01*
X197700000Y-93907142D01*
X197700000Y-94002380D01*
D15*
X199870000Y-102445714D02*
X199941428Y-102517142D01*
X199870000Y-102588571D01*
X199798571Y-102517142D01*
X199870000Y-102445714D01*
X199870000Y-102588571D01*
D11*
X161882380Y-54542380D02*
X161406190Y-54542380D01*
X161358571Y-55018571D01*
X161406190Y-54970952D01*
X161501428Y-54923333D01*
X161739523Y-54923333D01*
X161834761Y-54970952D01*
X161882380Y-55018571D01*
X161930000Y-55113809D01*
X161930000Y-55351904D01*
X161882380Y-55447142D01*
X161834761Y-55494761D01*
X161739523Y-55542380D01*
X161501428Y-55542380D01*
X161406190Y-55494761D01*
X161358571Y-55447142D01*
X162215714Y-54542380D02*
X162549047Y-55542380D01*
X162882380Y-54542380D01*
X163977619Y-55018571D02*
X164310952Y-55018571D01*
X164453809Y-55542380D02*
X163977619Y-55542380D01*
X163977619Y-54542380D01*
X164453809Y-54542380D01*
X164882380Y-55542380D02*
X164882380Y-54542380D01*
X165453809Y-55542380D01*
X165453809Y-54542380D01*
X140959047Y-37051428D02*
X141720952Y-37051428D01*
D16*
X196930000Y-93750000D02*
X181930000Y-93750000D01*
X181930000Y-108750000D02*
X196930000Y-108750000D01*
X196930000Y-108750000D02*
X196930000Y-93750000D01*
X181930000Y-93750000D02*
X181930000Y-108750000D01*
X196930000Y-114560000D02*
X181930000Y-114560000D01*
X196930000Y-129560000D02*
X196930000Y-114560000D01*
X181930000Y-129560000D02*
X196930000Y-129560000D01*
X181930000Y-114560000D02*
X181930000Y-129560000D01*
D11*
X140130000Y-107347142D02*
X140177619Y-107394761D01*
X140130000Y-107442380D01*
X140082380Y-107394761D01*
X140130000Y-107347142D01*
X140130000Y-107442380D01*
X187443333Y-59882380D02*
X186967142Y-59882380D01*
X186967142Y-58882380D01*
X187919523Y-59882380D02*
X187824285Y-59834761D01*
X187776666Y-59787142D01*
X187729047Y-59691904D01*
X187729047Y-59406190D01*
X187776666Y-59310952D01*
X187824285Y-59263333D01*
X187919523Y-59215714D01*
X188062380Y-59215714D01*
X188157619Y-59263333D01*
X188205238Y-59310952D01*
X188252857Y-59406190D01*
X188252857Y-59691904D01*
X188205238Y-59787142D01*
X188157619Y-59834761D01*
X188062380Y-59882380D01*
X187919523Y-59882380D01*
X188586190Y-59215714D02*
X188776666Y-59882380D01*
X188967142Y-59406190D01*
X189157619Y-59882380D01*
X189348095Y-59215714D01*
X217630952Y-103602380D02*
X217630952Y-104316666D01*
X217583333Y-104459523D01*
X217488095Y-104554761D01*
X217345238Y-104602380D01*
X217250000Y-104602380D01*
X218583333Y-104602380D02*
X218107142Y-104602380D01*
X218107142Y-103602380D01*
X219488095Y-104507142D02*
X219440476Y-104554761D01*
X219297619Y-104602380D01*
X219202380Y-104602380D01*
X219059523Y-104554761D01*
X218964285Y-104459523D01*
X218916666Y-104364285D01*
X218869047Y-104173809D01*
X218869047Y-104030952D01*
X218916666Y-103840476D01*
X218964285Y-103745238D01*
X219059523Y-103650000D01*
X219202380Y-103602380D01*
X219297619Y-103602380D01*
X219440476Y-103650000D01*
X219488095Y-103697619D01*
X220202380Y-103602380D02*
X220202380Y-104316666D01*
X220154761Y-104459523D01*
X220059523Y-104554761D01*
X219916666Y-104602380D01*
X219821428Y-104602380D01*
X221154761Y-104602380D02*
X220678571Y-104602380D01*
X220678571Y-103602380D01*
X222059523Y-104507142D02*
X222011904Y-104554761D01*
X221869047Y-104602380D01*
X221773809Y-104602380D01*
X221630952Y-104554761D01*
X221535714Y-104459523D01*
X221488095Y-104364285D01*
X221440476Y-104173809D01*
X221440476Y-104030952D01*
X221488095Y-103840476D01*
X221535714Y-103745238D01*
X221630952Y-103650000D01*
X221773809Y-103602380D01*
X221869047Y-103602380D01*
X222011904Y-103650000D01*
X222059523Y-103697619D01*
X222773809Y-103602380D02*
X222773809Y-104316666D01*
X222726190Y-104459523D01*
X222630952Y-104554761D01*
X222488095Y-104602380D01*
X222392857Y-104602380D01*
X223726190Y-104602380D02*
X223250000Y-104602380D01*
X223250000Y-103602380D01*
X224630952Y-104507142D02*
X224583333Y-104554761D01*
X224440476Y-104602380D01*
X224345238Y-104602380D01*
X224202380Y-104554761D01*
X224107142Y-104459523D01*
X224059523Y-104364285D01*
X224011904Y-104173809D01*
X224011904Y-104030952D01*
X224059523Y-103840476D01*
X224107142Y-103745238D01*
X224202380Y-103650000D01*
X224345238Y-103602380D01*
X224440476Y-103602380D01*
X224583333Y-103650000D01*
X224630952Y-103697619D01*
X225345238Y-103602380D02*
X225345238Y-104316666D01*
X225297619Y-104459523D01*
X225202380Y-104554761D01*
X225059523Y-104602380D01*
X224964285Y-104602380D01*
X226297619Y-104602380D02*
X225821428Y-104602380D01*
X225821428Y-103602380D01*
X227202380Y-104507142D02*
X227154761Y-104554761D01*
X227011904Y-104602380D01*
X226916666Y-104602380D01*
X226773809Y-104554761D01*
X226678571Y-104459523D01*
X226630952Y-104364285D01*
X226583333Y-104173809D01*
X226583333Y-104030952D01*
X226630952Y-103840476D01*
X226678571Y-103745238D01*
X226773809Y-103650000D01*
X226916666Y-103602380D01*
X227011904Y-103602380D01*
X227154761Y-103650000D01*
X227202380Y-103697619D01*
X197312380Y-62002380D02*
X197312380Y-62811904D01*
X197360000Y-62907142D01*
X197407619Y-62954761D01*
X197502857Y-63002380D01*
X197693333Y-63002380D01*
X197788571Y-62954761D01*
X197836190Y-62907142D01*
X197883809Y-62811904D01*
X197883809Y-62002380D01*
X198312380Y-62954761D02*
X198455238Y-63002380D01*
X198693333Y-63002380D01*
X198788571Y-62954761D01*
X198836190Y-62907142D01*
X198883809Y-62811904D01*
X198883809Y-62716666D01*
X198836190Y-62621428D01*
X198788571Y-62573809D01*
X198693333Y-62526190D01*
X198502857Y-62478571D01*
X198407619Y-62430952D01*
X198360000Y-62383333D01*
X198312380Y-62288095D01*
X198312380Y-62192857D01*
X198360000Y-62097619D01*
X198407619Y-62050000D01*
X198502857Y-62002380D01*
X198740952Y-62002380D01*
X198883809Y-62050000D01*
X199264761Y-62716666D02*
X199740952Y-62716666D01*
X199169523Y-63002380D02*
X199502857Y-62002380D01*
X199836190Y-63002380D01*
X200740952Y-63002380D02*
X200407619Y-62526190D01*
X200169523Y-63002380D02*
X200169523Y-62002380D01*
X200550476Y-62002380D01*
X200645714Y-62050000D01*
X200693333Y-62097619D01*
X200740952Y-62192857D01*
X200740952Y-62335714D01*
X200693333Y-62430952D01*
X200645714Y-62478571D01*
X200550476Y-62526190D01*
X200169523Y-62526190D01*
X201026666Y-62002380D02*
X201598095Y-62002380D01*
X201312380Y-63002380D02*
X201312380Y-62002380D01*
X202360000Y-62002380D02*
X202169523Y-62002380D01*
X202074285Y-62050000D01*
X202026666Y-62097619D01*
X201931428Y-62240476D01*
X201883809Y-62430952D01*
X201883809Y-62811904D01*
X201931428Y-62907142D01*
X201979047Y-62954761D01*
X202074285Y-63002380D01*
X202264761Y-63002380D01*
X202360000Y-62954761D01*
X202407619Y-62907142D01*
X202455238Y-62811904D01*
X202455238Y-62573809D01*
X202407619Y-62478571D01*
X202360000Y-62430952D01*
X202264761Y-62383333D01*
X202074285Y-62383333D01*
X201979047Y-62430952D01*
X201931428Y-62478571D01*
X201883809Y-62573809D01*
X169291904Y-38062380D02*
X169910952Y-38062380D01*
X169577619Y-38443333D01*
X169720476Y-38443333D01*
X169815714Y-38490952D01*
X169863333Y-38538571D01*
X169910952Y-38633809D01*
X169910952Y-38871904D01*
X169863333Y-38967142D01*
X169815714Y-39014761D01*
X169720476Y-39062380D01*
X169434761Y-39062380D01*
X169339523Y-39014761D01*
X169291904Y-38967142D01*
X170196666Y-38062380D02*
X170530000Y-39062380D01*
X170863333Y-38062380D01*
X171101428Y-38062380D02*
X171720476Y-38062380D01*
X171387142Y-38443333D01*
X171530000Y-38443333D01*
X171625238Y-38490952D01*
X171672857Y-38538571D01*
X171720476Y-38633809D01*
X171720476Y-38871904D01*
X171672857Y-38967142D01*
X171625238Y-39014761D01*
X171530000Y-39062380D01*
X171244285Y-39062380D01*
X171149047Y-39014761D01*
X171101428Y-38967142D01*
X167809523Y-38042380D02*
X167333333Y-38042380D01*
X167285714Y-38518571D01*
X167333333Y-38470952D01*
X167428571Y-38423333D01*
X167666666Y-38423333D01*
X167761904Y-38470952D01*
X167809523Y-38518571D01*
X167857142Y-38613809D01*
X167857142Y-38851904D01*
X167809523Y-38947142D01*
X167761904Y-38994761D01*
X167666666Y-39042380D01*
X167428571Y-39042380D01*
X167333333Y-38994761D01*
X167285714Y-38947142D01*
X168142857Y-38042380D02*
X168476190Y-39042380D01*
X168809523Y-38042380D01*
X164488095Y-38090000D02*
X164392857Y-38042380D01*
X164250000Y-38042380D01*
X164107142Y-38090000D01*
X164011904Y-38185238D01*
X163964285Y-38280476D01*
X163916666Y-38470952D01*
X163916666Y-38613809D01*
X163964285Y-38804285D01*
X164011904Y-38899523D01*
X164107142Y-38994761D01*
X164250000Y-39042380D01*
X164345238Y-39042380D01*
X164488095Y-38994761D01*
X164535714Y-38947142D01*
X164535714Y-38613809D01*
X164345238Y-38613809D01*
X164964285Y-39042380D02*
X164964285Y-38042380D01*
X165535714Y-39042380D01*
X165535714Y-38042380D01*
X166011904Y-39042380D02*
X166011904Y-38042380D01*
X166250000Y-38042380D01*
X166392857Y-38090000D01*
X166488095Y-38185238D01*
X166535714Y-38280476D01*
X166583333Y-38470952D01*
X166583333Y-38613809D01*
X166535714Y-38804285D01*
X166488095Y-38899523D01*
X166392857Y-38994761D01*
X166250000Y-39042380D01*
X166011904Y-39042380D01*
X199708095Y-64820000D02*
X199612857Y-64772380D01*
X199470000Y-64772380D01*
X199327142Y-64820000D01*
X199231904Y-64915238D01*
X199184285Y-65010476D01*
X199136666Y-65200952D01*
X199136666Y-65343809D01*
X199184285Y-65534285D01*
X199231904Y-65629523D01*
X199327142Y-65724761D01*
X199470000Y-65772380D01*
X199565238Y-65772380D01*
X199708095Y-65724761D01*
X199755714Y-65677142D01*
X199755714Y-65343809D01*
X199565238Y-65343809D01*
X200184285Y-65772380D02*
X200184285Y-64772380D01*
X200755714Y-65772380D01*
X200755714Y-64772380D01*
X201231904Y-65772380D02*
X201231904Y-64772380D01*
X201470000Y-64772380D01*
X201612857Y-64820000D01*
X201708095Y-64915238D01*
X201755714Y-65010476D01*
X201803333Y-65200952D01*
X201803333Y-65343809D01*
X201755714Y-65534285D01*
X201708095Y-65629523D01*
X201612857Y-65724761D01*
X201470000Y-65772380D01*
X201231904Y-65772380D01*
X199141904Y-68652380D02*
X199760952Y-68652380D01*
X199427619Y-69033333D01*
X199570476Y-69033333D01*
X199665714Y-69080952D01*
X199713333Y-69128571D01*
X199760952Y-69223809D01*
X199760952Y-69461904D01*
X199713333Y-69557142D01*
X199665714Y-69604761D01*
X199570476Y-69652380D01*
X199284761Y-69652380D01*
X199189523Y-69604761D01*
X199141904Y-69557142D01*
X200046666Y-68652380D02*
X200380000Y-69652380D01*
X200713333Y-68652380D01*
X200951428Y-68652380D02*
X201570476Y-68652380D01*
X201237142Y-69033333D01*
X201380000Y-69033333D01*
X201475238Y-69080952D01*
X201522857Y-69128571D01*
X201570476Y-69223809D01*
X201570476Y-69461904D01*
X201522857Y-69557142D01*
X201475238Y-69604761D01*
X201380000Y-69652380D01*
X201094285Y-69652380D01*
X200999047Y-69604761D01*
X200951428Y-69557142D01*
X199168095Y-67352380D02*
X199739523Y-67352380D01*
X199453809Y-68352380D02*
X199453809Y-67352380D01*
X199977619Y-67352380D02*
X200644285Y-68352380D01*
X200644285Y-67352380D02*
X199977619Y-68352380D01*
X199773333Y-67022380D02*
X199440000Y-66546190D01*
X199201904Y-67022380D02*
X199201904Y-66022380D01*
X199582857Y-66022380D01*
X199678095Y-66070000D01*
X199725714Y-66117619D01*
X199773333Y-66212857D01*
X199773333Y-66355714D01*
X199725714Y-66450952D01*
X199678095Y-66498571D01*
X199582857Y-66546190D01*
X199201904Y-66546190D01*
X200106666Y-66022380D02*
X200773333Y-67022380D01*
X200773333Y-66022380D02*
X200106666Y-67022380D01*
X186441428Y-58502380D02*
X186441428Y-57502380D01*
X186441428Y-57978571D02*
X187012857Y-57978571D01*
X187012857Y-58502380D02*
X187012857Y-57502380D01*
X187489047Y-58502380D02*
X187489047Y-57835714D01*
X187489047Y-57502380D02*
X187441428Y-57550000D01*
X187489047Y-57597619D01*
X187536666Y-57550000D01*
X187489047Y-57502380D01*
X187489047Y-57597619D01*
X188393809Y-57835714D02*
X188393809Y-58645238D01*
X188346190Y-58740476D01*
X188298571Y-58788095D01*
X188203333Y-58835714D01*
X188060476Y-58835714D01*
X187965238Y-58788095D01*
X188393809Y-58454761D02*
X188298571Y-58502380D01*
X188108095Y-58502380D01*
X188012857Y-58454761D01*
X187965238Y-58407142D01*
X187917619Y-58311904D01*
X187917619Y-58026190D01*
X187965238Y-57930952D01*
X188012857Y-57883333D01*
X188108095Y-57835714D01*
X188298571Y-57835714D01*
X188393809Y-57883333D01*
X188870000Y-58502380D02*
X188870000Y-57502380D01*
X189298571Y-58502380D02*
X189298571Y-57978571D01*
X189250952Y-57883333D01*
X189155714Y-57835714D01*
X189012857Y-57835714D01*
X188917619Y-57883333D01*
X188870000Y-57930952D01*
X187238095Y-60380000D02*
X187142857Y-60332380D01*
X187000000Y-60332380D01*
X186857142Y-60380000D01*
X186761904Y-60475238D01*
X186714285Y-60570476D01*
X186666666Y-60760952D01*
X186666666Y-60903809D01*
X186714285Y-61094285D01*
X186761904Y-61189523D01*
X186857142Y-61284761D01*
X187000000Y-61332380D01*
X187095238Y-61332380D01*
X187238095Y-61284761D01*
X187285714Y-61237142D01*
X187285714Y-60903809D01*
X187095238Y-60903809D01*
X187714285Y-61332380D02*
X187714285Y-60332380D01*
X188285714Y-61332380D01*
X188285714Y-60332380D01*
X188761904Y-61332380D02*
X188761904Y-60332380D01*
X189000000Y-60332380D01*
X189142857Y-60380000D01*
X189238095Y-60475238D01*
X189285714Y-60570476D01*
X189333333Y-60760952D01*
X189333333Y-60903809D01*
X189285714Y-61094285D01*
X189238095Y-61189523D01*
X189142857Y-61284761D01*
X189000000Y-61332380D01*
X188761904Y-61332380D01*
X187550952Y-55937142D02*
X187503333Y-55984761D01*
X187360476Y-56032380D01*
X187265238Y-56032380D01*
X187122380Y-55984761D01*
X187027142Y-55889523D01*
X186979523Y-55794285D01*
X186931904Y-55603809D01*
X186931904Y-55460952D01*
X186979523Y-55270476D01*
X187027142Y-55175238D01*
X187122380Y-55080000D01*
X187265238Y-55032380D01*
X187360476Y-55032380D01*
X187503333Y-55080000D01*
X187550952Y-55127619D01*
X187931904Y-55746666D02*
X188408095Y-55746666D01*
X187836666Y-56032380D02*
X188170000Y-55032380D01*
X188503333Y-56032380D01*
X188836666Y-56032380D02*
X188836666Y-55032380D01*
X189408095Y-56032380D01*
X189408095Y-55032380D01*
X190408095Y-56032380D02*
X189836666Y-56032380D01*
X190122380Y-56032380D02*
X190122380Y-55032380D01*
X190027142Y-55175238D01*
X189931904Y-55270476D01*
X189836666Y-55318095D01*
X174881904Y-76450476D02*
X174881904Y-75955238D01*
X175186666Y-76221904D01*
X175186666Y-76107619D01*
X175224761Y-76031428D01*
X175262857Y-75993333D01*
X175339047Y-75955238D01*
X175529523Y-75955238D01*
X175605714Y-75993333D01*
X175643809Y-76031428D01*
X175681904Y-76107619D01*
X175681904Y-76336190D01*
X175643809Y-76412380D01*
X175605714Y-76450476D01*
X174881904Y-75726666D02*
X175681904Y-75460000D01*
X174881904Y-75193333D01*
X174881904Y-75002857D02*
X174881904Y-74507619D01*
X175186666Y-74774285D01*
X175186666Y-74660000D01*
X175224761Y-74583809D01*
X175262857Y-74545714D01*
X175339047Y-74507619D01*
X175529523Y-74507619D01*
X175605714Y-74545714D01*
X175643809Y-74583809D01*
X175681904Y-74660000D01*
X175681904Y-74888571D01*
X175643809Y-74964761D01*
X175605714Y-75002857D01*
X174353809Y-76659523D02*
X174391904Y-76545238D01*
X174391904Y-76354761D01*
X174353809Y-76278571D01*
X174315714Y-76240476D01*
X174239523Y-76202380D01*
X174163333Y-76202380D01*
X174087142Y-76240476D01*
X174049047Y-76278571D01*
X174010952Y-76354761D01*
X173972857Y-76507142D01*
X173934761Y-76583333D01*
X173896666Y-76621428D01*
X173820476Y-76659523D01*
X173744285Y-76659523D01*
X173668095Y-76621428D01*
X173630000Y-76583333D01*
X173591904Y-76507142D01*
X173591904Y-76316666D01*
X173630000Y-76202380D01*
X173591904Y-75935714D02*
X174391904Y-75745238D01*
X173820476Y-75592857D01*
X174391904Y-75440476D01*
X173591904Y-75250000D01*
X174315714Y-74488095D02*
X174353809Y-74526190D01*
X174391904Y-74640476D01*
X174391904Y-74716666D01*
X174353809Y-74830952D01*
X174277619Y-74907142D01*
X174201428Y-74945238D01*
X174049047Y-74983333D01*
X173934761Y-74983333D01*
X173782380Y-74945238D01*
X173706190Y-74907142D01*
X173630000Y-74830952D01*
X173591904Y-74716666D01*
X173591904Y-74640476D01*
X173630000Y-74526190D01*
X173668095Y-74488095D01*
X174391904Y-73764285D02*
X174391904Y-74145238D01*
X173591904Y-74145238D01*
X174391904Y-73497619D02*
X173591904Y-73497619D01*
X174391904Y-73040476D02*
X173934761Y-73383333D01*
X173591904Y-73040476D02*
X174049047Y-73497619D01*
X172410000Y-76149523D02*
X172371904Y-76225714D01*
X172371904Y-76340000D01*
X172410000Y-76454285D01*
X172486190Y-76530476D01*
X172562380Y-76568571D01*
X172714761Y-76606666D01*
X172829047Y-76606666D01*
X172981428Y-76568571D01*
X173057619Y-76530476D01*
X173133809Y-76454285D01*
X173171904Y-76340000D01*
X173171904Y-76263809D01*
X173133809Y-76149523D01*
X173095714Y-76111428D01*
X172829047Y-76111428D01*
X172829047Y-76263809D01*
X173171904Y-75768571D02*
X172371904Y-75768571D01*
X173171904Y-75311428D01*
X172371904Y-75311428D01*
X173171904Y-74930476D02*
X172371904Y-74930476D01*
X172371904Y-74740000D01*
X172410000Y-74625714D01*
X172486190Y-74549523D01*
X172562380Y-74511428D01*
X172714761Y-74473333D01*
X172829047Y-74473333D01*
X172981428Y-74511428D01*
X173057619Y-74549523D01*
X173133809Y-74625714D01*
X173171904Y-74740000D01*
X173171904Y-74930476D01*
X171883809Y-76655238D02*
X171921904Y-76540952D01*
X171921904Y-76350476D01*
X171883809Y-76274285D01*
X171845714Y-76236190D01*
X171769523Y-76198095D01*
X171693333Y-76198095D01*
X171617142Y-76236190D01*
X171579047Y-76274285D01*
X171540952Y-76350476D01*
X171502857Y-76502857D01*
X171464761Y-76579047D01*
X171426666Y-76617142D01*
X171350476Y-76655238D01*
X171274285Y-76655238D01*
X171198095Y-76617142D01*
X171160000Y-76579047D01*
X171121904Y-76502857D01*
X171121904Y-76312380D01*
X171160000Y-76198095D01*
X171121904Y-75931428D02*
X171921904Y-75740952D01*
X171350476Y-75588571D01*
X171921904Y-75436190D01*
X171121904Y-75245714D01*
X171921904Y-74940952D02*
X171121904Y-74940952D01*
X171121904Y-74750476D01*
X171160000Y-74636190D01*
X171236190Y-74560000D01*
X171312380Y-74521904D01*
X171464761Y-74483809D01*
X171579047Y-74483809D01*
X171731428Y-74521904D01*
X171807619Y-74560000D01*
X171883809Y-74636190D01*
X171921904Y-74750476D01*
X171921904Y-74940952D01*
X171921904Y-74140952D02*
X171121904Y-74140952D01*
X171121904Y-73607619D02*
X171121904Y-73455238D01*
X171160000Y-73379047D01*
X171236190Y-73302857D01*
X171388571Y-73264761D01*
X171655238Y-73264761D01*
X171807619Y-73302857D01*
X171883809Y-73379047D01*
X171921904Y-73455238D01*
X171921904Y-73607619D01*
X171883809Y-73683809D01*
X171807619Y-73760000D01*
X171655238Y-73798095D01*
X171388571Y-73798095D01*
X171236190Y-73760000D01*
X171160000Y-73683809D01*
X171121904Y-73607619D01*
X170691904Y-76454285D02*
X169891904Y-76454285D01*
X170691904Y-75997142D01*
X169891904Y-75997142D01*
X170691904Y-75159047D02*
X170310952Y-75425714D01*
X170691904Y-75616190D02*
X169891904Y-75616190D01*
X169891904Y-75311428D01*
X169930000Y-75235238D01*
X169968095Y-75197142D01*
X170044285Y-75159047D01*
X170158571Y-75159047D01*
X170234761Y-75197142D01*
X170272857Y-75235238D01*
X170310952Y-75311428D01*
X170310952Y-75616190D01*
X170653809Y-74854285D02*
X170691904Y-74740000D01*
X170691904Y-74549523D01*
X170653809Y-74473333D01*
X170615714Y-74435238D01*
X170539523Y-74397142D01*
X170463333Y-74397142D01*
X170387142Y-74435238D01*
X170349047Y-74473333D01*
X170310952Y-74549523D01*
X170272857Y-74701904D01*
X170234761Y-74778095D01*
X170196666Y-74816190D01*
X170120476Y-74854285D01*
X170044285Y-74854285D01*
X169968095Y-74816190D01*
X169930000Y-74778095D01*
X169891904Y-74701904D01*
X169891904Y-74511428D01*
X169930000Y-74397142D01*
X169891904Y-74168571D02*
X169891904Y-73711428D01*
X170691904Y-73940000D02*
X169891904Y-73940000D01*
X169363809Y-76474761D02*
X169401904Y-76360476D01*
X169401904Y-76170000D01*
X169363809Y-76093809D01*
X169325714Y-76055714D01*
X169249523Y-76017619D01*
X169173333Y-76017619D01*
X169097142Y-76055714D01*
X169059047Y-76093809D01*
X169020952Y-76170000D01*
X168982857Y-76322380D01*
X168944761Y-76398571D01*
X168906666Y-76436666D01*
X168830476Y-76474761D01*
X168754285Y-76474761D01*
X168678095Y-76436666D01*
X168640000Y-76398571D01*
X168601904Y-76322380D01*
X168601904Y-76131904D01*
X168640000Y-76017619D01*
X168601904Y-75750952D02*
X169401904Y-75560476D01*
X168830476Y-75408095D01*
X169401904Y-75255714D01*
X168601904Y-75065238D01*
X168601904Y-74608095D02*
X168601904Y-74455714D01*
X168640000Y-74379523D01*
X168716190Y-74303333D01*
X168868571Y-74265238D01*
X169135238Y-74265238D01*
X169287619Y-74303333D01*
X169363809Y-74379523D01*
X169401904Y-74455714D01*
X169401904Y-74608095D01*
X169363809Y-74684285D01*
X169287619Y-74760476D01*
X169135238Y-74798571D01*
X168868571Y-74798571D01*
X168716190Y-74760476D01*
X168640000Y-74684285D01*
X168601904Y-74608095D01*
X178622380Y-78188095D02*
X177622380Y-78188095D01*
X177622380Y-77950000D01*
X177670000Y-77807142D01*
X177765238Y-77711904D01*
X177860476Y-77664285D01*
X178050952Y-77616666D01*
X178193809Y-77616666D01*
X178384285Y-77664285D01*
X178479523Y-77711904D01*
X178574761Y-77807142D01*
X178622380Y-77950000D01*
X178622380Y-78188095D01*
X178098571Y-77188095D02*
X178098571Y-76854761D01*
X178622380Y-76711904D02*
X178622380Y-77188095D01*
X177622380Y-77188095D01*
X177622380Y-76711904D01*
X178098571Y-75950000D02*
X178146190Y-75807142D01*
X178193809Y-75759523D01*
X178289047Y-75711904D01*
X178431904Y-75711904D01*
X178527142Y-75759523D01*
X178574761Y-75807142D01*
X178622380Y-75902380D01*
X178622380Y-76283333D01*
X177622380Y-76283333D01*
X177622380Y-75950000D01*
X177670000Y-75854761D01*
X177717619Y-75807142D01*
X177812857Y-75759523D01*
X177908095Y-75759523D01*
X178003333Y-75807142D01*
X178050952Y-75854761D01*
X178098571Y-75950000D01*
X178098571Y-76283333D01*
X177622380Y-75283333D02*
X178431904Y-75283333D01*
X178527142Y-75235714D01*
X178574761Y-75188095D01*
X178622380Y-75092857D01*
X178622380Y-74902380D01*
X178574761Y-74807142D01*
X178527142Y-74759523D01*
X178431904Y-74711904D01*
X177622380Y-74711904D01*
X177670000Y-73711904D02*
X177622380Y-73807142D01*
X177622380Y-73950000D01*
X177670000Y-74092857D01*
X177765238Y-74188095D01*
X177860476Y-74235714D01*
X178050952Y-74283333D01*
X178193809Y-74283333D01*
X178384285Y-74235714D01*
X178479523Y-74188095D01*
X178574761Y-74092857D01*
X178622380Y-73950000D01*
X178622380Y-73854761D01*
X178574761Y-73711904D01*
X178527142Y-73664285D01*
X178193809Y-73664285D01*
X178193809Y-73854761D01*
X159827619Y-115742380D02*
X159827619Y-114742380D01*
X160399047Y-115742380D01*
X160399047Y-114742380D01*
X160875238Y-115218571D02*
X161208571Y-115218571D01*
X161351428Y-115742380D02*
X160875238Y-115742380D01*
X160875238Y-114742380D01*
X161351428Y-114742380D01*
X161970476Y-114742380D02*
X162160952Y-114742380D01*
X162256190Y-114790000D01*
X162351428Y-114885238D01*
X162399047Y-115075714D01*
X162399047Y-115409047D01*
X162351428Y-115599523D01*
X162256190Y-115694761D01*
X162160952Y-115742380D01*
X161970476Y-115742380D01*
X161875238Y-115694761D01*
X161780000Y-115599523D01*
X161732380Y-115409047D01*
X161732380Y-115075714D01*
X161780000Y-114885238D01*
X161875238Y-114790000D01*
X161970476Y-114742380D01*
X162827619Y-115361428D02*
X163589523Y-115361428D01*
X164065714Y-115742380D02*
X164065714Y-114742380D01*
X164399047Y-115456666D01*
X164732380Y-114742380D01*
X164732380Y-115742380D01*
X165256190Y-115742380D02*
X165446666Y-115742380D01*
X165541904Y-115694761D01*
X165589523Y-115647142D01*
X165684761Y-115504285D01*
X165732380Y-115313809D01*
X165732380Y-114932857D01*
X165684761Y-114837619D01*
X165637142Y-114790000D01*
X165541904Y-114742380D01*
X165351428Y-114742380D01*
X165256190Y-114790000D01*
X165208571Y-114837619D01*
X165160952Y-114932857D01*
X165160952Y-115170952D01*
X165208571Y-115266190D01*
X165256190Y-115313809D01*
X165351428Y-115361428D01*
X165541904Y-115361428D01*
X165637142Y-115313809D01*
X165684761Y-115266190D01*
X165732380Y-115170952D01*
X166160952Y-115742380D02*
X166160952Y-114742380D01*
X166732380Y-115742380D01*
X166732380Y-114742380D01*
X178498571Y-53131428D02*
X178546190Y-52988571D01*
X178593809Y-52940952D01*
X178689047Y-52893333D01*
X178831904Y-52893333D01*
X178927142Y-52940952D01*
X178974761Y-52988571D01*
X179022380Y-53083809D01*
X179022380Y-53464761D01*
X178022380Y-53464761D01*
X178022380Y-53131428D01*
X178070000Y-53036190D01*
X178117619Y-52988571D01*
X178212857Y-52940952D01*
X178308095Y-52940952D01*
X178403333Y-52988571D01*
X178450952Y-53036190D01*
X178498571Y-53131428D01*
X178498571Y-53464761D01*
X179022380Y-51988571D02*
X179022380Y-52464761D01*
X178022380Y-52464761D01*
X178498571Y-51655238D02*
X178498571Y-51321904D01*
X179022380Y-51179047D02*
X179022380Y-51655238D01*
X178022380Y-51655238D01*
X178022380Y-51179047D01*
X178641428Y-50750476D02*
X178641428Y-49988571D01*
X179022380Y-49512380D02*
X178022380Y-49512380D01*
X178498571Y-49512380D02*
X178498571Y-48940952D01*
X179022380Y-48940952D02*
X178022380Y-48940952D01*
X179022380Y-48464761D02*
X178022380Y-48464761D01*
X178736666Y-48131428D01*
X178022380Y-47798095D01*
X179022380Y-47798095D01*
X178641428Y-47321904D02*
X178641428Y-46560000D01*
X179022380Y-45560000D02*
X179022380Y-46131428D01*
X179022380Y-45845714D02*
X178022380Y-45845714D01*
X178165238Y-45940952D01*
X178260476Y-46036190D01*
X178308095Y-46131428D01*
X179022380Y-44607619D02*
X179022380Y-45179047D01*
X179022380Y-44893333D02*
X178022380Y-44893333D01*
X178165238Y-44988571D01*
X178260476Y-45083809D01*
X178308095Y-45179047D01*
X147319047Y-35501428D02*
X148080952Y-35501428D01*
X147700000Y-35882380D02*
X147700000Y-35120476D01*
X189931904Y-67232380D02*
X190550952Y-67232380D01*
X190217619Y-67613333D01*
X190360476Y-67613333D01*
X190455714Y-67660952D01*
X190503333Y-67708571D01*
X190550952Y-67803809D01*
X190550952Y-68041904D01*
X190503333Y-68137142D01*
X190455714Y-68184761D01*
X190360476Y-68232380D01*
X190074761Y-68232380D01*
X189979523Y-68184761D01*
X189931904Y-68137142D01*
X190836666Y-67232380D02*
X191170000Y-68232380D01*
X191503333Y-67232380D01*
X191741428Y-67232380D02*
X192360476Y-67232380D01*
X192027142Y-67613333D01*
X192170000Y-67613333D01*
X192265238Y-67660952D01*
X192312857Y-67708571D01*
X192360476Y-67803809D01*
X192360476Y-68041904D01*
X192312857Y-68137142D01*
X192265238Y-68184761D01*
X192170000Y-68232380D01*
X191884285Y-68232380D01*
X191789047Y-68184761D01*
X191741428Y-68137142D01*
X189999523Y-69524761D02*
X190142380Y-69572380D01*
X190380476Y-69572380D01*
X190475714Y-69524761D01*
X190523333Y-69477142D01*
X190570952Y-69381904D01*
X190570952Y-69286666D01*
X190523333Y-69191428D01*
X190475714Y-69143809D01*
X190380476Y-69096190D01*
X190190000Y-69048571D01*
X190094761Y-69000952D01*
X190047142Y-68953333D01*
X189999523Y-68858095D01*
X189999523Y-68762857D01*
X190047142Y-68667619D01*
X190094761Y-68620000D01*
X190190000Y-68572380D01*
X190428095Y-68572380D01*
X190570952Y-68620000D01*
X191570952Y-69477142D02*
X191523333Y-69524761D01*
X191380476Y-69572380D01*
X191285238Y-69572380D01*
X191142380Y-69524761D01*
X191047142Y-69429523D01*
X190999523Y-69334285D01*
X190951904Y-69143809D01*
X190951904Y-69000952D01*
X190999523Y-68810476D01*
X191047142Y-68715238D01*
X191142380Y-68620000D01*
X191285238Y-68572380D01*
X191380476Y-68572380D01*
X191523333Y-68620000D01*
X191570952Y-68667619D01*
X192475714Y-69572380D02*
X191999523Y-69572380D01*
X191999523Y-68572380D01*
X189945714Y-70734761D02*
X190088571Y-70782380D01*
X190326666Y-70782380D01*
X190421904Y-70734761D01*
X190469523Y-70687142D01*
X190517142Y-70591904D01*
X190517142Y-70496666D01*
X190469523Y-70401428D01*
X190421904Y-70353809D01*
X190326666Y-70306190D01*
X190136190Y-70258571D01*
X190040952Y-70210952D01*
X189993333Y-70163333D01*
X189945714Y-70068095D01*
X189945714Y-69972857D01*
X189993333Y-69877619D01*
X190040952Y-69830000D01*
X190136190Y-69782380D01*
X190374285Y-69782380D01*
X190517142Y-69830000D01*
X190945714Y-70782380D02*
X190945714Y-69782380D01*
X191183809Y-69782380D01*
X191326666Y-69830000D01*
X191421904Y-69925238D01*
X191469523Y-70020476D01*
X191517142Y-70210952D01*
X191517142Y-70353809D01*
X191469523Y-70544285D01*
X191421904Y-70639523D01*
X191326666Y-70734761D01*
X191183809Y-70782380D01*
X190945714Y-70782380D01*
X191898095Y-70496666D02*
X192374285Y-70496666D01*
X191802857Y-70782380D02*
X192136190Y-69782380D01*
X192469523Y-70782380D01*
X190398095Y-71140000D02*
X190302857Y-71092380D01*
X190160000Y-71092380D01*
X190017142Y-71140000D01*
X189921904Y-71235238D01*
X189874285Y-71330476D01*
X189826666Y-71520952D01*
X189826666Y-71663809D01*
X189874285Y-71854285D01*
X189921904Y-71949523D01*
X190017142Y-72044761D01*
X190160000Y-72092380D01*
X190255238Y-72092380D01*
X190398095Y-72044761D01*
X190445714Y-71997142D01*
X190445714Y-71663809D01*
X190255238Y-71663809D01*
X190874285Y-72092380D02*
X190874285Y-71092380D01*
X191445714Y-72092380D01*
X191445714Y-71092380D01*
X191921904Y-72092380D02*
X191921904Y-71092380D01*
X192160000Y-71092380D01*
X192302857Y-71140000D01*
X192398095Y-71235238D01*
X192445714Y-71330476D01*
X192493333Y-71520952D01*
X192493333Y-71663809D01*
X192445714Y-71854285D01*
X192398095Y-71949523D01*
X192302857Y-72044761D01*
X192160000Y-72092380D01*
X191921904Y-72092380D01*
X190367619Y-65592380D02*
X190367619Y-64592380D01*
X190796190Y-64687619D02*
X190843809Y-64640000D01*
X190939047Y-64592380D01*
X191177142Y-64592380D01*
X191272380Y-64640000D01*
X191320000Y-64687619D01*
X191367619Y-64782857D01*
X191367619Y-64878095D01*
X191320000Y-65020952D01*
X190748571Y-65592380D01*
X191367619Y-65592380D01*
X192367619Y-65497142D02*
X192320000Y-65544761D01*
X192177142Y-65592380D01*
X192081904Y-65592380D01*
X191939047Y-65544761D01*
X191843809Y-65449523D01*
X191796190Y-65354285D01*
X191748571Y-65163809D01*
X191748571Y-65020952D01*
X191796190Y-64830476D01*
X191843809Y-64735238D01*
X191939047Y-64640000D01*
X192081904Y-64592380D01*
X192177142Y-64592380D01*
X192320000Y-64640000D01*
X192367619Y-64687619D01*
X193320000Y-65592380D02*
X192748571Y-65592380D01*
X193034285Y-65592380D02*
X193034285Y-64592380D01*
X192939047Y-64735238D01*
X192843809Y-64830476D01*
X192748571Y-64878095D01*
X197032380Y-112282380D02*
X196032380Y-112282380D01*
X196127619Y-111853809D02*
X196080000Y-111806190D01*
X196032380Y-111710952D01*
X196032380Y-111472857D01*
X196080000Y-111377619D01*
X196127619Y-111330000D01*
X196222857Y-111282380D01*
X196318095Y-111282380D01*
X196460952Y-111330000D01*
X197032380Y-111901428D01*
X197032380Y-111282380D01*
X196937142Y-110282380D02*
X196984761Y-110330000D01*
X197032380Y-110472857D01*
X197032380Y-110568095D01*
X196984761Y-110710952D01*
X196889523Y-110806190D01*
X196794285Y-110853809D01*
X196603809Y-110901428D01*
X196460952Y-110901428D01*
X196270476Y-110853809D01*
X196175238Y-110806190D01*
X196080000Y-110710952D01*
X196032380Y-110568095D01*
X196032380Y-110472857D01*
X196080000Y-110330000D01*
X196127619Y-110282380D01*
X196127619Y-109901428D02*
X196080000Y-109853809D01*
X196032380Y-109758571D01*
X196032380Y-109520476D01*
X196080000Y-109425238D01*
X196127619Y-109377619D01*
X196222857Y-109330000D01*
X196318095Y-109330000D01*
X196460952Y-109377619D01*
X197032380Y-109949047D01*
X197032380Y-109330000D01*
X141838095Y-84262380D02*
X142409523Y-84262380D01*
X142123809Y-85262380D02*
X142123809Y-84262380D01*
X142647619Y-84262380D02*
X143314285Y-85262380D01*
X143314285Y-84262380D02*
X142647619Y-85262380D01*
X142403333Y-86672380D02*
X142070000Y-86196190D01*
X141831904Y-86672380D02*
X141831904Y-85672380D01*
X142212857Y-85672380D01*
X142308095Y-85720000D01*
X142355714Y-85767619D01*
X142403333Y-85862857D01*
X142403333Y-86005714D01*
X142355714Y-86100952D01*
X142308095Y-86148571D01*
X142212857Y-86196190D01*
X141831904Y-86196190D01*
X142736666Y-85672380D02*
X143403333Y-86672380D01*
X143403333Y-85672380D02*
X142736666Y-86672380D01*
X140851904Y-82912380D02*
X141470952Y-82912380D01*
X141137619Y-83293333D01*
X141280476Y-83293333D01*
X141375714Y-83340952D01*
X141423333Y-83388571D01*
X141470952Y-83483809D01*
X141470952Y-83721904D01*
X141423333Y-83817142D01*
X141375714Y-83864761D01*
X141280476Y-83912380D01*
X140994761Y-83912380D01*
X140899523Y-83864761D01*
X140851904Y-83817142D01*
X141756666Y-82912380D02*
X142090000Y-83912380D01*
X142423333Y-82912380D01*
X142661428Y-82912380D02*
X143280476Y-82912380D01*
X142947142Y-83293333D01*
X143090000Y-83293333D01*
X143185238Y-83340952D01*
X143232857Y-83388571D01*
X143280476Y-83483809D01*
X143280476Y-83721904D01*
X143232857Y-83817142D01*
X143185238Y-83864761D01*
X143090000Y-83912380D01*
X142804285Y-83912380D01*
X142709047Y-83864761D01*
X142661428Y-83817142D01*
X141358095Y-87060000D02*
X141262857Y-87012380D01*
X141120000Y-87012380D01*
X140977142Y-87060000D01*
X140881904Y-87155238D01*
X140834285Y-87250476D01*
X140786666Y-87440952D01*
X140786666Y-87583809D01*
X140834285Y-87774285D01*
X140881904Y-87869523D01*
X140977142Y-87964761D01*
X141120000Y-88012380D01*
X141215238Y-88012380D01*
X141358095Y-87964761D01*
X141405714Y-87917142D01*
X141405714Y-87583809D01*
X141215238Y-87583809D01*
X141834285Y-88012380D02*
X141834285Y-87012380D01*
X142405714Y-88012380D01*
X142405714Y-87012380D01*
X142881904Y-88012380D02*
X142881904Y-87012380D01*
X143120000Y-87012380D01*
X143262857Y-87060000D01*
X143358095Y-87155238D01*
X143405714Y-87250476D01*
X143453333Y-87440952D01*
X143453333Y-87583809D01*
X143405714Y-87774285D01*
X143358095Y-87869523D01*
X143262857Y-87964761D01*
X143120000Y-88012380D01*
X142881904Y-88012380D01*
X141780952Y-81157142D02*
X141733333Y-81204761D01*
X141590476Y-81252380D01*
X141495238Y-81252380D01*
X141352380Y-81204761D01*
X141257142Y-81109523D01*
X141209523Y-81014285D01*
X141161904Y-80823809D01*
X141161904Y-80680952D01*
X141209523Y-80490476D01*
X141257142Y-80395238D01*
X141352380Y-80300000D01*
X141495238Y-80252380D01*
X141590476Y-80252380D01*
X141733333Y-80300000D01*
X141780952Y-80347619D01*
X142161904Y-80966666D02*
X142638095Y-80966666D01*
X142066666Y-81252380D02*
X142400000Y-80252380D01*
X142733333Y-81252380D01*
X143066666Y-81252380D02*
X143066666Y-80252380D01*
X143638095Y-81252380D01*
X143638095Y-80252380D01*
X144066666Y-80347619D02*
X144114285Y-80300000D01*
X144209523Y-80252380D01*
X144447619Y-80252380D01*
X144542857Y-80300000D01*
X144590476Y-80347619D01*
X144638095Y-80442857D01*
X144638095Y-80538095D01*
X144590476Y-80680952D01*
X144019047Y-81252380D01*
X144638095Y-81252380D01*
X139918571Y-77103809D02*
X139966190Y-76960952D01*
X140013809Y-76913333D01*
X140109047Y-76865714D01*
X140251904Y-76865714D01*
X140347142Y-76913333D01*
X140394761Y-76960952D01*
X140442380Y-77056190D01*
X140442380Y-77437142D01*
X139442380Y-77437142D01*
X139442380Y-77103809D01*
X139490000Y-77008571D01*
X139537619Y-76960952D01*
X139632857Y-76913333D01*
X139728095Y-76913333D01*
X139823333Y-76960952D01*
X139870952Y-77008571D01*
X139918571Y-77103809D01*
X139918571Y-77437142D01*
X140061428Y-76437142D02*
X140061428Y-75675238D01*
X139442380Y-75008571D02*
X139442380Y-74913333D01*
X139490000Y-74818095D01*
X139537619Y-74770476D01*
X139632857Y-74722857D01*
X139823333Y-74675238D01*
X140061428Y-74675238D01*
X140251904Y-74722857D01*
X140347142Y-74770476D01*
X140394761Y-74818095D01*
X140442380Y-74913333D01*
X140442380Y-75008571D01*
X140394761Y-75103809D01*
X140347142Y-75151428D01*
X140251904Y-75199047D01*
X140061428Y-75246666D01*
X139823333Y-75246666D01*
X139632857Y-75199047D01*
X139537619Y-75151428D01*
X139490000Y-75103809D01*
X139442380Y-75008571D01*
X186764285Y-83357619D02*
X186811904Y-83310000D01*
X186907142Y-83262380D01*
X187145238Y-83262380D01*
X187240476Y-83310000D01*
X187288095Y-83357619D01*
X187335714Y-83452857D01*
X187335714Y-83548095D01*
X187288095Y-83690952D01*
X186716666Y-84262380D01*
X187335714Y-84262380D01*
X187385714Y-79812380D02*
X186814285Y-79812380D01*
X187100000Y-79812380D02*
X187100000Y-78812380D01*
X187004761Y-78955238D01*
X186909523Y-79050476D01*
X186814285Y-79098095D01*
X135304761Y-101274761D02*
X135447619Y-101322380D01*
X135685714Y-101322380D01*
X135780952Y-101274761D01*
X135828571Y-101227142D01*
X135876190Y-101131904D01*
X135876190Y-101036666D01*
X135828571Y-100941428D01*
X135780952Y-100893809D01*
X135685714Y-100846190D01*
X135495238Y-100798571D01*
X135400000Y-100750952D01*
X135352380Y-100703333D01*
X135304761Y-100608095D01*
X135304761Y-100512857D01*
X135352380Y-100417619D01*
X135400000Y-100370000D01*
X135495238Y-100322380D01*
X135733333Y-100322380D01*
X135876190Y-100370000D01*
X136161904Y-100322380D02*
X136733333Y-100322380D01*
X136447619Y-101322380D02*
X136447619Y-100322380D01*
X137066666Y-101322380D02*
X137066666Y-100322380D01*
X137400000Y-101036666D01*
X137733333Y-100322380D01*
X137733333Y-101322380D01*
X138114285Y-100322380D02*
X138733333Y-100322380D01*
X138400000Y-100703333D01*
X138542857Y-100703333D01*
X138638095Y-100750952D01*
X138685714Y-100798571D01*
X138733333Y-100893809D01*
X138733333Y-101131904D01*
X138685714Y-101227142D01*
X138638095Y-101274761D01*
X138542857Y-101322380D01*
X138257142Y-101322380D01*
X138161904Y-101274761D01*
X138114285Y-101227142D01*
X139114285Y-100417619D02*
X139161904Y-100370000D01*
X139257142Y-100322380D01*
X139495238Y-100322380D01*
X139590476Y-100370000D01*
X139638095Y-100417619D01*
X139685714Y-100512857D01*
X139685714Y-100608095D01*
X139638095Y-100750952D01*
X139066666Y-101322380D01*
X139685714Y-101322380D01*
X140447619Y-100798571D02*
X140114285Y-100798571D01*
X140114285Y-101322380D02*
X140114285Y-100322380D01*
X140590476Y-100322380D01*
X141400000Y-100655714D02*
X141400000Y-101322380D01*
X141161904Y-100274761D02*
X140923809Y-100989047D01*
X141542857Y-100989047D01*
X147120000Y-131221904D02*
X147072380Y-131317142D01*
X147072380Y-131460000D01*
X147120000Y-131602857D01*
X147215238Y-131698095D01*
X147310476Y-131745714D01*
X147500952Y-131793333D01*
X147643809Y-131793333D01*
X147834285Y-131745714D01*
X147929523Y-131698095D01*
X148024761Y-131602857D01*
X148072380Y-131460000D01*
X148072380Y-131364761D01*
X148024761Y-131221904D01*
X147977142Y-131174285D01*
X147643809Y-131174285D01*
X147643809Y-131364761D01*
X148072380Y-130745714D02*
X147072380Y-130745714D01*
X148072380Y-130174285D01*
X147072380Y-130174285D01*
X148072380Y-129698095D02*
X147072380Y-129698095D01*
X147072380Y-129460000D01*
X147120000Y-129317142D01*
X147215238Y-129221904D01*
X147310476Y-129174285D01*
X147500952Y-129126666D01*
X147643809Y-129126666D01*
X147834285Y-129174285D01*
X147929523Y-129221904D01*
X148024761Y-129317142D01*
X148072380Y-129460000D01*
X148072380Y-129698095D01*
X143132380Y-131688095D02*
X143132380Y-131069047D01*
X143513333Y-131402380D01*
X143513333Y-131259523D01*
X143560952Y-131164285D01*
X143608571Y-131116666D01*
X143703809Y-131069047D01*
X143941904Y-131069047D01*
X144037142Y-131116666D01*
X144084761Y-131164285D01*
X144132380Y-131259523D01*
X144132380Y-131545238D01*
X144084761Y-131640476D01*
X144037142Y-131688095D01*
X143132380Y-130783333D02*
X144132380Y-130450000D01*
X143132380Y-130116666D01*
X143132380Y-129878571D02*
X143132380Y-129259523D01*
X143513333Y-129592857D01*
X143513333Y-129450000D01*
X143560952Y-129354761D01*
X143608571Y-129307142D01*
X143703809Y-129259523D01*
X143941904Y-129259523D01*
X144037142Y-129307142D01*
X144084761Y-129354761D01*
X144132380Y-129450000D01*
X144132380Y-129735714D01*
X144084761Y-129830952D01*
X144037142Y-129878571D01*
X146742380Y-130186666D02*
X146266190Y-130520000D01*
X146742380Y-130758095D02*
X145742380Y-130758095D01*
X145742380Y-130377142D01*
X145790000Y-130281904D01*
X145837619Y-130234285D01*
X145932857Y-130186666D01*
X146075714Y-130186666D01*
X146170952Y-130234285D01*
X146218571Y-130281904D01*
X146266190Y-130377142D01*
X146266190Y-130758095D01*
X145742380Y-129853333D02*
X146742380Y-129186666D01*
X145742380Y-129186666D02*
X146742380Y-129853333D01*
X144402380Y-130741904D02*
X144402380Y-130170476D01*
X145402380Y-130456190D02*
X144402380Y-130456190D01*
X144402380Y-129932380D02*
X145402380Y-129265714D01*
X144402380Y-129265714D02*
X145402380Y-129932380D01*
X142732380Y-125082380D02*
X142732380Y-125891904D01*
X142780000Y-125987142D01*
X142827619Y-126034761D01*
X142922857Y-126082380D01*
X143113333Y-126082380D01*
X143208571Y-126034761D01*
X143256190Y-125987142D01*
X143303809Y-125891904D01*
X143303809Y-125082380D01*
X143732380Y-126034761D02*
X143875238Y-126082380D01*
X144113333Y-126082380D01*
X144208571Y-126034761D01*
X144256190Y-125987142D01*
X144303809Y-125891904D01*
X144303809Y-125796666D01*
X144256190Y-125701428D01*
X144208571Y-125653809D01*
X144113333Y-125606190D01*
X143922857Y-125558571D01*
X143827619Y-125510952D01*
X143780000Y-125463333D01*
X143732380Y-125368095D01*
X143732380Y-125272857D01*
X143780000Y-125177619D01*
X143827619Y-125130000D01*
X143922857Y-125082380D01*
X144160952Y-125082380D01*
X144303809Y-125130000D01*
X144684761Y-125796666D02*
X145160952Y-125796666D01*
X144589523Y-126082380D02*
X144922857Y-125082380D01*
X145256190Y-126082380D01*
X146160952Y-126082380D02*
X145827619Y-125606190D01*
X145589523Y-126082380D02*
X145589523Y-125082380D01*
X145970476Y-125082380D01*
X146065714Y-125130000D01*
X146113333Y-125177619D01*
X146160952Y-125272857D01*
X146160952Y-125415714D01*
X146113333Y-125510952D01*
X146065714Y-125558571D01*
X145970476Y-125606190D01*
X145589523Y-125606190D01*
X146446666Y-125082380D02*
X147018095Y-125082380D01*
X146732380Y-126082380D02*
X146732380Y-125082380D01*
X147256190Y-125082380D02*
X147875238Y-125082380D01*
X147541904Y-125463333D01*
X147684761Y-125463333D01*
X147780000Y-125510952D01*
X147827619Y-125558571D01*
X147875238Y-125653809D01*
X147875238Y-125891904D01*
X147827619Y-125987142D01*
X147780000Y-126034761D01*
X147684761Y-126082380D01*
X147399047Y-126082380D01*
X147303809Y-126034761D01*
X147256190Y-125987142D01*
X170922380Y-104780476D02*
X170922380Y-105351904D01*
X170922380Y-105066190D02*
X169922380Y-105066190D01*
X170065238Y-105161428D01*
X170160476Y-105256666D01*
X170208095Y-105351904D01*
X169922380Y-103875714D02*
X169922380Y-104351904D01*
X170398571Y-104399523D01*
X170350952Y-104351904D01*
X170303333Y-104256666D01*
X170303333Y-104018571D01*
X170350952Y-103923333D01*
X170398571Y-103875714D01*
X170493809Y-103828095D01*
X170731904Y-103828095D01*
X170827142Y-103875714D01*
X170874761Y-103923333D01*
X170922380Y-104018571D01*
X170922380Y-104256666D01*
X170874761Y-104351904D01*
X170827142Y-104399523D01*
X172232380Y-104790476D02*
X172232380Y-105361904D01*
X172232380Y-105076190D02*
X171232380Y-105076190D01*
X171375238Y-105171428D01*
X171470476Y-105266666D01*
X171518095Y-105361904D01*
X171565714Y-103933333D02*
X172232380Y-103933333D01*
X171184761Y-104171428D02*
X171899047Y-104409523D01*
X171899047Y-103790476D01*
X173512380Y-104860476D02*
X173512380Y-105431904D01*
X173512380Y-105146190D02*
X172512380Y-105146190D01*
X172655238Y-105241428D01*
X172750476Y-105336666D01*
X172798095Y-105431904D01*
X172512380Y-104527142D02*
X172512380Y-103908095D01*
X172893333Y-104241428D01*
X172893333Y-104098571D01*
X172940952Y-104003333D01*
X172988571Y-103955714D01*
X173083809Y-103908095D01*
X173321904Y-103908095D01*
X173417142Y-103955714D01*
X173464761Y-104003333D01*
X173512380Y-104098571D01*
X173512380Y-104384285D01*
X173464761Y-104479523D01*
X173417142Y-104527142D01*
X174732380Y-104880476D02*
X174732380Y-105451904D01*
X174732380Y-105166190D02*
X173732380Y-105166190D01*
X173875238Y-105261428D01*
X173970476Y-105356666D01*
X174018095Y-105451904D01*
X173827619Y-104499523D02*
X173780000Y-104451904D01*
X173732380Y-104356666D01*
X173732380Y-104118571D01*
X173780000Y-104023333D01*
X173827619Y-103975714D01*
X173922857Y-103928095D01*
X174018095Y-103928095D01*
X174160952Y-103975714D01*
X174732380Y-104547142D01*
X174732380Y-103928095D01*
X176062380Y-104850476D02*
X176062380Y-105421904D01*
X176062380Y-105136190D02*
X175062380Y-105136190D01*
X175205238Y-105231428D01*
X175300476Y-105326666D01*
X175348095Y-105421904D01*
X176062380Y-103898095D02*
X176062380Y-104469523D01*
X176062380Y-104183809D02*
X175062380Y-104183809D01*
X175205238Y-104279047D01*
X175300476Y-104374285D01*
X175348095Y-104469523D01*
X166516666Y-104978095D02*
X166516666Y-104501904D01*
X166802380Y-105073333D02*
X165802380Y-104740000D01*
X166802380Y-104406666D01*
X166802380Y-104073333D02*
X165802380Y-104073333D01*
X165802380Y-103835238D01*
X165850000Y-103692380D01*
X165945238Y-103597142D01*
X166040476Y-103549523D01*
X166230952Y-103501904D01*
X166373809Y-103501904D01*
X166564285Y-103549523D01*
X166659523Y-103597142D01*
X166754761Y-103692380D01*
X166802380Y-103835238D01*
X166802380Y-104073333D01*
X166707142Y-102501904D02*
X166754761Y-102549523D01*
X166802380Y-102692380D01*
X166802380Y-102787619D01*
X166754761Y-102930476D01*
X166659523Y-103025714D01*
X166564285Y-103073333D01*
X166373809Y-103120952D01*
X166230952Y-103120952D01*
X166040476Y-103073333D01*
X165945238Y-103025714D01*
X165850000Y-102930476D01*
X165802380Y-102787619D01*
X165802380Y-102692380D01*
X165850000Y-102549523D01*
X165897619Y-102501904D01*
X168600000Y-104591904D02*
X168552380Y-104687142D01*
X168552380Y-104830000D01*
X168600000Y-104972857D01*
X168695238Y-105068095D01*
X168790476Y-105115714D01*
X168980952Y-105163333D01*
X169123809Y-105163333D01*
X169314285Y-105115714D01*
X169409523Y-105068095D01*
X169504761Y-104972857D01*
X169552380Y-104830000D01*
X169552380Y-104734761D01*
X169504761Y-104591904D01*
X169457142Y-104544285D01*
X169123809Y-104544285D01*
X169123809Y-104734761D01*
X169552380Y-104115714D02*
X168552380Y-104115714D01*
X169552380Y-103544285D01*
X168552380Y-103544285D01*
X169552380Y-103068095D02*
X168552380Y-103068095D01*
X168552380Y-102830000D01*
X168600000Y-102687142D01*
X168695238Y-102591904D01*
X168790476Y-102544285D01*
X168980952Y-102496666D01*
X169123809Y-102496666D01*
X169314285Y-102544285D01*
X169409523Y-102591904D01*
X169504761Y-102687142D01*
X169552380Y-102830000D01*
X169552380Y-103068095D01*
X152082380Y-104968095D02*
X152082380Y-104349047D01*
X152463333Y-104682380D01*
X152463333Y-104539523D01*
X152510952Y-104444285D01*
X152558571Y-104396666D01*
X152653809Y-104349047D01*
X152891904Y-104349047D01*
X152987142Y-104396666D01*
X153034761Y-104444285D01*
X153082380Y-104539523D01*
X153082380Y-104825238D01*
X153034761Y-104920476D01*
X152987142Y-104968095D01*
X152082380Y-104063333D02*
X153082380Y-103730000D01*
X152082380Y-103396666D01*
X152082380Y-103158571D02*
X152082380Y-102539523D01*
X152463333Y-102872857D01*
X152463333Y-102730000D01*
X152510952Y-102634761D01*
X152558571Y-102587142D01*
X152653809Y-102539523D01*
X152891904Y-102539523D01*
X152987142Y-102587142D01*
X153034761Y-102634761D01*
X153082380Y-102730000D01*
X153082380Y-103015714D01*
X153034761Y-103110952D01*
X152987142Y-103158571D01*
X154352380Y-105048095D02*
X153352380Y-105048095D01*
X154352380Y-104476666D01*
X153352380Y-104476666D01*
X154304761Y-104048095D02*
X154352380Y-103905238D01*
X154352380Y-103667142D01*
X154304761Y-103571904D01*
X154257142Y-103524285D01*
X154161904Y-103476666D01*
X154066666Y-103476666D01*
X153971428Y-103524285D01*
X153923809Y-103571904D01*
X153876190Y-103667142D01*
X153828571Y-103857619D01*
X153780952Y-103952857D01*
X153733333Y-104000476D01*
X153638095Y-104048095D01*
X153542857Y-104048095D01*
X153447619Y-104000476D01*
X153400000Y-103952857D01*
X153352380Y-103857619D01*
X153352380Y-103619523D01*
X153400000Y-103476666D01*
X154304761Y-103095714D02*
X154352380Y-102952857D01*
X154352380Y-102714761D01*
X154304761Y-102619523D01*
X154257142Y-102571904D01*
X154161904Y-102524285D01*
X154066666Y-102524285D01*
X153971428Y-102571904D01*
X153923809Y-102619523D01*
X153876190Y-102714761D01*
X153828571Y-102905238D01*
X153780952Y-103000476D01*
X153733333Y-103048095D01*
X153638095Y-103095714D01*
X153542857Y-103095714D01*
X153447619Y-103048095D01*
X153400000Y-103000476D01*
X153352380Y-102905238D01*
X153352380Y-102667142D01*
X153400000Y-102524285D01*
X155584761Y-105085714D02*
X155632380Y-104942857D01*
X155632380Y-104704761D01*
X155584761Y-104609523D01*
X155537142Y-104561904D01*
X155441904Y-104514285D01*
X155346666Y-104514285D01*
X155251428Y-104561904D01*
X155203809Y-104609523D01*
X155156190Y-104704761D01*
X155108571Y-104895238D01*
X155060952Y-104990476D01*
X155013333Y-105038095D01*
X154918095Y-105085714D01*
X154822857Y-105085714D01*
X154727619Y-105038095D01*
X154680000Y-104990476D01*
X154632380Y-104895238D01*
X154632380Y-104657142D01*
X154680000Y-104514285D01*
X155537142Y-103514285D02*
X155584761Y-103561904D01*
X155632380Y-103704761D01*
X155632380Y-103800000D01*
X155584761Y-103942857D01*
X155489523Y-104038095D01*
X155394285Y-104085714D01*
X155203809Y-104133333D01*
X155060952Y-104133333D01*
X154870476Y-104085714D01*
X154775238Y-104038095D01*
X154680000Y-103942857D01*
X154632380Y-103800000D01*
X154632380Y-103704761D01*
X154680000Y-103561904D01*
X154727619Y-103514285D01*
X155632380Y-103085714D02*
X154632380Y-103085714D01*
X155632380Y-102514285D02*
X155060952Y-102942857D01*
X154632380Y-102514285D02*
X155203809Y-103085714D01*
X156882380Y-105691428D02*
X155882380Y-105691428D01*
X156596666Y-105358095D01*
X155882380Y-105024761D01*
X156882380Y-105024761D01*
X156882380Y-104548571D02*
X155882380Y-104548571D01*
X156834761Y-104120000D02*
X156882380Y-103977142D01*
X156882380Y-103739047D01*
X156834761Y-103643809D01*
X156787142Y-103596190D01*
X156691904Y-103548571D01*
X156596666Y-103548571D01*
X156501428Y-103596190D01*
X156453809Y-103643809D01*
X156406190Y-103739047D01*
X156358571Y-103929523D01*
X156310952Y-104024761D01*
X156263333Y-104072380D01*
X156168095Y-104120000D01*
X156072857Y-104120000D01*
X155977619Y-104072380D01*
X155930000Y-104024761D01*
X155882380Y-103929523D01*
X155882380Y-103691428D01*
X155930000Y-103548571D01*
X155882380Y-102929523D02*
X155882380Y-102739047D01*
X155930000Y-102643809D01*
X156025238Y-102548571D01*
X156215714Y-102500952D01*
X156549047Y-102500952D01*
X156739523Y-102548571D01*
X156834761Y-102643809D01*
X156882380Y-102739047D01*
X156882380Y-102929523D01*
X156834761Y-103024761D01*
X156739523Y-103120000D01*
X156549047Y-103167619D01*
X156215714Y-103167619D01*
X156025238Y-103120000D01*
X155930000Y-103024761D01*
X155882380Y-102929523D01*
X158152380Y-105701428D02*
X157152380Y-105701428D01*
X157866666Y-105368095D01*
X157152380Y-105034761D01*
X158152380Y-105034761D01*
X157152380Y-104368095D02*
X157152380Y-104177619D01*
X157200000Y-104082380D01*
X157295238Y-103987142D01*
X157485714Y-103939523D01*
X157819047Y-103939523D01*
X158009523Y-103987142D01*
X158104761Y-104082380D01*
X158152380Y-104177619D01*
X158152380Y-104368095D01*
X158104761Y-104463333D01*
X158009523Y-104558571D01*
X157819047Y-104606190D01*
X157485714Y-104606190D01*
X157295238Y-104558571D01*
X157200000Y-104463333D01*
X157152380Y-104368095D01*
X158104761Y-103558571D02*
X158152380Y-103415714D01*
X158152380Y-103177619D01*
X158104761Y-103082380D01*
X158057142Y-103034761D01*
X157961904Y-102987142D01*
X157866666Y-102987142D01*
X157771428Y-103034761D01*
X157723809Y-103082380D01*
X157676190Y-103177619D01*
X157628571Y-103368095D01*
X157580952Y-103463333D01*
X157533333Y-103510952D01*
X157438095Y-103558571D01*
X157342857Y-103558571D01*
X157247619Y-103510952D01*
X157200000Y-103463333D01*
X157152380Y-103368095D01*
X157152380Y-103130000D01*
X157200000Y-102987142D01*
X158152380Y-102558571D02*
X157152380Y-102558571D01*
X158430000Y-104601904D02*
X158382380Y-104697142D01*
X158382380Y-104840000D01*
X158430000Y-104982857D01*
X158525238Y-105078095D01*
X158620476Y-105125714D01*
X158810952Y-105173333D01*
X158953809Y-105173333D01*
X159144285Y-105125714D01*
X159239523Y-105078095D01*
X159334761Y-104982857D01*
X159382380Y-104840000D01*
X159382380Y-104744761D01*
X159334761Y-104601904D01*
X159287142Y-104554285D01*
X158953809Y-104554285D01*
X158953809Y-104744761D01*
X159382380Y-104125714D02*
X158382380Y-104125714D01*
X159382380Y-103554285D01*
X158382380Y-103554285D01*
X159382380Y-103078095D02*
X158382380Y-103078095D01*
X158382380Y-102840000D01*
X158430000Y-102697142D01*
X158525238Y-102601904D01*
X158620476Y-102554285D01*
X158810952Y-102506666D01*
X158953809Y-102506666D01*
X159144285Y-102554285D01*
X159239523Y-102601904D01*
X159334761Y-102697142D01*
X159382380Y-102840000D01*
X159382380Y-103078095D01*
X150384761Y-105010000D02*
X150432380Y-104867142D01*
X150432380Y-104629047D01*
X150384761Y-104533809D01*
X150337142Y-104486190D01*
X150241904Y-104438571D01*
X150146666Y-104438571D01*
X150051428Y-104486190D01*
X150003809Y-104533809D01*
X149956190Y-104629047D01*
X149908571Y-104819523D01*
X149860952Y-104914761D01*
X149813333Y-104962380D01*
X149718095Y-105010000D01*
X149622857Y-105010000D01*
X149527619Y-104962380D01*
X149480000Y-104914761D01*
X149432380Y-104819523D01*
X149432380Y-104581428D01*
X149480000Y-104438571D01*
X150432380Y-104010000D02*
X149432380Y-104010000D01*
X149432380Y-103629047D01*
X149480000Y-103533809D01*
X149527619Y-103486190D01*
X149622857Y-103438571D01*
X149765714Y-103438571D01*
X149860952Y-103486190D01*
X149908571Y-103533809D01*
X149956190Y-103629047D01*
X149956190Y-104010000D01*
X150432380Y-103010000D02*
X149432380Y-103010000D01*
X150432380Y-102010000D02*
X150432380Y-102581428D01*
X150432380Y-102295714D02*
X149432380Y-102295714D01*
X149575238Y-102390952D01*
X149670476Y-102486190D01*
X149718095Y-102581428D01*
X142891904Y-93762380D02*
X143510952Y-93762380D01*
X143177619Y-94143333D01*
X143320476Y-94143333D01*
X143415714Y-94190952D01*
X143463333Y-94238571D01*
X143510952Y-94333809D01*
X143510952Y-94571904D01*
X143463333Y-94667142D01*
X143415714Y-94714761D01*
X143320476Y-94762380D01*
X143034761Y-94762380D01*
X142939523Y-94714761D01*
X142891904Y-94667142D01*
X143796666Y-93762380D02*
X144130000Y-94762380D01*
X144463333Y-93762380D01*
X144701428Y-93762380D02*
X145320476Y-93762380D01*
X144987142Y-94143333D01*
X145130000Y-94143333D01*
X145225238Y-94190952D01*
X145272857Y-94238571D01*
X145320476Y-94333809D01*
X145320476Y-94571904D01*
X145272857Y-94667142D01*
X145225238Y-94714761D01*
X145130000Y-94762380D01*
X144844285Y-94762380D01*
X144749047Y-94714761D01*
X144701428Y-94667142D01*
X143348095Y-98070000D02*
X143252857Y-98022380D01*
X143110000Y-98022380D01*
X142967142Y-98070000D01*
X142871904Y-98165238D01*
X142824285Y-98260476D01*
X142776666Y-98450952D01*
X142776666Y-98593809D01*
X142824285Y-98784285D01*
X142871904Y-98879523D01*
X142967142Y-98974761D01*
X143110000Y-99022380D01*
X143205238Y-99022380D01*
X143348095Y-98974761D01*
X143395714Y-98927142D01*
X143395714Y-98593809D01*
X143205238Y-98593809D01*
X143824285Y-99022380D02*
X143824285Y-98022380D01*
X144395714Y-99022380D01*
X144395714Y-98022380D01*
X144871904Y-99022380D02*
X144871904Y-98022380D01*
X145110000Y-98022380D01*
X145252857Y-98070000D01*
X145348095Y-98165238D01*
X145395714Y-98260476D01*
X145443333Y-98450952D01*
X145443333Y-98593809D01*
X145395714Y-98784285D01*
X145348095Y-98879523D01*
X145252857Y-98974761D01*
X145110000Y-99022380D01*
X144871904Y-99022380D01*
X144463333Y-97652380D02*
X144130000Y-97176190D01*
X143891904Y-97652380D02*
X143891904Y-96652380D01*
X144272857Y-96652380D01*
X144368095Y-96700000D01*
X144415714Y-96747619D01*
X144463333Y-96842857D01*
X144463333Y-96985714D01*
X144415714Y-97080952D01*
X144368095Y-97128571D01*
X144272857Y-97176190D01*
X143891904Y-97176190D01*
X144796666Y-96652380D02*
X145463333Y-97652380D01*
X145463333Y-96652380D02*
X144796666Y-97652380D01*
X143898095Y-95222380D02*
X144469523Y-95222380D01*
X144183809Y-96222380D02*
X144183809Y-95222380D01*
X144707619Y-95222380D02*
X145374285Y-96222380D01*
X145374285Y-95222380D02*
X144707619Y-96222380D01*
X143278571Y-91292380D02*
X143278571Y-92101904D01*
X143326190Y-92197142D01*
X143373809Y-92244761D01*
X143469047Y-92292380D01*
X143659523Y-92292380D01*
X143754761Y-92244761D01*
X143802380Y-92197142D01*
X143850000Y-92101904D01*
X143850000Y-91292380D01*
X144278571Y-92006666D02*
X144754761Y-92006666D01*
X144183333Y-92292380D02*
X144516666Y-91292380D01*
X144850000Y-92292380D01*
X145754761Y-92292380D02*
X145421428Y-91816190D01*
X145183333Y-92292380D02*
X145183333Y-91292380D01*
X145564285Y-91292380D01*
X145659523Y-91340000D01*
X145707142Y-91387619D01*
X145754761Y-91482857D01*
X145754761Y-91625714D01*
X145707142Y-91720952D01*
X145659523Y-91768571D01*
X145564285Y-91816190D01*
X145183333Y-91816190D01*
X146040476Y-91292380D02*
X146611904Y-91292380D01*
X146326190Y-92292380D02*
X146326190Y-91292380D01*
X147373809Y-91625714D02*
X147373809Y-92292380D01*
X147135714Y-91244761D02*
X146897619Y-91959047D01*
X147516666Y-91959047D01*
X151382380Y-58672380D02*
X151382380Y-59481904D01*
X151430000Y-59577142D01*
X151477619Y-59624761D01*
X151572857Y-59672380D01*
X151763333Y-59672380D01*
X151858571Y-59624761D01*
X151906190Y-59577142D01*
X151953809Y-59481904D01*
X151953809Y-58672380D01*
X152382380Y-59624761D02*
X152525238Y-59672380D01*
X152763333Y-59672380D01*
X152858571Y-59624761D01*
X152906190Y-59577142D01*
X152953809Y-59481904D01*
X152953809Y-59386666D01*
X152906190Y-59291428D01*
X152858571Y-59243809D01*
X152763333Y-59196190D01*
X152572857Y-59148571D01*
X152477619Y-59100952D01*
X152430000Y-59053333D01*
X152382380Y-58958095D01*
X152382380Y-58862857D01*
X152430000Y-58767619D01*
X152477619Y-58720000D01*
X152572857Y-58672380D01*
X152810952Y-58672380D01*
X152953809Y-58720000D01*
X153334761Y-59386666D02*
X153810952Y-59386666D01*
X153239523Y-59672380D02*
X153572857Y-58672380D01*
X153906190Y-59672380D01*
X154810952Y-59672380D02*
X154477619Y-59196190D01*
X154239523Y-59672380D02*
X154239523Y-58672380D01*
X154620476Y-58672380D01*
X154715714Y-58720000D01*
X154763333Y-58767619D01*
X154810952Y-58862857D01*
X154810952Y-59005714D01*
X154763333Y-59100952D01*
X154715714Y-59148571D01*
X154620476Y-59196190D01*
X154239523Y-59196190D01*
X155096666Y-58672380D02*
X155668095Y-58672380D01*
X155382380Y-59672380D02*
X155382380Y-58672380D01*
X156525238Y-59672380D02*
X155953809Y-59672380D01*
X156239523Y-59672380D02*
X156239523Y-58672380D01*
X156144285Y-58815238D01*
X156049047Y-58910476D01*
X155953809Y-58958095D01*
X152221904Y-61392380D02*
X152840952Y-61392380D01*
X152507619Y-61773333D01*
X152650476Y-61773333D01*
X152745714Y-61820952D01*
X152793333Y-61868571D01*
X152840952Y-61963809D01*
X152840952Y-62201904D01*
X152793333Y-62297142D01*
X152745714Y-62344761D01*
X152650476Y-62392380D01*
X152364761Y-62392380D01*
X152269523Y-62344761D01*
X152221904Y-62297142D01*
X153126666Y-61392380D02*
X153460000Y-62392380D01*
X153793333Y-61392380D01*
X154031428Y-61392380D02*
X154650476Y-61392380D01*
X154317142Y-61773333D01*
X154460000Y-61773333D01*
X154555238Y-61820952D01*
X154602857Y-61868571D01*
X154650476Y-61963809D01*
X154650476Y-62201904D01*
X154602857Y-62297142D01*
X154555238Y-62344761D01*
X154460000Y-62392380D01*
X154174285Y-62392380D01*
X154079047Y-62344761D01*
X154031428Y-62297142D01*
X153368095Y-62872380D02*
X153939523Y-62872380D01*
X153653809Y-63872380D02*
X153653809Y-62872380D01*
X154177619Y-62872380D02*
X154844285Y-63872380D01*
X154844285Y-62872380D02*
X154177619Y-63872380D01*
X153883333Y-65162380D02*
X153550000Y-64686190D01*
X153311904Y-65162380D02*
X153311904Y-64162380D01*
X153692857Y-64162380D01*
X153788095Y-64210000D01*
X153835714Y-64257619D01*
X153883333Y-64352857D01*
X153883333Y-64495714D01*
X153835714Y-64590952D01*
X153788095Y-64638571D01*
X153692857Y-64686190D01*
X153311904Y-64686190D01*
X154216666Y-64162380D02*
X154883333Y-65162380D01*
X154883333Y-64162380D02*
X154216666Y-65162380D01*
X152778095Y-65570000D02*
X152682857Y-65522380D01*
X152540000Y-65522380D01*
X152397142Y-65570000D01*
X152301904Y-65665238D01*
X152254285Y-65760476D01*
X152206666Y-65950952D01*
X152206666Y-66093809D01*
X152254285Y-66284285D01*
X152301904Y-66379523D01*
X152397142Y-66474761D01*
X152540000Y-66522380D01*
X152635238Y-66522380D01*
X152778095Y-66474761D01*
X152825714Y-66427142D01*
X152825714Y-66093809D01*
X152635238Y-66093809D01*
X153254285Y-66522380D02*
X153254285Y-65522380D01*
X153825714Y-66522380D01*
X153825714Y-65522380D01*
X154301904Y-66522380D02*
X154301904Y-65522380D01*
X154540000Y-65522380D01*
X154682857Y-65570000D01*
X154778095Y-65665238D01*
X154825714Y-65760476D01*
X154873333Y-65950952D01*
X154873333Y-66093809D01*
X154825714Y-66284285D01*
X154778095Y-66379523D01*
X154682857Y-66474761D01*
X154540000Y-66522380D01*
X154301904Y-66522380D01*
X173171904Y-116052380D02*
X173790952Y-116052380D01*
X173457619Y-116433333D01*
X173600476Y-116433333D01*
X173695714Y-116480952D01*
X173743333Y-116528571D01*
X173790952Y-116623809D01*
X173790952Y-116861904D01*
X173743333Y-116957142D01*
X173695714Y-117004761D01*
X173600476Y-117052380D01*
X173314761Y-117052380D01*
X173219523Y-117004761D01*
X173171904Y-116957142D01*
X174076666Y-116052380D02*
X174410000Y-117052380D01*
X174743333Y-116052380D01*
X174981428Y-116052380D02*
X175600476Y-116052380D01*
X175267142Y-116433333D01*
X175410000Y-116433333D01*
X175505238Y-116480952D01*
X175552857Y-116528571D01*
X175600476Y-116623809D01*
X175600476Y-116861904D01*
X175552857Y-116957142D01*
X175505238Y-117004761D01*
X175410000Y-117052380D01*
X175124285Y-117052380D01*
X175029047Y-117004761D01*
X174981428Y-116957142D01*
X173478095Y-120190000D02*
X173382857Y-120142380D01*
X173240000Y-120142380D01*
X173097142Y-120190000D01*
X173001904Y-120285238D01*
X172954285Y-120380476D01*
X172906666Y-120570952D01*
X172906666Y-120713809D01*
X172954285Y-120904285D01*
X173001904Y-120999523D01*
X173097142Y-121094761D01*
X173240000Y-121142380D01*
X173335238Y-121142380D01*
X173478095Y-121094761D01*
X173525714Y-121047142D01*
X173525714Y-120713809D01*
X173335238Y-120713809D01*
X173954285Y-121142380D02*
X173954285Y-120142380D01*
X174525714Y-121142380D01*
X174525714Y-120142380D01*
X175001904Y-121142380D02*
X175001904Y-120142380D01*
X175240000Y-120142380D01*
X175382857Y-120190000D01*
X175478095Y-120285238D01*
X175525714Y-120380476D01*
X175573333Y-120570952D01*
X175573333Y-120713809D01*
X175525714Y-120904285D01*
X175478095Y-120999523D01*
X175382857Y-121094761D01*
X175240000Y-121142380D01*
X175001904Y-121142380D01*
X174954285Y-117482380D02*
X175525714Y-117482380D01*
X175240000Y-118482380D02*
X175240000Y-117482380D01*
X175349523Y-119782380D02*
X175016190Y-119306190D01*
X174778095Y-119782380D02*
X174778095Y-118782380D01*
X175159047Y-118782380D01*
X175254285Y-118830000D01*
X175301904Y-118877619D01*
X175349523Y-118972857D01*
X175349523Y-119115714D01*
X175301904Y-119210952D01*
X175254285Y-119258571D01*
X175159047Y-119306190D01*
X174778095Y-119306190D01*
X172472380Y-113482380D02*
X172472380Y-114291904D01*
X172520000Y-114387142D01*
X172567619Y-114434761D01*
X172662857Y-114482380D01*
X172853333Y-114482380D01*
X172948571Y-114434761D01*
X172996190Y-114387142D01*
X173043809Y-114291904D01*
X173043809Y-113482380D01*
X173472380Y-114434761D02*
X173615238Y-114482380D01*
X173853333Y-114482380D01*
X173948571Y-114434761D01*
X173996190Y-114387142D01*
X174043809Y-114291904D01*
X174043809Y-114196666D01*
X173996190Y-114101428D01*
X173948571Y-114053809D01*
X173853333Y-114006190D01*
X173662857Y-113958571D01*
X173567619Y-113910952D01*
X173520000Y-113863333D01*
X173472380Y-113768095D01*
X173472380Y-113672857D01*
X173520000Y-113577619D01*
X173567619Y-113530000D01*
X173662857Y-113482380D01*
X173900952Y-113482380D01*
X174043809Y-113530000D01*
X174424761Y-114196666D02*
X174900952Y-114196666D01*
X174329523Y-114482380D02*
X174662857Y-113482380D01*
X174996190Y-114482380D01*
X175900952Y-114482380D02*
X175567619Y-114006190D01*
X175329523Y-114482380D02*
X175329523Y-113482380D01*
X175710476Y-113482380D01*
X175805714Y-113530000D01*
X175853333Y-113577619D01*
X175900952Y-113672857D01*
X175900952Y-113815714D01*
X175853333Y-113910952D01*
X175805714Y-113958571D01*
X175710476Y-114006190D01*
X175329523Y-114006190D01*
X176186666Y-113482380D02*
X176758095Y-113482380D01*
X176472380Y-114482380D02*
X176472380Y-113482380D01*
X177043809Y-113577619D02*
X177091428Y-113530000D01*
X177186666Y-113482380D01*
X177424761Y-113482380D01*
X177520000Y-113530000D01*
X177567619Y-113577619D01*
X177615238Y-113672857D01*
X177615238Y-113768095D01*
X177567619Y-113910952D01*
X176996190Y-114482380D01*
X177615238Y-114482380D01*
X182980000Y-66924761D02*
X183122857Y-66972380D01*
X183360952Y-66972380D01*
X183456190Y-66924761D01*
X183503809Y-66877142D01*
X183551428Y-66781904D01*
X183551428Y-66686666D01*
X183503809Y-66591428D01*
X183456190Y-66543809D01*
X183360952Y-66496190D01*
X183170476Y-66448571D01*
X183075238Y-66400952D01*
X183027619Y-66353333D01*
X182980000Y-66258095D01*
X182980000Y-66162857D01*
X183027619Y-66067619D01*
X183075238Y-66020000D01*
X183170476Y-65972380D01*
X183408571Y-65972380D01*
X183551428Y-66020000D01*
X183980000Y-66972380D02*
X183980000Y-65972380D01*
X184360952Y-65972380D01*
X184456190Y-66020000D01*
X184503809Y-66067619D01*
X184551428Y-66162857D01*
X184551428Y-66305714D01*
X184503809Y-66400952D01*
X184456190Y-66448571D01*
X184360952Y-66496190D01*
X183980000Y-66496190D01*
X184980000Y-66972380D02*
X184980000Y-65972380D01*
X185408571Y-66067619D02*
X185456190Y-66020000D01*
X185551428Y-65972380D01*
X185789523Y-65972380D01*
X185884761Y-66020000D01*
X185932380Y-66067619D01*
X185980000Y-66162857D01*
X185980000Y-66258095D01*
X185932380Y-66400952D01*
X185360952Y-66972380D01*
X185980000Y-66972380D01*
X184789523Y-75211904D02*
X185284761Y-75211904D01*
X185018095Y-75516666D01*
X185132380Y-75516666D01*
X185208571Y-75554761D01*
X185246666Y-75592857D01*
X185284761Y-75669047D01*
X185284761Y-75859523D01*
X185246666Y-75935714D01*
X185208571Y-75973809D01*
X185132380Y-76011904D01*
X184903809Y-76011904D01*
X184827619Y-75973809D01*
X184789523Y-75935714D01*
X185513333Y-75211904D02*
X185780000Y-76011904D01*
X186046666Y-75211904D01*
X186237142Y-75211904D02*
X186732380Y-75211904D01*
X186465714Y-75516666D01*
X186580000Y-75516666D01*
X186656190Y-75554761D01*
X186694285Y-75592857D01*
X186732380Y-75669047D01*
X186732380Y-75859523D01*
X186694285Y-75935714D01*
X186656190Y-75973809D01*
X186580000Y-76011904D01*
X186351428Y-76011904D01*
X186275238Y-75973809D01*
X186237142Y-75935714D01*
X184769523Y-74731904D02*
X184769523Y-73931904D01*
X185226666Y-74731904D01*
X185226666Y-73931904D01*
X185569523Y-74693809D02*
X185683809Y-74731904D01*
X185874285Y-74731904D01*
X185950476Y-74693809D01*
X185988571Y-74655714D01*
X186026666Y-74579523D01*
X186026666Y-74503333D01*
X185988571Y-74427142D01*
X185950476Y-74389047D01*
X185874285Y-74350952D01*
X185721904Y-74312857D01*
X185645714Y-74274761D01*
X185607619Y-74236666D01*
X185569523Y-74160476D01*
X185569523Y-74084285D01*
X185607619Y-74008095D01*
X185645714Y-73970000D01*
X185721904Y-73931904D01*
X185912380Y-73931904D01*
X186026666Y-73970000D01*
X186331428Y-74693809D02*
X186445714Y-74731904D01*
X186636190Y-74731904D01*
X186712380Y-74693809D01*
X186750476Y-74655714D01*
X186788571Y-74579523D01*
X186788571Y-74503333D01*
X186750476Y-74427142D01*
X186712380Y-74389047D01*
X186636190Y-74350952D01*
X186483809Y-74312857D01*
X186407619Y-74274761D01*
X186369523Y-74236666D01*
X186331428Y-74160476D01*
X186331428Y-74084285D01*
X186369523Y-74008095D01*
X186407619Y-73970000D01*
X186483809Y-73931904D01*
X186674285Y-73931904D01*
X186788571Y-73970000D01*
X184494285Y-73524761D02*
X184637142Y-73572380D01*
X184875238Y-73572380D01*
X184970476Y-73524761D01*
X185018095Y-73477142D01*
X185065714Y-73381904D01*
X185065714Y-73286666D01*
X185018095Y-73191428D01*
X184970476Y-73143809D01*
X184875238Y-73096190D01*
X184684761Y-73048571D01*
X184589523Y-73000952D01*
X184541904Y-72953333D01*
X184494285Y-72858095D01*
X184494285Y-72762857D01*
X184541904Y-72667619D01*
X184589523Y-72620000D01*
X184684761Y-72572380D01*
X184922857Y-72572380D01*
X185065714Y-72620000D01*
X186065714Y-73477142D02*
X186018095Y-73524761D01*
X185875238Y-73572380D01*
X185780000Y-73572380D01*
X185637142Y-73524761D01*
X185541904Y-73429523D01*
X185494285Y-73334285D01*
X185446666Y-73143809D01*
X185446666Y-73000952D01*
X185494285Y-72810476D01*
X185541904Y-72715238D01*
X185637142Y-72620000D01*
X185780000Y-72572380D01*
X185875238Y-72572380D01*
X186018095Y-72620000D01*
X186065714Y-72667619D01*
X186494285Y-73572380D02*
X186494285Y-72572380D01*
X187065714Y-73572380D02*
X186637142Y-73000952D01*
X187065714Y-72572380D02*
X186494285Y-73143809D01*
X184558571Y-72272380D02*
X184558571Y-71272380D01*
X184891904Y-71986666D01*
X185225238Y-71272380D01*
X185225238Y-72272380D01*
X185701428Y-72272380D02*
X185701428Y-71272380D01*
X186130000Y-72224761D02*
X186272857Y-72272380D01*
X186510952Y-72272380D01*
X186606190Y-72224761D01*
X186653809Y-72177142D01*
X186701428Y-72081904D01*
X186701428Y-71986666D01*
X186653809Y-71891428D01*
X186606190Y-71843809D01*
X186510952Y-71796190D01*
X186320476Y-71748571D01*
X186225238Y-71700952D01*
X186177619Y-71653333D01*
X186130000Y-71558095D01*
X186130000Y-71462857D01*
X186177619Y-71367619D01*
X186225238Y-71320000D01*
X186320476Y-71272380D01*
X186558571Y-71272380D01*
X186701428Y-71320000D01*
X187320476Y-71272380D02*
X187510952Y-71272380D01*
X187606190Y-71320000D01*
X187701428Y-71415238D01*
X187749047Y-71605714D01*
X187749047Y-71939047D01*
X187701428Y-72129523D01*
X187606190Y-72224761D01*
X187510952Y-72272380D01*
X187320476Y-72272380D01*
X187225238Y-72224761D01*
X187130000Y-72129523D01*
X187082380Y-71939047D01*
X187082380Y-71605714D01*
X187130000Y-71415238D01*
X187225238Y-71320000D01*
X187320476Y-71272380D01*
X184518571Y-70992380D02*
X184518571Y-69992380D01*
X184851904Y-70706666D01*
X185185238Y-69992380D01*
X185185238Y-70992380D01*
X185851904Y-69992380D02*
X186042380Y-69992380D01*
X186137619Y-70040000D01*
X186232857Y-70135238D01*
X186280476Y-70325714D01*
X186280476Y-70659047D01*
X186232857Y-70849523D01*
X186137619Y-70944761D01*
X186042380Y-70992380D01*
X185851904Y-70992380D01*
X185756666Y-70944761D01*
X185661428Y-70849523D01*
X185613809Y-70659047D01*
X185613809Y-70325714D01*
X185661428Y-70135238D01*
X185756666Y-70040000D01*
X185851904Y-69992380D01*
X186661428Y-70944761D02*
X186804285Y-70992380D01*
X187042380Y-70992380D01*
X187137619Y-70944761D01*
X187185238Y-70897142D01*
X187232857Y-70801904D01*
X187232857Y-70706666D01*
X187185238Y-70611428D01*
X187137619Y-70563809D01*
X187042380Y-70516190D01*
X186851904Y-70468571D01*
X186756666Y-70420952D01*
X186709047Y-70373333D01*
X186661428Y-70278095D01*
X186661428Y-70182857D01*
X186709047Y-70087619D01*
X186756666Y-70040000D01*
X186851904Y-69992380D01*
X187090000Y-69992380D01*
X187232857Y-70040000D01*
X187661428Y-70992380D02*
X187661428Y-69992380D01*
X184998095Y-68580000D02*
X184902857Y-68532380D01*
X184760000Y-68532380D01*
X184617142Y-68580000D01*
X184521904Y-68675238D01*
X184474285Y-68770476D01*
X184426666Y-68960952D01*
X184426666Y-69103809D01*
X184474285Y-69294285D01*
X184521904Y-69389523D01*
X184617142Y-69484761D01*
X184760000Y-69532380D01*
X184855238Y-69532380D01*
X184998095Y-69484761D01*
X185045714Y-69437142D01*
X185045714Y-69103809D01*
X184855238Y-69103809D01*
X185474285Y-69532380D02*
X185474285Y-68532380D01*
X186045714Y-69532380D01*
X186045714Y-68532380D01*
X186521904Y-69532380D02*
X186521904Y-68532380D01*
X186760000Y-68532380D01*
X186902857Y-68580000D01*
X186998095Y-68675238D01*
X187045714Y-68770476D01*
X187093333Y-68960952D01*
X187093333Y-69103809D01*
X187045714Y-69294285D01*
X186998095Y-69389523D01*
X186902857Y-69484761D01*
X186760000Y-69532380D01*
X186521904Y-69532380D01*
X198782380Y-113638095D02*
X198782380Y-113019047D01*
X199163333Y-113352380D01*
X199163333Y-113209523D01*
X199210952Y-113114285D01*
X199258571Y-113066666D01*
X199353809Y-113019047D01*
X199591904Y-113019047D01*
X199687142Y-113066666D01*
X199734761Y-113114285D01*
X199782380Y-113209523D01*
X199782380Y-113495238D01*
X199734761Y-113590476D01*
X199687142Y-113638095D01*
X198782380Y-112733333D02*
X199782380Y-112400000D01*
X198782380Y-112066666D01*
X198782380Y-111828571D02*
X198782380Y-111209523D01*
X199163333Y-111542857D01*
X199163333Y-111400000D01*
X199210952Y-111304761D01*
X199258571Y-111257142D01*
X199353809Y-111209523D01*
X199591904Y-111209523D01*
X199687142Y-111257142D01*
X199734761Y-111304761D01*
X199782380Y-111400000D01*
X199782380Y-111685714D01*
X199734761Y-111780952D01*
X199687142Y-111828571D01*
X201024761Y-113450476D02*
X201072380Y-113307619D01*
X201072380Y-113069523D01*
X201024761Y-112974285D01*
X200977142Y-112926666D01*
X200881904Y-112879047D01*
X200786666Y-112879047D01*
X200691428Y-112926666D01*
X200643809Y-112974285D01*
X200596190Y-113069523D01*
X200548571Y-113260000D01*
X200500952Y-113355238D01*
X200453333Y-113402857D01*
X200358095Y-113450476D01*
X200262857Y-113450476D01*
X200167619Y-113402857D01*
X200120000Y-113355238D01*
X200072380Y-113260000D01*
X200072380Y-113021904D01*
X200120000Y-112879047D01*
X200977142Y-111879047D02*
X201024761Y-111926666D01*
X201072380Y-112069523D01*
X201072380Y-112164761D01*
X201024761Y-112307619D01*
X200929523Y-112402857D01*
X200834285Y-112450476D01*
X200643809Y-112498095D01*
X200500952Y-112498095D01*
X200310476Y-112450476D01*
X200215238Y-112402857D01*
X200120000Y-112307619D01*
X200072380Y-112164761D01*
X200072380Y-112069523D01*
X200120000Y-111926666D01*
X200167619Y-111879047D01*
X201072380Y-110974285D02*
X201072380Y-111450476D01*
X200072380Y-111450476D01*
X202334761Y-113444285D02*
X202382380Y-113301428D01*
X202382380Y-113063333D01*
X202334761Y-112968095D01*
X202287142Y-112920476D01*
X202191904Y-112872857D01*
X202096666Y-112872857D01*
X202001428Y-112920476D01*
X201953809Y-112968095D01*
X201906190Y-113063333D01*
X201858571Y-113253809D01*
X201810952Y-113349047D01*
X201763333Y-113396666D01*
X201668095Y-113444285D01*
X201572857Y-113444285D01*
X201477619Y-113396666D01*
X201430000Y-113349047D01*
X201382380Y-113253809D01*
X201382380Y-113015714D01*
X201430000Y-112872857D01*
X202382380Y-112444285D02*
X201382380Y-112444285D01*
X201382380Y-112206190D01*
X201430000Y-112063333D01*
X201525238Y-111968095D01*
X201620476Y-111920476D01*
X201810952Y-111872857D01*
X201953809Y-111872857D01*
X202144285Y-111920476D01*
X202239523Y-111968095D01*
X202334761Y-112063333D01*
X202382380Y-112206190D01*
X202382380Y-112444285D01*
X202096666Y-111491904D02*
X202096666Y-111015714D01*
X202382380Y-111587142D02*
X201382380Y-111253809D01*
X202382380Y-110920476D01*
X202770000Y-113081904D02*
X202722380Y-113177142D01*
X202722380Y-113320000D01*
X202770000Y-113462857D01*
X202865238Y-113558095D01*
X202960476Y-113605714D01*
X203150952Y-113653333D01*
X203293809Y-113653333D01*
X203484285Y-113605714D01*
X203579523Y-113558095D01*
X203674761Y-113462857D01*
X203722380Y-113320000D01*
X203722380Y-113224761D01*
X203674761Y-113081904D01*
X203627142Y-113034285D01*
X203293809Y-113034285D01*
X203293809Y-113224761D01*
X203722380Y-112605714D02*
X202722380Y-112605714D01*
X203722380Y-112034285D01*
X202722380Y-112034285D01*
X203722380Y-111558095D02*
X202722380Y-111558095D01*
X202722380Y-111320000D01*
X202770000Y-111177142D01*
X202865238Y-111081904D01*
X202960476Y-111034285D01*
X203150952Y-110986666D01*
X203293809Y-110986666D01*
X203484285Y-111034285D01*
X203579523Y-111081904D01*
X203674761Y-111177142D01*
X203722380Y-111320000D01*
X203722380Y-111558095D01*
X164440000Y-64897142D02*
X164487619Y-64944761D01*
X164440000Y-64992380D01*
X164392380Y-64944761D01*
X164440000Y-64897142D01*
X164440000Y-64992380D01*
X187480000Y-124277142D02*
X187527619Y-124324761D01*
X187480000Y-124372380D01*
X187432380Y-124324761D01*
X187480000Y-124277142D01*
X187480000Y-124372380D01*
X152670000Y-120307142D02*
X152717619Y-120354761D01*
X152670000Y-120402380D01*
X152622380Y-120354761D01*
X152670000Y-120307142D01*
X152670000Y-120402380D01*
X145770000Y-118667142D02*
X145817619Y-118714761D01*
X145770000Y-118762380D01*
X145722380Y-118714761D01*
X145770000Y-118667142D01*
X145770000Y-118762380D01*
X136540000Y-96337142D02*
X136587619Y-96384761D01*
X136540000Y-96432380D01*
X136492380Y-96384761D01*
X136540000Y-96337142D01*
X136540000Y-96432380D01*
X149880000Y-72877142D02*
X149927619Y-72924761D01*
X149880000Y-72972380D01*
X149832380Y-72924761D01*
X149880000Y-72877142D01*
X149880000Y-72972380D01*
X187740000Y-103087142D02*
X187787619Y-103134761D01*
X187740000Y-103182380D01*
X187692380Y-103134761D01*
X187740000Y-103087142D01*
X187740000Y-103182380D01*
D16*
X194530000Y-62080000D02*
X192630000Y-62080000D01*
X192630000Y-62080000D02*
X192630000Y-60180000D01*
X192630000Y-60180000D02*
X194530000Y-60180000D01*
X194530000Y-60180000D02*
X194530000Y-62080000D01*
X209470000Y-42800000D02*
X209470000Y-41540000D01*
X209470000Y-35980000D02*
X209470000Y-37240000D01*
X205710000Y-42800000D02*
X209470000Y-42800000D01*
X203460000Y-35980000D02*
X209470000Y-35980000D01*
X188760000Y-88680000D02*
X198960000Y-88680000D01*
X198960000Y-74480000D02*
X198960000Y-88680000D01*
X188860000Y-74480000D02*
X198960000Y-74480000D01*
X188860000Y-78180000D02*
X188860000Y-74480000D01*
X186060000Y-78180000D02*
X188860000Y-78180000D01*
X186060000Y-80580000D02*
X186060000Y-78180000D01*
X188760000Y-80580000D02*
X186060000Y-80580000D01*
X188760000Y-82580000D02*
X188760000Y-80580000D01*
X186060000Y-82580000D02*
X188760000Y-82580000D01*
X186060000Y-84880000D02*
X186060000Y-82580000D01*
X188760000Y-84880000D02*
X186060000Y-84880000D01*
X188760000Y-88680000D02*
X188760000Y-84880000D01*
X189555164Y-124375000D02*
X189770836Y-124375000D01*
X189555164Y-125095000D02*
X189770836Y-125095000D01*
X170400000Y-47750000D02*
X170400000Y-43850000D01*
X172400000Y-47750000D02*
X172400000Y-43850000D01*
X170400000Y-47750000D02*
X172400000Y-47750000D01*
X188050000Y-67790000D02*
X188050000Y-72525000D01*
X182330000Y-67790000D02*
X188050000Y-67790000D01*
X182330000Y-68860000D02*
X182330000Y-67790000D01*
X182630000Y-68860000D02*
X182330000Y-68860000D01*
X182630000Y-72525000D02*
X182630000Y-68860000D01*
X188050000Y-77260000D02*
X188050000Y-72525000D01*
X182330000Y-77260000D02*
X188050000Y-77260000D01*
X182330000Y-76190000D02*
X182330000Y-77260000D01*
X182630000Y-76190000D02*
X182330000Y-76190000D01*
X182630000Y-72525000D02*
X182630000Y-76190000D01*
X182040000Y-75900000D02*
X182040000Y-76400000D01*
X182340000Y-75900000D02*
X182040000Y-75900000D01*
X215483848Y-123896153D02*
G75*
G03*
X215483848Y-123896153I-183848J0D01*
G01*
X152013900Y-122589700D02*
X152013900Y-121899700D01*
X151563900Y-121899700D02*
X152013900Y-121899700D01*
X167333900Y-109479700D02*
X167773900Y-109479700D01*
X151563900Y-109479700D02*
X152013900Y-109479700D01*
X167333900Y-121899700D02*
X167783900Y-121899700D01*
X151563900Y-121899700D02*
X151563900Y-109479700D01*
X167783900Y-121899700D02*
X167783900Y-109479700D01*
X159933900Y-109479700D02*
X161613900Y-109479700D01*
X159933900Y-121899700D02*
X161613900Y-121899700D01*
X157760000Y-70550000D02*
X155860000Y-70550000D01*
X157760000Y-68650000D02*
X157760000Y-70550000D01*
X155860000Y-68650000D02*
X157760000Y-68650000D01*
X155860000Y-70550000D02*
X155860000Y-68650000D01*
X168831000Y-64517500D02*
X165181000Y-64517500D01*
X168831000Y-64517500D02*
X171031000Y-64517500D01*
X168831000Y-69987500D02*
X166631000Y-69987500D01*
X168831000Y-69987500D02*
X171031000Y-69987500D01*
X162434080Y-68598500D02*
X162152920Y-68598500D01*
X162434080Y-67578500D02*
X162152920Y-67578500D01*
X156459420Y-79370000D02*
X156740580Y-79370000D01*
X156459420Y-80390000D02*
X156740580Y-80390000D01*
X153030000Y-87687836D02*
X153030000Y-87472164D01*
X153750000Y-87687836D02*
X153750000Y-87472164D01*
X169960420Y-99638500D02*
X170241580Y-99638500D01*
X169960420Y-98618500D02*
X170241580Y-98618500D01*
X153840000Y-92082164D02*
X153840000Y-92297836D01*
X153120000Y-92082164D02*
X153120000Y-92297836D01*
X173351920Y-83823000D02*
X173633080Y-83823000D01*
X173351920Y-84843000D02*
X173633080Y-84843000D01*
X157422836Y-98387500D02*
X157207164Y-98387500D01*
X157422836Y-99107500D02*
X157207164Y-99107500D01*
X170486164Y-96990500D02*
X170701836Y-96990500D01*
X170486164Y-97710500D02*
X170701836Y-97710500D01*
X149810336Y-81200500D02*
X149594664Y-81200500D01*
X149810336Y-80480500D02*
X149594664Y-80480500D01*
X171248164Y-82534000D02*
X171463836Y-82534000D01*
X171248164Y-81814000D02*
X171463836Y-81814000D01*
X146940000Y-46078748D02*
X146940000Y-47501252D01*
X148760000Y-46078748D02*
X148760000Y-47501252D01*
X144270000Y-44267836D02*
X144270000Y-44052164D01*
X143550000Y-44267836D02*
X143550000Y-44052164D01*
X150062664Y-86461000D02*
X150278336Y-86461000D01*
X150062664Y-85741000D02*
X150278336Y-85741000D01*
X154770000Y-48330580D02*
X154770000Y-48049420D01*
X155790000Y-48330580D02*
X155790000Y-48049420D01*
X150250336Y-91922000D02*
X150034664Y-91922000D01*
X150250336Y-91202000D02*
X150034664Y-91202000D01*
X150317836Y-95120000D02*
X150102164Y-95120000D01*
X150317836Y-95840000D02*
X150102164Y-95840000D01*
X160271252Y-52210000D02*
X158848748Y-52210000D01*
X160271252Y-54030000D02*
X158848748Y-54030000D01*
X151862164Y-92350000D02*
X152077836Y-92350000D01*
X151862164Y-93070000D02*
X152077836Y-93070000D01*
X160071252Y-43970000D02*
X158648748Y-43970000D01*
X160071252Y-45790000D02*
X158648748Y-45790000D01*
X198652164Y-102220000D02*
X198867836Y-102220000D01*
X198652164Y-101500000D02*
X198867836Y-101500000D01*
X198790000Y-103447836D02*
X198790000Y-103232164D01*
X199510000Y-103447836D02*
X199510000Y-103232164D01*
X201677836Y-91560000D02*
X201462164Y-91560000D01*
X201677836Y-92280000D02*
X201462164Y-92280000D01*
X202830000Y-106557836D02*
X202830000Y-106342164D01*
X203550000Y-106557836D02*
X203550000Y-106342164D01*
X170450000Y-49284420D02*
X170450000Y-49565580D01*
X171470000Y-49284420D02*
X171470000Y-49565580D01*
X199122164Y-91580000D02*
X199337836Y-91580000D01*
X199122164Y-92300000D02*
X199337836Y-92300000D01*
X196566252Y-92170000D02*
X195143748Y-92170000D01*
X196566252Y-90350000D02*
X195143748Y-90350000D01*
X166420748Y-52190000D02*
X167843252Y-52190000D01*
X166420748Y-54010000D02*
X167843252Y-54010000D01*
X202992164Y-101620000D02*
X203207836Y-101620000D01*
X202992164Y-100900000D02*
X203207836Y-100900000D01*
X219580000Y-121367836D02*
X219580000Y-121152164D01*
X220300000Y-121367836D02*
X220300000Y-121152164D01*
X166418748Y-43990000D02*
X167841252Y-43990000D01*
X166418748Y-45810000D02*
X167841252Y-45810000D01*
X204048748Y-100475000D02*
X204571252Y-100475000D01*
X204048748Y-99005000D02*
X204571252Y-99005000D01*
X174400000Y-61657836D02*
X174400000Y-61442164D01*
X175120000Y-61657836D02*
X175120000Y-61442164D01*
X176250000Y-61627836D02*
X176250000Y-61412164D01*
X175530000Y-61627836D02*
X175530000Y-61412164D01*
X188854664Y-103829500D02*
X189070336Y-103829500D01*
X188854664Y-103109500D02*
X189070336Y-103109500D01*
X158644400Y-126319620D02*
X158644400Y-126600780D01*
X159664400Y-126319620D02*
X159664400Y-126600780D01*
X162447080Y-65165500D02*
X162165920Y-65165500D01*
X162447080Y-66185500D02*
X162165920Y-66185500D01*
X149800000Y-58667836D02*
X149800000Y-58452164D01*
X149080000Y-58667836D02*
X149080000Y-58452164D01*
X173173000Y-64932664D02*
X173173000Y-65148336D01*
X173893000Y-64932664D02*
X173893000Y-65148336D01*
X162434080Y-63324000D02*
X162152920Y-63324000D01*
X162434080Y-64344000D02*
X162152920Y-64344000D01*
X162370580Y-71138500D02*
X162089420Y-71138500D01*
X162370580Y-70118500D02*
X162089420Y-70118500D01*
X149340000Y-40640000D02*
X151340000Y-40640000D01*
X151340000Y-40640000D02*
X151340000Y-36740000D01*
X149340000Y-40640000D02*
X149340000Y-36740000D01*
X157210000Y-36140000D02*
X161110000Y-36140000D01*
X157210000Y-38140000D02*
X161110000Y-38140000D01*
X157210000Y-36140000D02*
X157210000Y-38140000D01*
X157200000Y-38600000D02*
X161100000Y-38600000D01*
X157200000Y-40600000D02*
X161100000Y-40600000D01*
X157200000Y-38600000D02*
X157200000Y-40600000D01*
X155860000Y-49890000D02*
X153860000Y-49890000D01*
X153860000Y-49890000D02*
X153860000Y-53790000D01*
X155860000Y-49890000D02*
X155860000Y-53790000D01*
X153960000Y-40875000D02*
X151675000Y-40875000D01*
X151675000Y-40875000D02*
X151675000Y-42345000D01*
X151675000Y-42345000D02*
X153960000Y-42345000D01*
X162075500Y-40969000D02*
X159790500Y-40969000D01*
X159790500Y-40969000D02*
X159790500Y-42439000D01*
X159790500Y-42439000D02*
X162075500Y-42439000D01*
X132280000Y-73515000D02*
X129995000Y-73515000D01*
X129995000Y-73515000D02*
X129995000Y-74985000D01*
X129995000Y-74985000D02*
X132280000Y-74985000D01*
X130015000Y-81305000D02*
X132300000Y-81305000D01*
X130015000Y-79835000D02*
X130015000Y-81305000D01*
X132300000Y-79835000D02*
X130015000Y-79835000D01*
X171560700Y-112362500D02*
X171560700Y-110077500D01*
X170090700Y-112362500D02*
X171560700Y-112362500D01*
X170090700Y-110077500D02*
X170090700Y-112362500D01*
X130002500Y-87385000D02*
X132287500Y-87385000D01*
X130002500Y-85915000D02*
X130002500Y-87385000D01*
X132287500Y-85915000D02*
X130002500Y-85915000D01*
X146032064Y-39990000D02*
X144827936Y-39990000D01*
X146032064Y-41810000D02*
X144827936Y-41810000D01*
X146879622Y-42820000D02*
X146080378Y-42820000D01*
X146879622Y-43940000D02*
X146080378Y-43940000D01*
X145562000Y-77730000D02*
X145562000Y-74310000D01*
X145562000Y-74310000D02*
X141092000Y-74310000D01*
X141092000Y-74310000D02*
X141092000Y-77730000D01*
X141092000Y-77730000D02*
X145562000Y-77730000D01*
X143327000Y-74820000D02*
X145052000Y-74820000D01*
X145052000Y-74820000D02*
X145052000Y-75570000D01*
X145052000Y-75570000D02*
X145252000Y-75570000D01*
X145252000Y-75570000D02*
X145252000Y-76370000D01*
X145252000Y-76370000D02*
X145052000Y-76370000D01*
X145052000Y-76370000D02*
X145052000Y-77220000D01*
X145052000Y-77220000D02*
X143327000Y-77220000D01*
X143327000Y-74820000D02*
X141602000Y-74820000D01*
X141602000Y-74820000D02*
X141602000Y-75570000D01*
X141602000Y-75570000D02*
X141402000Y-75570000D01*
X141402000Y-75570000D02*
X141402000Y-76370000D01*
X141402000Y-76370000D02*
X141602000Y-76370000D01*
X141602000Y-76370000D02*
X141602000Y-77220000D01*
X141602000Y-77220000D02*
X143327000Y-77220000D01*
X145852000Y-74020000D02*
X145852000Y-75020000D01*
X145852000Y-74020000D02*
X144852000Y-74020000D01*
X160550000Y-106010000D02*
X155815000Y-106010000D01*
X160550000Y-100290000D02*
X160550000Y-106010000D01*
X159480000Y-100290000D02*
X160550000Y-100290000D01*
X159480000Y-100590000D02*
X159480000Y-100290000D01*
X155815000Y-100590000D02*
X159480000Y-100590000D01*
X151080000Y-106010000D02*
X155815000Y-106010000D01*
X151080000Y-100290000D02*
X151080000Y-106010000D01*
X152150000Y-100290000D02*
X151080000Y-100290000D01*
X152150000Y-100590000D02*
X152150000Y-100290000D01*
X155815000Y-100590000D02*
X152150000Y-100590000D01*
X152440000Y-100000000D02*
X151940000Y-100000000D01*
X152440000Y-100300000D02*
X152440000Y-100000000D01*
X148970000Y-132450000D02*
X145485000Y-132450000D01*
X148970000Y-126730000D02*
X148970000Y-132450000D01*
X147900000Y-126730000D02*
X148970000Y-126730000D01*
X147900000Y-127030000D02*
X147900000Y-126730000D01*
X145485000Y-127030000D02*
X147900000Y-127030000D01*
X142000000Y-132450000D02*
X145485000Y-132450000D01*
X142000000Y-126730000D02*
X142000000Y-132450000D01*
X143070000Y-126730000D02*
X142000000Y-126730000D01*
X143070000Y-127030000D02*
X143070000Y-126730000D01*
X145485000Y-127030000D02*
X143070000Y-127030000D01*
X143360000Y-126440000D02*
X142860000Y-126440000D01*
X143360000Y-126740000D02*
X143360000Y-126440000D01*
X151260000Y-67430000D02*
X151260000Y-63945000D01*
X156980000Y-67430000D02*
X151260000Y-67430000D01*
X156980000Y-66360000D02*
X156980000Y-67430000D01*
X156680000Y-66360000D02*
X156980000Y-66360000D01*
X156680000Y-63945000D02*
X156680000Y-66360000D01*
X151260000Y-60460000D02*
X151260000Y-63945000D01*
X156980000Y-60460000D02*
X151260000Y-60460000D01*
X156980000Y-61530000D02*
X156980000Y-60460000D01*
X156680000Y-61530000D02*
X156980000Y-61530000D01*
X156680000Y-63945000D02*
X156680000Y-61530000D01*
X157270000Y-61820000D02*
X157270000Y-61320000D01*
X156970000Y-61820000D02*
X157270000Y-61820000D01*
X147060000Y-35530000D02*
X146060000Y-35530000D01*
X147060000Y-35530000D02*
X147060000Y-36530000D01*
X142810000Y-38730000D02*
X144535000Y-38730000D01*
X142810000Y-37880000D02*
X142810000Y-38730000D01*
X142610000Y-37880000D02*
X142810000Y-37880000D01*
X142610000Y-37080000D02*
X142610000Y-37880000D01*
X142810000Y-37080000D02*
X142610000Y-37080000D01*
X142810000Y-36330000D02*
X142810000Y-37080000D01*
X144535000Y-36330000D02*
X142810000Y-36330000D01*
X146260000Y-38730000D02*
X144535000Y-38730000D01*
X146260000Y-37880000D02*
X146260000Y-38730000D01*
X146460000Y-37880000D02*
X146260000Y-37880000D01*
X146460000Y-37080000D02*
X146460000Y-37880000D01*
X146260000Y-37080000D02*
X146460000Y-37080000D01*
X146260000Y-36330000D02*
X146260000Y-37080000D01*
X144535000Y-36330000D02*
X146260000Y-36330000D01*
X142300000Y-39240000D02*
X146770000Y-39240000D01*
X142300000Y-35820000D02*
X142300000Y-39240000D01*
X146770000Y-35820000D02*
X142300000Y-35820000D01*
X146770000Y-39240000D02*
X146770000Y-35820000D01*
X177790000Y-116600000D02*
X178090000Y-116600000D01*
X178090000Y-116600000D02*
X178090000Y-116100000D01*
X177500000Y-118725000D02*
X177500000Y-116310000D01*
X177500000Y-116310000D02*
X177800000Y-116310000D01*
X177800000Y-116310000D02*
X177800000Y-115240000D01*
X177800000Y-115240000D02*
X172080000Y-115240000D01*
X172080000Y-115240000D02*
X172080000Y-118725000D01*
X177500000Y-118725000D02*
X177500000Y-121140000D01*
X177500000Y-121140000D02*
X177800000Y-121140000D01*
X177800000Y-121140000D02*
X177800000Y-122210000D01*
X177800000Y-122210000D02*
X172080000Y-122210000D01*
X172080000Y-122210000D02*
X172080000Y-118725000D01*
X141940000Y-99960000D02*
X141940000Y-96475000D01*
X147660000Y-99960000D02*
X141940000Y-99960000D01*
X147660000Y-98890000D02*
X147660000Y-99960000D01*
X147360000Y-98890000D02*
X147660000Y-98890000D01*
X147360000Y-96475000D02*
X147360000Y-98890000D01*
X141940000Y-92990000D02*
X141940000Y-96475000D01*
X147660000Y-92990000D02*
X141940000Y-92990000D01*
X147660000Y-94060000D02*
X147660000Y-92990000D01*
X147360000Y-94060000D02*
X147660000Y-94060000D01*
X147360000Y-96475000D02*
X147360000Y-94060000D01*
X147950000Y-94350000D02*
X147950000Y-93850000D01*
X147650000Y-94350000D02*
X147950000Y-94350000D01*
X194960000Y-67700000D02*
X195260000Y-67700000D01*
X195260000Y-67700000D02*
X195260000Y-67200000D01*
X194670000Y-69825000D02*
X194670000Y-67410000D01*
X194670000Y-67410000D02*
X194970000Y-67410000D01*
X194970000Y-67410000D02*
X194970000Y-66340000D01*
X194970000Y-66340000D02*
X189250000Y-66340000D01*
X189250000Y-66340000D02*
X189250000Y-69825000D01*
X194670000Y-69825000D02*
X194670000Y-72240000D01*
X194670000Y-72240000D02*
X194970000Y-72240000D01*
X194970000Y-72240000D02*
X194970000Y-73310000D01*
X194970000Y-73310000D02*
X189250000Y-73310000D01*
X189250000Y-73310000D02*
X189250000Y-69825000D01*
X185830000Y-62400000D02*
X185830000Y-59540000D01*
X191550000Y-62400000D02*
X185830000Y-62400000D01*
X191550000Y-61330000D02*
X191550000Y-62400000D01*
X191250000Y-61330000D02*
X191550000Y-61330000D01*
X191250000Y-59540000D02*
X191250000Y-61330000D01*
X185830000Y-56680000D02*
X185830000Y-59540000D01*
X191550000Y-56680000D02*
X185830000Y-56680000D01*
X191550000Y-57750000D02*
X191550000Y-56680000D01*
X191250000Y-57750000D02*
X191550000Y-57750000D01*
X191250000Y-59540000D02*
X191250000Y-57750000D01*
X191840000Y-58040000D02*
X191840000Y-57540000D01*
X191540000Y-58040000D02*
X191840000Y-58040000D01*
X202690000Y-63720000D02*
X202690000Y-67205000D01*
X196970000Y-63720000D02*
X202690000Y-63720000D01*
X196970000Y-64790000D02*
X196970000Y-63720000D01*
X197270000Y-64790000D02*
X196970000Y-64790000D01*
X197270000Y-67205000D02*
X197270000Y-64790000D01*
X202690000Y-70690000D02*
X202690000Y-67205000D01*
X196970000Y-70690000D02*
X202690000Y-70690000D01*
X196970000Y-69620000D02*
X196970000Y-70690000D01*
X197270000Y-69620000D02*
X196970000Y-69620000D01*
X197270000Y-67205000D02*
X197270000Y-69620000D01*
X196680000Y-69330000D02*
X196680000Y-69830000D01*
X196980000Y-69330000D02*
X196680000Y-69330000D01*
X175630000Y-107590000D02*
X175630000Y-107890000D01*
X175630000Y-107890000D02*
X176130000Y-107890000D01*
X172255000Y-107300000D02*
X175920000Y-107300000D01*
X175920000Y-107300000D02*
X175920000Y-107600000D01*
X175920000Y-107600000D02*
X176990000Y-107600000D01*
X176990000Y-107600000D02*
X176990000Y-101880000D01*
X176990000Y-101880000D02*
X172255000Y-101880000D01*
X172255000Y-107300000D02*
X168590000Y-107300000D01*
X168590000Y-107300000D02*
X168590000Y-107600000D01*
X168590000Y-107600000D02*
X167520000Y-107600000D01*
X167520000Y-107600000D02*
X167520000Y-101880000D01*
X167520000Y-101880000D02*
X172255000Y-101880000D01*
X171470000Y-41350000D02*
X171470000Y-41650000D01*
X171470000Y-41650000D02*
X171970000Y-41650000D01*
X168095000Y-41060000D02*
X171760000Y-41060000D01*
X171760000Y-41060000D02*
X171760000Y-41360000D01*
X171760000Y-41360000D02*
X172830000Y-41360000D01*
X172830000Y-41360000D02*
X172830000Y-35640000D01*
X172830000Y-35640000D02*
X168095000Y-35640000D01*
X168095000Y-41060000D02*
X164430000Y-41060000D01*
X164430000Y-41060000D02*
X164430000Y-41360000D01*
X164430000Y-41360000D02*
X163360000Y-41360000D01*
X163360000Y-41360000D02*
X163360000Y-35640000D01*
X163360000Y-35640000D02*
X168095000Y-35640000D01*
X199070000Y-108850000D02*
X199070000Y-108550000D01*
X199070000Y-108550000D02*
X198570000Y-108550000D01*
X201195000Y-109140000D02*
X198780000Y-109140000D01*
X198780000Y-109140000D02*
X198780000Y-108840000D01*
X198780000Y-108840000D02*
X197710000Y-108840000D01*
X197710000Y-108840000D02*
X197710000Y-114560000D01*
X197710000Y-114560000D02*
X201195000Y-114560000D01*
X201195000Y-109140000D02*
X203610000Y-109140000D01*
X203610000Y-109140000D02*
X203610000Y-108840000D01*
X203610000Y-108840000D02*
X204680000Y-108840000D01*
X204680000Y-108840000D02*
X204680000Y-114560000D01*
X204680000Y-114560000D02*
X201195000Y-114560000D01*
X145590000Y-83390000D02*
X145890000Y-83390000D01*
X145890000Y-83390000D02*
X145890000Y-82890000D01*
X145300000Y-85515000D02*
X145300000Y-83100000D01*
X145300000Y-83100000D02*
X145600000Y-83100000D01*
X145600000Y-83100000D02*
X145600000Y-82030000D01*
X145600000Y-82030000D02*
X139880000Y-82030000D01*
X139880000Y-82030000D02*
X139880000Y-85515000D01*
X145300000Y-85515000D02*
X145300000Y-87930000D01*
X145300000Y-87930000D02*
X145600000Y-87930000D01*
X145600000Y-87930000D02*
X145600000Y-89000000D01*
X145600000Y-89000000D02*
X139880000Y-89000000D01*
X139880000Y-89000000D02*
X139880000Y-85515000D01*
X167400000Y-72990000D02*
X172135000Y-72990000D01*
X167400000Y-78710000D02*
X167400000Y-72990000D01*
X168470000Y-78710000D02*
X167400000Y-78710000D01*
X168470000Y-78410000D02*
X168470000Y-78710000D01*
X172135000Y-78410000D02*
X168470000Y-78410000D01*
X176870000Y-72990000D02*
X172135000Y-72990000D01*
X176870000Y-78710000D02*
X176870000Y-72990000D01*
X175800000Y-78710000D02*
X176870000Y-78710000D01*
X175800000Y-78410000D02*
X175800000Y-78710000D01*
X172135000Y-78410000D02*
X175800000Y-78410000D01*
X175510000Y-79000000D02*
X176010000Y-79000000D01*
X175510000Y-78700000D02*
X175510000Y-79000000D01*
X165330000Y-127920000D02*
X165580000Y-128420000D01*
X165830000Y-127920000D02*
X165330000Y-127920000D01*
X165580000Y-128420000D02*
X165830000Y-127920000D01*
X134372500Y-104940000D02*
X134372500Y-105390000D01*
X132522500Y-104940000D02*
X134372500Y-104940000D01*
X129972500Y-112740000D02*
X130222500Y-112740000D01*
X129972500Y-104940000D02*
X130222500Y-104940000D01*
X132522500Y-112740000D02*
X134372500Y-112740000D01*
X134372500Y-112740000D02*
X134372500Y-112290000D01*
X134922500Y-107140000D02*
X134922500Y-107590000D01*
X134922500Y-107140000D02*
X134472500Y-107140000D01*
X134912500Y-96010000D02*
X134462500Y-96010000D01*
X134912500Y-96010000D02*
X134912500Y-96460000D01*
X134362500Y-101610000D02*
X134362500Y-101160000D01*
X132512500Y-101610000D02*
X134362500Y-101610000D01*
X129962500Y-93810000D02*
X130212500Y-93810000D01*
X129962500Y-101610000D02*
X130212500Y-101610000D01*
X132512500Y-93810000D02*
X134362500Y-93810000D01*
X134362500Y-93810000D02*
X134362500Y-94260000D01*
X146685000Y-65425000D02*
X146685000Y-67345000D01*
X146685000Y-67345000D02*
X132675000Y-67345000D01*
X146685000Y-53825000D02*
X146685000Y-53375000D01*
X146685000Y-53375000D02*
X143075000Y-53375000D01*
X130415000Y-65665000D02*
X130415000Y-63355000D01*
X130415000Y-54405000D02*
X130415000Y-56265000D01*
X130415000Y-54405000D02*
X130615000Y-54205000D01*
X141375000Y-53375000D02*
X136675000Y-53375000D01*
X135375000Y-53375000D02*
X133575000Y-53375000D01*
X130765000Y-56475000D02*
X130765000Y-62845000D01*
X130765000Y-56475000D02*
X130615000Y-56475000D01*
X130415000Y-56265000D02*
X130615000Y-56475000D01*
X130415000Y-65665000D02*
X130615000Y-65865000D01*
X130615000Y-65865000D02*
X130615000Y-66125000D01*
X130415000Y-63355000D02*
X130765000Y-62845000D01*
X176030000Y-59170000D02*
X174030000Y-59170000D01*
X176030000Y-56370000D02*
X176030000Y-59170000D01*
X174030000Y-56370000D02*
X176030000Y-56370000D01*
X174030000Y-59170000D02*
X174030000Y-56370000D01*
X152331200Y-127501200D02*
X152331200Y-130301200D01*
X152331200Y-130301200D02*
X150331200Y-130301200D01*
X150331200Y-130301200D02*
X150331200Y-127501200D01*
X150331200Y-127501200D02*
X152331200Y-127501200D01*
X156557000Y-46294500D02*
X162157000Y-46294500D01*
X156557000Y-51694500D02*
X162157000Y-51694500D01*
X156557000Y-46294500D02*
X156557000Y-47444500D01*
X156557000Y-51694500D02*
X156557000Y-50544500D01*
X162157000Y-46294500D02*
X162157000Y-47444500D01*
X162157000Y-51694500D02*
X162157000Y-50544500D01*
X164100000Y-46310000D02*
X164100000Y-47460000D01*
X164100000Y-51710000D02*
X164100000Y-50560000D01*
X169700000Y-46310000D02*
X169700000Y-47460000D01*
X169700000Y-51710000D02*
X169700000Y-50560000D01*
X169700000Y-46310000D02*
X164100000Y-46310000D01*
X169700000Y-51710000D02*
X164100000Y-51710000D01*
X164632779Y-123690000D02*
X164307221Y-123690000D01*
X164632779Y-124710000D02*
X164307221Y-124710000D01*
X154750000Y-40190000D02*
X153290000Y-40190000D01*
X154750000Y-37030000D02*
X152590000Y-37030000D01*
X154750000Y-37030000D02*
X154750000Y-37960000D01*
X154750000Y-40190000D02*
X154750000Y-39260000D01*
X147797500Y-37277742D02*
X147797500Y-37752258D01*
X148842500Y-37277742D02*
X148842500Y-37752258D01*
X144546359Y-73690000D02*
X144853641Y-73690000D01*
X144546359Y-72930000D02*
X144853641Y-72930000D01*
X142256359Y-73020000D02*
X142563641Y-73020000D01*
X142256359Y-73780000D02*
X142563641Y-73780000D01*
X143432936Y-45450000D02*
X144887064Y-45450000D01*
X143432936Y-47270000D02*
X144887064Y-47270000D01*
X143132500Y-43392742D02*
X143132500Y-43867258D01*
X142087500Y-43392742D02*
X142087500Y-43867258D01*
X152007258Y-49987500D02*
X151532742Y-49987500D01*
X152007258Y-51032500D02*
X151532742Y-51032500D01*
X149437500Y-47877258D02*
X149437500Y-47402742D01*
X150482500Y-47877258D02*
X150482500Y-47402742D01*
X151007258Y-93577500D02*
X150532742Y-93577500D01*
X151007258Y-94622500D02*
X150532742Y-94622500D01*
X152987258Y-43157500D02*
X152512742Y-43157500D01*
X152987258Y-44202500D02*
X152512742Y-44202500D01*
X149447500Y-44352742D02*
X149447500Y-44827258D01*
X150492500Y-44352742D02*
X150492500Y-44827258D01*
X153093641Y-89220000D02*
X152786359Y-89220000D01*
X153093641Y-89980000D02*
X152786359Y-89980000D01*
X173962742Y-47622500D02*
X174437258Y-47622500D01*
X173962742Y-46577500D02*
X174437258Y-46577500D01*
X176722500Y-49587742D02*
X176722500Y-50062258D01*
X175677500Y-49587742D02*
X175677500Y-50062258D01*
X201407258Y-105727500D02*
X200932742Y-105727500D01*
X201407258Y-106772500D02*
X200932742Y-106772500D01*
X201438742Y-127268500D02*
X201913258Y-127268500D01*
X201438742Y-126223500D02*
X201913258Y-126223500D01*
X201438742Y-124445500D02*
X201913258Y-124445500D01*
X201438742Y-125490500D02*
X201913258Y-125490500D01*
X173637742Y-53277500D02*
X174112258Y-53277500D01*
X173637742Y-54322500D02*
X174112258Y-54322500D01*
X176722500Y-53137258D02*
X176722500Y-52662742D01*
X175677500Y-53137258D02*
X175677500Y-52662742D01*
X220392258Y-116457500D02*
X219917742Y-116457500D01*
X220392258Y-117502500D02*
X219917742Y-117502500D01*
X200252742Y-99925500D02*
X200727258Y-99925500D01*
X200252742Y-100970500D02*
X200727258Y-100970500D01*
X220382258Y-119152500D02*
X219907742Y-119152500D01*
X220382258Y-118107500D02*
X219907742Y-118107500D01*
X205032500Y-104817742D02*
X205032500Y-105292258D01*
X203987500Y-104817742D02*
X203987500Y-105292258D01*
X150240000Y-110525241D02*
X150240000Y-110217959D01*
X151000000Y-110525241D02*
X151000000Y-110217959D01*
X158745000Y-77923359D02*
X158745000Y-78230641D01*
X159505000Y-77923359D02*
X159505000Y-78230641D01*
X149762742Y-42132500D02*
X150237258Y-42132500D01*
X149762742Y-41087500D02*
X150237258Y-41087500D01*
X160711500Y-77923359D02*
X160711500Y-78230641D01*
X159951500Y-77923359D02*
X159951500Y-78230641D01*
X157831742Y-42215500D02*
X158306258Y-42215500D01*
X157831742Y-41170500D02*
X158306258Y-41170500D01*
X167065000Y-100107641D02*
X167065000Y-99800359D01*
X166305000Y-100107641D02*
X166305000Y-99800359D01*
X134267742Y-74772500D02*
X134742258Y-74772500D01*
X134267742Y-73727500D02*
X134742258Y-73727500D01*
X167448000Y-100107641D02*
X167448000Y-99800359D01*
X168208000Y-100107641D02*
X168208000Y-99800359D01*
X178207258Y-57642500D02*
X177732742Y-57642500D01*
X178207258Y-56597500D02*
X177732742Y-56597500D01*
X134297742Y-80057500D02*
X134772258Y-80057500D01*
X134297742Y-81102500D02*
X134772258Y-81102500D01*
X171284700Y-114441758D02*
X171284700Y-113967242D01*
X170239700Y-114441758D02*
X170239700Y-113967242D01*
X150882500Y-117487742D02*
X150882500Y-117962258D01*
X149837500Y-117487742D02*
X149837500Y-117962258D01*
X134297742Y-86137500D02*
X134772258Y-86137500D01*
X134297742Y-87182500D02*
X134772258Y-87182500D01*
X156336164Y-128408000D02*
X154882036Y-128408000D01*
X156336164Y-130228000D02*
X154882036Y-130228000D01*
X132422258Y-114712500D02*
X131947742Y-114712500D01*
X132422258Y-113667500D02*
X131947742Y-113667500D01*
X132452258Y-102557500D02*
X131977742Y-102557500D01*
X132452258Y-103602500D02*
X131977742Y-103602500D01*
X138142742Y-109722500D02*
X138617258Y-109722500D01*
X138142742Y-108677500D02*
X138617258Y-108677500D01*
X138602258Y-108172500D02*
X138127742Y-108172500D01*
X138602258Y-107127500D02*
X138127742Y-107127500D01*
X138376359Y-52030000D02*
X138683641Y-52030000D01*
X138376359Y-51270000D02*
X138683641Y-51270000D01*
X146341500Y-71851000D02*
X151641500Y-71851000D01*
X146341500Y-80051000D02*
X146341500Y-71851000D01*
X151641500Y-80051000D02*
X146341500Y-80051000D01*
X151641500Y-71851000D02*
X151641500Y-80051000D01*
X139590000Y-46960000D02*
X141490000Y-46960000D01*
X139590000Y-48860000D02*
X139590000Y-46960000D01*
X141490000Y-48860000D02*
X139590000Y-48860000D01*
X141490000Y-46960000D02*
X141490000Y-48860000D01*
X214830000Y-36770000D02*
X216730000Y-36770000D01*
X216730000Y-36770000D02*
X216730000Y-38670000D01*
X216730000Y-38670000D02*
X214830000Y-38670000D01*
X214830000Y-38670000D02*
X214830000Y-36770000D01*
X150950000Y-98260000D02*
X149050000Y-98260000D01*
X150950000Y-96360000D02*
X150950000Y-98260000D01*
X149050000Y-96360000D02*
X150950000Y-96360000D01*
X149050000Y-98260000D02*
X149050000Y-96360000D01*
X179560000Y-127550000D02*
X181460000Y-127550000D01*
X179560000Y-129450000D02*
X179560000Y-127550000D01*
X181460000Y-129450000D02*
X179560000Y-129450000D01*
X181460000Y-127550000D02*
X181460000Y-129450000D01*
X202626000Y-128082000D02*
X202626000Y-129982000D01*
X202626000Y-129982000D02*
X200726000Y-129982000D01*
X200726000Y-129982000D02*
X200726000Y-128082000D01*
X200726000Y-128082000D02*
X202626000Y-128082000D01*
X176800000Y-124930000D02*
X176800000Y-123030000D01*
X178700000Y-124930000D02*
X176800000Y-124930000D01*
X178700000Y-123030000D02*
X178700000Y-124930000D01*
X176800000Y-123030000D02*
X178700000Y-123030000D01*
X183490000Y-110000000D02*
X183490000Y-111900000D01*
X183490000Y-111900000D02*
X181590000Y-111900000D01*
X181590000Y-111900000D02*
X181590000Y-110000000D01*
X181590000Y-110000000D02*
X183490000Y-110000000D01*
X172710000Y-59670000D02*
X170810000Y-59670000D01*
X170810000Y-59670000D02*
X170810000Y-57770000D01*
X170810000Y-57770000D02*
X172710000Y-57770000D01*
X172710000Y-57770000D02*
X172710000Y-59670000D01*
X170780000Y-60510000D02*
X172680000Y-60510000D01*
X172680000Y-60510000D02*
X172680000Y-62410000D01*
X172680000Y-62410000D02*
X170780000Y-62410000D01*
X170780000Y-62410000D02*
X170780000Y-60510000D01*
X168470000Y-120460000D02*
X168470000Y-118560000D01*
X170370000Y-120460000D02*
X168470000Y-120460000D01*
X170370000Y-118560000D02*
X170370000Y-120460000D01*
X168470000Y-118560000D02*
X170370000Y-118560000D01*
X164270000Y-107650000D02*
X164270000Y-105750000D01*
X164270000Y-105750000D02*
X166170000Y-105750000D01*
X166170000Y-105750000D02*
X166170000Y-107650000D01*
X166170000Y-107650000D02*
X164270000Y-107650000D01*
X194460000Y-58770000D02*
X192560000Y-58770000D01*
X192560000Y-58770000D02*
X192560000Y-56870000D01*
X192560000Y-56870000D02*
X194460000Y-56870000D01*
X194460000Y-56870000D02*
X194460000Y-58770000D01*
X169911000Y-60598000D02*
X169911000Y-62498000D01*
X169911000Y-62498000D02*
X168011000Y-62498000D01*
X168011000Y-62498000D02*
X168011000Y-60598000D01*
X168011000Y-60598000D02*
X169911000Y-60598000D01*
X160150000Y-66040000D02*
X158250000Y-66040000D01*
X160150000Y-64140000D02*
X160150000Y-66040000D01*
X158250000Y-64140000D02*
X160150000Y-64140000D01*
X158250000Y-66040000D02*
X158250000Y-64140000D01*
X199000000Y-43040000D02*
X199000000Y-44940000D01*
X199000000Y-44940000D02*
X197100000Y-44940000D01*
X197100000Y-44940000D02*
X197100000Y-43040000D01*
X197100000Y-43040000D02*
X199000000Y-43040000D01*
X158549500Y-69927500D02*
X158549500Y-68027500D01*
X158549500Y-68027500D02*
X160449500Y-68027500D01*
X160449500Y-68027500D02*
X160449500Y-69927500D01*
X160449500Y-69927500D02*
X158549500Y-69927500D01*
X166190000Y-70470000D02*
X166190000Y-72370000D01*
X164290000Y-70470000D02*
X166190000Y-70470000D01*
X164290000Y-72370000D02*
X164290000Y-70470000D01*
X166190000Y-72370000D02*
X164290000Y-72370000D01*
X164582000Y-62625000D02*
X164582000Y-60725000D01*
X166482000Y-62625000D02*
X164582000Y-62625000D01*
X166482000Y-60725000D02*
X166482000Y-62625000D01*
X164582000Y-60725000D02*
X166482000Y-60725000D01*
X155680000Y-82940000D02*
X154315000Y-82940000D01*
X155680000Y-82240000D02*
X155680000Y-82940000D01*
X156380000Y-82240000D02*
X155680000Y-82240000D01*
X169900000Y-82240000D02*
X169900000Y-82940000D01*
X169200000Y-82240000D02*
X169900000Y-82240000D01*
X155680000Y-96460000D02*
X155680000Y-95760000D01*
X156380000Y-96460000D02*
X155680000Y-96460000D01*
X169900000Y-96460000D02*
X169900000Y-95760000D01*
X169200000Y-96460000D02*
X169900000Y-96460000D01*
X154220000Y-48650000D02*
X154220000Y-46200000D01*
X151000000Y-46850000D02*
X151000000Y-48650000D01*
X175200000Y-50750000D02*
X175200000Y-48950000D01*
X171980000Y-48950000D02*
X171980000Y-51400000D01*
X198765500Y-92915500D02*
X198090500Y-92915500D01*
X202310500Y-97135500D02*
X202310500Y-96460500D01*
X201635500Y-97135500D02*
X202310500Y-97135500D01*
X198090500Y-97135500D02*
X198090500Y-96460500D01*
X198765500Y-97135500D02*
X198090500Y-97135500D01*
X202310500Y-92915500D02*
X202310500Y-93590500D01*
X201635500Y-92915500D02*
X202310500Y-92915500D01*
X200943000Y-101982000D02*
X200268000Y-101982000D01*
X203488000Y-105202000D02*
X203488000Y-105027000D01*
X202813000Y-105202000D02*
X203488000Y-105202000D01*
X200268000Y-105202000D02*
X200268000Y-105027000D01*
X200943000Y-105202000D02*
X200268000Y-105202000D01*
X203488000Y-101982000D02*
X203488000Y-102157000D01*
X202813000Y-101982000D02*
X203488000Y-101982000D01*
X187105500Y-99822500D02*
X187105500Y-99322500D01*
X187105500Y-99322500D02*
X187605500Y-99322500D01*
X191805500Y-99322500D02*
X192305500Y-99322500D01*
X192305500Y-99322500D02*
X192305500Y-99822500D01*
X192305500Y-102122500D02*
X192305500Y-102622500D01*
X192305500Y-102622500D02*
X191805500Y-102622500D01*
X187105500Y-102522500D02*
X187105500Y-101572500D01*
X180520000Y-58860000D02*
X177070000Y-58860000D01*
X180520000Y-58860000D02*
X182470000Y-58860000D01*
X180520000Y-63980000D02*
X178570000Y-63980000D01*
X180520000Y-63980000D02*
X182470000Y-63980000D01*
X148330000Y-119730000D02*
X142320000Y-119730000D01*
X146080000Y-112910000D02*
X142320000Y-112910000D01*
X142320000Y-119730000D02*
X142320000Y-118470000D01*
X142320000Y-112910000D02*
X142320000Y-114170000D01*
X186816500Y-123709500D02*
X186816500Y-122759500D01*
X192016500Y-123809500D02*
X191516500Y-123809500D01*
X192016500Y-123309500D02*
X192016500Y-123809500D01*
X192016500Y-120509500D02*
X192016500Y-121009500D01*
X191516500Y-120509500D02*
X192016500Y-120509500D01*
X186816500Y-120509500D02*
X187316500Y-120509500D01*
X186816500Y-121009500D02*
X186816500Y-120509500D01*
X179480000Y-41130000D02*
X194980000Y-41130000D01*
X194980000Y-35130000D02*
X194980000Y-53630000D01*
X179480000Y-35130000D02*
X194980000Y-35130000D01*
X179480000Y-53630000D02*
X179480000Y-35130000D01*
X194980000Y-53630000D02*
X179480000Y-53630000D01*
X143180000Y-106750000D02*
X140730000Y-106750000D01*
X141380000Y-109970000D02*
X143180000Y-109970000D01*
X139570000Y-95750000D02*
X137120000Y-95750000D01*
X137770000Y-98970000D02*
X139570000Y-98970000D01*
X148520500Y-86831500D02*
X148520500Y-90831500D01*
X151820500Y-86831500D02*
X148520500Y-86831500D01*
X150910000Y-122240000D02*
X149010000Y-122240000D01*
X149010000Y-122240000D02*
X149010000Y-120340000D01*
X149010000Y-120340000D02*
X150910000Y-120340000D01*
X150910000Y-120340000D02*
X150910000Y-122240000D01*
X202960000Y-40502164D02*
X202960000Y-40717836D01*
X202240000Y-40502164D02*
X202240000Y-40717836D01*
X202960000Y-38127836D02*
X202960000Y-37912164D01*
X202240000Y-38127836D02*
X202240000Y-37912164D01*
X199040000Y-38167836D02*
X199040000Y-37952164D01*
X199760000Y-38167836D02*
X199760000Y-37952164D01*
X200265000Y-37521252D02*
X200265000Y-36998748D01*
X201735000Y-37521252D02*
X201735000Y-36998748D01*
X199850000Y-40868748D02*
X199850000Y-42291252D01*
X201670000Y-40868748D02*
X201670000Y-42291252D01*
X196897836Y-93410000D02*
X196682164Y-93410000D01*
X196897836Y-92690000D02*
X196682164Y-92690000D01*
X220710000Y-121122164D02*
X220710000Y-121337836D01*
X221430000Y-121122164D02*
X221430000Y-121337836D01*
X211972164Y-116540000D02*
X212187836Y-116540000D01*
X211972164Y-115820000D02*
X212187836Y-115820000D01*
X191374420Y-89350000D02*
X191655580Y-89350000D01*
X191374420Y-90370000D02*
X191655580Y-90370000D01*
X149020000Y-114456252D02*
X149020000Y-113033748D01*
X150840000Y-114456252D02*
X150840000Y-113033748D01*
X148370000Y-83917836D02*
X148370000Y-83702164D01*
X149090000Y-83917836D02*
X149090000Y-83702164D01*
X162050000Y-58000000D02*
X162050000Y-56000000D01*
X164850000Y-58000000D02*
X162050000Y-58000000D01*
X164850000Y-56000000D02*
X164850000Y-58000000D01*
X162050000Y-56000000D02*
X164850000Y-56000000D01*
X216390000Y-44390000D02*
X216390000Y-40490000D01*
X218390000Y-44390000D02*
X218390000Y-40490000D01*
X216390000Y-44390000D02*
X218390000Y-44390000D01*
X215890000Y-39890000D02*
X213890000Y-39890000D01*
X213890000Y-39890000D02*
X213890000Y-43790000D01*
X215890000Y-39890000D02*
X215890000Y-43790000D01*
D17*
X208580000Y-99700000D02*
X208580000Y-113335000D01*
X208580000Y-113335000D02*
X208580000Y-113335000D01*
X208580000Y-113335000D02*
X208580000Y-99700000D01*
X208580000Y-99700000D02*
X208580000Y-99700000D01*
X208580000Y-113335000D02*
X208580000Y-113335000D01*
X208580000Y-113335000D02*
X221730000Y-113335000D01*
X221730000Y-113335000D02*
X221730000Y-113335000D01*
X221730000Y-113335000D02*
X208580000Y-113335000D01*
X225480000Y-113335000D02*
X225480000Y-113335000D01*
X225480000Y-113335000D02*
X229820000Y-113335000D01*
X229820000Y-113335000D02*
X229820000Y-113335000D01*
X229820000Y-113335000D02*
X225480000Y-113335000D01*
X229820000Y-113335000D02*
X229820000Y-54265000D01*
X229820000Y-54265000D02*
X229820000Y-54265000D01*
X229820000Y-54265000D02*
X229820000Y-113335000D01*
X229820000Y-113335000D02*
X229820000Y-113335000D01*
X229820000Y-54265000D02*
X229820000Y-54265000D01*
X229820000Y-54265000D02*
X225730000Y-54265000D01*
X225730000Y-54265000D02*
X225730000Y-54265000D01*
X225730000Y-54265000D02*
X229820000Y-54265000D01*
X221730000Y-54265000D02*
X221730000Y-54265000D01*
X221730000Y-54265000D02*
X208580000Y-54265000D01*
X208580000Y-54265000D02*
X208580000Y-54265000D01*
X208580000Y-54265000D02*
X221730000Y-54265000D01*
X208580000Y-54265000D02*
X208580000Y-67700000D01*
X208580000Y-67700000D02*
X208580000Y-67700000D01*
X208580000Y-67700000D02*
X208580000Y-54265000D01*
X208580000Y-54265000D02*
X208580000Y-54265000D01*
X208580000Y-95700000D02*
X208580000Y-85700000D01*
X208580000Y-85700000D02*
X208580000Y-85700000D01*
X208580000Y-85700000D02*
X208580000Y-95700000D01*
X208580000Y-95700000D02*
X208580000Y-95700000D01*
X208580000Y-81950000D02*
X208580000Y-71700000D01*
X208580000Y-71700000D02*
X208580000Y-71700000D01*
X208580000Y-71700000D02*
X208580000Y-81950000D01*
X208580000Y-81950000D02*
X208580000Y-81950000D01*
D11*
X211617642Y-126653261D02*
X211665261Y-126700880D01*
X211712880Y-126843738D01*
X211712880Y-126938976D01*
X211665261Y-127081833D01*
X211570023Y-127177071D01*
X211474785Y-127224690D01*
X211284309Y-127272309D01*
X211141452Y-127272309D01*
X210950976Y-127224690D01*
X210855738Y-127177071D01*
X210760500Y-127081833D01*
X210712880Y-126938976D01*
X210712880Y-126843738D01*
X210760500Y-126700880D01*
X210808119Y-126653261D01*
X210712880Y-126034214D02*
X210712880Y-125843738D01*
X210760500Y-125748500D01*
X210855738Y-125653261D01*
X211046214Y-125605642D01*
X211379547Y-125605642D01*
X211570023Y-125653261D01*
X211665261Y-125748500D01*
X211712880Y-125843738D01*
X211712880Y-126034214D01*
X211665261Y-126129452D01*
X211570023Y-126224690D01*
X211379547Y-126272309D01*
X211046214Y-126272309D01*
X210855738Y-126224690D01*
X210760500Y-126129452D01*
X210712880Y-126034214D01*
X211712880Y-125177071D02*
X210712880Y-125177071D01*
X211427166Y-124843738D01*
X210712880Y-124510404D01*
X211712880Y-124510404D01*
X211712880Y-124034214D02*
X210712880Y-124034214D01*
X210712880Y-123653261D01*
X210760500Y-123558023D01*
X210808119Y-123510404D01*
X210903357Y-123462785D01*
X211046214Y-123462785D01*
X211141452Y-123510404D01*
X211189071Y-123558023D01*
X211236690Y-123653261D01*
X211236690Y-124034214D01*
X211427166Y-123081833D02*
X211427166Y-122605642D01*
X211712880Y-123177071D02*
X210712880Y-122843738D01*
X211712880Y-122510404D01*
X211665261Y-122224690D02*
X211712880Y-122081833D01*
X211712880Y-121843738D01*
X211665261Y-121748500D01*
X211617642Y-121700880D01*
X211522404Y-121653261D01*
X211427166Y-121653261D01*
X211331928Y-121700880D01*
X211284309Y-121748500D01*
X211236690Y-121843738D01*
X211189071Y-122034214D01*
X211141452Y-122129452D01*
X211093833Y-122177071D01*
X210998595Y-122224690D01*
X210903357Y-122224690D01*
X210808119Y-122177071D01*
X210760500Y-122129452D01*
X210712880Y-122034214D01*
X210712880Y-121796119D01*
X210760500Y-121653261D01*
X211665261Y-121272309D02*
X211712880Y-121129452D01*
X211712880Y-120891357D01*
X211665261Y-120796119D01*
X211617642Y-120748500D01*
X211522404Y-120700880D01*
X211427166Y-120700880D01*
X211331928Y-120748500D01*
X211284309Y-120796119D01*
X211236690Y-120891357D01*
X211189071Y-121081833D01*
X211141452Y-121177071D01*
X211093833Y-121224690D01*
X210998595Y-121272309D01*
X210903357Y-121272309D01*
X210808119Y-121224690D01*
X210760500Y-121177071D01*
X210712880Y-121081833D01*
X210712880Y-120843738D01*
X210760500Y-120700880D01*
X211617642Y-120272309D02*
X211665261Y-120224690D01*
X211712880Y-120272309D01*
X211665261Y-120319928D01*
X211617642Y-120272309D01*
X211712880Y-120272309D01*
X211331928Y-120272309D02*
X210760500Y-120319928D01*
X210712880Y-120272309D01*
X210760500Y-120224690D01*
X211331928Y-120272309D01*
X210712880Y-120272309D01*
X183432380Y-38058571D02*
X183575238Y-38106190D01*
X183622857Y-38153809D01*
X183670476Y-38249047D01*
X183670476Y-38391904D01*
X183622857Y-38487142D01*
X183575238Y-38534761D01*
X183480000Y-38582380D01*
X183099047Y-38582380D01*
X183099047Y-37582380D01*
X183432380Y-37582380D01*
X183527619Y-37630000D01*
X183575238Y-37677619D01*
X183622857Y-37772857D01*
X183622857Y-37868095D01*
X183575238Y-37963333D01*
X183527619Y-38010952D01*
X183432380Y-38058571D01*
X183099047Y-38058571D01*
X184575238Y-38582380D02*
X184099047Y-38582380D01*
X184099047Y-37582380D01*
X185622857Y-38296666D02*
X186099047Y-38296666D01*
X185527619Y-38582380D02*
X185860952Y-37582380D01*
X186194285Y-38582380D01*
X186527619Y-37915714D02*
X186527619Y-38582380D01*
X186527619Y-38010952D02*
X186575238Y-37963333D01*
X186670476Y-37915714D01*
X186813333Y-37915714D01*
X186908571Y-37963333D01*
X186956190Y-38058571D01*
X186956190Y-38582380D01*
X187289523Y-37915714D02*
X187670476Y-37915714D01*
X187432380Y-37582380D02*
X187432380Y-38439523D01*
X187480000Y-38534761D01*
X187575238Y-38582380D01*
X187670476Y-38582380D01*
X188384761Y-38534761D02*
X188289523Y-38582380D01*
X188099047Y-38582380D01*
X188003809Y-38534761D01*
X187956190Y-38439523D01*
X187956190Y-38058571D01*
X188003809Y-37963333D01*
X188099047Y-37915714D01*
X188289523Y-37915714D01*
X188384761Y-37963333D01*
X188432380Y-38058571D01*
X188432380Y-38153809D01*
X187956190Y-38249047D01*
X188860952Y-37915714D02*
X188860952Y-38582380D01*
X188860952Y-38010952D02*
X188908571Y-37963333D01*
X189003809Y-37915714D01*
X189146666Y-37915714D01*
X189241904Y-37963333D01*
X189289523Y-38058571D01*
X189289523Y-38582380D01*
X189765714Y-37915714D02*
X189765714Y-38582380D01*
X189765714Y-38010952D02*
X189813333Y-37963333D01*
X189908571Y-37915714D01*
X190051428Y-37915714D01*
X190146666Y-37963333D01*
X190194285Y-38058571D01*
X190194285Y-38582380D01*
X191099047Y-38582380D02*
X191099047Y-38058571D01*
X191051428Y-37963333D01*
X190956190Y-37915714D01*
X190765714Y-37915714D01*
X190670476Y-37963333D01*
X191099047Y-38534761D02*
X191003809Y-38582380D01*
X190765714Y-38582380D01*
X190670476Y-38534761D01*
X190622857Y-38439523D01*
X190622857Y-38344285D01*
X190670476Y-38249047D01*
X190765714Y-38201428D01*
X191003809Y-38201428D01*
X191099047Y-38153809D01*
M02*
