G04 #@! TF.GenerationSoftware,KiCad,Pcbnew,(5.1.7)-1*
G04 #@! TF.CreationDate,2020-11-09T22:13:17+01:00*
G04 #@! TF.ProjectId,vario,76617269-6f2e-46b6-9963-61645f706362,v1.0*
G04 #@! TF.SameCoordinates,Original*
G04 #@! TF.FileFunction,Soldermask,Top*
G04 #@! TF.FilePolarity,Negative*
%FSLAX46Y46*%
G04 Gerber Fmt 4.6, Leading zero omitted, Abs format (unit mm)*
G04 Created by KiCad (PCBNEW (5.1.7)-1) date 2020-11-09 22:13:17*
%MOMM*%
%LPD*%
G01*
G04 APERTURE LIST*
%ADD10C,5.940000*%
%ADD11R,1.500000X1.500000*%
%ADD12R,2.000000X3.800000*%
%ADD13R,2.000000X1.500000*%
%ADD14R,1.600000X3.100000*%
%ADD15R,1.200000X0.900000*%
%ADD16O,1.300000X0.800000*%
%ADD17R,2.100000X0.760000*%
%ADD18R,0.760000X2.100000*%
%ADD19R,3.000000X3.000000*%
%ADD20R,0.900000X1.200000*%
%ADD21O,0.800000X1.300000*%
%ADD22R,2.665000X4.190000*%
%ADD23R,1.780000X4.190000*%
%ADD24R,1.900000X1.200000*%
%ADD25O,1.900000X1.200000*%
%ADD26R,1.900000X1.500000*%
%ADD27C,1.450000*%
%ADD28R,1.350000X0.400000*%
%ADD29R,1.200000X0.700000*%
%ADD30R,1.200000X1.000000*%
%ADD31R,0.800000X1.000000*%
%ADD32R,2.800000X1.000000*%
%ADD33R,1.900000X1.300000*%
%ADD34R,1.500000X1.000000*%
%ADD35R,1.900000X2.500000*%
%ADD36R,0.900000X0.800000*%
%ADD37R,1.000000X1.500000*%
%ADD38R,0.650000X1.060000*%
%ADD39R,0.550000X0.950000*%
%ADD40R,2.200000X0.900000*%
%ADD41R,1.060000X0.650000*%
%ADD42R,1.200000X1.400000*%
%ADD43R,1.650000X1.650000*%
%ADD44C,1.650000*%
%ADD45C,2.475000*%
G04 APERTURE END LIST*
D10*
X200220000Y-119570000D03*
X200220000Y-48480000D03*
X134180000Y-119570000D03*
X225620000Y-119570000D03*
X225620000Y-48450000D03*
X134180000Y-48480000D03*
D11*
X193580000Y-61130000D03*
D12*
X210710000Y-39390000D03*
D13*
X204410000Y-39390000D03*
X204410000Y-41690000D03*
X204410000Y-37090000D03*
D14*
X190160000Y-86835000D03*
X197780000Y-76435000D03*
X192700000Y-86835000D03*
X195240000Y-76435000D03*
X195240000Y-86835000D03*
X192700000Y-76435000D03*
X197780000Y-86835000D03*
X190160000Y-76435000D03*
G36*
G01*
X189863000Y-124905000D02*
X189863000Y-124565000D01*
G75*
G02*
X190003000Y-124425000I140000J0D01*
G01*
X190283000Y-124425000D01*
G75*
G02*
X190423000Y-124565000I0J-140000D01*
G01*
X190423000Y-124905000D01*
G75*
G02*
X190283000Y-125045000I-140000J0D01*
G01*
X190003000Y-125045000D01*
G75*
G02*
X189863000Y-124905000I0J140000D01*
G01*
G37*
G36*
G01*
X188903000Y-124905000D02*
X188903000Y-124565000D01*
G75*
G02*
X189043000Y-124425000I140000J0D01*
G01*
X189323000Y-124425000D01*
G75*
G02*
X189463000Y-124565000I0J-140000D01*
G01*
X189463000Y-124905000D01*
G75*
G02*
X189323000Y-125045000I-140000J0D01*
G01*
X189043000Y-125045000D01*
G75*
G02*
X188903000Y-124905000I0J140000D01*
G01*
G37*
D15*
X171400000Y-47150000D03*
X171400000Y-43850000D03*
G36*
G01*
X183940000Y-76050000D02*
X183040000Y-76050000D01*
G75*
G02*
X182840000Y-75850000I0J200000D01*
G01*
X182840000Y-75450000D01*
G75*
G02*
X183040000Y-75250000I200000J0D01*
G01*
X183940000Y-75250000D01*
G75*
G02*
X184140000Y-75450000I0J-200000D01*
G01*
X184140000Y-75850000D01*
G75*
G02*
X183940000Y-76050000I-200000J0D01*
G01*
G37*
D16*
X183490000Y-74400000D03*
X183490000Y-73150000D03*
X183490000Y-71900000D03*
X183490000Y-70650000D03*
X183490000Y-69400000D03*
D17*
X216940000Y-123950000D03*
X216940000Y-122680000D03*
X216940000Y-121410000D03*
X216940000Y-120140000D03*
D18*
X215200000Y-118400000D03*
X213930000Y-118400000D03*
X212660000Y-118400000D03*
X211390000Y-118400000D03*
X210120000Y-118400000D03*
X208850000Y-118400000D03*
X207580000Y-118400000D03*
D17*
X205840000Y-120140000D03*
X205840000Y-121410000D03*
X205840000Y-122680000D03*
X205840000Y-123950000D03*
X205840000Y-125220000D03*
X205840000Y-126490000D03*
X205840000Y-127760000D03*
D18*
X207580000Y-129500000D03*
X208850000Y-129500000D03*
X210120000Y-129500000D03*
X211390000Y-129500000D03*
X212660000Y-129500000D03*
X213930000Y-129500000D03*
X215200000Y-129500000D03*
D17*
X216940000Y-127760000D03*
X216940000Y-126490000D03*
X216940000Y-125220000D03*
G36*
G01*
X152873900Y-122589700D02*
X152473900Y-122589700D01*
G75*
G02*
X152273900Y-122389700I0J200000D01*
G01*
X152273900Y-120989700D01*
G75*
G02*
X152473900Y-120789700I200000J0D01*
G01*
X152873900Y-120789700D01*
G75*
G02*
X153073900Y-120989700I0J-200000D01*
G01*
X153073900Y-122389700D01*
G75*
G02*
X152873900Y-122589700I-200000J0D01*
G01*
G37*
G36*
G01*
X153973900Y-122589700D02*
X153573900Y-122589700D01*
G75*
G02*
X153373900Y-122389700I0J200000D01*
G01*
X153373900Y-120989700D01*
G75*
G02*
X153573900Y-120789700I200000J0D01*
G01*
X153973900Y-120789700D01*
G75*
G02*
X154173900Y-120989700I0J-200000D01*
G01*
X154173900Y-122389700D01*
G75*
G02*
X153973900Y-122589700I-200000J0D01*
G01*
G37*
G36*
G01*
X155073900Y-122589700D02*
X154673900Y-122589700D01*
G75*
G02*
X154473900Y-122389700I0J200000D01*
G01*
X154473900Y-120989700D01*
G75*
G02*
X154673900Y-120789700I200000J0D01*
G01*
X155073900Y-120789700D01*
G75*
G02*
X155273900Y-120989700I0J-200000D01*
G01*
X155273900Y-122389700D01*
G75*
G02*
X155073900Y-122589700I-200000J0D01*
G01*
G37*
G36*
G01*
X156173900Y-122589700D02*
X155773900Y-122589700D01*
G75*
G02*
X155573900Y-122389700I0J200000D01*
G01*
X155573900Y-120989700D01*
G75*
G02*
X155773900Y-120789700I200000J0D01*
G01*
X156173900Y-120789700D01*
G75*
G02*
X156373900Y-120989700I0J-200000D01*
G01*
X156373900Y-122389700D01*
G75*
G02*
X156173900Y-122589700I-200000J0D01*
G01*
G37*
G36*
G01*
X157273900Y-122589700D02*
X156873900Y-122589700D01*
G75*
G02*
X156673900Y-122389700I0J200000D01*
G01*
X156673900Y-120989700D01*
G75*
G02*
X156873900Y-120789700I200000J0D01*
G01*
X157273900Y-120789700D01*
G75*
G02*
X157473900Y-120989700I0J-200000D01*
G01*
X157473900Y-122389700D01*
G75*
G02*
X157273900Y-122589700I-200000J0D01*
G01*
G37*
G36*
G01*
X158373900Y-122589700D02*
X157973900Y-122589700D01*
G75*
G02*
X157773900Y-122389700I0J200000D01*
G01*
X157773900Y-120989700D01*
G75*
G02*
X157973900Y-120789700I200000J0D01*
G01*
X158373900Y-120789700D01*
G75*
G02*
X158573900Y-120989700I0J-200000D01*
G01*
X158573900Y-122389700D01*
G75*
G02*
X158373900Y-122589700I-200000J0D01*
G01*
G37*
G36*
G01*
X159473900Y-122589700D02*
X159073900Y-122589700D01*
G75*
G02*
X158873900Y-122389700I0J200000D01*
G01*
X158873900Y-120989700D01*
G75*
G02*
X159073900Y-120789700I200000J0D01*
G01*
X159473900Y-120789700D01*
G75*
G02*
X159673900Y-120989700I0J-200000D01*
G01*
X159673900Y-122389700D01*
G75*
G02*
X159473900Y-122589700I-200000J0D01*
G01*
G37*
G36*
G01*
X162473900Y-122589700D02*
X162073900Y-122589700D01*
G75*
G02*
X161873900Y-122389700I0J200000D01*
G01*
X161873900Y-120989700D01*
G75*
G02*
X162073900Y-120789700I200000J0D01*
G01*
X162473900Y-120789700D01*
G75*
G02*
X162673900Y-120989700I0J-200000D01*
G01*
X162673900Y-122389700D01*
G75*
G02*
X162473900Y-122589700I-200000J0D01*
G01*
G37*
G36*
G01*
X163573900Y-122589700D02*
X163173900Y-122589700D01*
G75*
G02*
X162973900Y-122389700I0J200000D01*
G01*
X162973900Y-120989700D01*
G75*
G02*
X163173900Y-120789700I200000J0D01*
G01*
X163573900Y-120789700D01*
G75*
G02*
X163773900Y-120989700I0J-200000D01*
G01*
X163773900Y-122389700D01*
G75*
G02*
X163573900Y-122589700I-200000J0D01*
G01*
G37*
G36*
G01*
X164673900Y-122589700D02*
X164273900Y-122589700D01*
G75*
G02*
X164073900Y-122389700I0J200000D01*
G01*
X164073900Y-120989700D01*
G75*
G02*
X164273900Y-120789700I200000J0D01*
G01*
X164673900Y-120789700D01*
G75*
G02*
X164873900Y-120989700I0J-200000D01*
G01*
X164873900Y-122389700D01*
G75*
G02*
X164673900Y-122589700I-200000J0D01*
G01*
G37*
G36*
G01*
X165773900Y-122589700D02*
X165373900Y-122589700D01*
G75*
G02*
X165173900Y-122389700I0J200000D01*
G01*
X165173900Y-120989700D01*
G75*
G02*
X165373900Y-120789700I200000J0D01*
G01*
X165773900Y-120789700D01*
G75*
G02*
X165973900Y-120989700I0J-200000D01*
G01*
X165973900Y-122389700D01*
G75*
G02*
X165773900Y-122589700I-200000J0D01*
G01*
G37*
G36*
G01*
X166873900Y-122589700D02*
X166473900Y-122589700D01*
G75*
G02*
X166273900Y-122389700I0J200000D01*
G01*
X166273900Y-120989700D01*
G75*
G02*
X166473900Y-120789700I200000J0D01*
G01*
X166873900Y-120789700D01*
G75*
G02*
X167073900Y-120989700I0J-200000D01*
G01*
X167073900Y-122389700D01*
G75*
G02*
X166873900Y-122589700I-200000J0D01*
G01*
G37*
G36*
G01*
X166873900Y-110589700D02*
X166473900Y-110589700D01*
G75*
G02*
X166273900Y-110389700I0J200000D01*
G01*
X166273900Y-108989700D01*
G75*
G02*
X166473900Y-108789700I200000J0D01*
G01*
X166873900Y-108789700D01*
G75*
G02*
X167073900Y-108989700I0J-200000D01*
G01*
X167073900Y-110389700D01*
G75*
G02*
X166873900Y-110589700I-200000J0D01*
G01*
G37*
G36*
G01*
X165773900Y-110589700D02*
X165373900Y-110589700D01*
G75*
G02*
X165173900Y-110389700I0J200000D01*
G01*
X165173900Y-108989700D01*
G75*
G02*
X165373900Y-108789700I200000J0D01*
G01*
X165773900Y-108789700D01*
G75*
G02*
X165973900Y-108989700I0J-200000D01*
G01*
X165973900Y-110389700D01*
G75*
G02*
X165773900Y-110589700I-200000J0D01*
G01*
G37*
G36*
G01*
X164673900Y-110589700D02*
X164273900Y-110589700D01*
G75*
G02*
X164073900Y-110389700I0J200000D01*
G01*
X164073900Y-108989700D01*
G75*
G02*
X164273900Y-108789700I200000J0D01*
G01*
X164673900Y-108789700D01*
G75*
G02*
X164873900Y-108989700I0J-200000D01*
G01*
X164873900Y-110389700D01*
G75*
G02*
X164673900Y-110589700I-200000J0D01*
G01*
G37*
G36*
G01*
X163573900Y-110589700D02*
X163173900Y-110589700D01*
G75*
G02*
X162973900Y-110389700I0J200000D01*
G01*
X162973900Y-108989700D01*
G75*
G02*
X163173900Y-108789700I200000J0D01*
G01*
X163573900Y-108789700D01*
G75*
G02*
X163773900Y-108989700I0J-200000D01*
G01*
X163773900Y-110389700D01*
G75*
G02*
X163573900Y-110589700I-200000J0D01*
G01*
G37*
G36*
G01*
X162473900Y-110589700D02*
X162073900Y-110589700D01*
G75*
G02*
X161873900Y-110389700I0J200000D01*
G01*
X161873900Y-108989700D01*
G75*
G02*
X162073900Y-108789700I200000J0D01*
G01*
X162473900Y-108789700D01*
G75*
G02*
X162673900Y-108989700I0J-200000D01*
G01*
X162673900Y-110389700D01*
G75*
G02*
X162473900Y-110589700I-200000J0D01*
G01*
G37*
G36*
G01*
X159473900Y-110589700D02*
X159073900Y-110589700D01*
G75*
G02*
X158873900Y-110389700I0J200000D01*
G01*
X158873900Y-108989700D01*
G75*
G02*
X159073900Y-108789700I200000J0D01*
G01*
X159473900Y-108789700D01*
G75*
G02*
X159673900Y-108989700I0J-200000D01*
G01*
X159673900Y-110389700D01*
G75*
G02*
X159473900Y-110589700I-200000J0D01*
G01*
G37*
G36*
G01*
X158373900Y-110589700D02*
X157973900Y-110589700D01*
G75*
G02*
X157773900Y-110389700I0J200000D01*
G01*
X157773900Y-108989700D01*
G75*
G02*
X157973900Y-108789700I200000J0D01*
G01*
X158373900Y-108789700D01*
G75*
G02*
X158573900Y-108989700I0J-200000D01*
G01*
X158573900Y-110389700D01*
G75*
G02*
X158373900Y-110589700I-200000J0D01*
G01*
G37*
G36*
G01*
X157273900Y-110589700D02*
X156873900Y-110589700D01*
G75*
G02*
X156673900Y-110389700I0J200000D01*
G01*
X156673900Y-108989700D01*
G75*
G02*
X156873900Y-108789700I200000J0D01*
G01*
X157273900Y-108789700D01*
G75*
G02*
X157473900Y-108989700I0J-200000D01*
G01*
X157473900Y-110389700D01*
G75*
G02*
X157273900Y-110589700I-200000J0D01*
G01*
G37*
G36*
G01*
X156173900Y-110589700D02*
X155773900Y-110589700D01*
G75*
G02*
X155573900Y-110389700I0J200000D01*
G01*
X155573900Y-108989700D01*
G75*
G02*
X155773900Y-108789700I200000J0D01*
G01*
X156173900Y-108789700D01*
G75*
G02*
X156373900Y-108989700I0J-200000D01*
G01*
X156373900Y-110389700D01*
G75*
G02*
X156173900Y-110589700I-200000J0D01*
G01*
G37*
G36*
G01*
X155073900Y-110589700D02*
X154673900Y-110589700D01*
G75*
G02*
X154473900Y-110389700I0J200000D01*
G01*
X154473900Y-108989700D01*
G75*
G02*
X154673900Y-108789700I200000J0D01*
G01*
X155073900Y-108789700D01*
G75*
G02*
X155273900Y-108989700I0J-200000D01*
G01*
X155273900Y-110389700D01*
G75*
G02*
X155073900Y-110589700I-200000J0D01*
G01*
G37*
G36*
G01*
X153973900Y-110589700D02*
X153573900Y-110589700D01*
G75*
G02*
X153373900Y-110389700I0J200000D01*
G01*
X153373900Y-108989700D01*
G75*
G02*
X153573900Y-108789700I200000J0D01*
G01*
X153973900Y-108789700D01*
G75*
G02*
X154173900Y-108989700I0J-200000D01*
G01*
X154173900Y-110389700D01*
G75*
G02*
X153973900Y-110589700I-200000J0D01*
G01*
G37*
G36*
G01*
X152873900Y-110589700D02*
X152473900Y-110589700D01*
G75*
G02*
X152273900Y-110389700I0J200000D01*
G01*
X152273900Y-108989700D01*
G75*
G02*
X152473900Y-108789700I200000J0D01*
G01*
X152873900Y-108789700D01*
G75*
G02*
X153073900Y-108989700I0J-200000D01*
G01*
X153073900Y-110389700D01*
G75*
G02*
X152873900Y-110589700I-200000J0D01*
G01*
G37*
D11*
X156810000Y-69600000D03*
G36*
G01*
X165181000Y-65077500D02*
X165181000Y-64877500D01*
G75*
G02*
X165281000Y-64777500I100000J0D01*
G01*
X166631000Y-64777500D01*
G75*
G02*
X166731000Y-64877500I0J-100000D01*
G01*
X166731000Y-65077500D01*
G75*
G02*
X166631000Y-65177500I-100000J0D01*
G01*
X165281000Y-65177500D01*
G75*
G02*
X165181000Y-65077500I0J100000D01*
G01*
G37*
G36*
G01*
X165181000Y-65727500D02*
X165181000Y-65527500D01*
G75*
G02*
X165281000Y-65427500I100000J0D01*
G01*
X166631000Y-65427500D01*
G75*
G02*
X166731000Y-65527500I0J-100000D01*
G01*
X166731000Y-65727500D01*
G75*
G02*
X166631000Y-65827500I-100000J0D01*
G01*
X165281000Y-65827500D01*
G75*
G02*
X165181000Y-65727500I0J100000D01*
G01*
G37*
G36*
G01*
X165181000Y-66377500D02*
X165181000Y-66177500D01*
G75*
G02*
X165281000Y-66077500I100000J0D01*
G01*
X166631000Y-66077500D01*
G75*
G02*
X166731000Y-66177500I0J-100000D01*
G01*
X166731000Y-66377500D01*
G75*
G02*
X166631000Y-66477500I-100000J0D01*
G01*
X165281000Y-66477500D01*
G75*
G02*
X165181000Y-66377500I0J100000D01*
G01*
G37*
G36*
G01*
X165181000Y-67027500D02*
X165181000Y-66827500D01*
G75*
G02*
X165281000Y-66727500I100000J0D01*
G01*
X166631000Y-66727500D01*
G75*
G02*
X166731000Y-66827500I0J-100000D01*
G01*
X166731000Y-67027500D01*
G75*
G02*
X166631000Y-67127500I-100000J0D01*
G01*
X165281000Y-67127500D01*
G75*
G02*
X165181000Y-67027500I0J100000D01*
G01*
G37*
G36*
G01*
X165181000Y-67677500D02*
X165181000Y-67477500D01*
G75*
G02*
X165281000Y-67377500I100000J0D01*
G01*
X166631000Y-67377500D01*
G75*
G02*
X166731000Y-67477500I0J-100000D01*
G01*
X166731000Y-67677500D01*
G75*
G02*
X166631000Y-67777500I-100000J0D01*
G01*
X165281000Y-67777500D01*
G75*
G02*
X165181000Y-67677500I0J100000D01*
G01*
G37*
G36*
G01*
X165181000Y-68327500D02*
X165181000Y-68127500D01*
G75*
G02*
X165281000Y-68027500I100000J0D01*
G01*
X166631000Y-68027500D01*
G75*
G02*
X166731000Y-68127500I0J-100000D01*
G01*
X166731000Y-68327500D01*
G75*
G02*
X166631000Y-68427500I-100000J0D01*
G01*
X165281000Y-68427500D01*
G75*
G02*
X165181000Y-68327500I0J100000D01*
G01*
G37*
G36*
G01*
X165181000Y-68977500D02*
X165181000Y-68777500D01*
G75*
G02*
X165281000Y-68677500I100000J0D01*
G01*
X166631000Y-68677500D01*
G75*
G02*
X166731000Y-68777500I0J-100000D01*
G01*
X166731000Y-68977500D01*
G75*
G02*
X166631000Y-69077500I-100000J0D01*
G01*
X165281000Y-69077500D01*
G75*
G02*
X165181000Y-68977500I0J100000D01*
G01*
G37*
G36*
G01*
X165181000Y-69627500D02*
X165181000Y-69427500D01*
G75*
G02*
X165281000Y-69327500I100000J0D01*
G01*
X166631000Y-69327500D01*
G75*
G02*
X166731000Y-69427500I0J-100000D01*
G01*
X166731000Y-69627500D01*
G75*
G02*
X166631000Y-69727500I-100000J0D01*
G01*
X165281000Y-69727500D01*
G75*
G02*
X165181000Y-69627500I0J100000D01*
G01*
G37*
G36*
G01*
X170931000Y-69627500D02*
X170931000Y-69427500D01*
G75*
G02*
X171031000Y-69327500I100000J0D01*
G01*
X172381000Y-69327500D01*
G75*
G02*
X172481000Y-69427500I0J-100000D01*
G01*
X172481000Y-69627500D01*
G75*
G02*
X172381000Y-69727500I-100000J0D01*
G01*
X171031000Y-69727500D01*
G75*
G02*
X170931000Y-69627500I0J100000D01*
G01*
G37*
G36*
G01*
X170931000Y-68977500D02*
X170931000Y-68777500D01*
G75*
G02*
X171031000Y-68677500I100000J0D01*
G01*
X172381000Y-68677500D01*
G75*
G02*
X172481000Y-68777500I0J-100000D01*
G01*
X172481000Y-68977500D01*
G75*
G02*
X172381000Y-69077500I-100000J0D01*
G01*
X171031000Y-69077500D01*
G75*
G02*
X170931000Y-68977500I0J100000D01*
G01*
G37*
G36*
G01*
X170931000Y-68327500D02*
X170931000Y-68127500D01*
G75*
G02*
X171031000Y-68027500I100000J0D01*
G01*
X172381000Y-68027500D01*
G75*
G02*
X172481000Y-68127500I0J-100000D01*
G01*
X172481000Y-68327500D01*
G75*
G02*
X172381000Y-68427500I-100000J0D01*
G01*
X171031000Y-68427500D01*
G75*
G02*
X170931000Y-68327500I0J100000D01*
G01*
G37*
G36*
G01*
X170931000Y-67677500D02*
X170931000Y-67477500D01*
G75*
G02*
X171031000Y-67377500I100000J0D01*
G01*
X172381000Y-67377500D01*
G75*
G02*
X172481000Y-67477500I0J-100000D01*
G01*
X172481000Y-67677500D01*
G75*
G02*
X172381000Y-67777500I-100000J0D01*
G01*
X171031000Y-67777500D01*
G75*
G02*
X170931000Y-67677500I0J100000D01*
G01*
G37*
G36*
G01*
X170931000Y-67027500D02*
X170931000Y-66827500D01*
G75*
G02*
X171031000Y-66727500I100000J0D01*
G01*
X172381000Y-66727500D01*
G75*
G02*
X172481000Y-66827500I0J-100000D01*
G01*
X172481000Y-67027500D01*
G75*
G02*
X172381000Y-67127500I-100000J0D01*
G01*
X171031000Y-67127500D01*
G75*
G02*
X170931000Y-67027500I0J100000D01*
G01*
G37*
G36*
G01*
X170931000Y-66377500D02*
X170931000Y-66177500D01*
G75*
G02*
X171031000Y-66077500I100000J0D01*
G01*
X172381000Y-66077500D01*
G75*
G02*
X172481000Y-66177500I0J-100000D01*
G01*
X172481000Y-66377500D01*
G75*
G02*
X172381000Y-66477500I-100000J0D01*
G01*
X171031000Y-66477500D01*
G75*
G02*
X170931000Y-66377500I0J100000D01*
G01*
G37*
G36*
G01*
X170931000Y-65727500D02*
X170931000Y-65527500D01*
G75*
G02*
X171031000Y-65427500I100000J0D01*
G01*
X172381000Y-65427500D01*
G75*
G02*
X172481000Y-65527500I0J-100000D01*
G01*
X172481000Y-65727500D01*
G75*
G02*
X172381000Y-65827500I-100000J0D01*
G01*
X171031000Y-65827500D01*
G75*
G02*
X170931000Y-65727500I0J100000D01*
G01*
G37*
G36*
G01*
X170931000Y-65077500D02*
X170931000Y-64877500D01*
G75*
G02*
X171031000Y-64777500I100000J0D01*
G01*
X172381000Y-64777500D01*
G75*
G02*
X172481000Y-64877500I0J-100000D01*
G01*
X172481000Y-65077500D01*
G75*
G02*
X172381000Y-65177500I-100000J0D01*
G01*
X171031000Y-65177500D01*
G75*
G02*
X170931000Y-65077500I0J100000D01*
G01*
G37*
D19*
X168831000Y-67252500D03*
G36*
G01*
X161968500Y-67838500D02*
X161968500Y-68338500D01*
G75*
G02*
X161743500Y-68563500I-225000J0D01*
G01*
X161293500Y-68563500D01*
G75*
G02*
X161068500Y-68338500I0J225000D01*
G01*
X161068500Y-67838500D01*
G75*
G02*
X161293500Y-67613500I225000J0D01*
G01*
X161743500Y-67613500D01*
G75*
G02*
X161968500Y-67838500I0J-225000D01*
G01*
G37*
G36*
G01*
X163518500Y-67838500D02*
X163518500Y-68338500D01*
G75*
G02*
X163293500Y-68563500I-225000J0D01*
G01*
X162843500Y-68563500D01*
G75*
G02*
X162618500Y-68338500I0J225000D01*
G01*
X162618500Y-67838500D01*
G75*
G02*
X162843500Y-67613500I225000J0D01*
G01*
X163293500Y-67613500D01*
G75*
G02*
X163518500Y-67838500I0J-225000D01*
G01*
G37*
G36*
G01*
X156925000Y-80130000D02*
X156925000Y-79630000D01*
G75*
G02*
X157150000Y-79405000I225000J0D01*
G01*
X157600000Y-79405000D01*
G75*
G02*
X157825000Y-79630000I0J-225000D01*
G01*
X157825000Y-80130000D01*
G75*
G02*
X157600000Y-80355000I-225000J0D01*
G01*
X157150000Y-80355000D01*
G75*
G02*
X156925000Y-80130000I0J225000D01*
G01*
G37*
G36*
G01*
X155375000Y-80130000D02*
X155375000Y-79630000D01*
G75*
G02*
X155600000Y-79405000I225000J0D01*
G01*
X156050000Y-79405000D01*
G75*
G02*
X156275000Y-79630000I0J-225000D01*
G01*
X156275000Y-80130000D01*
G75*
G02*
X156050000Y-80355000I-225000J0D01*
G01*
X155600000Y-80355000D01*
G75*
G02*
X155375000Y-80130000I0J225000D01*
G01*
G37*
G36*
G01*
X153560000Y-87380000D02*
X153220000Y-87380000D01*
G75*
G02*
X153080000Y-87240000I0J140000D01*
G01*
X153080000Y-86960000D01*
G75*
G02*
X153220000Y-86820000I140000J0D01*
G01*
X153560000Y-86820000D01*
G75*
G02*
X153700000Y-86960000I0J-140000D01*
G01*
X153700000Y-87240000D01*
G75*
G02*
X153560000Y-87380000I-140000J0D01*
G01*
G37*
G36*
G01*
X153560000Y-88340000D02*
X153220000Y-88340000D01*
G75*
G02*
X153080000Y-88200000I0J140000D01*
G01*
X153080000Y-87920000D01*
G75*
G02*
X153220000Y-87780000I140000J0D01*
G01*
X153560000Y-87780000D01*
G75*
G02*
X153700000Y-87920000I0J-140000D01*
G01*
X153700000Y-88200000D01*
G75*
G02*
X153560000Y-88340000I-140000J0D01*
G01*
G37*
G36*
G01*
X168876000Y-99378500D02*
X168876000Y-98878500D01*
G75*
G02*
X169101000Y-98653500I225000J0D01*
G01*
X169551000Y-98653500D01*
G75*
G02*
X169776000Y-98878500I0J-225000D01*
G01*
X169776000Y-99378500D01*
G75*
G02*
X169551000Y-99603500I-225000J0D01*
G01*
X169101000Y-99603500D01*
G75*
G02*
X168876000Y-99378500I0J225000D01*
G01*
G37*
G36*
G01*
X170426000Y-99378500D02*
X170426000Y-98878500D01*
G75*
G02*
X170651000Y-98653500I225000J0D01*
G01*
X171101000Y-98653500D01*
G75*
G02*
X171326000Y-98878500I0J-225000D01*
G01*
X171326000Y-99378500D01*
G75*
G02*
X171101000Y-99603500I-225000J0D01*
G01*
X170651000Y-99603500D01*
G75*
G02*
X170426000Y-99378500I0J225000D01*
G01*
G37*
G36*
G01*
X153310000Y-92390000D02*
X153650000Y-92390000D01*
G75*
G02*
X153790000Y-92530000I0J-140000D01*
G01*
X153790000Y-92810000D01*
G75*
G02*
X153650000Y-92950000I-140000J0D01*
G01*
X153310000Y-92950000D01*
G75*
G02*
X153170000Y-92810000I0J140000D01*
G01*
X153170000Y-92530000D01*
G75*
G02*
X153310000Y-92390000I140000J0D01*
G01*
G37*
G36*
G01*
X153310000Y-91430000D02*
X153650000Y-91430000D01*
G75*
G02*
X153790000Y-91570000I0J-140000D01*
G01*
X153790000Y-91850000D01*
G75*
G02*
X153650000Y-91990000I-140000J0D01*
G01*
X153310000Y-91990000D01*
G75*
G02*
X153170000Y-91850000I0J140000D01*
G01*
X153170000Y-91570000D01*
G75*
G02*
X153310000Y-91430000I140000J0D01*
G01*
G37*
G36*
G01*
X173817500Y-84583000D02*
X173817500Y-84083000D01*
G75*
G02*
X174042500Y-83858000I225000J0D01*
G01*
X174492500Y-83858000D01*
G75*
G02*
X174717500Y-84083000I0J-225000D01*
G01*
X174717500Y-84583000D01*
G75*
G02*
X174492500Y-84808000I-225000J0D01*
G01*
X174042500Y-84808000D01*
G75*
G02*
X173817500Y-84583000I0J225000D01*
G01*
G37*
G36*
G01*
X172267500Y-84583000D02*
X172267500Y-84083000D01*
G75*
G02*
X172492500Y-83858000I225000J0D01*
G01*
X172942500Y-83858000D01*
G75*
G02*
X173167500Y-84083000I0J-225000D01*
G01*
X173167500Y-84583000D01*
G75*
G02*
X172942500Y-84808000I-225000J0D01*
G01*
X172492500Y-84808000D01*
G75*
G02*
X172267500Y-84583000I0J225000D01*
G01*
G37*
G36*
G01*
X158075000Y-98577500D02*
X158075000Y-98917500D01*
G75*
G02*
X157935000Y-99057500I-140000J0D01*
G01*
X157655000Y-99057500D01*
G75*
G02*
X157515000Y-98917500I0J140000D01*
G01*
X157515000Y-98577500D01*
G75*
G02*
X157655000Y-98437500I140000J0D01*
G01*
X157935000Y-98437500D01*
G75*
G02*
X158075000Y-98577500I0J-140000D01*
G01*
G37*
G36*
G01*
X157115000Y-98577500D02*
X157115000Y-98917500D01*
G75*
G02*
X156975000Y-99057500I-140000J0D01*
G01*
X156695000Y-99057500D01*
G75*
G02*
X156555000Y-98917500I0J140000D01*
G01*
X156555000Y-98577500D01*
G75*
G02*
X156695000Y-98437500I140000J0D01*
G01*
X156975000Y-98437500D01*
G75*
G02*
X157115000Y-98577500I0J-140000D01*
G01*
G37*
G36*
G01*
X170794000Y-97520500D02*
X170794000Y-97180500D01*
G75*
G02*
X170934000Y-97040500I140000J0D01*
G01*
X171214000Y-97040500D01*
G75*
G02*
X171354000Y-97180500I0J-140000D01*
G01*
X171354000Y-97520500D01*
G75*
G02*
X171214000Y-97660500I-140000J0D01*
G01*
X170934000Y-97660500D01*
G75*
G02*
X170794000Y-97520500I0J140000D01*
G01*
G37*
G36*
G01*
X169834000Y-97520500D02*
X169834000Y-97180500D01*
G75*
G02*
X169974000Y-97040500I140000J0D01*
G01*
X170254000Y-97040500D01*
G75*
G02*
X170394000Y-97180500I0J-140000D01*
G01*
X170394000Y-97520500D01*
G75*
G02*
X170254000Y-97660500I-140000J0D01*
G01*
X169974000Y-97660500D01*
G75*
G02*
X169834000Y-97520500I0J140000D01*
G01*
G37*
G36*
G01*
X149502500Y-80670500D02*
X149502500Y-81010500D01*
G75*
G02*
X149362500Y-81150500I-140000J0D01*
G01*
X149082500Y-81150500D01*
G75*
G02*
X148942500Y-81010500I0J140000D01*
G01*
X148942500Y-80670500D01*
G75*
G02*
X149082500Y-80530500I140000J0D01*
G01*
X149362500Y-80530500D01*
G75*
G02*
X149502500Y-80670500I0J-140000D01*
G01*
G37*
G36*
G01*
X150462500Y-80670500D02*
X150462500Y-81010500D01*
G75*
G02*
X150322500Y-81150500I-140000J0D01*
G01*
X150042500Y-81150500D01*
G75*
G02*
X149902500Y-81010500I0J140000D01*
G01*
X149902500Y-80670500D01*
G75*
G02*
X150042500Y-80530500I140000J0D01*
G01*
X150322500Y-80530500D01*
G75*
G02*
X150462500Y-80670500I0J-140000D01*
G01*
G37*
G36*
G01*
X170596000Y-82344000D02*
X170596000Y-82004000D01*
G75*
G02*
X170736000Y-81864000I140000J0D01*
G01*
X171016000Y-81864000D01*
G75*
G02*
X171156000Y-82004000I0J-140000D01*
G01*
X171156000Y-82344000D01*
G75*
G02*
X171016000Y-82484000I-140000J0D01*
G01*
X170736000Y-82484000D01*
G75*
G02*
X170596000Y-82344000I0J140000D01*
G01*
G37*
G36*
G01*
X171556000Y-82344000D02*
X171556000Y-82004000D01*
G75*
G02*
X171696000Y-81864000I140000J0D01*
G01*
X171976000Y-81864000D01*
G75*
G02*
X172116000Y-82004000I0J-140000D01*
G01*
X172116000Y-82344000D01*
G75*
G02*
X171976000Y-82484000I-140000J0D01*
G01*
X171696000Y-82484000D01*
G75*
G02*
X171556000Y-82344000I0J140000D01*
G01*
G37*
G36*
G01*
X147199999Y-44740000D02*
X148500001Y-44740000D01*
G75*
G02*
X148750000Y-44989999I0J-249999D01*
G01*
X148750000Y-45640001D01*
G75*
G02*
X148500001Y-45890000I-249999J0D01*
G01*
X147199999Y-45890000D01*
G75*
G02*
X146950000Y-45640001I0J249999D01*
G01*
X146950000Y-44989999D01*
G75*
G02*
X147199999Y-44740000I249999J0D01*
G01*
G37*
G36*
G01*
X147199999Y-47690000D02*
X148500001Y-47690000D01*
G75*
G02*
X148750000Y-47939999I0J-249999D01*
G01*
X148750000Y-48590001D01*
G75*
G02*
X148500001Y-48840000I-249999J0D01*
G01*
X147199999Y-48840000D01*
G75*
G02*
X146950000Y-48590001I0J249999D01*
G01*
X146950000Y-47939999D01*
G75*
G02*
X147199999Y-47690000I249999J0D01*
G01*
G37*
G36*
G01*
X144080000Y-44920000D02*
X143740000Y-44920000D01*
G75*
G02*
X143600000Y-44780000I0J140000D01*
G01*
X143600000Y-44500000D01*
G75*
G02*
X143740000Y-44360000I140000J0D01*
G01*
X144080000Y-44360000D01*
G75*
G02*
X144220000Y-44500000I0J-140000D01*
G01*
X144220000Y-44780000D01*
G75*
G02*
X144080000Y-44920000I-140000J0D01*
G01*
G37*
G36*
G01*
X144080000Y-43960000D02*
X143740000Y-43960000D01*
G75*
G02*
X143600000Y-43820000I0J140000D01*
G01*
X143600000Y-43540000D01*
G75*
G02*
X143740000Y-43400000I140000J0D01*
G01*
X144080000Y-43400000D01*
G75*
G02*
X144220000Y-43540000I0J-140000D01*
G01*
X144220000Y-43820000D01*
G75*
G02*
X144080000Y-43960000I-140000J0D01*
G01*
G37*
G36*
G01*
X149410500Y-86271000D02*
X149410500Y-85931000D01*
G75*
G02*
X149550500Y-85791000I140000J0D01*
G01*
X149830500Y-85791000D01*
G75*
G02*
X149970500Y-85931000I0J-140000D01*
G01*
X149970500Y-86271000D01*
G75*
G02*
X149830500Y-86411000I-140000J0D01*
G01*
X149550500Y-86411000D01*
G75*
G02*
X149410500Y-86271000I0J140000D01*
G01*
G37*
G36*
G01*
X150370500Y-86271000D02*
X150370500Y-85931000D01*
G75*
G02*
X150510500Y-85791000I140000J0D01*
G01*
X150790500Y-85791000D01*
G75*
G02*
X150930500Y-85931000I0J-140000D01*
G01*
X150930500Y-86271000D01*
G75*
G02*
X150790500Y-86411000I-140000J0D01*
G01*
X150510500Y-86411000D01*
G75*
G02*
X150370500Y-86271000I0J140000D01*
G01*
G37*
G36*
G01*
X155530000Y-47865000D02*
X155030000Y-47865000D01*
G75*
G02*
X154805000Y-47640000I0J225000D01*
G01*
X154805000Y-47190000D01*
G75*
G02*
X155030000Y-46965000I225000J0D01*
G01*
X155530000Y-46965000D01*
G75*
G02*
X155755000Y-47190000I0J-225000D01*
G01*
X155755000Y-47640000D01*
G75*
G02*
X155530000Y-47865000I-225000J0D01*
G01*
G37*
G36*
G01*
X155530000Y-49415000D02*
X155030000Y-49415000D01*
G75*
G02*
X154805000Y-49190000I0J225000D01*
G01*
X154805000Y-48740000D01*
G75*
G02*
X155030000Y-48515000I225000J0D01*
G01*
X155530000Y-48515000D01*
G75*
G02*
X155755000Y-48740000I0J-225000D01*
G01*
X155755000Y-49190000D01*
G75*
G02*
X155530000Y-49415000I-225000J0D01*
G01*
G37*
G36*
G01*
X149942500Y-91392000D02*
X149942500Y-91732000D01*
G75*
G02*
X149802500Y-91872000I-140000J0D01*
G01*
X149522500Y-91872000D01*
G75*
G02*
X149382500Y-91732000I0J140000D01*
G01*
X149382500Y-91392000D01*
G75*
G02*
X149522500Y-91252000I140000J0D01*
G01*
X149802500Y-91252000D01*
G75*
G02*
X149942500Y-91392000I0J-140000D01*
G01*
G37*
G36*
G01*
X150902500Y-91392000D02*
X150902500Y-91732000D01*
G75*
G02*
X150762500Y-91872000I-140000J0D01*
G01*
X150482500Y-91872000D01*
G75*
G02*
X150342500Y-91732000I0J140000D01*
G01*
X150342500Y-91392000D01*
G75*
G02*
X150482500Y-91252000I140000J0D01*
G01*
X150762500Y-91252000D01*
G75*
G02*
X150902500Y-91392000I0J-140000D01*
G01*
G37*
G36*
G01*
X150970000Y-95310000D02*
X150970000Y-95650000D01*
G75*
G02*
X150830000Y-95790000I-140000J0D01*
G01*
X150550000Y-95790000D01*
G75*
G02*
X150410000Y-95650000I0J140000D01*
G01*
X150410000Y-95310000D01*
G75*
G02*
X150550000Y-95170000I140000J0D01*
G01*
X150830000Y-95170000D01*
G75*
G02*
X150970000Y-95310000I0J-140000D01*
G01*
G37*
G36*
G01*
X150010000Y-95310000D02*
X150010000Y-95650000D01*
G75*
G02*
X149870000Y-95790000I-140000J0D01*
G01*
X149590000Y-95790000D01*
G75*
G02*
X149450000Y-95650000I0J140000D01*
G01*
X149450000Y-95310000D01*
G75*
G02*
X149590000Y-95170000I140000J0D01*
G01*
X149870000Y-95170000D01*
G75*
G02*
X150010000Y-95310000I0J-140000D01*
G01*
G37*
G36*
G01*
X161610000Y-52469999D02*
X161610000Y-53770001D01*
G75*
G02*
X161360001Y-54020000I-249999J0D01*
G01*
X160709999Y-54020000D01*
G75*
G02*
X160460000Y-53770001I0J249999D01*
G01*
X160460000Y-52469999D01*
G75*
G02*
X160709999Y-52220000I249999J0D01*
G01*
X161360001Y-52220000D01*
G75*
G02*
X161610000Y-52469999I0J-249999D01*
G01*
G37*
G36*
G01*
X158660000Y-52469999D02*
X158660000Y-53770001D01*
G75*
G02*
X158410001Y-54020000I-249999J0D01*
G01*
X157759999Y-54020000D01*
G75*
G02*
X157510000Y-53770001I0J249999D01*
G01*
X157510000Y-52469999D01*
G75*
G02*
X157759999Y-52220000I249999J0D01*
G01*
X158410001Y-52220000D01*
G75*
G02*
X158660000Y-52469999I0J-249999D01*
G01*
G37*
G36*
G01*
X152170000Y-92880000D02*
X152170000Y-92540000D01*
G75*
G02*
X152310000Y-92400000I140000J0D01*
G01*
X152590000Y-92400000D01*
G75*
G02*
X152730000Y-92540000I0J-140000D01*
G01*
X152730000Y-92880000D01*
G75*
G02*
X152590000Y-93020000I-140000J0D01*
G01*
X152310000Y-93020000D01*
G75*
G02*
X152170000Y-92880000I0J140000D01*
G01*
G37*
G36*
G01*
X151210000Y-92880000D02*
X151210000Y-92540000D01*
G75*
G02*
X151350000Y-92400000I140000J0D01*
G01*
X151630000Y-92400000D01*
G75*
G02*
X151770000Y-92540000I0J-140000D01*
G01*
X151770000Y-92880000D01*
G75*
G02*
X151630000Y-93020000I-140000J0D01*
G01*
X151350000Y-93020000D01*
G75*
G02*
X151210000Y-92880000I0J140000D01*
G01*
G37*
G36*
G01*
X161410000Y-44229999D02*
X161410000Y-45530001D01*
G75*
G02*
X161160001Y-45780000I-249999J0D01*
G01*
X160509999Y-45780000D01*
G75*
G02*
X160260000Y-45530001I0J249999D01*
G01*
X160260000Y-44229999D01*
G75*
G02*
X160509999Y-43980000I249999J0D01*
G01*
X161160001Y-43980000D01*
G75*
G02*
X161410000Y-44229999I0J-249999D01*
G01*
G37*
G36*
G01*
X158460000Y-44229999D02*
X158460000Y-45530001D01*
G75*
G02*
X158210001Y-45780000I-249999J0D01*
G01*
X157559999Y-45780000D01*
G75*
G02*
X157310000Y-45530001I0J249999D01*
G01*
X157310000Y-44229999D01*
G75*
G02*
X157559999Y-43980000I249999J0D01*
G01*
X158210001Y-43980000D01*
G75*
G02*
X158460000Y-44229999I0J-249999D01*
G01*
G37*
G36*
G01*
X198000000Y-102030000D02*
X198000000Y-101690000D01*
G75*
G02*
X198140000Y-101550000I140000J0D01*
G01*
X198420000Y-101550000D01*
G75*
G02*
X198560000Y-101690000I0J-140000D01*
G01*
X198560000Y-102030000D01*
G75*
G02*
X198420000Y-102170000I-140000J0D01*
G01*
X198140000Y-102170000D01*
G75*
G02*
X198000000Y-102030000I0J140000D01*
G01*
G37*
G36*
G01*
X198960000Y-102030000D02*
X198960000Y-101690000D01*
G75*
G02*
X199100000Y-101550000I140000J0D01*
G01*
X199380000Y-101550000D01*
G75*
G02*
X199520000Y-101690000I0J-140000D01*
G01*
X199520000Y-102030000D01*
G75*
G02*
X199380000Y-102170000I-140000J0D01*
G01*
X199100000Y-102170000D01*
G75*
G02*
X198960000Y-102030000I0J140000D01*
G01*
G37*
G36*
G01*
X199320000Y-103140000D02*
X198980000Y-103140000D01*
G75*
G02*
X198840000Y-103000000I0J140000D01*
G01*
X198840000Y-102720000D01*
G75*
G02*
X198980000Y-102580000I140000J0D01*
G01*
X199320000Y-102580000D01*
G75*
G02*
X199460000Y-102720000I0J-140000D01*
G01*
X199460000Y-103000000D01*
G75*
G02*
X199320000Y-103140000I-140000J0D01*
G01*
G37*
G36*
G01*
X199320000Y-104100000D02*
X198980000Y-104100000D01*
G75*
G02*
X198840000Y-103960000I0J140000D01*
G01*
X198840000Y-103680000D01*
G75*
G02*
X198980000Y-103540000I140000J0D01*
G01*
X199320000Y-103540000D01*
G75*
G02*
X199460000Y-103680000I0J-140000D01*
G01*
X199460000Y-103960000D01*
G75*
G02*
X199320000Y-104100000I-140000J0D01*
G01*
G37*
G36*
G01*
X202330000Y-91750000D02*
X202330000Y-92090000D01*
G75*
G02*
X202190000Y-92230000I-140000J0D01*
G01*
X201910000Y-92230000D01*
G75*
G02*
X201770000Y-92090000I0J140000D01*
G01*
X201770000Y-91750000D01*
G75*
G02*
X201910000Y-91610000I140000J0D01*
G01*
X202190000Y-91610000D01*
G75*
G02*
X202330000Y-91750000I0J-140000D01*
G01*
G37*
G36*
G01*
X201370000Y-91750000D02*
X201370000Y-92090000D01*
G75*
G02*
X201230000Y-92230000I-140000J0D01*
G01*
X200950000Y-92230000D01*
G75*
G02*
X200810000Y-92090000I0J140000D01*
G01*
X200810000Y-91750000D01*
G75*
G02*
X200950000Y-91610000I140000J0D01*
G01*
X201230000Y-91610000D01*
G75*
G02*
X201370000Y-91750000I0J-140000D01*
G01*
G37*
G36*
G01*
X203360000Y-106250000D02*
X203020000Y-106250000D01*
G75*
G02*
X202880000Y-106110000I0J140000D01*
G01*
X202880000Y-105830000D01*
G75*
G02*
X203020000Y-105690000I140000J0D01*
G01*
X203360000Y-105690000D01*
G75*
G02*
X203500000Y-105830000I0J-140000D01*
G01*
X203500000Y-106110000D01*
G75*
G02*
X203360000Y-106250000I-140000J0D01*
G01*
G37*
G36*
G01*
X203360000Y-107210000D02*
X203020000Y-107210000D01*
G75*
G02*
X202880000Y-107070000I0J140000D01*
G01*
X202880000Y-106790000D01*
G75*
G02*
X203020000Y-106650000I140000J0D01*
G01*
X203360000Y-106650000D01*
G75*
G02*
X203500000Y-106790000I0J-140000D01*
G01*
X203500000Y-107070000D01*
G75*
G02*
X203360000Y-107210000I-140000J0D01*
G01*
G37*
G36*
G01*
X170710000Y-48200000D02*
X171210000Y-48200000D01*
G75*
G02*
X171435000Y-48425000I0J-225000D01*
G01*
X171435000Y-48875000D01*
G75*
G02*
X171210000Y-49100000I-225000J0D01*
G01*
X170710000Y-49100000D01*
G75*
G02*
X170485000Y-48875000I0J225000D01*
G01*
X170485000Y-48425000D01*
G75*
G02*
X170710000Y-48200000I225000J0D01*
G01*
G37*
G36*
G01*
X170710000Y-49750000D02*
X171210000Y-49750000D01*
G75*
G02*
X171435000Y-49975000I0J-225000D01*
G01*
X171435000Y-50425000D01*
G75*
G02*
X171210000Y-50650000I-225000J0D01*
G01*
X170710000Y-50650000D01*
G75*
G02*
X170485000Y-50425000I0J225000D01*
G01*
X170485000Y-49975000D01*
G75*
G02*
X170710000Y-49750000I225000J0D01*
G01*
G37*
G36*
G01*
X199430000Y-92110000D02*
X199430000Y-91770000D01*
G75*
G02*
X199570000Y-91630000I140000J0D01*
G01*
X199850000Y-91630000D01*
G75*
G02*
X199990000Y-91770000I0J-140000D01*
G01*
X199990000Y-92110000D01*
G75*
G02*
X199850000Y-92250000I-140000J0D01*
G01*
X199570000Y-92250000D01*
G75*
G02*
X199430000Y-92110000I0J140000D01*
G01*
G37*
G36*
G01*
X198470000Y-92110000D02*
X198470000Y-91770000D01*
G75*
G02*
X198610000Y-91630000I140000J0D01*
G01*
X198890000Y-91630000D01*
G75*
G02*
X199030000Y-91770000I0J-140000D01*
G01*
X199030000Y-92110000D01*
G75*
G02*
X198890000Y-92250000I-140000J0D01*
G01*
X198610000Y-92250000D01*
G75*
G02*
X198470000Y-92110000I0J140000D01*
G01*
G37*
G36*
G01*
X194955000Y-90609999D02*
X194955000Y-91910001D01*
G75*
G02*
X194705001Y-92160000I-249999J0D01*
G01*
X194054999Y-92160000D01*
G75*
G02*
X193805000Y-91910001I0J249999D01*
G01*
X193805000Y-90609999D01*
G75*
G02*
X194054999Y-90360000I249999J0D01*
G01*
X194705001Y-90360000D01*
G75*
G02*
X194955000Y-90609999I0J-249999D01*
G01*
G37*
G36*
G01*
X197905000Y-90609999D02*
X197905000Y-91910001D01*
G75*
G02*
X197655001Y-92160000I-249999J0D01*
G01*
X197004999Y-92160000D01*
G75*
G02*
X196755000Y-91910001I0J249999D01*
G01*
X196755000Y-90609999D01*
G75*
G02*
X197004999Y-90360000I249999J0D01*
G01*
X197655001Y-90360000D01*
G75*
G02*
X197905000Y-90609999I0J-249999D01*
G01*
G37*
G36*
G01*
X168032000Y-53750001D02*
X168032000Y-52449999D01*
G75*
G02*
X168281999Y-52200000I249999J0D01*
G01*
X168932001Y-52200000D01*
G75*
G02*
X169182000Y-52449999I0J-249999D01*
G01*
X169182000Y-53750001D01*
G75*
G02*
X168932001Y-54000000I-249999J0D01*
G01*
X168281999Y-54000000D01*
G75*
G02*
X168032000Y-53750001I0J249999D01*
G01*
G37*
G36*
G01*
X165082000Y-53750001D02*
X165082000Y-52449999D01*
G75*
G02*
X165331999Y-52200000I249999J0D01*
G01*
X165982001Y-52200000D01*
G75*
G02*
X166232000Y-52449999I0J-249999D01*
G01*
X166232000Y-53750001D01*
G75*
G02*
X165982001Y-54000000I-249999J0D01*
G01*
X165331999Y-54000000D01*
G75*
G02*
X165082000Y-53750001I0J249999D01*
G01*
G37*
G36*
G01*
X202340000Y-101430000D02*
X202340000Y-101090000D01*
G75*
G02*
X202480000Y-100950000I140000J0D01*
G01*
X202760000Y-100950000D01*
G75*
G02*
X202900000Y-101090000I0J-140000D01*
G01*
X202900000Y-101430000D01*
G75*
G02*
X202760000Y-101570000I-140000J0D01*
G01*
X202480000Y-101570000D01*
G75*
G02*
X202340000Y-101430000I0J140000D01*
G01*
G37*
G36*
G01*
X203300000Y-101430000D02*
X203300000Y-101090000D01*
G75*
G02*
X203440000Y-100950000I140000J0D01*
G01*
X203720000Y-100950000D01*
G75*
G02*
X203860000Y-101090000I0J-140000D01*
G01*
X203860000Y-101430000D01*
G75*
G02*
X203720000Y-101570000I-140000J0D01*
G01*
X203440000Y-101570000D01*
G75*
G02*
X203300000Y-101430000I0J140000D01*
G01*
G37*
G36*
G01*
X220110000Y-121060000D02*
X219770000Y-121060000D01*
G75*
G02*
X219630000Y-120920000I0J140000D01*
G01*
X219630000Y-120640000D01*
G75*
G02*
X219770000Y-120500000I140000J0D01*
G01*
X220110000Y-120500000D01*
G75*
G02*
X220250000Y-120640000I0J-140000D01*
G01*
X220250000Y-120920000D01*
G75*
G02*
X220110000Y-121060000I-140000J0D01*
G01*
G37*
G36*
G01*
X220110000Y-122020000D02*
X219770000Y-122020000D01*
G75*
G02*
X219630000Y-121880000I0J140000D01*
G01*
X219630000Y-121600000D01*
G75*
G02*
X219770000Y-121460000I140000J0D01*
G01*
X220110000Y-121460000D01*
G75*
G02*
X220250000Y-121600000I0J-140000D01*
G01*
X220250000Y-121880000D01*
G75*
G02*
X220110000Y-122020000I-140000J0D01*
G01*
G37*
G36*
G01*
X168030000Y-45550001D02*
X168030000Y-44249999D01*
G75*
G02*
X168279999Y-44000000I249999J0D01*
G01*
X168930001Y-44000000D01*
G75*
G02*
X169180000Y-44249999I0J-249999D01*
G01*
X169180000Y-45550001D01*
G75*
G02*
X168930001Y-45800000I-249999J0D01*
G01*
X168279999Y-45800000D01*
G75*
G02*
X168030000Y-45550001I0J249999D01*
G01*
G37*
G36*
G01*
X165080000Y-45550001D02*
X165080000Y-44249999D01*
G75*
G02*
X165329999Y-44000000I249999J0D01*
G01*
X165980001Y-44000000D01*
G75*
G02*
X166230000Y-44249999I0J-249999D01*
G01*
X166230000Y-45550001D01*
G75*
G02*
X165980001Y-45800000I-249999J0D01*
G01*
X165329999Y-45800000D01*
G75*
G02*
X165080000Y-45550001I0J249999D01*
G01*
G37*
G36*
G01*
X202860000Y-100215000D02*
X202860000Y-99265000D01*
G75*
G02*
X203110000Y-99015000I250000J0D01*
G01*
X203610000Y-99015000D01*
G75*
G02*
X203860000Y-99265000I0J-250000D01*
G01*
X203860000Y-100215000D01*
G75*
G02*
X203610000Y-100465000I-250000J0D01*
G01*
X203110000Y-100465000D01*
G75*
G02*
X202860000Y-100215000I0J250000D01*
G01*
G37*
G36*
G01*
X204760000Y-100215000D02*
X204760000Y-99265000D01*
G75*
G02*
X205010000Y-99015000I250000J0D01*
G01*
X205510000Y-99015000D01*
G75*
G02*
X205760000Y-99265000I0J-250000D01*
G01*
X205760000Y-100215000D01*
G75*
G02*
X205510000Y-100465000I-250000J0D01*
G01*
X205010000Y-100465000D01*
G75*
G02*
X204760000Y-100215000I0J250000D01*
G01*
G37*
G36*
G01*
X174930000Y-61350000D02*
X174590000Y-61350000D01*
G75*
G02*
X174450000Y-61210000I0J140000D01*
G01*
X174450000Y-60930000D01*
G75*
G02*
X174590000Y-60790000I140000J0D01*
G01*
X174930000Y-60790000D01*
G75*
G02*
X175070000Y-60930000I0J-140000D01*
G01*
X175070000Y-61210000D01*
G75*
G02*
X174930000Y-61350000I-140000J0D01*
G01*
G37*
G36*
G01*
X174930000Y-62310000D02*
X174590000Y-62310000D01*
G75*
G02*
X174450000Y-62170000I0J140000D01*
G01*
X174450000Y-61890000D01*
G75*
G02*
X174590000Y-61750000I140000J0D01*
G01*
X174930000Y-61750000D01*
G75*
G02*
X175070000Y-61890000I0J-140000D01*
G01*
X175070000Y-62170000D01*
G75*
G02*
X174930000Y-62310000I-140000J0D01*
G01*
G37*
G36*
G01*
X176060000Y-62280000D02*
X175720000Y-62280000D01*
G75*
G02*
X175580000Y-62140000I0J140000D01*
G01*
X175580000Y-61860000D01*
G75*
G02*
X175720000Y-61720000I140000J0D01*
G01*
X176060000Y-61720000D01*
G75*
G02*
X176200000Y-61860000I0J-140000D01*
G01*
X176200000Y-62140000D01*
G75*
G02*
X176060000Y-62280000I-140000J0D01*
G01*
G37*
G36*
G01*
X176060000Y-61320000D02*
X175720000Y-61320000D01*
G75*
G02*
X175580000Y-61180000I0J140000D01*
G01*
X175580000Y-60900000D01*
G75*
G02*
X175720000Y-60760000I140000J0D01*
G01*
X176060000Y-60760000D01*
G75*
G02*
X176200000Y-60900000I0J-140000D01*
G01*
X176200000Y-61180000D01*
G75*
G02*
X176060000Y-61320000I-140000J0D01*
G01*
G37*
G36*
G01*
X188202500Y-103639500D02*
X188202500Y-103299500D01*
G75*
G02*
X188342500Y-103159500I140000J0D01*
G01*
X188622500Y-103159500D01*
G75*
G02*
X188762500Y-103299500I0J-140000D01*
G01*
X188762500Y-103639500D01*
G75*
G02*
X188622500Y-103779500I-140000J0D01*
G01*
X188342500Y-103779500D01*
G75*
G02*
X188202500Y-103639500I0J140000D01*
G01*
G37*
G36*
G01*
X189162500Y-103639500D02*
X189162500Y-103299500D01*
G75*
G02*
X189302500Y-103159500I140000J0D01*
G01*
X189582500Y-103159500D01*
G75*
G02*
X189722500Y-103299500I0J-140000D01*
G01*
X189722500Y-103639500D01*
G75*
G02*
X189582500Y-103779500I-140000J0D01*
G01*
X189302500Y-103779500D01*
G75*
G02*
X189162500Y-103639500I0J140000D01*
G01*
G37*
G36*
G01*
X158904400Y-125235200D02*
X159404400Y-125235200D01*
G75*
G02*
X159629400Y-125460200I0J-225000D01*
G01*
X159629400Y-125910200D01*
G75*
G02*
X159404400Y-126135200I-225000J0D01*
G01*
X158904400Y-126135200D01*
G75*
G02*
X158679400Y-125910200I0J225000D01*
G01*
X158679400Y-125460200D01*
G75*
G02*
X158904400Y-125235200I225000J0D01*
G01*
G37*
G36*
G01*
X158904400Y-126785200D02*
X159404400Y-126785200D01*
G75*
G02*
X159629400Y-127010200I0J-225000D01*
G01*
X159629400Y-127460200D01*
G75*
G02*
X159404400Y-127685200I-225000J0D01*
G01*
X158904400Y-127685200D01*
G75*
G02*
X158679400Y-127460200I0J225000D01*
G01*
X158679400Y-127010200D01*
G75*
G02*
X158904400Y-126785200I225000J0D01*
G01*
G37*
G36*
G01*
X163531500Y-65425500D02*
X163531500Y-65925500D01*
G75*
G02*
X163306500Y-66150500I-225000J0D01*
G01*
X162856500Y-66150500D01*
G75*
G02*
X162631500Y-65925500I0J225000D01*
G01*
X162631500Y-65425500D01*
G75*
G02*
X162856500Y-65200500I225000J0D01*
G01*
X163306500Y-65200500D01*
G75*
G02*
X163531500Y-65425500I0J-225000D01*
G01*
G37*
G36*
G01*
X161981500Y-65425500D02*
X161981500Y-65925500D01*
G75*
G02*
X161756500Y-66150500I-225000J0D01*
G01*
X161306500Y-66150500D01*
G75*
G02*
X161081500Y-65925500I0J225000D01*
G01*
X161081500Y-65425500D01*
G75*
G02*
X161306500Y-65200500I225000J0D01*
G01*
X161756500Y-65200500D01*
G75*
G02*
X161981500Y-65425500I0J-225000D01*
G01*
G37*
G36*
G01*
X149610000Y-59320000D02*
X149270000Y-59320000D01*
G75*
G02*
X149130000Y-59180000I0J140000D01*
G01*
X149130000Y-58900000D01*
G75*
G02*
X149270000Y-58760000I140000J0D01*
G01*
X149610000Y-58760000D01*
G75*
G02*
X149750000Y-58900000I0J-140000D01*
G01*
X149750000Y-59180000D01*
G75*
G02*
X149610000Y-59320000I-140000J0D01*
G01*
G37*
G36*
G01*
X149610000Y-58360000D02*
X149270000Y-58360000D01*
G75*
G02*
X149130000Y-58220000I0J140000D01*
G01*
X149130000Y-57940000D01*
G75*
G02*
X149270000Y-57800000I140000J0D01*
G01*
X149610000Y-57800000D01*
G75*
G02*
X149750000Y-57940000I0J-140000D01*
G01*
X149750000Y-58220000D01*
G75*
G02*
X149610000Y-58360000I-140000J0D01*
G01*
G37*
G36*
G01*
X173363000Y-64280500D02*
X173703000Y-64280500D01*
G75*
G02*
X173843000Y-64420500I0J-140000D01*
G01*
X173843000Y-64700500D01*
G75*
G02*
X173703000Y-64840500I-140000J0D01*
G01*
X173363000Y-64840500D01*
G75*
G02*
X173223000Y-64700500I0J140000D01*
G01*
X173223000Y-64420500D01*
G75*
G02*
X173363000Y-64280500I140000J0D01*
G01*
G37*
G36*
G01*
X173363000Y-65240500D02*
X173703000Y-65240500D01*
G75*
G02*
X173843000Y-65380500I0J-140000D01*
G01*
X173843000Y-65660500D01*
G75*
G02*
X173703000Y-65800500I-140000J0D01*
G01*
X173363000Y-65800500D01*
G75*
G02*
X173223000Y-65660500I0J140000D01*
G01*
X173223000Y-65380500D01*
G75*
G02*
X173363000Y-65240500I140000J0D01*
G01*
G37*
G36*
G01*
X163518500Y-63584000D02*
X163518500Y-64084000D01*
G75*
G02*
X163293500Y-64309000I-225000J0D01*
G01*
X162843500Y-64309000D01*
G75*
G02*
X162618500Y-64084000I0J225000D01*
G01*
X162618500Y-63584000D01*
G75*
G02*
X162843500Y-63359000I225000J0D01*
G01*
X163293500Y-63359000D01*
G75*
G02*
X163518500Y-63584000I0J-225000D01*
G01*
G37*
G36*
G01*
X161968500Y-63584000D02*
X161968500Y-64084000D01*
G75*
G02*
X161743500Y-64309000I-225000J0D01*
G01*
X161293500Y-64309000D01*
G75*
G02*
X161068500Y-64084000I0J225000D01*
G01*
X161068500Y-63584000D01*
G75*
G02*
X161293500Y-63359000I225000J0D01*
G01*
X161743500Y-63359000D01*
G75*
G02*
X161968500Y-63584000I0J-225000D01*
G01*
G37*
G36*
G01*
X161905000Y-70378500D02*
X161905000Y-70878500D01*
G75*
G02*
X161680000Y-71103500I-225000J0D01*
G01*
X161230000Y-71103500D01*
G75*
G02*
X161005000Y-70878500I0J225000D01*
G01*
X161005000Y-70378500D01*
G75*
G02*
X161230000Y-70153500I225000J0D01*
G01*
X161680000Y-70153500D01*
G75*
G02*
X161905000Y-70378500I0J-225000D01*
G01*
G37*
G36*
G01*
X163455000Y-70378500D02*
X163455000Y-70878500D01*
G75*
G02*
X163230000Y-71103500I-225000J0D01*
G01*
X162780000Y-71103500D01*
G75*
G02*
X162555000Y-70878500I0J225000D01*
G01*
X162555000Y-70378500D01*
G75*
G02*
X162780000Y-70153500I225000J0D01*
G01*
X163230000Y-70153500D01*
G75*
G02*
X163455000Y-70378500I0J-225000D01*
G01*
G37*
D15*
X150340000Y-36740000D03*
X150340000Y-40040000D03*
D20*
X157810000Y-37140000D03*
X161110000Y-37140000D03*
X157800000Y-39600000D03*
X161100000Y-39600000D03*
D15*
X154860000Y-53790000D03*
X154860000Y-50490000D03*
G36*
G01*
X153510000Y-41866250D02*
X153510000Y-41353750D01*
G75*
G02*
X153728750Y-41135000I218750J0D01*
G01*
X154166250Y-41135000D01*
G75*
G02*
X154385000Y-41353750I0J-218750D01*
G01*
X154385000Y-41866250D01*
G75*
G02*
X154166250Y-42085000I-218750J0D01*
G01*
X153728750Y-42085000D01*
G75*
G02*
X153510000Y-41866250I0J218750D01*
G01*
G37*
G36*
G01*
X151935000Y-41866250D02*
X151935000Y-41353750D01*
G75*
G02*
X152153750Y-41135000I218750J0D01*
G01*
X152591250Y-41135000D01*
G75*
G02*
X152810000Y-41353750I0J-218750D01*
G01*
X152810000Y-41866250D01*
G75*
G02*
X152591250Y-42085000I-218750J0D01*
G01*
X152153750Y-42085000D01*
G75*
G02*
X151935000Y-41866250I0J218750D01*
G01*
G37*
G36*
G01*
X161625500Y-41960250D02*
X161625500Y-41447750D01*
G75*
G02*
X161844250Y-41229000I218750J0D01*
G01*
X162281750Y-41229000D01*
G75*
G02*
X162500500Y-41447750I0J-218750D01*
G01*
X162500500Y-41960250D01*
G75*
G02*
X162281750Y-42179000I-218750J0D01*
G01*
X161844250Y-42179000D01*
G75*
G02*
X161625500Y-41960250I0J218750D01*
G01*
G37*
G36*
G01*
X160050500Y-41960250D02*
X160050500Y-41447750D01*
G75*
G02*
X160269250Y-41229000I218750J0D01*
G01*
X160706750Y-41229000D01*
G75*
G02*
X160925500Y-41447750I0J-218750D01*
G01*
X160925500Y-41960250D01*
G75*
G02*
X160706750Y-42179000I-218750J0D01*
G01*
X160269250Y-42179000D01*
G75*
G02*
X160050500Y-41960250I0J218750D01*
G01*
G37*
G36*
G01*
X131830000Y-74506250D02*
X131830000Y-73993750D01*
G75*
G02*
X132048750Y-73775000I218750J0D01*
G01*
X132486250Y-73775000D01*
G75*
G02*
X132705000Y-73993750I0J-218750D01*
G01*
X132705000Y-74506250D01*
G75*
G02*
X132486250Y-74725000I-218750J0D01*
G01*
X132048750Y-74725000D01*
G75*
G02*
X131830000Y-74506250I0J218750D01*
G01*
G37*
G36*
G01*
X130255000Y-74506250D02*
X130255000Y-73993750D01*
G75*
G02*
X130473750Y-73775000I218750J0D01*
G01*
X130911250Y-73775000D01*
G75*
G02*
X131130000Y-73993750I0J-218750D01*
G01*
X131130000Y-74506250D01*
G75*
G02*
X130911250Y-74725000I-218750J0D01*
G01*
X130473750Y-74725000D01*
G75*
G02*
X130255000Y-74506250I0J218750D01*
G01*
G37*
G36*
G01*
X130275000Y-80826250D02*
X130275000Y-80313750D01*
G75*
G02*
X130493750Y-80095000I218750J0D01*
G01*
X130931250Y-80095000D01*
G75*
G02*
X131150000Y-80313750I0J-218750D01*
G01*
X131150000Y-80826250D01*
G75*
G02*
X130931250Y-81045000I-218750J0D01*
G01*
X130493750Y-81045000D01*
G75*
G02*
X130275000Y-80826250I0J218750D01*
G01*
G37*
G36*
G01*
X131850000Y-80826250D02*
X131850000Y-80313750D01*
G75*
G02*
X132068750Y-80095000I218750J0D01*
G01*
X132506250Y-80095000D01*
G75*
G02*
X132725000Y-80313750I0J-218750D01*
G01*
X132725000Y-80826250D01*
G75*
G02*
X132506250Y-81045000I-218750J0D01*
G01*
X132068750Y-81045000D01*
G75*
G02*
X131850000Y-80826250I0J218750D01*
G01*
G37*
G36*
G01*
X171081950Y-112102500D02*
X170569450Y-112102500D01*
G75*
G02*
X170350700Y-111883750I0J218750D01*
G01*
X170350700Y-111446250D01*
G75*
G02*
X170569450Y-111227500I218750J0D01*
G01*
X171081950Y-111227500D01*
G75*
G02*
X171300700Y-111446250I0J-218750D01*
G01*
X171300700Y-111883750D01*
G75*
G02*
X171081950Y-112102500I-218750J0D01*
G01*
G37*
G36*
G01*
X171081950Y-110527500D02*
X170569450Y-110527500D01*
G75*
G02*
X170350700Y-110308750I0J218750D01*
G01*
X170350700Y-109871250D01*
G75*
G02*
X170569450Y-109652500I218750J0D01*
G01*
X171081950Y-109652500D01*
G75*
G02*
X171300700Y-109871250I0J-218750D01*
G01*
X171300700Y-110308750D01*
G75*
G02*
X171081950Y-110527500I-218750J0D01*
G01*
G37*
G36*
G01*
X130262500Y-86906250D02*
X130262500Y-86393750D01*
G75*
G02*
X130481250Y-86175000I218750J0D01*
G01*
X130918750Y-86175000D01*
G75*
G02*
X131137500Y-86393750I0J-218750D01*
G01*
X131137500Y-86906250D01*
G75*
G02*
X130918750Y-87125000I-218750J0D01*
G01*
X130481250Y-87125000D01*
G75*
G02*
X130262500Y-86906250I0J218750D01*
G01*
G37*
G36*
G01*
X131837500Y-86906250D02*
X131837500Y-86393750D01*
G75*
G02*
X132056250Y-86175000I218750J0D01*
G01*
X132493750Y-86175000D01*
G75*
G02*
X132712500Y-86393750I0J-218750D01*
G01*
X132712500Y-86906250D01*
G75*
G02*
X132493750Y-87125000I-218750J0D01*
G01*
X132056250Y-87125000D01*
G75*
G02*
X131837500Y-86906250I0J218750D01*
G01*
G37*
G36*
G01*
X147455000Y-40275000D02*
X147455000Y-41525000D01*
G75*
G02*
X147205000Y-41775000I-250000J0D01*
G01*
X146455000Y-41775000D01*
G75*
G02*
X146205000Y-41525000I0J250000D01*
G01*
X146205000Y-40275000D01*
G75*
G02*
X146455000Y-40025000I250000J0D01*
G01*
X147205000Y-40025000D01*
G75*
G02*
X147455000Y-40275000I0J-250000D01*
G01*
G37*
G36*
G01*
X144655000Y-40275000D02*
X144655000Y-41525000D01*
G75*
G02*
X144405000Y-41775000I-250000J0D01*
G01*
X143655000Y-41775000D01*
G75*
G02*
X143405000Y-41525000I0J250000D01*
G01*
X143405000Y-40275000D01*
G75*
G02*
X143655000Y-40025000I250000J0D01*
G01*
X144405000Y-40025000D01*
G75*
G02*
X144655000Y-40275000I0J-250000D01*
G01*
G37*
G36*
G01*
X147980000Y-42998750D02*
X147980000Y-43761250D01*
G75*
G02*
X147761250Y-43980000I-218750J0D01*
G01*
X147323750Y-43980000D01*
G75*
G02*
X147105000Y-43761250I0J218750D01*
G01*
X147105000Y-42998750D01*
G75*
G02*
X147323750Y-42780000I218750J0D01*
G01*
X147761250Y-42780000D01*
G75*
G02*
X147980000Y-42998750I0J-218750D01*
G01*
G37*
G36*
G01*
X145855000Y-42998750D02*
X145855000Y-43761250D01*
G75*
G02*
X145636250Y-43980000I-218750J0D01*
G01*
X145198750Y-43980000D01*
G75*
G02*
X144980000Y-43761250I0J218750D01*
G01*
X144980000Y-42998750D01*
G75*
G02*
X145198750Y-42780000I218750J0D01*
G01*
X145636250Y-42780000D01*
G75*
G02*
X145855000Y-42998750I0J-218750D01*
G01*
G37*
D21*
X142702000Y-75570000D03*
G36*
G01*
X144352000Y-75120000D02*
X144352000Y-76020000D01*
G75*
G02*
X144152000Y-76220000I-200000J0D01*
G01*
X143752000Y-76220000D01*
G75*
G02*
X143552000Y-76020000I0J200000D01*
G01*
X143552000Y-75120000D01*
G75*
G02*
X143752000Y-74920000I200000J0D01*
G01*
X144152000Y-74920000D01*
G75*
G02*
X144352000Y-75120000I0J-200000D01*
G01*
G37*
G36*
G01*
X152290000Y-101900000D02*
X152290000Y-101000000D01*
G75*
G02*
X152490000Y-100800000I200000J0D01*
G01*
X152890000Y-100800000D01*
G75*
G02*
X153090000Y-101000000I0J-200000D01*
G01*
X153090000Y-101900000D01*
G75*
G02*
X152890000Y-102100000I-200000J0D01*
G01*
X152490000Y-102100000D01*
G75*
G02*
X152290000Y-101900000I0J200000D01*
G01*
G37*
X153940000Y-101450000D03*
X155190000Y-101450000D03*
X156440000Y-101450000D03*
X157690000Y-101450000D03*
X158940000Y-101450000D03*
G36*
G01*
X143210000Y-128340000D02*
X143210000Y-127440000D01*
G75*
G02*
X143410000Y-127240000I200000J0D01*
G01*
X143810000Y-127240000D01*
G75*
G02*
X144010000Y-127440000I0J-200000D01*
G01*
X144010000Y-128340000D01*
G75*
G02*
X143810000Y-128540000I-200000J0D01*
G01*
X143410000Y-128540000D01*
G75*
G02*
X143210000Y-128340000I0J200000D01*
G01*
G37*
X144860000Y-127890000D03*
X146110000Y-127890000D03*
X147360000Y-127890000D03*
G36*
G01*
X155370000Y-61670000D02*
X156270000Y-61670000D01*
G75*
G02*
X156470000Y-61870000I0J-200000D01*
G01*
X156470000Y-62270000D01*
G75*
G02*
X156270000Y-62470000I-200000J0D01*
G01*
X155370000Y-62470000D01*
G75*
G02*
X155170000Y-62270000I0J200000D01*
G01*
X155170000Y-61870000D01*
G75*
G02*
X155370000Y-61670000I200000J0D01*
G01*
G37*
D16*
X155820000Y-63320000D03*
X155820000Y-64570000D03*
X155820000Y-65820000D03*
G36*
G01*
X145560000Y-36630000D02*
X145560000Y-37530000D01*
G75*
G02*
X145360000Y-37730000I-200000J0D01*
G01*
X144960000Y-37730000D01*
G75*
G02*
X144760000Y-37530000I0J200000D01*
G01*
X144760000Y-36630000D01*
G75*
G02*
X144960000Y-36430000I200000J0D01*
G01*
X145360000Y-36430000D01*
G75*
G02*
X145560000Y-36630000I0J-200000D01*
G01*
G37*
D21*
X143910000Y-37080000D03*
D16*
X176640000Y-120600000D03*
X176640000Y-119350000D03*
X176640000Y-118100000D03*
G36*
G01*
X176190000Y-116450000D02*
X177090000Y-116450000D01*
G75*
G02*
X177290000Y-116650000I0J-200000D01*
G01*
X177290000Y-117050000D01*
G75*
G02*
X177090000Y-117250000I-200000J0D01*
G01*
X176190000Y-117250000D01*
G75*
G02*
X175990000Y-117050000I0J200000D01*
G01*
X175990000Y-116650000D01*
G75*
G02*
X176190000Y-116450000I200000J0D01*
G01*
G37*
G36*
G01*
X146050000Y-94200000D02*
X146950000Y-94200000D01*
G75*
G02*
X147150000Y-94400000I0J-200000D01*
G01*
X147150000Y-94800000D01*
G75*
G02*
X146950000Y-95000000I-200000J0D01*
G01*
X146050000Y-95000000D01*
G75*
G02*
X145850000Y-94800000I0J200000D01*
G01*
X145850000Y-94400000D01*
G75*
G02*
X146050000Y-94200000I200000J0D01*
G01*
G37*
X146500000Y-95850000D03*
X146500000Y-97100000D03*
X146500000Y-98350000D03*
X193810000Y-71700000D03*
X193810000Y-70450000D03*
X193810000Y-69200000D03*
G36*
G01*
X193360000Y-67550000D02*
X194260000Y-67550000D01*
G75*
G02*
X194460000Y-67750000I0J-200000D01*
G01*
X194460000Y-68150000D01*
G75*
G02*
X194260000Y-68350000I-200000J0D01*
G01*
X193360000Y-68350000D01*
G75*
G02*
X193160000Y-68150000I0J200000D01*
G01*
X193160000Y-67750000D01*
G75*
G02*
X193360000Y-67550000I200000J0D01*
G01*
G37*
G36*
G01*
X189940000Y-57890000D02*
X190840000Y-57890000D01*
G75*
G02*
X191040000Y-58090000I0J-200000D01*
G01*
X191040000Y-58490000D01*
G75*
G02*
X190840000Y-58690000I-200000J0D01*
G01*
X189940000Y-58690000D01*
G75*
G02*
X189740000Y-58490000I0J200000D01*
G01*
X189740000Y-58090000D01*
G75*
G02*
X189940000Y-57890000I200000J0D01*
G01*
G37*
X190390000Y-59540000D03*
X190390000Y-60790000D03*
G36*
G01*
X198580000Y-69480000D02*
X197680000Y-69480000D01*
G75*
G02*
X197480000Y-69280000I0J200000D01*
G01*
X197480000Y-68880000D01*
G75*
G02*
X197680000Y-68680000I200000J0D01*
G01*
X198580000Y-68680000D01*
G75*
G02*
X198780000Y-68880000I0J-200000D01*
G01*
X198780000Y-69280000D01*
G75*
G02*
X198580000Y-69480000I-200000J0D01*
G01*
G37*
X198130000Y-67830000D03*
X198130000Y-66580000D03*
X198130000Y-65330000D03*
D21*
X169130000Y-106440000D03*
X170380000Y-106440000D03*
X171630000Y-106440000D03*
X172880000Y-106440000D03*
X174130000Y-106440000D03*
G36*
G01*
X175780000Y-105990000D02*
X175780000Y-106890000D01*
G75*
G02*
X175580000Y-107090000I-200000J0D01*
G01*
X175180000Y-107090000D01*
G75*
G02*
X174980000Y-106890000I0J200000D01*
G01*
X174980000Y-105990000D01*
G75*
G02*
X175180000Y-105790000I200000J0D01*
G01*
X175580000Y-105790000D01*
G75*
G02*
X175780000Y-105990000I0J-200000D01*
G01*
G37*
X164970000Y-40200000D03*
X166220000Y-40200000D03*
X167470000Y-40200000D03*
X168720000Y-40200000D03*
X169970000Y-40200000D03*
G36*
G01*
X171620000Y-39750000D02*
X171620000Y-40650000D01*
G75*
G02*
X171420000Y-40850000I-200000J0D01*
G01*
X171020000Y-40850000D01*
G75*
G02*
X170820000Y-40650000I0J200000D01*
G01*
X170820000Y-39750000D01*
G75*
G02*
X171020000Y-39550000I200000J0D01*
G01*
X171420000Y-39550000D01*
G75*
G02*
X171620000Y-39750000I0J-200000D01*
G01*
G37*
X203070000Y-110000000D03*
X201820000Y-110000000D03*
X200570000Y-110000000D03*
G36*
G01*
X198920000Y-110450000D02*
X198920000Y-109550000D01*
G75*
G02*
X199120000Y-109350000I200000J0D01*
G01*
X199520000Y-109350000D01*
G75*
G02*
X199720000Y-109550000I0J-200000D01*
G01*
X199720000Y-110450000D01*
G75*
G02*
X199520000Y-110650000I-200000J0D01*
G01*
X199120000Y-110650000D01*
G75*
G02*
X198920000Y-110450000I0J200000D01*
G01*
G37*
D16*
X144440000Y-87390000D03*
X144440000Y-86140000D03*
X144440000Y-84890000D03*
G36*
G01*
X143990000Y-83240000D02*
X144890000Y-83240000D01*
G75*
G02*
X145090000Y-83440000I0J-200000D01*
G01*
X145090000Y-83840000D01*
G75*
G02*
X144890000Y-84040000I-200000J0D01*
G01*
X143990000Y-84040000D01*
G75*
G02*
X143790000Y-83840000I0J200000D01*
G01*
X143790000Y-83440000D01*
G75*
G02*
X143990000Y-83240000I200000J0D01*
G01*
G37*
G36*
G01*
X175660000Y-77100000D02*
X175660000Y-78000000D01*
G75*
G02*
X175460000Y-78200000I-200000J0D01*
G01*
X175060000Y-78200000D01*
G75*
G02*
X174860000Y-78000000I0J200000D01*
G01*
X174860000Y-77100000D01*
G75*
G02*
X175060000Y-76900000I200000J0D01*
G01*
X175460000Y-76900000D01*
G75*
G02*
X175660000Y-77100000I0J-200000D01*
G01*
G37*
D21*
X174010000Y-77550000D03*
X172760000Y-77550000D03*
X171510000Y-77550000D03*
X170260000Y-77550000D03*
X169010000Y-77550000D03*
D22*
X162087500Y-130820000D03*
D23*
X165580000Y-130820000D03*
D22*
X169072500Y-130820000D03*
D24*
X131372500Y-105940000D03*
X131372500Y-111740000D03*
D25*
X131372500Y-112340000D03*
X131372500Y-105340000D03*
D26*
X131372500Y-107840000D03*
D27*
X134072500Y-111340000D03*
D28*
X134072500Y-108840000D03*
X134072500Y-109490000D03*
X134072500Y-110140000D03*
X134072500Y-107540000D03*
X134072500Y-108190000D03*
D27*
X134072500Y-106340000D03*
D26*
X131372500Y-109840000D03*
X131362500Y-98710000D03*
D27*
X134062500Y-95210000D03*
D28*
X134062500Y-97060000D03*
X134062500Y-96410000D03*
X134062500Y-99010000D03*
X134062500Y-98360000D03*
X134062500Y-97710000D03*
D27*
X134062500Y-100210000D03*
D26*
X131362500Y-96710000D03*
D25*
X131362500Y-94210000D03*
X131362500Y-101210000D03*
D24*
X131362500Y-100610000D03*
X131362500Y-94810000D03*
D29*
X146525000Y-54475000D03*
X146525000Y-55425000D03*
X146525000Y-63125000D03*
X146525000Y-62025000D03*
X146525000Y-60925000D03*
X146525000Y-59825000D03*
X146525000Y-58725000D03*
X146525000Y-57625000D03*
X146525000Y-56525000D03*
D30*
X146525000Y-64675000D03*
X142225000Y-53525000D03*
D31*
X136025000Y-53525000D03*
D32*
X131875000Y-53525000D03*
D33*
X131425000Y-67025000D03*
D34*
X175030000Y-57120000D03*
X175030000Y-58420000D03*
X151331200Y-128251200D03*
X151331200Y-129551200D03*
D35*
X161407000Y-48994500D03*
X157307000Y-48994500D03*
X168950000Y-49010000D03*
X164850000Y-49010000D03*
G36*
G01*
X165695000Y-123943750D02*
X165695000Y-124456250D01*
G75*
G02*
X165476250Y-124675000I-218750J0D01*
G01*
X165038750Y-124675000D01*
G75*
G02*
X164820000Y-124456250I0J218750D01*
G01*
X164820000Y-123943750D01*
G75*
G02*
X165038750Y-123725000I218750J0D01*
G01*
X165476250Y-123725000D01*
G75*
G02*
X165695000Y-123943750I0J-218750D01*
G01*
G37*
G36*
G01*
X164120000Y-123943750D02*
X164120000Y-124456250D01*
G75*
G02*
X163901250Y-124675000I-218750J0D01*
G01*
X163463750Y-124675000D01*
G75*
G02*
X163245000Y-124456250I0J218750D01*
G01*
X163245000Y-123943750D01*
G75*
G02*
X163463750Y-123725000I218750J0D01*
G01*
X163901250Y-123725000D01*
G75*
G02*
X164120000Y-123943750I0J-218750D01*
G01*
G37*
D36*
X152990000Y-37660000D03*
X152990000Y-39560000D03*
X154990000Y-38610000D03*
G36*
G01*
X148045000Y-36290000D02*
X148595000Y-36290000D01*
G75*
G02*
X148795000Y-36490000I0J-200000D01*
G01*
X148795000Y-36890000D01*
G75*
G02*
X148595000Y-37090000I-200000J0D01*
G01*
X148045000Y-37090000D01*
G75*
G02*
X147845000Y-36890000I0J200000D01*
G01*
X147845000Y-36490000D01*
G75*
G02*
X148045000Y-36290000I200000J0D01*
G01*
G37*
G36*
G01*
X148045000Y-37940000D02*
X148595000Y-37940000D01*
G75*
G02*
X148795000Y-38140000I0J-200000D01*
G01*
X148795000Y-38540000D01*
G75*
G02*
X148595000Y-38740000I-200000J0D01*
G01*
X148045000Y-38740000D01*
G75*
G02*
X147845000Y-38540000I0J200000D01*
G01*
X147845000Y-38140000D01*
G75*
G02*
X148045000Y-37940000I200000J0D01*
G01*
G37*
G36*
G01*
X143920000Y-73495000D02*
X143920000Y-73125000D01*
G75*
G02*
X144055000Y-72990000I135000J0D01*
G01*
X144325000Y-72990000D01*
G75*
G02*
X144460000Y-73125000I0J-135000D01*
G01*
X144460000Y-73495000D01*
G75*
G02*
X144325000Y-73630000I-135000J0D01*
G01*
X144055000Y-73630000D01*
G75*
G02*
X143920000Y-73495000I0J135000D01*
G01*
G37*
G36*
G01*
X144940000Y-73495000D02*
X144940000Y-73125000D01*
G75*
G02*
X145075000Y-72990000I135000J0D01*
G01*
X145345000Y-72990000D01*
G75*
G02*
X145480000Y-73125000I0J-135000D01*
G01*
X145480000Y-73495000D01*
G75*
G02*
X145345000Y-73630000I-135000J0D01*
G01*
X145075000Y-73630000D01*
G75*
G02*
X144940000Y-73495000I0J135000D01*
G01*
G37*
G36*
G01*
X142650000Y-73585000D02*
X142650000Y-73215000D01*
G75*
G02*
X142785000Y-73080000I135000J0D01*
G01*
X143055000Y-73080000D01*
G75*
G02*
X143190000Y-73215000I0J-135000D01*
G01*
X143190000Y-73585000D01*
G75*
G02*
X143055000Y-73720000I-135000J0D01*
G01*
X142785000Y-73720000D01*
G75*
G02*
X142650000Y-73585000I0J135000D01*
G01*
G37*
G36*
G01*
X141630000Y-73585000D02*
X141630000Y-73215000D01*
G75*
G02*
X141765000Y-73080000I135000J0D01*
G01*
X142035000Y-73080000D01*
G75*
G02*
X142170000Y-73215000I0J-135000D01*
G01*
X142170000Y-73585000D01*
G75*
G02*
X142035000Y-73720000I-135000J0D01*
G01*
X141765000Y-73720000D01*
G75*
G02*
X141630000Y-73585000I0J135000D01*
G01*
G37*
G36*
G01*
X145060000Y-46985003D02*
X145060000Y-45734997D01*
G75*
G02*
X145309997Y-45485000I249997J0D01*
G01*
X145935003Y-45485000D01*
G75*
G02*
X146185000Y-45734997I0J-249997D01*
G01*
X146185000Y-46985003D01*
G75*
G02*
X145935003Y-47235000I-249997J0D01*
G01*
X145309997Y-47235000D01*
G75*
G02*
X145060000Y-46985003I0J249997D01*
G01*
G37*
G36*
G01*
X142135000Y-46985003D02*
X142135000Y-45734997D01*
G75*
G02*
X142384997Y-45485000I249997J0D01*
G01*
X143010003Y-45485000D01*
G75*
G02*
X143260000Y-45734997I0J-249997D01*
G01*
X143260000Y-46985003D01*
G75*
G02*
X143010003Y-47235000I-249997J0D01*
G01*
X142384997Y-47235000D01*
G75*
G02*
X142135000Y-46985003I0J249997D01*
G01*
G37*
G36*
G01*
X142335000Y-44055000D02*
X142885000Y-44055000D01*
G75*
G02*
X143085000Y-44255000I0J-200000D01*
G01*
X143085000Y-44655000D01*
G75*
G02*
X142885000Y-44855000I-200000J0D01*
G01*
X142335000Y-44855000D01*
G75*
G02*
X142135000Y-44655000I0J200000D01*
G01*
X142135000Y-44255000D01*
G75*
G02*
X142335000Y-44055000I200000J0D01*
G01*
G37*
G36*
G01*
X142335000Y-42405000D02*
X142885000Y-42405000D01*
G75*
G02*
X143085000Y-42605000I0J-200000D01*
G01*
X143085000Y-43005000D01*
G75*
G02*
X142885000Y-43205000I-200000J0D01*
G01*
X142335000Y-43205000D01*
G75*
G02*
X142135000Y-43005000I0J200000D01*
G01*
X142135000Y-42605000D01*
G75*
G02*
X142335000Y-42405000I200000J0D01*
G01*
G37*
G36*
G01*
X152995000Y-50235000D02*
X152995000Y-50785000D01*
G75*
G02*
X152795000Y-50985000I-200000J0D01*
G01*
X152395000Y-50985000D01*
G75*
G02*
X152195000Y-50785000I0J200000D01*
G01*
X152195000Y-50235000D01*
G75*
G02*
X152395000Y-50035000I200000J0D01*
G01*
X152795000Y-50035000D01*
G75*
G02*
X152995000Y-50235000I0J-200000D01*
G01*
G37*
G36*
G01*
X151345000Y-50235000D02*
X151345000Y-50785000D01*
G75*
G02*
X151145000Y-50985000I-200000J0D01*
G01*
X150745000Y-50985000D01*
G75*
G02*
X150545000Y-50785000I0J200000D01*
G01*
X150545000Y-50235000D01*
G75*
G02*
X150745000Y-50035000I200000J0D01*
G01*
X151145000Y-50035000D01*
G75*
G02*
X151345000Y-50235000I0J-200000D01*
G01*
G37*
G36*
G01*
X150235000Y-47215000D02*
X149685000Y-47215000D01*
G75*
G02*
X149485000Y-47015000I0J200000D01*
G01*
X149485000Y-46615000D01*
G75*
G02*
X149685000Y-46415000I200000J0D01*
G01*
X150235000Y-46415000D01*
G75*
G02*
X150435000Y-46615000I0J-200000D01*
G01*
X150435000Y-47015000D01*
G75*
G02*
X150235000Y-47215000I-200000J0D01*
G01*
G37*
G36*
G01*
X150235000Y-48865000D02*
X149685000Y-48865000D01*
G75*
G02*
X149485000Y-48665000I0J200000D01*
G01*
X149485000Y-48265000D01*
G75*
G02*
X149685000Y-48065000I200000J0D01*
G01*
X150235000Y-48065000D01*
G75*
G02*
X150435000Y-48265000I0J-200000D01*
G01*
X150435000Y-48665000D01*
G75*
G02*
X150235000Y-48865000I-200000J0D01*
G01*
G37*
G36*
G01*
X151995000Y-93825000D02*
X151995000Y-94375000D01*
G75*
G02*
X151795000Y-94575000I-200000J0D01*
G01*
X151395000Y-94575000D01*
G75*
G02*
X151195000Y-94375000I0J200000D01*
G01*
X151195000Y-93825000D01*
G75*
G02*
X151395000Y-93625000I200000J0D01*
G01*
X151795000Y-93625000D01*
G75*
G02*
X151995000Y-93825000I0J-200000D01*
G01*
G37*
G36*
G01*
X150345000Y-93825000D02*
X150345000Y-94375000D01*
G75*
G02*
X150145000Y-94575000I-200000J0D01*
G01*
X149745000Y-94575000D01*
G75*
G02*
X149545000Y-94375000I0J200000D01*
G01*
X149545000Y-93825000D01*
G75*
G02*
X149745000Y-93625000I200000J0D01*
G01*
X150145000Y-93625000D01*
G75*
G02*
X150345000Y-93825000I0J-200000D01*
G01*
G37*
G36*
G01*
X153975000Y-43405000D02*
X153975000Y-43955000D01*
G75*
G02*
X153775000Y-44155000I-200000J0D01*
G01*
X153375000Y-44155000D01*
G75*
G02*
X153175000Y-43955000I0J200000D01*
G01*
X153175000Y-43405000D01*
G75*
G02*
X153375000Y-43205000I200000J0D01*
G01*
X153775000Y-43205000D01*
G75*
G02*
X153975000Y-43405000I0J-200000D01*
G01*
G37*
G36*
G01*
X152325000Y-43405000D02*
X152325000Y-43955000D01*
G75*
G02*
X152125000Y-44155000I-200000J0D01*
G01*
X151725000Y-44155000D01*
G75*
G02*
X151525000Y-43955000I0J200000D01*
G01*
X151525000Y-43405000D01*
G75*
G02*
X151725000Y-43205000I200000J0D01*
G01*
X152125000Y-43205000D01*
G75*
G02*
X152325000Y-43405000I0J-200000D01*
G01*
G37*
G36*
G01*
X149695000Y-43365000D02*
X150245000Y-43365000D01*
G75*
G02*
X150445000Y-43565000I0J-200000D01*
G01*
X150445000Y-43965000D01*
G75*
G02*
X150245000Y-44165000I-200000J0D01*
G01*
X149695000Y-44165000D01*
G75*
G02*
X149495000Y-43965000I0J200000D01*
G01*
X149495000Y-43565000D01*
G75*
G02*
X149695000Y-43365000I200000J0D01*
G01*
G37*
G36*
G01*
X149695000Y-45015000D02*
X150245000Y-45015000D01*
G75*
G02*
X150445000Y-45215000I0J-200000D01*
G01*
X150445000Y-45615000D01*
G75*
G02*
X150245000Y-45815000I-200000J0D01*
G01*
X149695000Y-45815000D01*
G75*
G02*
X149495000Y-45615000I0J200000D01*
G01*
X149495000Y-45215000D01*
G75*
G02*
X149695000Y-45015000I200000J0D01*
G01*
G37*
G36*
G01*
X153720000Y-89415000D02*
X153720000Y-89785000D01*
G75*
G02*
X153585000Y-89920000I-135000J0D01*
G01*
X153315000Y-89920000D01*
G75*
G02*
X153180000Y-89785000I0J135000D01*
G01*
X153180000Y-89415000D01*
G75*
G02*
X153315000Y-89280000I135000J0D01*
G01*
X153585000Y-89280000D01*
G75*
G02*
X153720000Y-89415000I0J-135000D01*
G01*
G37*
G36*
G01*
X152700000Y-89415000D02*
X152700000Y-89785000D01*
G75*
G02*
X152565000Y-89920000I-135000J0D01*
G01*
X152295000Y-89920000D01*
G75*
G02*
X152160000Y-89785000I0J135000D01*
G01*
X152160000Y-89415000D01*
G75*
G02*
X152295000Y-89280000I135000J0D01*
G01*
X152565000Y-89280000D01*
G75*
G02*
X152700000Y-89415000I0J-135000D01*
G01*
G37*
G36*
G01*
X172975000Y-47375000D02*
X172975000Y-46825000D01*
G75*
G02*
X173175000Y-46625000I200000J0D01*
G01*
X173575000Y-46625000D01*
G75*
G02*
X173775000Y-46825000I0J-200000D01*
G01*
X173775000Y-47375000D01*
G75*
G02*
X173575000Y-47575000I-200000J0D01*
G01*
X173175000Y-47575000D01*
G75*
G02*
X172975000Y-47375000I0J200000D01*
G01*
G37*
G36*
G01*
X174625000Y-47375000D02*
X174625000Y-46825000D01*
G75*
G02*
X174825000Y-46625000I200000J0D01*
G01*
X175225000Y-46625000D01*
G75*
G02*
X175425000Y-46825000I0J-200000D01*
G01*
X175425000Y-47375000D01*
G75*
G02*
X175225000Y-47575000I-200000J0D01*
G01*
X174825000Y-47575000D01*
G75*
G02*
X174625000Y-47375000I0J200000D01*
G01*
G37*
G36*
G01*
X175925000Y-50250000D02*
X176475000Y-50250000D01*
G75*
G02*
X176675000Y-50450000I0J-200000D01*
G01*
X176675000Y-50850000D01*
G75*
G02*
X176475000Y-51050000I-200000J0D01*
G01*
X175925000Y-51050000D01*
G75*
G02*
X175725000Y-50850000I0J200000D01*
G01*
X175725000Y-50450000D01*
G75*
G02*
X175925000Y-50250000I200000J0D01*
G01*
G37*
G36*
G01*
X175925000Y-48600000D02*
X176475000Y-48600000D01*
G75*
G02*
X176675000Y-48800000I0J-200000D01*
G01*
X176675000Y-49200000D01*
G75*
G02*
X176475000Y-49400000I-200000J0D01*
G01*
X175925000Y-49400000D01*
G75*
G02*
X175725000Y-49200000I0J200000D01*
G01*
X175725000Y-48800000D01*
G75*
G02*
X175925000Y-48600000I200000J0D01*
G01*
G37*
G36*
G01*
X202395000Y-105975000D02*
X202395000Y-106525000D01*
G75*
G02*
X202195000Y-106725000I-200000J0D01*
G01*
X201795000Y-106725000D01*
G75*
G02*
X201595000Y-106525000I0J200000D01*
G01*
X201595000Y-105975000D01*
G75*
G02*
X201795000Y-105775000I200000J0D01*
G01*
X202195000Y-105775000D01*
G75*
G02*
X202395000Y-105975000I0J-200000D01*
G01*
G37*
G36*
G01*
X200745000Y-105975000D02*
X200745000Y-106525000D01*
G75*
G02*
X200545000Y-106725000I-200000J0D01*
G01*
X200145000Y-106725000D01*
G75*
G02*
X199945000Y-106525000I0J200000D01*
G01*
X199945000Y-105975000D01*
G75*
G02*
X200145000Y-105775000I200000J0D01*
G01*
X200545000Y-105775000D01*
G75*
G02*
X200745000Y-105975000I0J-200000D01*
G01*
G37*
G36*
G01*
X200451000Y-127021000D02*
X200451000Y-126471000D01*
G75*
G02*
X200651000Y-126271000I200000J0D01*
G01*
X201051000Y-126271000D01*
G75*
G02*
X201251000Y-126471000I0J-200000D01*
G01*
X201251000Y-127021000D01*
G75*
G02*
X201051000Y-127221000I-200000J0D01*
G01*
X200651000Y-127221000D01*
G75*
G02*
X200451000Y-127021000I0J200000D01*
G01*
G37*
G36*
G01*
X202101000Y-127021000D02*
X202101000Y-126471000D01*
G75*
G02*
X202301000Y-126271000I200000J0D01*
G01*
X202701000Y-126271000D01*
G75*
G02*
X202901000Y-126471000I0J-200000D01*
G01*
X202901000Y-127021000D01*
G75*
G02*
X202701000Y-127221000I-200000J0D01*
G01*
X202301000Y-127221000D01*
G75*
G02*
X202101000Y-127021000I0J200000D01*
G01*
G37*
G36*
G01*
X202101000Y-125243000D02*
X202101000Y-124693000D01*
G75*
G02*
X202301000Y-124493000I200000J0D01*
G01*
X202701000Y-124493000D01*
G75*
G02*
X202901000Y-124693000I0J-200000D01*
G01*
X202901000Y-125243000D01*
G75*
G02*
X202701000Y-125443000I-200000J0D01*
G01*
X202301000Y-125443000D01*
G75*
G02*
X202101000Y-125243000I0J200000D01*
G01*
G37*
G36*
G01*
X200451000Y-125243000D02*
X200451000Y-124693000D01*
G75*
G02*
X200651000Y-124493000I200000J0D01*
G01*
X201051000Y-124493000D01*
G75*
G02*
X201251000Y-124693000I0J-200000D01*
G01*
X201251000Y-125243000D01*
G75*
G02*
X201051000Y-125443000I-200000J0D01*
G01*
X200651000Y-125443000D01*
G75*
G02*
X200451000Y-125243000I0J200000D01*
G01*
G37*
G36*
G01*
X174300000Y-54075000D02*
X174300000Y-53525000D01*
G75*
G02*
X174500000Y-53325000I200000J0D01*
G01*
X174900000Y-53325000D01*
G75*
G02*
X175100000Y-53525000I0J-200000D01*
G01*
X175100000Y-54075000D01*
G75*
G02*
X174900000Y-54275000I-200000J0D01*
G01*
X174500000Y-54275000D01*
G75*
G02*
X174300000Y-54075000I0J200000D01*
G01*
G37*
G36*
G01*
X172650000Y-54075000D02*
X172650000Y-53525000D01*
G75*
G02*
X172850000Y-53325000I200000J0D01*
G01*
X173250000Y-53325000D01*
G75*
G02*
X173450000Y-53525000I0J-200000D01*
G01*
X173450000Y-54075000D01*
G75*
G02*
X173250000Y-54275000I-200000J0D01*
G01*
X172850000Y-54275000D01*
G75*
G02*
X172650000Y-54075000I0J200000D01*
G01*
G37*
G36*
G01*
X176475000Y-54125000D02*
X175925000Y-54125000D01*
G75*
G02*
X175725000Y-53925000I0J200000D01*
G01*
X175725000Y-53525000D01*
G75*
G02*
X175925000Y-53325000I200000J0D01*
G01*
X176475000Y-53325000D01*
G75*
G02*
X176675000Y-53525000I0J-200000D01*
G01*
X176675000Y-53925000D01*
G75*
G02*
X176475000Y-54125000I-200000J0D01*
G01*
G37*
G36*
G01*
X176475000Y-52475000D02*
X175925000Y-52475000D01*
G75*
G02*
X175725000Y-52275000I0J200000D01*
G01*
X175725000Y-51875000D01*
G75*
G02*
X175925000Y-51675000I200000J0D01*
G01*
X176475000Y-51675000D01*
G75*
G02*
X176675000Y-51875000I0J-200000D01*
G01*
X176675000Y-52275000D01*
G75*
G02*
X176475000Y-52475000I-200000J0D01*
G01*
G37*
G36*
G01*
X221380000Y-116705000D02*
X221380000Y-117255000D01*
G75*
G02*
X221180000Y-117455000I-200000J0D01*
G01*
X220780000Y-117455000D01*
G75*
G02*
X220580000Y-117255000I0J200000D01*
G01*
X220580000Y-116705000D01*
G75*
G02*
X220780000Y-116505000I200000J0D01*
G01*
X221180000Y-116505000D01*
G75*
G02*
X221380000Y-116705000I0J-200000D01*
G01*
G37*
G36*
G01*
X219730000Y-116705000D02*
X219730000Y-117255000D01*
G75*
G02*
X219530000Y-117455000I-200000J0D01*
G01*
X219130000Y-117455000D01*
G75*
G02*
X218930000Y-117255000I0J200000D01*
G01*
X218930000Y-116705000D01*
G75*
G02*
X219130000Y-116505000I200000J0D01*
G01*
X219530000Y-116505000D01*
G75*
G02*
X219730000Y-116705000I0J-200000D01*
G01*
G37*
G36*
G01*
X200915000Y-100723000D02*
X200915000Y-100173000D01*
G75*
G02*
X201115000Y-99973000I200000J0D01*
G01*
X201515000Y-99973000D01*
G75*
G02*
X201715000Y-100173000I0J-200000D01*
G01*
X201715000Y-100723000D01*
G75*
G02*
X201515000Y-100923000I-200000J0D01*
G01*
X201115000Y-100923000D01*
G75*
G02*
X200915000Y-100723000I0J200000D01*
G01*
G37*
G36*
G01*
X199265000Y-100723000D02*
X199265000Y-100173000D01*
G75*
G02*
X199465000Y-99973000I200000J0D01*
G01*
X199865000Y-99973000D01*
G75*
G02*
X200065000Y-100173000I0J-200000D01*
G01*
X200065000Y-100723000D01*
G75*
G02*
X199865000Y-100923000I-200000J0D01*
G01*
X199465000Y-100923000D01*
G75*
G02*
X199265000Y-100723000I0J200000D01*
G01*
G37*
G36*
G01*
X219720000Y-118355000D02*
X219720000Y-118905000D01*
G75*
G02*
X219520000Y-119105000I-200000J0D01*
G01*
X219120000Y-119105000D01*
G75*
G02*
X218920000Y-118905000I0J200000D01*
G01*
X218920000Y-118355000D01*
G75*
G02*
X219120000Y-118155000I200000J0D01*
G01*
X219520000Y-118155000D01*
G75*
G02*
X219720000Y-118355000I0J-200000D01*
G01*
G37*
G36*
G01*
X221370000Y-118355000D02*
X221370000Y-118905000D01*
G75*
G02*
X221170000Y-119105000I-200000J0D01*
G01*
X220770000Y-119105000D01*
G75*
G02*
X220570000Y-118905000I0J200000D01*
G01*
X220570000Y-118355000D01*
G75*
G02*
X220770000Y-118155000I200000J0D01*
G01*
X221170000Y-118155000D01*
G75*
G02*
X221370000Y-118355000I0J-200000D01*
G01*
G37*
G36*
G01*
X204235000Y-105480000D02*
X204785000Y-105480000D01*
G75*
G02*
X204985000Y-105680000I0J-200000D01*
G01*
X204985000Y-106080000D01*
G75*
G02*
X204785000Y-106280000I-200000J0D01*
G01*
X204235000Y-106280000D01*
G75*
G02*
X204035000Y-106080000I0J200000D01*
G01*
X204035000Y-105680000D01*
G75*
G02*
X204235000Y-105480000I200000J0D01*
G01*
G37*
G36*
G01*
X204235000Y-103830000D02*
X204785000Y-103830000D01*
G75*
G02*
X204985000Y-104030000I0J-200000D01*
G01*
X204985000Y-104430000D01*
G75*
G02*
X204785000Y-104630000I-200000J0D01*
G01*
X204235000Y-104630000D01*
G75*
G02*
X204035000Y-104430000I0J200000D01*
G01*
X204035000Y-104030000D01*
G75*
G02*
X204235000Y-103830000I200000J0D01*
G01*
G37*
G36*
G01*
X150805000Y-110131600D02*
X150435000Y-110131600D01*
G75*
G02*
X150300000Y-109996600I0J135000D01*
G01*
X150300000Y-109726600D01*
G75*
G02*
X150435000Y-109591600I135000J0D01*
G01*
X150805000Y-109591600D01*
G75*
G02*
X150940000Y-109726600I0J-135000D01*
G01*
X150940000Y-109996600D01*
G75*
G02*
X150805000Y-110131600I-135000J0D01*
G01*
G37*
G36*
G01*
X150805000Y-111151600D02*
X150435000Y-111151600D01*
G75*
G02*
X150300000Y-111016600I0J135000D01*
G01*
X150300000Y-110746600D01*
G75*
G02*
X150435000Y-110611600I135000J0D01*
G01*
X150805000Y-110611600D01*
G75*
G02*
X150940000Y-110746600I0J-135000D01*
G01*
X150940000Y-111016600D01*
G75*
G02*
X150805000Y-111151600I-135000J0D01*
G01*
G37*
G36*
G01*
X158940000Y-77297000D02*
X159310000Y-77297000D01*
G75*
G02*
X159445000Y-77432000I0J-135000D01*
G01*
X159445000Y-77702000D01*
G75*
G02*
X159310000Y-77837000I-135000J0D01*
G01*
X158940000Y-77837000D01*
G75*
G02*
X158805000Y-77702000I0J135000D01*
G01*
X158805000Y-77432000D01*
G75*
G02*
X158940000Y-77297000I135000J0D01*
G01*
G37*
G36*
G01*
X158940000Y-78317000D02*
X159310000Y-78317000D01*
G75*
G02*
X159445000Y-78452000I0J-135000D01*
G01*
X159445000Y-78722000D01*
G75*
G02*
X159310000Y-78857000I-135000J0D01*
G01*
X158940000Y-78857000D01*
G75*
G02*
X158805000Y-78722000I0J135000D01*
G01*
X158805000Y-78452000D01*
G75*
G02*
X158940000Y-78317000I135000J0D01*
G01*
G37*
G36*
G01*
X148775000Y-41885000D02*
X148775000Y-41335000D01*
G75*
G02*
X148975000Y-41135000I200000J0D01*
G01*
X149375000Y-41135000D01*
G75*
G02*
X149575000Y-41335000I0J-200000D01*
G01*
X149575000Y-41885000D01*
G75*
G02*
X149375000Y-42085000I-200000J0D01*
G01*
X148975000Y-42085000D01*
G75*
G02*
X148775000Y-41885000I0J200000D01*
G01*
G37*
G36*
G01*
X150425000Y-41885000D02*
X150425000Y-41335000D01*
G75*
G02*
X150625000Y-41135000I200000J0D01*
G01*
X151025000Y-41135000D01*
G75*
G02*
X151225000Y-41335000I0J-200000D01*
G01*
X151225000Y-41885000D01*
G75*
G02*
X151025000Y-42085000I-200000J0D01*
G01*
X150625000Y-42085000D01*
G75*
G02*
X150425000Y-41885000I0J200000D01*
G01*
G37*
G36*
G01*
X160146500Y-78317000D02*
X160516500Y-78317000D01*
G75*
G02*
X160651500Y-78452000I0J-135000D01*
G01*
X160651500Y-78722000D01*
G75*
G02*
X160516500Y-78857000I-135000J0D01*
G01*
X160146500Y-78857000D01*
G75*
G02*
X160011500Y-78722000I0J135000D01*
G01*
X160011500Y-78452000D01*
G75*
G02*
X160146500Y-78317000I135000J0D01*
G01*
G37*
G36*
G01*
X160146500Y-77297000D02*
X160516500Y-77297000D01*
G75*
G02*
X160651500Y-77432000I0J-135000D01*
G01*
X160651500Y-77702000D01*
G75*
G02*
X160516500Y-77837000I-135000J0D01*
G01*
X160146500Y-77837000D01*
G75*
G02*
X160011500Y-77702000I0J135000D01*
G01*
X160011500Y-77432000D01*
G75*
G02*
X160146500Y-77297000I135000J0D01*
G01*
G37*
G36*
G01*
X156844000Y-41968000D02*
X156844000Y-41418000D01*
G75*
G02*
X157044000Y-41218000I200000J0D01*
G01*
X157444000Y-41218000D01*
G75*
G02*
X157644000Y-41418000I0J-200000D01*
G01*
X157644000Y-41968000D01*
G75*
G02*
X157444000Y-42168000I-200000J0D01*
G01*
X157044000Y-42168000D01*
G75*
G02*
X156844000Y-41968000I0J200000D01*
G01*
G37*
G36*
G01*
X158494000Y-41968000D02*
X158494000Y-41418000D01*
G75*
G02*
X158694000Y-41218000I200000J0D01*
G01*
X159094000Y-41218000D01*
G75*
G02*
X159294000Y-41418000I0J-200000D01*
G01*
X159294000Y-41968000D01*
G75*
G02*
X159094000Y-42168000I-200000J0D01*
G01*
X158694000Y-42168000D01*
G75*
G02*
X158494000Y-41968000I0J200000D01*
G01*
G37*
G36*
G01*
X166870000Y-100734000D02*
X166500000Y-100734000D01*
G75*
G02*
X166365000Y-100599000I0J135000D01*
G01*
X166365000Y-100329000D01*
G75*
G02*
X166500000Y-100194000I135000J0D01*
G01*
X166870000Y-100194000D01*
G75*
G02*
X167005000Y-100329000I0J-135000D01*
G01*
X167005000Y-100599000D01*
G75*
G02*
X166870000Y-100734000I-135000J0D01*
G01*
G37*
G36*
G01*
X166870000Y-99714000D02*
X166500000Y-99714000D01*
G75*
G02*
X166365000Y-99579000I0J135000D01*
G01*
X166365000Y-99309000D01*
G75*
G02*
X166500000Y-99174000I135000J0D01*
G01*
X166870000Y-99174000D01*
G75*
G02*
X167005000Y-99309000I0J-135000D01*
G01*
X167005000Y-99579000D01*
G75*
G02*
X166870000Y-99714000I-135000J0D01*
G01*
G37*
G36*
G01*
X133280000Y-74525000D02*
X133280000Y-73975000D01*
G75*
G02*
X133480000Y-73775000I200000J0D01*
G01*
X133880000Y-73775000D01*
G75*
G02*
X134080000Y-73975000I0J-200000D01*
G01*
X134080000Y-74525000D01*
G75*
G02*
X133880000Y-74725000I-200000J0D01*
G01*
X133480000Y-74725000D01*
G75*
G02*
X133280000Y-74525000I0J200000D01*
G01*
G37*
G36*
G01*
X134930000Y-74525000D02*
X134930000Y-73975000D01*
G75*
G02*
X135130000Y-73775000I200000J0D01*
G01*
X135530000Y-73775000D01*
G75*
G02*
X135730000Y-73975000I0J-200000D01*
G01*
X135730000Y-74525000D01*
G75*
G02*
X135530000Y-74725000I-200000J0D01*
G01*
X135130000Y-74725000D01*
G75*
G02*
X134930000Y-74525000I0J200000D01*
G01*
G37*
G36*
G01*
X168013000Y-99714000D02*
X167643000Y-99714000D01*
G75*
G02*
X167508000Y-99579000I0J135000D01*
G01*
X167508000Y-99309000D01*
G75*
G02*
X167643000Y-99174000I135000J0D01*
G01*
X168013000Y-99174000D01*
G75*
G02*
X168148000Y-99309000I0J-135000D01*
G01*
X168148000Y-99579000D01*
G75*
G02*
X168013000Y-99714000I-135000J0D01*
G01*
G37*
G36*
G01*
X168013000Y-100734000D02*
X167643000Y-100734000D01*
G75*
G02*
X167508000Y-100599000I0J135000D01*
G01*
X167508000Y-100329000D01*
G75*
G02*
X167643000Y-100194000I135000J0D01*
G01*
X168013000Y-100194000D01*
G75*
G02*
X168148000Y-100329000I0J-135000D01*
G01*
X168148000Y-100599000D01*
G75*
G02*
X168013000Y-100734000I-135000J0D01*
G01*
G37*
G36*
G01*
X177545000Y-56845000D02*
X177545000Y-57395000D01*
G75*
G02*
X177345000Y-57595000I-200000J0D01*
G01*
X176945000Y-57595000D01*
G75*
G02*
X176745000Y-57395000I0J200000D01*
G01*
X176745000Y-56845000D01*
G75*
G02*
X176945000Y-56645000I200000J0D01*
G01*
X177345000Y-56645000D01*
G75*
G02*
X177545000Y-56845000I0J-200000D01*
G01*
G37*
G36*
G01*
X179195000Y-56845000D02*
X179195000Y-57395000D01*
G75*
G02*
X178995000Y-57595000I-200000J0D01*
G01*
X178595000Y-57595000D01*
G75*
G02*
X178395000Y-57395000I0J200000D01*
G01*
X178395000Y-56845000D01*
G75*
G02*
X178595000Y-56645000I200000J0D01*
G01*
X178995000Y-56645000D01*
G75*
G02*
X179195000Y-56845000I0J-200000D01*
G01*
G37*
G36*
G01*
X134960000Y-80855000D02*
X134960000Y-80305000D01*
G75*
G02*
X135160000Y-80105000I200000J0D01*
G01*
X135560000Y-80105000D01*
G75*
G02*
X135760000Y-80305000I0J-200000D01*
G01*
X135760000Y-80855000D01*
G75*
G02*
X135560000Y-81055000I-200000J0D01*
G01*
X135160000Y-81055000D01*
G75*
G02*
X134960000Y-80855000I0J200000D01*
G01*
G37*
G36*
G01*
X133310000Y-80855000D02*
X133310000Y-80305000D01*
G75*
G02*
X133510000Y-80105000I200000J0D01*
G01*
X133910000Y-80105000D01*
G75*
G02*
X134110000Y-80305000I0J-200000D01*
G01*
X134110000Y-80855000D01*
G75*
G02*
X133910000Y-81055000I-200000J0D01*
G01*
X133510000Y-81055000D01*
G75*
G02*
X133310000Y-80855000I0J200000D01*
G01*
G37*
G36*
G01*
X171037200Y-115429500D02*
X170487200Y-115429500D01*
G75*
G02*
X170287200Y-115229500I0J200000D01*
G01*
X170287200Y-114829500D01*
G75*
G02*
X170487200Y-114629500I200000J0D01*
G01*
X171037200Y-114629500D01*
G75*
G02*
X171237200Y-114829500I0J-200000D01*
G01*
X171237200Y-115229500D01*
G75*
G02*
X171037200Y-115429500I-200000J0D01*
G01*
G37*
G36*
G01*
X171037200Y-113779500D02*
X170487200Y-113779500D01*
G75*
G02*
X170287200Y-113579500I0J200000D01*
G01*
X170287200Y-113179500D01*
G75*
G02*
X170487200Y-112979500I200000J0D01*
G01*
X171037200Y-112979500D01*
G75*
G02*
X171237200Y-113179500I0J-200000D01*
G01*
X171237200Y-113579500D01*
G75*
G02*
X171037200Y-113779500I-200000J0D01*
G01*
G37*
G36*
G01*
X150085000Y-118150000D02*
X150635000Y-118150000D01*
G75*
G02*
X150835000Y-118350000I0J-200000D01*
G01*
X150835000Y-118750000D01*
G75*
G02*
X150635000Y-118950000I-200000J0D01*
G01*
X150085000Y-118950000D01*
G75*
G02*
X149885000Y-118750000I0J200000D01*
G01*
X149885000Y-118350000D01*
G75*
G02*
X150085000Y-118150000I200000J0D01*
G01*
G37*
G36*
G01*
X150085000Y-116500000D02*
X150635000Y-116500000D01*
G75*
G02*
X150835000Y-116700000I0J-200000D01*
G01*
X150835000Y-117100000D01*
G75*
G02*
X150635000Y-117300000I-200000J0D01*
G01*
X150085000Y-117300000D01*
G75*
G02*
X149885000Y-117100000I0J200000D01*
G01*
X149885000Y-116700000D01*
G75*
G02*
X150085000Y-116500000I200000J0D01*
G01*
G37*
G36*
G01*
X134960000Y-86935000D02*
X134960000Y-86385000D01*
G75*
G02*
X135160000Y-86185000I200000J0D01*
G01*
X135560000Y-86185000D01*
G75*
G02*
X135760000Y-86385000I0J-200000D01*
G01*
X135760000Y-86935000D01*
G75*
G02*
X135560000Y-87135000I-200000J0D01*
G01*
X135160000Y-87135000D01*
G75*
G02*
X134960000Y-86935000I0J200000D01*
G01*
G37*
G36*
G01*
X133310000Y-86935000D02*
X133310000Y-86385000D01*
G75*
G02*
X133510000Y-86185000I200000J0D01*
G01*
X133910000Y-86185000D01*
G75*
G02*
X134110000Y-86385000I0J-200000D01*
G01*
X134110000Y-86935000D01*
G75*
G02*
X133910000Y-87135000I-200000J0D01*
G01*
X133510000Y-87135000D01*
G75*
G02*
X133310000Y-86935000I0J200000D01*
G01*
G37*
G36*
G01*
X157634100Y-128692997D02*
X157634100Y-129943003D01*
G75*
G02*
X157384103Y-130193000I-249997J0D01*
G01*
X156759097Y-130193000D01*
G75*
G02*
X156509100Y-129943003I0J249997D01*
G01*
X156509100Y-128692997D01*
G75*
G02*
X156759097Y-128443000I249997J0D01*
G01*
X157384103Y-128443000D01*
G75*
G02*
X157634100Y-128692997I0J-249997D01*
G01*
G37*
G36*
G01*
X154709100Y-128692997D02*
X154709100Y-129943003D01*
G75*
G02*
X154459103Y-130193000I-249997J0D01*
G01*
X153834097Y-130193000D01*
G75*
G02*
X153584100Y-129943003I0J249997D01*
G01*
X153584100Y-128692997D01*
G75*
G02*
X153834097Y-128443000I249997J0D01*
G01*
X154459103Y-128443000D01*
G75*
G02*
X154709100Y-128692997I0J-249997D01*
G01*
G37*
G36*
G01*
X131760000Y-113915000D02*
X131760000Y-114465000D01*
G75*
G02*
X131560000Y-114665000I-200000J0D01*
G01*
X131160000Y-114665000D01*
G75*
G02*
X130960000Y-114465000I0J200000D01*
G01*
X130960000Y-113915000D01*
G75*
G02*
X131160000Y-113715000I200000J0D01*
G01*
X131560000Y-113715000D01*
G75*
G02*
X131760000Y-113915000I0J-200000D01*
G01*
G37*
G36*
G01*
X133410000Y-113915000D02*
X133410000Y-114465000D01*
G75*
G02*
X133210000Y-114665000I-200000J0D01*
G01*
X132810000Y-114665000D01*
G75*
G02*
X132610000Y-114465000I0J200000D01*
G01*
X132610000Y-113915000D01*
G75*
G02*
X132810000Y-113715000I200000J0D01*
G01*
X133210000Y-113715000D01*
G75*
G02*
X133410000Y-113915000I0J-200000D01*
G01*
G37*
G36*
G01*
X133440000Y-102805000D02*
X133440000Y-103355000D01*
G75*
G02*
X133240000Y-103555000I-200000J0D01*
G01*
X132840000Y-103555000D01*
G75*
G02*
X132640000Y-103355000I0J200000D01*
G01*
X132640000Y-102805000D01*
G75*
G02*
X132840000Y-102605000I200000J0D01*
G01*
X133240000Y-102605000D01*
G75*
G02*
X133440000Y-102805000I0J-200000D01*
G01*
G37*
G36*
G01*
X131790000Y-102805000D02*
X131790000Y-103355000D01*
G75*
G02*
X131590000Y-103555000I-200000J0D01*
G01*
X131190000Y-103555000D01*
G75*
G02*
X130990000Y-103355000I0J200000D01*
G01*
X130990000Y-102805000D01*
G75*
G02*
X131190000Y-102605000I200000J0D01*
G01*
X131590000Y-102605000D01*
G75*
G02*
X131790000Y-102805000I0J-200000D01*
G01*
G37*
G36*
G01*
X137155000Y-109475000D02*
X137155000Y-108925000D01*
G75*
G02*
X137355000Y-108725000I200000J0D01*
G01*
X137755000Y-108725000D01*
G75*
G02*
X137955000Y-108925000I0J-200000D01*
G01*
X137955000Y-109475000D01*
G75*
G02*
X137755000Y-109675000I-200000J0D01*
G01*
X137355000Y-109675000D01*
G75*
G02*
X137155000Y-109475000I0J200000D01*
G01*
G37*
G36*
G01*
X138805000Y-109475000D02*
X138805000Y-108925000D01*
G75*
G02*
X139005000Y-108725000I200000J0D01*
G01*
X139405000Y-108725000D01*
G75*
G02*
X139605000Y-108925000I0J-200000D01*
G01*
X139605000Y-109475000D01*
G75*
G02*
X139405000Y-109675000I-200000J0D01*
G01*
X139005000Y-109675000D01*
G75*
G02*
X138805000Y-109475000I0J200000D01*
G01*
G37*
G36*
G01*
X137940000Y-107375000D02*
X137940000Y-107925000D01*
G75*
G02*
X137740000Y-108125000I-200000J0D01*
G01*
X137340000Y-108125000D01*
G75*
G02*
X137140000Y-107925000I0J200000D01*
G01*
X137140000Y-107375000D01*
G75*
G02*
X137340000Y-107175000I200000J0D01*
G01*
X137740000Y-107175000D01*
G75*
G02*
X137940000Y-107375000I0J-200000D01*
G01*
G37*
G36*
G01*
X139590000Y-107375000D02*
X139590000Y-107925000D01*
G75*
G02*
X139390000Y-108125000I-200000J0D01*
G01*
X138990000Y-108125000D01*
G75*
G02*
X138790000Y-107925000I0J200000D01*
G01*
X138790000Y-107375000D01*
G75*
G02*
X138990000Y-107175000I200000J0D01*
G01*
X139390000Y-107175000D01*
G75*
G02*
X139590000Y-107375000I0J-200000D01*
G01*
G37*
G36*
G01*
X137750000Y-51835000D02*
X137750000Y-51465000D01*
G75*
G02*
X137885000Y-51330000I135000J0D01*
G01*
X138155000Y-51330000D01*
G75*
G02*
X138290000Y-51465000I0J-135000D01*
G01*
X138290000Y-51835000D01*
G75*
G02*
X138155000Y-51970000I-135000J0D01*
G01*
X137885000Y-51970000D01*
G75*
G02*
X137750000Y-51835000I0J135000D01*
G01*
G37*
G36*
G01*
X138770000Y-51835000D02*
X138770000Y-51465000D01*
G75*
G02*
X138905000Y-51330000I135000J0D01*
G01*
X139175000Y-51330000D01*
G75*
G02*
X139310000Y-51465000I0J-135000D01*
G01*
X139310000Y-51835000D01*
G75*
G02*
X139175000Y-51970000I-135000J0D01*
G01*
X138905000Y-51970000D01*
G75*
G02*
X138770000Y-51835000I0J135000D01*
G01*
G37*
D37*
X150841500Y-72951000D03*
X150841500Y-78951000D03*
X147141500Y-72951000D03*
X147141500Y-78951000D03*
D11*
X140540000Y-47910000D03*
X215780000Y-37720000D03*
X150000000Y-97310000D03*
X180510000Y-128500000D03*
X201676000Y-129032000D03*
X177750000Y-123980000D03*
X182540000Y-110950000D03*
X171760000Y-58720000D03*
X171730000Y-61460000D03*
X169420000Y-119510000D03*
X165220000Y-106700000D03*
X193510000Y-57820000D03*
X168961000Y-61548000D03*
X159200000Y-65090000D03*
X198050000Y-43990000D03*
X159499500Y-68977500D03*
X165240000Y-71420000D03*
X165532000Y-61675000D03*
G36*
G01*
X154315000Y-83425000D02*
X154315000Y-83275000D01*
G75*
G02*
X154390000Y-83200000I75000J0D01*
G01*
X155840000Y-83200000D01*
G75*
G02*
X155915000Y-83275000I0J-75000D01*
G01*
X155915000Y-83425000D01*
G75*
G02*
X155840000Y-83500000I-75000J0D01*
G01*
X154390000Y-83500000D01*
G75*
G02*
X154315000Y-83425000I0J75000D01*
G01*
G37*
G36*
G01*
X154315000Y-83925000D02*
X154315000Y-83775000D01*
G75*
G02*
X154390000Y-83700000I75000J0D01*
G01*
X155840000Y-83700000D01*
G75*
G02*
X155915000Y-83775000I0J-75000D01*
G01*
X155915000Y-83925000D01*
G75*
G02*
X155840000Y-84000000I-75000J0D01*
G01*
X154390000Y-84000000D01*
G75*
G02*
X154315000Y-83925000I0J75000D01*
G01*
G37*
G36*
G01*
X154315000Y-84425000D02*
X154315000Y-84275000D01*
G75*
G02*
X154390000Y-84200000I75000J0D01*
G01*
X155840000Y-84200000D01*
G75*
G02*
X155915000Y-84275000I0J-75000D01*
G01*
X155915000Y-84425000D01*
G75*
G02*
X155840000Y-84500000I-75000J0D01*
G01*
X154390000Y-84500000D01*
G75*
G02*
X154315000Y-84425000I0J75000D01*
G01*
G37*
G36*
G01*
X154315000Y-84925000D02*
X154315000Y-84775000D01*
G75*
G02*
X154390000Y-84700000I75000J0D01*
G01*
X155840000Y-84700000D01*
G75*
G02*
X155915000Y-84775000I0J-75000D01*
G01*
X155915000Y-84925000D01*
G75*
G02*
X155840000Y-85000000I-75000J0D01*
G01*
X154390000Y-85000000D01*
G75*
G02*
X154315000Y-84925000I0J75000D01*
G01*
G37*
G36*
G01*
X154315000Y-85425000D02*
X154315000Y-85275000D01*
G75*
G02*
X154390000Y-85200000I75000J0D01*
G01*
X155840000Y-85200000D01*
G75*
G02*
X155915000Y-85275000I0J-75000D01*
G01*
X155915000Y-85425000D01*
G75*
G02*
X155840000Y-85500000I-75000J0D01*
G01*
X154390000Y-85500000D01*
G75*
G02*
X154315000Y-85425000I0J75000D01*
G01*
G37*
G36*
G01*
X154315000Y-85925000D02*
X154315000Y-85775000D01*
G75*
G02*
X154390000Y-85700000I75000J0D01*
G01*
X155840000Y-85700000D01*
G75*
G02*
X155915000Y-85775000I0J-75000D01*
G01*
X155915000Y-85925000D01*
G75*
G02*
X155840000Y-86000000I-75000J0D01*
G01*
X154390000Y-86000000D01*
G75*
G02*
X154315000Y-85925000I0J75000D01*
G01*
G37*
G36*
G01*
X154315000Y-86425000D02*
X154315000Y-86275000D01*
G75*
G02*
X154390000Y-86200000I75000J0D01*
G01*
X155840000Y-86200000D01*
G75*
G02*
X155915000Y-86275000I0J-75000D01*
G01*
X155915000Y-86425000D01*
G75*
G02*
X155840000Y-86500000I-75000J0D01*
G01*
X154390000Y-86500000D01*
G75*
G02*
X154315000Y-86425000I0J75000D01*
G01*
G37*
G36*
G01*
X154315000Y-86925000D02*
X154315000Y-86775000D01*
G75*
G02*
X154390000Y-86700000I75000J0D01*
G01*
X155840000Y-86700000D01*
G75*
G02*
X155915000Y-86775000I0J-75000D01*
G01*
X155915000Y-86925000D01*
G75*
G02*
X155840000Y-87000000I-75000J0D01*
G01*
X154390000Y-87000000D01*
G75*
G02*
X154315000Y-86925000I0J75000D01*
G01*
G37*
G36*
G01*
X154315000Y-87425000D02*
X154315000Y-87275000D01*
G75*
G02*
X154390000Y-87200000I75000J0D01*
G01*
X155840000Y-87200000D01*
G75*
G02*
X155915000Y-87275000I0J-75000D01*
G01*
X155915000Y-87425000D01*
G75*
G02*
X155840000Y-87500000I-75000J0D01*
G01*
X154390000Y-87500000D01*
G75*
G02*
X154315000Y-87425000I0J75000D01*
G01*
G37*
G36*
G01*
X154315000Y-87925000D02*
X154315000Y-87775000D01*
G75*
G02*
X154390000Y-87700000I75000J0D01*
G01*
X155840000Y-87700000D01*
G75*
G02*
X155915000Y-87775000I0J-75000D01*
G01*
X155915000Y-87925000D01*
G75*
G02*
X155840000Y-88000000I-75000J0D01*
G01*
X154390000Y-88000000D01*
G75*
G02*
X154315000Y-87925000I0J75000D01*
G01*
G37*
G36*
G01*
X154315000Y-88425000D02*
X154315000Y-88275000D01*
G75*
G02*
X154390000Y-88200000I75000J0D01*
G01*
X155840000Y-88200000D01*
G75*
G02*
X155915000Y-88275000I0J-75000D01*
G01*
X155915000Y-88425000D01*
G75*
G02*
X155840000Y-88500000I-75000J0D01*
G01*
X154390000Y-88500000D01*
G75*
G02*
X154315000Y-88425000I0J75000D01*
G01*
G37*
G36*
G01*
X154315000Y-88925000D02*
X154315000Y-88775000D01*
G75*
G02*
X154390000Y-88700000I75000J0D01*
G01*
X155840000Y-88700000D01*
G75*
G02*
X155915000Y-88775000I0J-75000D01*
G01*
X155915000Y-88925000D01*
G75*
G02*
X155840000Y-89000000I-75000J0D01*
G01*
X154390000Y-89000000D01*
G75*
G02*
X154315000Y-88925000I0J75000D01*
G01*
G37*
G36*
G01*
X154315000Y-89425000D02*
X154315000Y-89275000D01*
G75*
G02*
X154390000Y-89200000I75000J0D01*
G01*
X155840000Y-89200000D01*
G75*
G02*
X155915000Y-89275000I0J-75000D01*
G01*
X155915000Y-89425000D01*
G75*
G02*
X155840000Y-89500000I-75000J0D01*
G01*
X154390000Y-89500000D01*
G75*
G02*
X154315000Y-89425000I0J75000D01*
G01*
G37*
G36*
G01*
X154315000Y-89925000D02*
X154315000Y-89775000D01*
G75*
G02*
X154390000Y-89700000I75000J0D01*
G01*
X155840000Y-89700000D01*
G75*
G02*
X155915000Y-89775000I0J-75000D01*
G01*
X155915000Y-89925000D01*
G75*
G02*
X155840000Y-90000000I-75000J0D01*
G01*
X154390000Y-90000000D01*
G75*
G02*
X154315000Y-89925000I0J75000D01*
G01*
G37*
G36*
G01*
X154315000Y-90425000D02*
X154315000Y-90275000D01*
G75*
G02*
X154390000Y-90200000I75000J0D01*
G01*
X155840000Y-90200000D01*
G75*
G02*
X155915000Y-90275000I0J-75000D01*
G01*
X155915000Y-90425000D01*
G75*
G02*
X155840000Y-90500000I-75000J0D01*
G01*
X154390000Y-90500000D01*
G75*
G02*
X154315000Y-90425000I0J75000D01*
G01*
G37*
G36*
G01*
X154315000Y-90925000D02*
X154315000Y-90775000D01*
G75*
G02*
X154390000Y-90700000I75000J0D01*
G01*
X155840000Y-90700000D01*
G75*
G02*
X155915000Y-90775000I0J-75000D01*
G01*
X155915000Y-90925000D01*
G75*
G02*
X155840000Y-91000000I-75000J0D01*
G01*
X154390000Y-91000000D01*
G75*
G02*
X154315000Y-90925000I0J75000D01*
G01*
G37*
G36*
G01*
X154315000Y-91425000D02*
X154315000Y-91275000D01*
G75*
G02*
X154390000Y-91200000I75000J0D01*
G01*
X155840000Y-91200000D01*
G75*
G02*
X155915000Y-91275000I0J-75000D01*
G01*
X155915000Y-91425000D01*
G75*
G02*
X155840000Y-91500000I-75000J0D01*
G01*
X154390000Y-91500000D01*
G75*
G02*
X154315000Y-91425000I0J75000D01*
G01*
G37*
G36*
G01*
X154315000Y-91925000D02*
X154315000Y-91775000D01*
G75*
G02*
X154390000Y-91700000I75000J0D01*
G01*
X155840000Y-91700000D01*
G75*
G02*
X155915000Y-91775000I0J-75000D01*
G01*
X155915000Y-91925000D01*
G75*
G02*
X155840000Y-92000000I-75000J0D01*
G01*
X154390000Y-92000000D01*
G75*
G02*
X154315000Y-91925000I0J75000D01*
G01*
G37*
G36*
G01*
X154315000Y-92425000D02*
X154315000Y-92275000D01*
G75*
G02*
X154390000Y-92200000I75000J0D01*
G01*
X155840000Y-92200000D01*
G75*
G02*
X155915000Y-92275000I0J-75000D01*
G01*
X155915000Y-92425000D01*
G75*
G02*
X155840000Y-92500000I-75000J0D01*
G01*
X154390000Y-92500000D01*
G75*
G02*
X154315000Y-92425000I0J75000D01*
G01*
G37*
G36*
G01*
X154315000Y-92925000D02*
X154315000Y-92775000D01*
G75*
G02*
X154390000Y-92700000I75000J0D01*
G01*
X155840000Y-92700000D01*
G75*
G02*
X155915000Y-92775000I0J-75000D01*
G01*
X155915000Y-92925000D01*
G75*
G02*
X155840000Y-93000000I-75000J0D01*
G01*
X154390000Y-93000000D01*
G75*
G02*
X154315000Y-92925000I0J75000D01*
G01*
G37*
G36*
G01*
X154315000Y-93425000D02*
X154315000Y-93275000D01*
G75*
G02*
X154390000Y-93200000I75000J0D01*
G01*
X155840000Y-93200000D01*
G75*
G02*
X155915000Y-93275000I0J-75000D01*
G01*
X155915000Y-93425000D01*
G75*
G02*
X155840000Y-93500000I-75000J0D01*
G01*
X154390000Y-93500000D01*
G75*
G02*
X154315000Y-93425000I0J75000D01*
G01*
G37*
G36*
G01*
X154315000Y-93925000D02*
X154315000Y-93775000D01*
G75*
G02*
X154390000Y-93700000I75000J0D01*
G01*
X155840000Y-93700000D01*
G75*
G02*
X155915000Y-93775000I0J-75000D01*
G01*
X155915000Y-93925000D01*
G75*
G02*
X155840000Y-94000000I-75000J0D01*
G01*
X154390000Y-94000000D01*
G75*
G02*
X154315000Y-93925000I0J75000D01*
G01*
G37*
G36*
G01*
X154315000Y-94425000D02*
X154315000Y-94275000D01*
G75*
G02*
X154390000Y-94200000I75000J0D01*
G01*
X155840000Y-94200000D01*
G75*
G02*
X155915000Y-94275000I0J-75000D01*
G01*
X155915000Y-94425000D01*
G75*
G02*
X155840000Y-94500000I-75000J0D01*
G01*
X154390000Y-94500000D01*
G75*
G02*
X154315000Y-94425000I0J75000D01*
G01*
G37*
G36*
G01*
X154315000Y-94925000D02*
X154315000Y-94775000D01*
G75*
G02*
X154390000Y-94700000I75000J0D01*
G01*
X155840000Y-94700000D01*
G75*
G02*
X155915000Y-94775000I0J-75000D01*
G01*
X155915000Y-94925000D01*
G75*
G02*
X155840000Y-95000000I-75000J0D01*
G01*
X154390000Y-95000000D01*
G75*
G02*
X154315000Y-94925000I0J75000D01*
G01*
G37*
G36*
G01*
X154315000Y-95425000D02*
X154315000Y-95275000D01*
G75*
G02*
X154390000Y-95200000I75000J0D01*
G01*
X155840000Y-95200000D01*
G75*
G02*
X155915000Y-95275000I0J-75000D01*
G01*
X155915000Y-95425000D01*
G75*
G02*
X155840000Y-95500000I-75000J0D01*
G01*
X154390000Y-95500000D01*
G75*
G02*
X154315000Y-95425000I0J75000D01*
G01*
G37*
G36*
G01*
X156640000Y-97750000D02*
X156640000Y-96300000D01*
G75*
G02*
X156715000Y-96225000I75000J0D01*
G01*
X156865000Y-96225000D01*
G75*
G02*
X156940000Y-96300000I0J-75000D01*
G01*
X156940000Y-97750000D01*
G75*
G02*
X156865000Y-97825000I-75000J0D01*
G01*
X156715000Y-97825000D01*
G75*
G02*
X156640000Y-97750000I0J75000D01*
G01*
G37*
G36*
G01*
X157140000Y-97750000D02*
X157140000Y-96300000D01*
G75*
G02*
X157215000Y-96225000I75000J0D01*
G01*
X157365000Y-96225000D01*
G75*
G02*
X157440000Y-96300000I0J-75000D01*
G01*
X157440000Y-97750000D01*
G75*
G02*
X157365000Y-97825000I-75000J0D01*
G01*
X157215000Y-97825000D01*
G75*
G02*
X157140000Y-97750000I0J75000D01*
G01*
G37*
G36*
G01*
X157640000Y-97750000D02*
X157640000Y-96300000D01*
G75*
G02*
X157715000Y-96225000I75000J0D01*
G01*
X157865000Y-96225000D01*
G75*
G02*
X157940000Y-96300000I0J-75000D01*
G01*
X157940000Y-97750000D01*
G75*
G02*
X157865000Y-97825000I-75000J0D01*
G01*
X157715000Y-97825000D01*
G75*
G02*
X157640000Y-97750000I0J75000D01*
G01*
G37*
G36*
G01*
X158140000Y-97750000D02*
X158140000Y-96300000D01*
G75*
G02*
X158215000Y-96225000I75000J0D01*
G01*
X158365000Y-96225000D01*
G75*
G02*
X158440000Y-96300000I0J-75000D01*
G01*
X158440000Y-97750000D01*
G75*
G02*
X158365000Y-97825000I-75000J0D01*
G01*
X158215000Y-97825000D01*
G75*
G02*
X158140000Y-97750000I0J75000D01*
G01*
G37*
G36*
G01*
X158640000Y-97750000D02*
X158640000Y-96300000D01*
G75*
G02*
X158715000Y-96225000I75000J0D01*
G01*
X158865000Y-96225000D01*
G75*
G02*
X158940000Y-96300000I0J-75000D01*
G01*
X158940000Y-97750000D01*
G75*
G02*
X158865000Y-97825000I-75000J0D01*
G01*
X158715000Y-97825000D01*
G75*
G02*
X158640000Y-97750000I0J75000D01*
G01*
G37*
G36*
G01*
X159140000Y-97750000D02*
X159140000Y-96300000D01*
G75*
G02*
X159215000Y-96225000I75000J0D01*
G01*
X159365000Y-96225000D01*
G75*
G02*
X159440000Y-96300000I0J-75000D01*
G01*
X159440000Y-97750000D01*
G75*
G02*
X159365000Y-97825000I-75000J0D01*
G01*
X159215000Y-97825000D01*
G75*
G02*
X159140000Y-97750000I0J75000D01*
G01*
G37*
G36*
G01*
X159640000Y-97750000D02*
X159640000Y-96300000D01*
G75*
G02*
X159715000Y-96225000I75000J0D01*
G01*
X159865000Y-96225000D01*
G75*
G02*
X159940000Y-96300000I0J-75000D01*
G01*
X159940000Y-97750000D01*
G75*
G02*
X159865000Y-97825000I-75000J0D01*
G01*
X159715000Y-97825000D01*
G75*
G02*
X159640000Y-97750000I0J75000D01*
G01*
G37*
G36*
G01*
X160140000Y-97750000D02*
X160140000Y-96300000D01*
G75*
G02*
X160215000Y-96225000I75000J0D01*
G01*
X160365000Y-96225000D01*
G75*
G02*
X160440000Y-96300000I0J-75000D01*
G01*
X160440000Y-97750000D01*
G75*
G02*
X160365000Y-97825000I-75000J0D01*
G01*
X160215000Y-97825000D01*
G75*
G02*
X160140000Y-97750000I0J75000D01*
G01*
G37*
G36*
G01*
X160640000Y-97750000D02*
X160640000Y-96300000D01*
G75*
G02*
X160715000Y-96225000I75000J0D01*
G01*
X160865000Y-96225000D01*
G75*
G02*
X160940000Y-96300000I0J-75000D01*
G01*
X160940000Y-97750000D01*
G75*
G02*
X160865000Y-97825000I-75000J0D01*
G01*
X160715000Y-97825000D01*
G75*
G02*
X160640000Y-97750000I0J75000D01*
G01*
G37*
G36*
G01*
X161140000Y-97750000D02*
X161140000Y-96300000D01*
G75*
G02*
X161215000Y-96225000I75000J0D01*
G01*
X161365000Y-96225000D01*
G75*
G02*
X161440000Y-96300000I0J-75000D01*
G01*
X161440000Y-97750000D01*
G75*
G02*
X161365000Y-97825000I-75000J0D01*
G01*
X161215000Y-97825000D01*
G75*
G02*
X161140000Y-97750000I0J75000D01*
G01*
G37*
G36*
G01*
X161640000Y-97750000D02*
X161640000Y-96300000D01*
G75*
G02*
X161715000Y-96225000I75000J0D01*
G01*
X161865000Y-96225000D01*
G75*
G02*
X161940000Y-96300000I0J-75000D01*
G01*
X161940000Y-97750000D01*
G75*
G02*
X161865000Y-97825000I-75000J0D01*
G01*
X161715000Y-97825000D01*
G75*
G02*
X161640000Y-97750000I0J75000D01*
G01*
G37*
G36*
G01*
X162140000Y-97750000D02*
X162140000Y-96300000D01*
G75*
G02*
X162215000Y-96225000I75000J0D01*
G01*
X162365000Y-96225000D01*
G75*
G02*
X162440000Y-96300000I0J-75000D01*
G01*
X162440000Y-97750000D01*
G75*
G02*
X162365000Y-97825000I-75000J0D01*
G01*
X162215000Y-97825000D01*
G75*
G02*
X162140000Y-97750000I0J75000D01*
G01*
G37*
G36*
G01*
X162640000Y-97750000D02*
X162640000Y-96300000D01*
G75*
G02*
X162715000Y-96225000I75000J0D01*
G01*
X162865000Y-96225000D01*
G75*
G02*
X162940000Y-96300000I0J-75000D01*
G01*
X162940000Y-97750000D01*
G75*
G02*
X162865000Y-97825000I-75000J0D01*
G01*
X162715000Y-97825000D01*
G75*
G02*
X162640000Y-97750000I0J75000D01*
G01*
G37*
G36*
G01*
X163140000Y-97750000D02*
X163140000Y-96300000D01*
G75*
G02*
X163215000Y-96225000I75000J0D01*
G01*
X163365000Y-96225000D01*
G75*
G02*
X163440000Y-96300000I0J-75000D01*
G01*
X163440000Y-97750000D01*
G75*
G02*
X163365000Y-97825000I-75000J0D01*
G01*
X163215000Y-97825000D01*
G75*
G02*
X163140000Y-97750000I0J75000D01*
G01*
G37*
G36*
G01*
X163640000Y-97750000D02*
X163640000Y-96300000D01*
G75*
G02*
X163715000Y-96225000I75000J0D01*
G01*
X163865000Y-96225000D01*
G75*
G02*
X163940000Y-96300000I0J-75000D01*
G01*
X163940000Y-97750000D01*
G75*
G02*
X163865000Y-97825000I-75000J0D01*
G01*
X163715000Y-97825000D01*
G75*
G02*
X163640000Y-97750000I0J75000D01*
G01*
G37*
G36*
G01*
X164140000Y-97750000D02*
X164140000Y-96300000D01*
G75*
G02*
X164215000Y-96225000I75000J0D01*
G01*
X164365000Y-96225000D01*
G75*
G02*
X164440000Y-96300000I0J-75000D01*
G01*
X164440000Y-97750000D01*
G75*
G02*
X164365000Y-97825000I-75000J0D01*
G01*
X164215000Y-97825000D01*
G75*
G02*
X164140000Y-97750000I0J75000D01*
G01*
G37*
G36*
G01*
X164640000Y-97750000D02*
X164640000Y-96300000D01*
G75*
G02*
X164715000Y-96225000I75000J0D01*
G01*
X164865000Y-96225000D01*
G75*
G02*
X164940000Y-96300000I0J-75000D01*
G01*
X164940000Y-97750000D01*
G75*
G02*
X164865000Y-97825000I-75000J0D01*
G01*
X164715000Y-97825000D01*
G75*
G02*
X164640000Y-97750000I0J75000D01*
G01*
G37*
G36*
G01*
X165140000Y-97750000D02*
X165140000Y-96300000D01*
G75*
G02*
X165215000Y-96225000I75000J0D01*
G01*
X165365000Y-96225000D01*
G75*
G02*
X165440000Y-96300000I0J-75000D01*
G01*
X165440000Y-97750000D01*
G75*
G02*
X165365000Y-97825000I-75000J0D01*
G01*
X165215000Y-97825000D01*
G75*
G02*
X165140000Y-97750000I0J75000D01*
G01*
G37*
G36*
G01*
X165640000Y-97750000D02*
X165640000Y-96300000D01*
G75*
G02*
X165715000Y-96225000I75000J0D01*
G01*
X165865000Y-96225000D01*
G75*
G02*
X165940000Y-96300000I0J-75000D01*
G01*
X165940000Y-97750000D01*
G75*
G02*
X165865000Y-97825000I-75000J0D01*
G01*
X165715000Y-97825000D01*
G75*
G02*
X165640000Y-97750000I0J75000D01*
G01*
G37*
G36*
G01*
X166140000Y-97750000D02*
X166140000Y-96300000D01*
G75*
G02*
X166215000Y-96225000I75000J0D01*
G01*
X166365000Y-96225000D01*
G75*
G02*
X166440000Y-96300000I0J-75000D01*
G01*
X166440000Y-97750000D01*
G75*
G02*
X166365000Y-97825000I-75000J0D01*
G01*
X166215000Y-97825000D01*
G75*
G02*
X166140000Y-97750000I0J75000D01*
G01*
G37*
G36*
G01*
X166640000Y-97750000D02*
X166640000Y-96300000D01*
G75*
G02*
X166715000Y-96225000I75000J0D01*
G01*
X166865000Y-96225000D01*
G75*
G02*
X166940000Y-96300000I0J-75000D01*
G01*
X166940000Y-97750000D01*
G75*
G02*
X166865000Y-97825000I-75000J0D01*
G01*
X166715000Y-97825000D01*
G75*
G02*
X166640000Y-97750000I0J75000D01*
G01*
G37*
G36*
G01*
X167140000Y-97750000D02*
X167140000Y-96300000D01*
G75*
G02*
X167215000Y-96225000I75000J0D01*
G01*
X167365000Y-96225000D01*
G75*
G02*
X167440000Y-96300000I0J-75000D01*
G01*
X167440000Y-97750000D01*
G75*
G02*
X167365000Y-97825000I-75000J0D01*
G01*
X167215000Y-97825000D01*
G75*
G02*
X167140000Y-97750000I0J75000D01*
G01*
G37*
G36*
G01*
X167640000Y-97750000D02*
X167640000Y-96300000D01*
G75*
G02*
X167715000Y-96225000I75000J0D01*
G01*
X167865000Y-96225000D01*
G75*
G02*
X167940000Y-96300000I0J-75000D01*
G01*
X167940000Y-97750000D01*
G75*
G02*
X167865000Y-97825000I-75000J0D01*
G01*
X167715000Y-97825000D01*
G75*
G02*
X167640000Y-97750000I0J75000D01*
G01*
G37*
G36*
G01*
X168140000Y-97750000D02*
X168140000Y-96300000D01*
G75*
G02*
X168215000Y-96225000I75000J0D01*
G01*
X168365000Y-96225000D01*
G75*
G02*
X168440000Y-96300000I0J-75000D01*
G01*
X168440000Y-97750000D01*
G75*
G02*
X168365000Y-97825000I-75000J0D01*
G01*
X168215000Y-97825000D01*
G75*
G02*
X168140000Y-97750000I0J75000D01*
G01*
G37*
G36*
G01*
X168640000Y-97750000D02*
X168640000Y-96300000D01*
G75*
G02*
X168715000Y-96225000I75000J0D01*
G01*
X168865000Y-96225000D01*
G75*
G02*
X168940000Y-96300000I0J-75000D01*
G01*
X168940000Y-97750000D01*
G75*
G02*
X168865000Y-97825000I-75000J0D01*
G01*
X168715000Y-97825000D01*
G75*
G02*
X168640000Y-97750000I0J75000D01*
G01*
G37*
G36*
G01*
X169665000Y-95425000D02*
X169665000Y-95275000D01*
G75*
G02*
X169740000Y-95200000I75000J0D01*
G01*
X171190000Y-95200000D01*
G75*
G02*
X171265000Y-95275000I0J-75000D01*
G01*
X171265000Y-95425000D01*
G75*
G02*
X171190000Y-95500000I-75000J0D01*
G01*
X169740000Y-95500000D01*
G75*
G02*
X169665000Y-95425000I0J75000D01*
G01*
G37*
G36*
G01*
X169665000Y-94925000D02*
X169665000Y-94775000D01*
G75*
G02*
X169740000Y-94700000I75000J0D01*
G01*
X171190000Y-94700000D01*
G75*
G02*
X171265000Y-94775000I0J-75000D01*
G01*
X171265000Y-94925000D01*
G75*
G02*
X171190000Y-95000000I-75000J0D01*
G01*
X169740000Y-95000000D01*
G75*
G02*
X169665000Y-94925000I0J75000D01*
G01*
G37*
G36*
G01*
X169665000Y-94425000D02*
X169665000Y-94275000D01*
G75*
G02*
X169740000Y-94200000I75000J0D01*
G01*
X171190000Y-94200000D01*
G75*
G02*
X171265000Y-94275000I0J-75000D01*
G01*
X171265000Y-94425000D01*
G75*
G02*
X171190000Y-94500000I-75000J0D01*
G01*
X169740000Y-94500000D01*
G75*
G02*
X169665000Y-94425000I0J75000D01*
G01*
G37*
G36*
G01*
X169665000Y-93925000D02*
X169665000Y-93775000D01*
G75*
G02*
X169740000Y-93700000I75000J0D01*
G01*
X171190000Y-93700000D01*
G75*
G02*
X171265000Y-93775000I0J-75000D01*
G01*
X171265000Y-93925000D01*
G75*
G02*
X171190000Y-94000000I-75000J0D01*
G01*
X169740000Y-94000000D01*
G75*
G02*
X169665000Y-93925000I0J75000D01*
G01*
G37*
G36*
G01*
X169665000Y-93425000D02*
X169665000Y-93275000D01*
G75*
G02*
X169740000Y-93200000I75000J0D01*
G01*
X171190000Y-93200000D01*
G75*
G02*
X171265000Y-93275000I0J-75000D01*
G01*
X171265000Y-93425000D01*
G75*
G02*
X171190000Y-93500000I-75000J0D01*
G01*
X169740000Y-93500000D01*
G75*
G02*
X169665000Y-93425000I0J75000D01*
G01*
G37*
G36*
G01*
X169665000Y-92925000D02*
X169665000Y-92775000D01*
G75*
G02*
X169740000Y-92700000I75000J0D01*
G01*
X171190000Y-92700000D01*
G75*
G02*
X171265000Y-92775000I0J-75000D01*
G01*
X171265000Y-92925000D01*
G75*
G02*
X171190000Y-93000000I-75000J0D01*
G01*
X169740000Y-93000000D01*
G75*
G02*
X169665000Y-92925000I0J75000D01*
G01*
G37*
G36*
G01*
X169665000Y-92425000D02*
X169665000Y-92275000D01*
G75*
G02*
X169740000Y-92200000I75000J0D01*
G01*
X171190000Y-92200000D01*
G75*
G02*
X171265000Y-92275000I0J-75000D01*
G01*
X171265000Y-92425000D01*
G75*
G02*
X171190000Y-92500000I-75000J0D01*
G01*
X169740000Y-92500000D01*
G75*
G02*
X169665000Y-92425000I0J75000D01*
G01*
G37*
G36*
G01*
X169665000Y-91925000D02*
X169665000Y-91775000D01*
G75*
G02*
X169740000Y-91700000I75000J0D01*
G01*
X171190000Y-91700000D01*
G75*
G02*
X171265000Y-91775000I0J-75000D01*
G01*
X171265000Y-91925000D01*
G75*
G02*
X171190000Y-92000000I-75000J0D01*
G01*
X169740000Y-92000000D01*
G75*
G02*
X169665000Y-91925000I0J75000D01*
G01*
G37*
G36*
G01*
X169665000Y-91425000D02*
X169665000Y-91275000D01*
G75*
G02*
X169740000Y-91200000I75000J0D01*
G01*
X171190000Y-91200000D01*
G75*
G02*
X171265000Y-91275000I0J-75000D01*
G01*
X171265000Y-91425000D01*
G75*
G02*
X171190000Y-91500000I-75000J0D01*
G01*
X169740000Y-91500000D01*
G75*
G02*
X169665000Y-91425000I0J75000D01*
G01*
G37*
G36*
G01*
X169665000Y-90925000D02*
X169665000Y-90775000D01*
G75*
G02*
X169740000Y-90700000I75000J0D01*
G01*
X171190000Y-90700000D01*
G75*
G02*
X171265000Y-90775000I0J-75000D01*
G01*
X171265000Y-90925000D01*
G75*
G02*
X171190000Y-91000000I-75000J0D01*
G01*
X169740000Y-91000000D01*
G75*
G02*
X169665000Y-90925000I0J75000D01*
G01*
G37*
G36*
G01*
X169665000Y-90425000D02*
X169665000Y-90275000D01*
G75*
G02*
X169740000Y-90200000I75000J0D01*
G01*
X171190000Y-90200000D01*
G75*
G02*
X171265000Y-90275000I0J-75000D01*
G01*
X171265000Y-90425000D01*
G75*
G02*
X171190000Y-90500000I-75000J0D01*
G01*
X169740000Y-90500000D01*
G75*
G02*
X169665000Y-90425000I0J75000D01*
G01*
G37*
G36*
G01*
X169665000Y-89925000D02*
X169665000Y-89775000D01*
G75*
G02*
X169740000Y-89700000I75000J0D01*
G01*
X171190000Y-89700000D01*
G75*
G02*
X171265000Y-89775000I0J-75000D01*
G01*
X171265000Y-89925000D01*
G75*
G02*
X171190000Y-90000000I-75000J0D01*
G01*
X169740000Y-90000000D01*
G75*
G02*
X169665000Y-89925000I0J75000D01*
G01*
G37*
G36*
G01*
X169665000Y-89425000D02*
X169665000Y-89275000D01*
G75*
G02*
X169740000Y-89200000I75000J0D01*
G01*
X171190000Y-89200000D01*
G75*
G02*
X171265000Y-89275000I0J-75000D01*
G01*
X171265000Y-89425000D01*
G75*
G02*
X171190000Y-89500000I-75000J0D01*
G01*
X169740000Y-89500000D01*
G75*
G02*
X169665000Y-89425000I0J75000D01*
G01*
G37*
G36*
G01*
X169665000Y-88925000D02*
X169665000Y-88775000D01*
G75*
G02*
X169740000Y-88700000I75000J0D01*
G01*
X171190000Y-88700000D01*
G75*
G02*
X171265000Y-88775000I0J-75000D01*
G01*
X171265000Y-88925000D01*
G75*
G02*
X171190000Y-89000000I-75000J0D01*
G01*
X169740000Y-89000000D01*
G75*
G02*
X169665000Y-88925000I0J75000D01*
G01*
G37*
G36*
G01*
X169665000Y-88425000D02*
X169665000Y-88275000D01*
G75*
G02*
X169740000Y-88200000I75000J0D01*
G01*
X171190000Y-88200000D01*
G75*
G02*
X171265000Y-88275000I0J-75000D01*
G01*
X171265000Y-88425000D01*
G75*
G02*
X171190000Y-88500000I-75000J0D01*
G01*
X169740000Y-88500000D01*
G75*
G02*
X169665000Y-88425000I0J75000D01*
G01*
G37*
G36*
G01*
X169665000Y-87925000D02*
X169665000Y-87775000D01*
G75*
G02*
X169740000Y-87700000I75000J0D01*
G01*
X171190000Y-87700000D01*
G75*
G02*
X171265000Y-87775000I0J-75000D01*
G01*
X171265000Y-87925000D01*
G75*
G02*
X171190000Y-88000000I-75000J0D01*
G01*
X169740000Y-88000000D01*
G75*
G02*
X169665000Y-87925000I0J75000D01*
G01*
G37*
G36*
G01*
X169665000Y-87425000D02*
X169665000Y-87275000D01*
G75*
G02*
X169740000Y-87200000I75000J0D01*
G01*
X171190000Y-87200000D01*
G75*
G02*
X171265000Y-87275000I0J-75000D01*
G01*
X171265000Y-87425000D01*
G75*
G02*
X171190000Y-87500000I-75000J0D01*
G01*
X169740000Y-87500000D01*
G75*
G02*
X169665000Y-87425000I0J75000D01*
G01*
G37*
G36*
G01*
X169665000Y-86925000D02*
X169665000Y-86775000D01*
G75*
G02*
X169740000Y-86700000I75000J0D01*
G01*
X171190000Y-86700000D01*
G75*
G02*
X171265000Y-86775000I0J-75000D01*
G01*
X171265000Y-86925000D01*
G75*
G02*
X171190000Y-87000000I-75000J0D01*
G01*
X169740000Y-87000000D01*
G75*
G02*
X169665000Y-86925000I0J75000D01*
G01*
G37*
G36*
G01*
X169665000Y-86425000D02*
X169665000Y-86275000D01*
G75*
G02*
X169740000Y-86200000I75000J0D01*
G01*
X171190000Y-86200000D01*
G75*
G02*
X171265000Y-86275000I0J-75000D01*
G01*
X171265000Y-86425000D01*
G75*
G02*
X171190000Y-86500000I-75000J0D01*
G01*
X169740000Y-86500000D01*
G75*
G02*
X169665000Y-86425000I0J75000D01*
G01*
G37*
G36*
G01*
X169665000Y-85925000D02*
X169665000Y-85775000D01*
G75*
G02*
X169740000Y-85700000I75000J0D01*
G01*
X171190000Y-85700000D01*
G75*
G02*
X171265000Y-85775000I0J-75000D01*
G01*
X171265000Y-85925000D01*
G75*
G02*
X171190000Y-86000000I-75000J0D01*
G01*
X169740000Y-86000000D01*
G75*
G02*
X169665000Y-85925000I0J75000D01*
G01*
G37*
G36*
G01*
X169665000Y-85425000D02*
X169665000Y-85275000D01*
G75*
G02*
X169740000Y-85200000I75000J0D01*
G01*
X171190000Y-85200000D01*
G75*
G02*
X171265000Y-85275000I0J-75000D01*
G01*
X171265000Y-85425000D01*
G75*
G02*
X171190000Y-85500000I-75000J0D01*
G01*
X169740000Y-85500000D01*
G75*
G02*
X169665000Y-85425000I0J75000D01*
G01*
G37*
G36*
G01*
X169665000Y-84925000D02*
X169665000Y-84775000D01*
G75*
G02*
X169740000Y-84700000I75000J0D01*
G01*
X171190000Y-84700000D01*
G75*
G02*
X171265000Y-84775000I0J-75000D01*
G01*
X171265000Y-84925000D01*
G75*
G02*
X171190000Y-85000000I-75000J0D01*
G01*
X169740000Y-85000000D01*
G75*
G02*
X169665000Y-84925000I0J75000D01*
G01*
G37*
G36*
G01*
X169665000Y-84425000D02*
X169665000Y-84275000D01*
G75*
G02*
X169740000Y-84200000I75000J0D01*
G01*
X171190000Y-84200000D01*
G75*
G02*
X171265000Y-84275000I0J-75000D01*
G01*
X171265000Y-84425000D01*
G75*
G02*
X171190000Y-84500000I-75000J0D01*
G01*
X169740000Y-84500000D01*
G75*
G02*
X169665000Y-84425000I0J75000D01*
G01*
G37*
G36*
G01*
X169665000Y-83925000D02*
X169665000Y-83775000D01*
G75*
G02*
X169740000Y-83700000I75000J0D01*
G01*
X171190000Y-83700000D01*
G75*
G02*
X171265000Y-83775000I0J-75000D01*
G01*
X171265000Y-83925000D01*
G75*
G02*
X171190000Y-84000000I-75000J0D01*
G01*
X169740000Y-84000000D01*
G75*
G02*
X169665000Y-83925000I0J75000D01*
G01*
G37*
G36*
G01*
X169665000Y-83425000D02*
X169665000Y-83275000D01*
G75*
G02*
X169740000Y-83200000I75000J0D01*
G01*
X171190000Y-83200000D01*
G75*
G02*
X171265000Y-83275000I0J-75000D01*
G01*
X171265000Y-83425000D01*
G75*
G02*
X171190000Y-83500000I-75000J0D01*
G01*
X169740000Y-83500000D01*
G75*
G02*
X169665000Y-83425000I0J75000D01*
G01*
G37*
G36*
G01*
X168640000Y-82400000D02*
X168640000Y-80950000D01*
G75*
G02*
X168715000Y-80875000I75000J0D01*
G01*
X168865000Y-80875000D01*
G75*
G02*
X168940000Y-80950000I0J-75000D01*
G01*
X168940000Y-82400000D01*
G75*
G02*
X168865000Y-82475000I-75000J0D01*
G01*
X168715000Y-82475000D01*
G75*
G02*
X168640000Y-82400000I0J75000D01*
G01*
G37*
G36*
G01*
X168140000Y-82400000D02*
X168140000Y-80950000D01*
G75*
G02*
X168215000Y-80875000I75000J0D01*
G01*
X168365000Y-80875000D01*
G75*
G02*
X168440000Y-80950000I0J-75000D01*
G01*
X168440000Y-82400000D01*
G75*
G02*
X168365000Y-82475000I-75000J0D01*
G01*
X168215000Y-82475000D01*
G75*
G02*
X168140000Y-82400000I0J75000D01*
G01*
G37*
G36*
G01*
X167640000Y-82400000D02*
X167640000Y-80950000D01*
G75*
G02*
X167715000Y-80875000I75000J0D01*
G01*
X167865000Y-80875000D01*
G75*
G02*
X167940000Y-80950000I0J-75000D01*
G01*
X167940000Y-82400000D01*
G75*
G02*
X167865000Y-82475000I-75000J0D01*
G01*
X167715000Y-82475000D01*
G75*
G02*
X167640000Y-82400000I0J75000D01*
G01*
G37*
G36*
G01*
X167140000Y-82400000D02*
X167140000Y-80950000D01*
G75*
G02*
X167215000Y-80875000I75000J0D01*
G01*
X167365000Y-80875000D01*
G75*
G02*
X167440000Y-80950000I0J-75000D01*
G01*
X167440000Y-82400000D01*
G75*
G02*
X167365000Y-82475000I-75000J0D01*
G01*
X167215000Y-82475000D01*
G75*
G02*
X167140000Y-82400000I0J75000D01*
G01*
G37*
G36*
G01*
X166640000Y-82400000D02*
X166640000Y-80950000D01*
G75*
G02*
X166715000Y-80875000I75000J0D01*
G01*
X166865000Y-80875000D01*
G75*
G02*
X166940000Y-80950000I0J-75000D01*
G01*
X166940000Y-82400000D01*
G75*
G02*
X166865000Y-82475000I-75000J0D01*
G01*
X166715000Y-82475000D01*
G75*
G02*
X166640000Y-82400000I0J75000D01*
G01*
G37*
G36*
G01*
X166140000Y-82400000D02*
X166140000Y-80950000D01*
G75*
G02*
X166215000Y-80875000I75000J0D01*
G01*
X166365000Y-80875000D01*
G75*
G02*
X166440000Y-80950000I0J-75000D01*
G01*
X166440000Y-82400000D01*
G75*
G02*
X166365000Y-82475000I-75000J0D01*
G01*
X166215000Y-82475000D01*
G75*
G02*
X166140000Y-82400000I0J75000D01*
G01*
G37*
G36*
G01*
X165640000Y-82400000D02*
X165640000Y-80950000D01*
G75*
G02*
X165715000Y-80875000I75000J0D01*
G01*
X165865000Y-80875000D01*
G75*
G02*
X165940000Y-80950000I0J-75000D01*
G01*
X165940000Y-82400000D01*
G75*
G02*
X165865000Y-82475000I-75000J0D01*
G01*
X165715000Y-82475000D01*
G75*
G02*
X165640000Y-82400000I0J75000D01*
G01*
G37*
G36*
G01*
X165140000Y-82400000D02*
X165140000Y-80950000D01*
G75*
G02*
X165215000Y-80875000I75000J0D01*
G01*
X165365000Y-80875000D01*
G75*
G02*
X165440000Y-80950000I0J-75000D01*
G01*
X165440000Y-82400000D01*
G75*
G02*
X165365000Y-82475000I-75000J0D01*
G01*
X165215000Y-82475000D01*
G75*
G02*
X165140000Y-82400000I0J75000D01*
G01*
G37*
G36*
G01*
X164640000Y-82400000D02*
X164640000Y-80950000D01*
G75*
G02*
X164715000Y-80875000I75000J0D01*
G01*
X164865000Y-80875000D01*
G75*
G02*
X164940000Y-80950000I0J-75000D01*
G01*
X164940000Y-82400000D01*
G75*
G02*
X164865000Y-82475000I-75000J0D01*
G01*
X164715000Y-82475000D01*
G75*
G02*
X164640000Y-82400000I0J75000D01*
G01*
G37*
G36*
G01*
X164140000Y-82400000D02*
X164140000Y-80950000D01*
G75*
G02*
X164215000Y-80875000I75000J0D01*
G01*
X164365000Y-80875000D01*
G75*
G02*
X164440000Y-80950000I0J-75000D01*
G01*
X164440000Y-82400000D01*
G75*
G02*
X164365000Y-82475000I-75000J0D01*
G01*
X164215000Y-82475000D01*
G75*
G02*
X164140000Y-82400000I0J75000D01*
G01*
G37*
G36*
G01*
X163640000Y-82400000D02*
X163640000Y-80950000D01*
G75*
G02*
X163715000Y-80875000I75000J0D01*
G01*
X163865000Y-80875000D01*
G75*
G02*
X163940000Y-80950000I0J-75000D01*
G01*
X163940000Y-82400000D01*
G75*
G02*
X163865000Y-82475000I-75000J0D01*
G01*
X163715000Y-82475000D01*
G75*
G02*
X163640000Y-82400000I0J75000D01*
G01*
G37*
G36*
G01*
X163140000Y-82400000D02*
X163140000Y-80950000D01*
G75*
G02*
X163215000Y-80875000I75000J0D01*
G01*
X163365000Y-80875000D01*
G75*
G02*
X163440000Y-80950000I0J-75000D01*
G01*
X163440000Y-82400000D01*
G75*
G02*
X163365000Y-82475000I-75000J0D01*
G01*
X163215000Y-82475000D01*
G75*
G02*
X163140000Y-82400000I0J75000D01*
G01*
G37*
G36*
G01*
X162640000Y-82400000D02*
X162640000Y-80950000D01*
G75*
G02*
X162715000Y-80875000I75000J0D01*
G01*
X162865000Y-80875000D01*
G75*
G02*
X162940000Y-80950000I0J-75000D01*
G01*
X162940000Y-82400000D01*
G75*
G02*
X162865000Y-82475000I-75000J0D01*
G01*
X162715000Y-82475000D01*
G75*
G02*
X162640000Y-82400000I0J75000D01*
G01*
G37*
G36*
G01*
X162140000Y-82400000D02*
X162140000Y-80950000D01*
G75*
G02*
X162215000Y-80875000I75000J0D01*
G01*
X162365000Y-80875000D01*
G75*
G02*
X162440000Y-80950000I0J-75000D01*
G01*
X162440000Y-82400000D01*
G75*
G02*
X162365000Y-82475000I-75000J0D01*
G01*
X162215000Y-82475000D01*
G75*
G02*
X162140000Y-82400000I0J75000D01*
G01*
G37*
G36*
G01*
X161640000Y-82400000D02*
X161640000Y-80950000D01*
G75*
G02*
X161715000Y-80875000I75000J0D01*
G01*
X161865000Y-80875000D01*
G75*
G02*
X161940000Y-80950000I0J-75000D01*
G01*
X161940000Y-82400000D01*
G75*
G02*
X161865000Y-82475000I-75000J0D01*
G01*
X161715000Y-82475000D01*
G75*
G02*
X161640000Y-82400000I0J75000D01*
G01*
G37*
G36*
G01*
X161140000Y-82400000D02*
X161140000Y-80950000D01*
G75*
G02*
X161215000Y-80875000I75000J0D01*
G01*
X161365000Y-80875000D01*
G75*
G02*
X161440000Y-80950000I0J-75000D01*
G01*
X161440000Y-82400000D01*
G75*
G02*
X161365000Y-82475000I-75000J0D01*
G01*
X161215000Y-82475000D01*
G75*
G02*
X161140000Y-82400000I0J75000D01*
G01*
G37*
G36*
G01*
X160640000Y-82400000D02*
X160640000Y-80950000D01*
G75*
G02*
X160715000Y-80875000I75000J0D01*
G01*
X160865000Y-80875000D01*
G75*
G02*
X160940000Y-80950000I0J-75000D01*
G01*
X160940000Y-82400000D01*
G75*
G02*
X160865000Y-82475000I-75000J0D01*
G01*
X160715000Y-82475000D01*
G75*
G02*
X160640000Y-82400000I0J75000D01*
G01*
G37*
G36*
G01*
X160140000Y-82400000D02*
X160140000Y-80950000D01*
G75*
G02*
X160215000Y-80875000I75000J0D01*
G01*
X160365000Y-80875000D01*
G75*
G02*
X160440000Y-80950000I0J-75000D01*
G01*
X160440000Y-82400000D01*
G75*
G02*
X160365000Y-82475000I-75000J0D01*
G01*
X160215000Y-82475000D01*
G75*
G02*
X160140000Y-82400000I0J75000D01*
G01*
G37*
G36*
G01*
X159640000Y-82400000D02*
X159640000Y-80950000D01*
G75*
G02*
X159715000Y-80875000I75000J0D01*
G01*
X159865000Y-80875000D01*
G75*
G02*
X159940000Y-80950000I0J-75000D01*
G01*
X159940000Y-82400000D01*
G75*
G02*
X159865000Y-82475000I-75000J0D01*
G01*
X159715000Y-82475000D01*
G75*
G02*
X159640000Y-82400000I0J75000D01*
G01*
G37*
G36*
G01*
X159140000Y-82400000D02*
X159140000Y-80950000D01*
G75*
G02*
X159215000Y-80875000I75000J0D01*
G01*
X159365000Y-80875000D01*
G75*
G02*
X159440000Y-80950000I0J-75000D01*
G01*
X159440000Y-82400000D01*
G75*
G02*
X159365000Y-82475000I-75000J0D01*
G01*
X159215000Y-82475000D01*
G75*
G02*
X159140000Y-82400000I0J75000D01*
G01*
G37*
G36*
G01*
X158640000Y-82400000D02*
X158640000Y-80950000D01*
G75*
G02*
X158715000Y-80875000I75000J0D01*
G01*
X158865000Y-80875000D01*
G75*
G02*
X158940000Y-80950000I0J-75000D01*
G01*
X158940000Y-82400000D01*
G75*
G02*
X158865000Y-82475000I-75000J0D01*
G01*
X158715000Y-82475000D01*
G75*
G02*
X158640000Y-82400000I0J75000D01*
G01*
G37*
G36*
G01*
X158140000Y-82400000D02*
X158140000Y-80950000D01*
G75*
G02*
X158215000Y-80875000I75000J0D01*
G01*
X158365000Y-80875000D01*
G75*
G02*
X158440000Y-80950000I0J-75000D01*
G01*
X158440000Y-82400000D01*
G75*
G02*
X158365000Y-82475000I-75000J0D01*
G01*
X158215000Y-82475000D01*
G75*
G02*
X158140000Y-82400000I0J75000D01*
G01*
G37*
G36*
G01*
X157640000Y-82400000D02*
X157640000Y-80950000D01*
G75*
G02*
X157715000Y-80875000I75000J0D01*
G01*
X157865000Y-80875000D01*
G75*
G02*
X157940000Y-80950000I0J-75000D01*
G01*
X157940000Y-82400000D01*
G75*
G02*
X157865000Y-82475000I-75000J0D01*
G01*
X157715000Y-82475000D01*
G75*
G02*
X157640000Y-82400000I0J75000D01*
G01*
G37*
G36*
G01*
X157140000Y-82400000D02*
X157140000Y-80950000D01*
G75*
G02*
X157215000Y-80875000I75000J0D01*
G01*
X157365000Y-80875000D01*
G75*
G02*
X157440000Y-80950000I0J-75000D01*
G01*
X157440000Y-82400000D01*
G75*
G02*
X157365000Y-82475000I-75000J0D01*
G01*
X157215000Y-82475000D01*
G75*
G02*
X157140000Y-82400000I0J75000D01*
G01*
G37*
G36*
G01*
X156640000Y-82400000D02*
X156640000Y-80950000D01*
G75*
G02*
X156715000Y-80875000I75000J0D01*
G01*
X156865000Y-80875000D01*
G75*
G02*
X156940000Y-80950000I0J-75000D01*
G01*
X156940000Y-82400000D01*
G75*
G02*
X156865000Y-82475000I-75000J0D01*
G01*
X156715000Y-82475000D01*
G75*
G02*
X156640000Y-82400000I0J75000D01*
G01*
G37*
D38*
X153560000Y-46650000D03*
X152610000Y-46650000D03*
X151660000Y-46650000D03*
X151660000Y-48850000D03*
X153560000Y-48850000D03*
X152610000Y-48850000D03*
X173590000Y-48750000D03*
X172640000Y-48750000D03*
X174540000Y-48750000D03*
X174540000Y-50950000D03*
X173590000Y-50950000D03*
X172640000Y-50950000D03*
G36*
G01*
X198225500Y-94150500D02*
X198225500Y-93950500D01*
G75*
G02*
X198325500Y-93850500I100000J0D01*
G01*
X198675500Y-93850500D01*
G75*
G02*
X198775500Y-93950500I0J-100000D01*
G01*
X198775500Y-94150500D01*
G75*
G02*
X198675500Y-94250500I-100000J0D01*
G01*
X198325500Y-94250500D01*
G75*
G02*
X198225500Y-94150500I0J100000D01*
G01*
G37*
G36*
G01*
X198225500Y-94800500D02*
X198225500Y-94600500D01*
G75*
G02*
X198325500Y-94500500I100000J0D01*
G01*
X198675500Y-94500500D01*
G75*
G02*
X198775500Y-94600500I0J-100000D01*
G01*
X198775500Y-94800500D01*
G75*
G02*
X198675500Y-94900500I-100000J0D01*
G01*
X198325500Y-94900500D01*
G75*
G02*
X198225500Y-94800500I0J100000D01*
G01*
G37*
G36*
G01*
X198225500Y-95450500D02*
X198225500Y-95250500D01*
G75*
G02*
X198325500Y-95150500I100000J0D01*
G01*
X198675500Y-95150500D01*
G75*
G02*
X198775500Y-95250500I0J-100000D01*
G01*
X198775500Y-95450500D01*
G75*
G02*
X198675500Y-95550500I-100000J0D01*
G01*
X198325500Y-95550500D01*
G75*
G02*
X198225500Y-95450500I0J100000D01*
G01*
G37*
G36*
G01*
X198225500Y-96100500D02*
X198225500Y-95900500D01*
G75*
G02*
X198325500Y-95800500I100000J0D01*
G01*
X198675500Y-95800500D01*
G75*
G02*
X198775500Y-95900500I0J-100000D01*
G01*
X198775500Y-96100500D01*
G75*
G02*
X198675500Y-96200500I-100000J0D01*
G01*
X198325500Y-96200500D01*
G75*
G02*
X198225500Y-96100500I0J100000D01*
G01*
G37*
G36*
G01*
X199025500Y-96900500D02*
X199025500Y-96550500D01*
G75*
G02*
X199125500Y-96450500I100000J0D01*
G01*
X199325500Y-96450500D01*
G75*
G02*
X199425500Y-96550500I0J-100000D01*
G01*
X199425500Y-96900500D01*
G75*
G02*
X199325500Y-97000500I-100000J0D01*
G01*
X199125500Y-97000500D01*
G75*
G02*
X199025500Y-96900500I0J100000D01*
G01*
G37*
G36*
G01*
X199675500Y-96900500D02*
X199675500Y-96550500D01*
G75*
G02*
X199775500Y-96450500I100000J0D01*
G01*
X199975500Y-96450500D01*
G75*
G02*
X200075500Y-96550500I0J-100000D01*
G01*
X200075500Y-96900500D01*
G75*
G02*
X199975500Y-97000500I-100000J0D01*
G01*
X199775500Y-97000500D01*
G75*
G02*
X199675500Y-96900500I0J100000D01*
G01*
G37*
G36*
G01*
X200325500Y-96900500D02*
X200325500Y-96550500D01*
G75*
G02*
X200425500Y-96450500I100000J0D01*
G01*
X200625500Y-96450500D01*
G75*
G02*
X200725500Y-96550500I0J-100000D01*
G01*
X200725500Y-96900500D01*
G75*
G02*
X200625500Y-97000500I-100000J0D01*
G01*
X200425500Y-97000500D01*
G75*
G02*
X200325500Y-96900500I0J100000D01*
G01*
G37*
G36*
G01*
X200975500Y-96900500D02*
X200975500Y-96550500D01*
G75*
G02*
X201075500Y-96450500I100000J0D01*
G01*
X201275500Y-96450500D01*
G75*
G02*
X201375500Y-96550500I0J-100000D01*
G01*
X201375500Y-96900500D01*
G75*
G02*
X201275500Y-97000500I-100000J0D01*
G01*
X201075500Y-97000500D01*
G75*
G02*
X200975500Y-96900500I0J100000D01*
G01*
G37*
G36*
G01*
X201625500Y-96100500D02*
X201625500Y-95900500D01*
G75*
G02*
X201725500Y-95800500I100000J0D01*
G01*
X202075500Y-95800500D01*
G75*
G02*
X202175500Y-95900500I0J-100000D01*
G01*
X202175500Y-96100500D01*
G75*
G02*
X202075500Y-96200500I-100000J0D01*
G01*
X201725500Y-96200500D01*
G75*
G02*
X201625500Y-96100500I0J100000D01*
G01*
G37*
G36*
G01*
X201625500Y-95450500D02*
X201625500Y-95250500D01*
G75*
G02*
X201725500Y-95150500I100000J0D01*
G01*
X202075500Y-95150500D01*
G75*
G02*
X202175500Y-95250500I0J-100000D01*
G01*
X202175500Y-95450500D01*
G75*
G02*
X202075500Y-95550500I-100000J0D01*
G01*
X201725500Y-95550500D01*
G75*
G02*
X201625500Y-95450500I0J100000D01*
G01*
G37*
G36*
G01*
X201625500Y-94800500D02*
X201625500Y-94600500D01*
G75*
G02*
X201725500Y-94500500I100000J0D01*
G01*
X202075500Y-94500500D01*
G75*
G02*
X202175500Y-94600500I0J-100000D01*
G01*
X202175500Y-94800500D01*
G75*
G02*
X202075500Y-94900500I-100000J0D01*
G01*
X201725500Y-94900500D01*
G75*
G02*
X201625500Y-94800500I0J100000D01*
G01*
G37*
G36*
G01*
X201625500Y-94150500D02*
X201625500Y-93950500D01*
G75*
G02*
X201725500Y-93850500I100000J0D01*
G01*
X202075500Y-93850500D01*
G75*
G02*
X202175500Y-93950500I0J-100000D01*
G01*
X202175500Y-94150500D01*
G75*
G02*
X202075500Y-94250500I-100000J0D01*
G01*
X201725500Y-94250500D01*
G75*
G02*
X201625500Y-94150500I0J100000D01*
G01*
G37*
G36*
G01*
X200975500Y-93500500D02*
X200975500Y-93150500D01*
G75*
G02*
X201075500Y-93050500I100000J0D01*
G01*
X201275500Y-93050500D01*
G75*
G02*
X201375500Y-93150500I0J-100000D01*
G01*
X201375500Y-93500500D01*
G75*
G02*
X201275500Y-93600500I-100000J0D01*
G01*
X201075500Y-93600500D01*
G75*
G02*
X200975500Y-93500500I0J100000D01*
G01*
G37*
G36*
G01*
X200325500Y-93500500D02*
X200325500Y-93150500D01*
G75*
G02*
X200425500Y-93050500I100000J0D01*
G01*
X200625500Y-93050500D01*
G75*
G02*
X200725500Y-93150500I0J-100000D01*
G01*
X200725500Y-93500500D01*
G75*
G02*
X200625500Y-93600500I-100000J0D01*
G01*
X200425500Y-93600500D01*
G75*
G02*
X200325500Y-93500500I0J100000D01*
G01*
G37*
G36*
G01*
X199675500Y-93500500D02*
X199675500Y-93150500D01*
G75*
G02*
X199775500Y-93050500I100000J0D01*
G01*
X199975500Y-93050500D01*
G75*
G02*
X200075500Y-93150500I0J-100000D01*
G01*
X200075500Y-93500500D01*
G75*
G02*
X199975500Y-93600500I-100000J0D01*
G01*
X199775500Y-93600500D01*
G75*
G02*
X199675500Y-93500500I0J100000D01*
G01*
G37*
G36*
G01*
X199025500Y-93500500D02*
X199025500Y-93150500D01*
G75*
G02*
X199125500Y-93050500I100000J0D01*
G01*
X199325500Y-93050500D01*
G75*
G02*
X199425500Y-93150500I0J-100000D01*
G01*
X199425500Y-93500500D01*
G75*
G02*
X199325500Y-93600500I-100000J0D01*
G01*
X199125500Y-93600500D01*
G75*
G02*
X199025500Y-93500500I0J100000D01*
G01*
G37*
G36*
G01*
X200378000Y-102679500D02*
X200378000Y-102504500D01*
G75*
G02*
X200465500Y-102417000I87500J0D01*
G01*
X200840500Y-102417000D01*
G75*
G02*
X200928000Y-102504500I0J-87500D01*
G01*
X200928000Y-102679500D01*
G75*
G02*
X200840500Y-102767000I-87500J0D01*
G01*
X200465500Y-102767000D01*
G75*
G02*
X200378000Y-102679500I0J87500D01*
G01*
G37*
G36*
G01*
X200378000Y-103179500D02*
X200378000Y-103004500D01*
G75*
G02*
X200465500Y-102917000I87500J0D01*
G01*
X200840500Y-102917000D01*
G75*
G02*
X200928000Y-103004500I0J-87500D01*
G01*
X200928000Y-103179500D01*
G75*
G02*
X200840500Y-103267000I-87500J0D01*
G01*
X200465500Y-103267000D01*
G75*
G02*
X200378000Y-103179500I0J87500D01*
G01*
G37*
G36*
G01*
X200378000Y-103679500D02*
X200378000Y-103504500D01*
G75*
G02*
X200465500Y-103417000I87500J0D01*
G01*
X200840500Y-103417000D01*
G75*
G02*
X200928000Y-103504500I0J-87500D01*
G01*
X200928000Y-103679500D01*
G75*
G02*
X200840500Y-103767000I-87500J0D01*
G01*
X200465500Y-103767000D01*
G75*
G02*
X200378000Y-103679500I0J87500D01*
G01*
G37*
G36*
G01*
X200378000Y-104179500D02*
X200378000Y-104004500D01*
G75*
G02*
X200465500Y-103917000I87500J0D01*
G01*
X200840500Y-103917000D01*
G75*
G02*
X200928000Y-104004500I0J-87500D01*
G01*
X200928000Y-104179500D01*
G75*
G02*
X200840500Y-104267000I-87500J0D01*
G01*
X200465500Y-104267000D01*
G75*
G02*
X200378000Y-104179500I0J87500D01*
G01*
G37*
G36*
G01*
X200378000Y-104679500D02*
X200378000Y-104504500D01*
G75*
G02*
X200465500Y-104417000I87500J0D01*
G01*
X200840500Y-104417000D01*
G75*
G02*
X200928000Y-104504500I0J-87500D01*
G01*
X200928000Y-104679500D01*
G75*
G02*
X200840500Y-104767000I-87500J0D01*
G01*
X200465500Y-104767000D01*
G75*
G02*
X200378000Y-104679500I0J87500D01*
G01*
G37*
G36*
G01*
X201203000Y-105004500D02*
X201203000Y-104629500D01*
G75*
G02*
X201290500Y-104542000I87500J0D01*
G01*
X201465500Y-104542000D01*
G75*
G02*
X201553000Y-104629500I0J-87500D01*
G01*
X201553000Y-105004500D01*
G75*
G02*
X201465500Y-105092000I-87500J0D01*
G01*
X201290500Y-105092000D01*
G75*
G02*
X201203000Y-105004500I0J87500D01*
G01*
G37*
G36*
G01*
X201703000Y-105004500D02*
X201703000Y-104629500D01*
G75*
G02*
X201790500Y-104542000I87500J0D01*
G01*
X201965500Y-104542000D01*
G75*
G02*
X202053000Y-104629500I0J-87500D01*
G01*
X202053000Y-105004500D01*
G75*
G02*
X201965500Y-105092000I-87500J0D01*
G01*
X201790500Y-105092000D01*
G75*
G02*
X201703000Y-105004500I0J87500D01*
G01*
G37*
G36*
G01*
X202203000Y-105004500D02*
X202203000Y-104629500D01*
G75*
G02*
X202290500Y-104542000I87500J0D01*
G01*
X202465500Y-104542000D01*
G75*
G02*
X202553000Y-104629500I0J-87500D01*
G01*
X202553000Y-105004500D01*
G75*
G02*
X202465500Y-105092000I-87500J0D01*
G01*
X202290500Y-105092000D01*
G75*
G02*
X202203000Y-105004500I0J87500D01*
G01*
G37*
G36*
G01*
X202828000Y-104679500D02*
X202828000Y-104504500D01*
G75*
G02*
X202915500Y-104417000I87500J0D01*
G01*
X203290500Y-104417000D01*
G75*
G02*
X203378000Y-104504500I0J-87500D01*
G01*
X203378000Y-104679500D01*
G75*
G02*
X203290500Y-104767000I-87500J0D01*
G01*
X202915500Y-104767000D01*
G75*
G02*
X202828000Y-104679500I0J87500D01*
G01*
G37*
G36*
G01*
X202828000Y-104179500D02*
X202828000Y-104004500D01*
G75*
G02*
X202915500Y-103917000I87500J0D01*
G01*
X203290500Y-103917000D01*
G75*
G02*
X203378000Y-104004500I0J-87500D01*
G01*
X203378000Y-104179500D01*
G75*
G02*
X203290500Y-104267000I-87500J0D01*
G01*
X202915500Y-104267000D01*
G75*
G02*
X202828000Y-104179500I0J87500D01*
G01*
G37*
G36*
G01*
X202828000Y-103679500D02*
X202828000Y-103504500D01*
G75*
G02*
X202915500Y-103417000I87500J0D01*
G01*
X203290500Y-103417000D01*
G75*
G02*
X203378000Y-103504500I0J-87500D01*
G01*
X203378000Y-103679500D01*
G75*
G02*
X203290500Y-103767000I-87500J0D01*
G01*
X202915500Y-103767000D01*
G75*
G02*
X202828000Y-103679500I0J87500D01*
G01*
G37*
G36*
G01*
X202828000Y-103179500D02*
X202828000Y-103004500D01*
G75*
G02*
X202915500Y-102917000I87500J0D01*
G01*
X203290500Y-102917000D01*
G75*
G02*
X203378000Y-103004500I0J-87500D01*
G01*
X203378000Y-103179500D01*
G75*
G02*
X203290500Y-103267000I-87500J0D01*
G01*
X202915500Y-103267000D01*
G75*
G02*
X202828000Y-103179500I0J87500D01*
G01*
G37*
G36*
G01*
X202828000Y-102679500D02*
X202828000Y-102504500D01*
G75*
G02*
X202915500Y-102417000I87500J0D01*
G01*
X203290500Y-102417000D01*
G75*
G02*
X203378000Y-102504500I0J-87500D01*
G01*
X203378000Y-102679500D01*
G75*
G02*
X203290500Y-102767000I-87500J0D01*
G01*
X202915500Y-102767000D01*
G75*
G02*
X202828000Y-102679500I0J87500D01*
G01*
G37*
G36*
G01*
X202203000Y-102554500D02*
X202203000Y-102179500D01*
G75*
G02*
X202290500Y-102092000I87500J0D01*
G01*
X202465500Y-102092000D01*
G75*
G02*
X202553000Y-102179500I0J-87500D01*
G01*
X202553000Y-102554500D01*
G75*
G02*
X202465500Y-102642000I-87500J0D01*
G01*
X202290500Y-102642000D01*
G75*
G02*
X202203000Y-102554500I0J87500D01*
G01*
G37*
G36*
G01*
X201703000Y-102554500D02*
X201703000Y-102179500D01*
G75*
G02*
X201790500Y-102092000I87500J0D01*
G01*
X201965500Y-102092000D01*
G75*
G02*
X202053000Y-102179500I0J-87500D01*
G01*
X202053000Y-102554500D01*
G75*
G02*
X201965500Y-102642000I-87500J0D01*
G01*
X201790500Y-102642000D01*
G75*
G02*
X201703000Y-102554500I0J87500D01*
G01*
G37*
G36*
G01*
X201203000Y-102554500D02*
X201203000Y-102179500D01*
G75*
G02*
X201290500Y-102092000I87500J0D01*
G01*
X201465500Y-102092000D01*
G75*
G02*
X201553000Y-102179500I0J-87500D01*
G01*
X201553000Y-102554500D01*
G75*
G02*
X201465500Y-102642000I-87500J0D01*
G01*
X201290500Y-102642000D01*
G75*
G02*
X201203000Y-102554500I0J87500D01*
G01*
G37*
D39*
X191580500Y-99897500D03*
X190330500Y-99897500D03*
X189080500Y-99897500D03*
X187830500Y-99897500D03*
X190330500Y-102047500D03*
X189080500Y-102047500D03*
X187830500Y-102047500D03*
X191580500Y-102047500D03*
G36*
G01*
X177070000Y-59665000D02*
X177070000Y-59365000D01*
G75*
G02*
X177220000Y-59215000I150000J0D01*
G01*
X178870000Y-59215000D01*
G75*
G02*
X179020000Y-59365000I0J-150000D01*
G01*
X179020000Y-59665000D01*
G75*
G02*
X178870000Y-59815000I-150000J0D01*
G01*
X177220000Y-59815000D01*
G75*
G02*
X177070000Y-59665000I0J150000D01*
G01*
G37*
G36*
G01*
X177070000Y-60935000D02*
X177070000Y-60635000D01*
G75*
G02*
X177220000Y-60485000I150000J0D01*
G01*
X178870000Y-60485000D01*
G75*
G02*
X179020000Y-60635000I0J-150000D01*
G01*
X179020000Y-60935000D01*
G75*
G02*
X178870000Y-61085000I-150000J0D01*
G01*
X177220000Y-61085000D01*
G75*
G02*
X177070000Y-60935000I0J150000D01*
G01*
G37*
G36*
G01*
X177070000Y-62205000D02*
X177070000Y-61905000D01*
G75*
G02*
X177220000Y-61755000I150000J0D01*
G01*
X178870000Y-61755000D01*
G75*
G02*
X179020000Y-61905000I0J-150000D01*
G01*
X179020000Y-62205000D01*
G75*
G02*
X178870000Y-62355000I-150000J0D01*
G01*
X177220000Y-62355000D01*
G75*
G02*
X177070000Y-62205000I0J150000D01*
G01*
G37*
G36*
G01*
X177070000Y-63475000D02*
X177070000Y-63175000D01*
G75*
G02*
X177220000Y-63025000I150000J0D01*
G01*
X178870000Y-63025000D01*
G75*
G02*
X179020000Y-63175000I0J-150000D01*
G01*
X179020000Y-63475000D01*
G75*
G02*
X178870000Y-63625000I-150000J0D01*
G01*
X177220000Y-63625000D01*
G75*
G02*
X177070000Y-63475000I0J150000D01*
G01*
G37*
G36*
G01*
X182020000Y-63475000D02*
X182020000Y-63175000D01*
G75*
G02*
X182170000Y-63025000I150000J0D01*
G01*
X183820000Y-63025000D01*
G75*
G02*
X183970000Y-63175000I0J-150000D01*
G01*
X183970000Y-63475000D01*
G75*
G02*
X183820000Y-63625000I-150000J0D01*
G01*
X182170000Y-63625000D01*
G75*
G02*
X182020000Y-63475000I0J150000D01*
G01*
G37*
G36*
G01*
X182020000Y-62205000D02*
X182020000Y-61905000D01*
G75*
G02*
X182170000Y-61755000I150000J0D01*
G01*
X183820000Y-61755000D01*
G75*
G02*
X183970000Y-61905000I0J-150000D01*
G01*
X183970000Y-62205000D01*
G75*
G02*
X183820000Y-62355000I-150000J0D01*
G01*
X182170000Y-62355000D01*
G75*
G02*
X182020000Y-62205000I0J150000D01*
G01*
G37*
G36*
G01*
X182020000Y-60935000D02*
X182020000Y-60635000D01*
G75*
G02*
X182170000Y-60485000I150000J0D01*
G01*
X183820000Y-60485000D01*
G75*
G02*
X183970000Y-60635000I0J-150000D01*
G01*
X183970000Y-60935000D01*
G75*
G02*
X183820000Y-61085000I-150000J0D01*
G01*
X182170000Y-61085000D01*
G75*
G02*
X182020000Y-60935000I0J150000D01*
G01*
G37*
G36*
G01*
X182020000Y-59665000D02*
X182020000Y-59365000D01*
G75*
G02*
X182170000Y-59215000I150000J0D01*
G01*
X183820000Y-59215000D01*
G75*
G02*
X183970000Y-59365000I0J-150000D01*
G01*
X183970000Y-59665000D01*
G75*
G02*
X183820000Y-59815000I-150000J0D01*
G01*
X182170000Y-59815000D01*
G75*
G02*
X182020000Y-59665000I0J150000D01*
G01*
G37*
D12*
X141080000Y-116320000D03*
D13*
X147380000Y-116320000D03*
X147380000Y-114020000D03*
X147380000Y-118620000D03*
D39*
X191291500Y-123234500D03*
X187541500Y-123234500D03*
X188791500Y-123234500D03*
X190041500Y-123234500D03*
X187541500Y-121084500D03*
X188791500Y-121084500D03*
X190041500Y-121084500D03*
X191291500Y-121084500D03*
D40*
X180480000Y-42130000D03*
X180480000Y-43630000D03*
X180480000Y-45130000D03*
X180480000Y-46630000D03*
X180480000Y-48130000D03*
X180480000Y-49630000D03*
X180480000Y-51130000D03*
X180480000Y-52630000D03*
X193980000Y-52630000D03*
X193980000Y-51130000D03*
X193980000Y-49630000D03*
X193980000Y-48130000D03*
X193980000Y-46630000D03*
X193980000Y-45130000D03*
X193980000Y-43630000D03*
X193980000Y-42130000D03*
D41*
X141180000Y-107410000D03*
X141180000Y-108360000D03*
X141180000Y-109310000D03*
X143380000Y-109310000D03*
X143380000Y-107410000D03*
X143380000Y-108360000D03*
X137570000Y-96410000D03*
X137570000Y-97360000D03*
X137570000Y-98310000D03*
X139770000Y-98310000D03*
X139770000Y-96410000D03*
X139770000Y-97360000D03*
D42*
X149320500Y-87731500D03*
X149320500Y-89931500D03*
X151020500Y-89931500D03*
X151020500Y-87731500D03*
D11*
X149960000Y-121290000D03*
G36*
G01*
X202430000Y-39850000D02*
X202770000Y-39850000D01*
G75*
G02*
X202910000Y-39990000I0J-140000D01*
G01*
X202910000Y-40270000D01*
G75*
G02*
X202770000Y-40410000I-140000J0D01*
G01*
X202430000Y-40410000D01*
G75*
G02*
X202290000Y-40270000I0J140000D01*
G01*
X202290000Y-39990000D01*
G75*
G02*
X202430000Y-39850000I140000J0D01*
G01*
G37*
G36*
G01*
X202430000Y-40810000D02*
X202770000Y-40810000D01*
G75*
G02*
X202910000Y-40950000I0J-140000D01*
G01*
X202910000Y-41230000D01*
G75*
G02*
X202770000Y-41370000I-140000J0D01*
G01*
X202430000Y-41370000D01*
G75*
G02*
X202290000Y-41230000I0J140000D01*
G01*
X202290000Y-40950000D01*
G75*
G02*
X202430000Y-40810000I140000J0D01*
G01*
G37*
G36*
G01*
X202770000Y-37820000D02*
X202430000Y-37820000D01*
G75*
G02*
X202290000Y-37680000I0J140000D01*
G01*
X202290000Y-37400000D01*
G75*
G02*
X202430000Y-37260000I140000J0D01*
G01*
X202770000Y-37260000D01*
G75*
G02*
X202910000Y-37400000I0J-140000D01*
G01*
X202910000Y-37680000D01*
G75*
G02*
X202770000Y-37820000I-140000J0D01*
G01*
G37*
G36*
G01*
X202770000Y-38780000D02*
X202430000Y-38780000D01*
G75*
G02*
X202290000Y-38640000I0J140000D01*
G01*
X202290000Y-38360000D01*
G75*
G02*
X202430000Y-38220000I140000J0D01*
G01*
X202770000Y-38220000D01*
G75*
G02*
X202910000Y-38360000I0J-140000D01*
G01*
X202910000Y-38640000D01*
G75*
G02*
X202770000Y-38780000I-140000J0D01*
G01*
G37*
G36*
G01*
X199570000Y-38820000D02*
X199230000Y-38820000D01*
G75*
G02*
X199090000Y-38680000I0J140000D01*
G01*
X199090000Y-38400000D01*
G75*
G02*
X199230000Y-38260000I140000J0D01*
G01*
X199570000Y-38260000D01*
G75*
G02*
X199710000Y-38400000I0J-140000D01*
G01*
X199710000Y-38680000D01*
G75*
G02*
X199570000Y-38820000I-140000J0D01*
G01*
G37*
G36*
G01*
X199570000Y-37860000D02*
X199230000Y-37860000D01*
G75*
G02*
X199090000Y-37720000I0J140000D01*
G01*
X199090000Y-37440000D01*
G75*
G02*
X199230000Y-37300000I140000J0D01*
G01*
X199570000Y-37300000D01*
G75*
G02*
X199710000Y-37440000I0J-140000D01*
G01*
X199710000Y-37720000D01*
G75*
G02*
X199570000Y-37860000I-140000J0D01*
G01*
G37*
G36*
G01*
X201475000Y-38710000D02*
X200525000Y-38710000D01*
G75*
G02*
X200275000Y-38460000I0J250000D01*
G01*
X200275000Y-37960000D01*
G75*
G02*
X200525000Y-37710000I250000J0D01*
G01*
X201475000Y-37710000D01*
G75*
G02*
X201725000Y-37960000I0J-250000D01*
G01*
X201725000Y-38460000D01*
G75*
G02*
X201475000Y-38710000I-250000J0D01*
G01*
G37*
G36*
G01*
X201475000Y-36810000D02*
X200525000Y-36810000D01*
G75*
G02*
X200275000Y-36560000I0J250000D01*
G01*
X200275000Y-36060000D01*
G75*
G02*
X200525000Y-35810000I250000J0D01*
G01*
X201475000Y-35810000D01*
G75*
G02*
X201725000Y-36060000I0J-250000D01*
G01*
X201725000Y-36560000D01*
G75*
G02*
X201475000Y-36810000I-250000J0D01*
G01*
G37*
G36*
G01*
X200109999Y-42480000D02*
X201410001Y-42480000D01*
G75*
G02*
X201660000Y-42729999I0J-249999D01*
G01*
X201660000Y-43380001D01*
G75*
G02*
X201410001Y-43630000I-249999J0D01*
G01*
X200109999Y-43630000D01*
G75*
G02*
X199860000Y-43380001I0J249999D01*
G01*
X199860000Y-42729999D01*
G75*
G02*
X200109999Y-42480000I249999J0D01*
G01*
G37*
G36*
G01*
X200109999Y-39530000D02*
X201410001Y-39530000D01*
G75*
G02*
X201660000Y-39779999I0J-249999D01*
G01*
X201660000Y-40430001D01*
G75*
G02*
X201410001Y-40680000I-249999J0D01*
G01*
X200109999Y-40680000D01*
G75*
G02*
X199860000Y-40430001I0J249999D01*
G01*
X199860000Y-39779999D01*
G75*
G02*
X200109999Y-39530000I249999J0D01*
G01*
G37*
G36*
G01*
X197550000Y-92880000D02*
X197550000Y-93220000D01*
G75*
G02*
X197410000Y-93360000I-140000J0D01*
G01*
X197130000Y-93360000D01*
G75*
G02*
X196990000Y-93220000I0J140000D01*
G01*
X196990000Y-92880000D01*
G75*
G02*
X197130000Y-92740000I140000J0D01*
G01*
X197410000Y-92740000D01*
G75*
G02*
X197550000Y-92880000I0J-140000D01*
G01*
G37*
G36*
G01*
X196590000Y-92880000D02*
X196590000Y-93220000D01*
G75*
G02*
X196450000Y-93360000I-140000J0D01*
G01*
X196170000Y-93360000D01*
G75*
G02*
X196030000Y-93220000I0J140000D01*
G01*
X196030000Y-92880000D01*
G75*
G02*
X196170000Y-92740000I140000J0D01*
G01*
X196450000Y-92740000D01*
G75*
G02*
X196590000Y-92880000I0J-140000D01*
G01*
G37*
G36*
G01*
X220900000Y-121430000D02*
X221240000Y-121430000D01*
G75*
G02*
X221380000Y-121570000I0J-140000D01*
G01*
X221380000Y-121850000D01*
G75*
G02*
X221240000Y-121990000I-140000J0D01*
G01*
X220900000Y-121990000D01*
G75*
G02*
X220760000Y-121850000I0J140000D01*
G01*
X220760000Y-121570000D01*
G75*
G02*
X220900000Y-121430000I140000J0D01*
G01*
G37*
G36*
G01*
X220900000Y-120470000D02*
X221240000Y-120470000D01*
G75*
G02*
X221380000Y-120610000I0J-140000D01*
G01*
X221380000Y-120890000D01*
G75*
G02*
X221240000Y-121030000I-140000J0D01*
G01*
X220900000Y-121030000D01*
G75*
G02*
X220760000Y-120890000I0J140000D01*
G01*
X220760000Y-120610000D01*
G75*
G02*
X220900000Y-120470000I140000J0D01*
G01*
G37*
G36*
G01*
X212280000Y-116350000D02*
X212280000Y-116010000D01*
G75*
G02*
X212420000Y-115870000I140000J0D01*
G01*
X212700000Y-115870000D01*
G75*
G02*
X212840000Y-116010000I0J-140000D01*
G01*
X212840000Y-116350000D01*
G75*
G02*
X212700000Y-116490000I-140000J0D01*
G01*
X212420000Y-116490000D01*
G75*
G02*
X212280000Y-116350000I0J140000D01*
G01*
G37*
G36*
G01*
X211320000Y-116350000D02*
X211320000Y-116010000D01*
G75*
G02*
X211460000Y-115870000I140000J0D01*
G01*
X211740000Y-115870000D01*
G75*
G02*
X211880000Y-116010000I0J-140000D01*
G01*
X211880000Y-116350000D01*
G75*
G02*
X211740000Y-116490000I-140000J0D01*
G01*
X211460000Y-116490000D01*
G75*
G02*
X211320000Y-116350000I0J140000D01*
G01*
G37*
G36*
G01*
X190290000Y-90110000D02*
X190290000Y-89610000D01*
G75*
G02*
X190515000Y-89385000I225000J0D01*
G01*
X190965000Y-89385000D01*
G75*
G02*
X191190000Y-89610000I0J-225000D01*
G01*
X191190000Y-90110000D01*
G75*
G02*
X190965000Y-90335000I-225000J0D01*
G01*
X190515000Y-90335000D01*
G75*
G02*
X190290000Y-90110000I0J225000D01*
G01*
G37*
G36*
G01*
X191840000Y-90110000D02*
X191840000Y-89610000D01*
G75*
G02*
X192065000Y-89385000I225000J0D01*
G01*
X192515000Y-89385000D01*
G75*
G02*
X192740000Y-89610000I0J-225000D01*
G01*
X192740000Y-90110000D01*
G75*
G02*
X192515000Y-90335000I-225000J0D01*
G01*
X192065000Y-90335000D01*
G75*
G02*
X191840000Y-90110000I0J225000D01*
G01*
G37*
G36*
G01*
X150580001Y-115795000D02*
X149279999Y-115795000D01*
G75*
G02*
X149030000Y-115545001I0J249999D01*
G01*
X149030000Y-114894999D01*
G75*
G02*
X149279999Y-114645000I249999J0D01*
G01*
X150580001Y-114645000D01*
G75*
G02*
X150830000Y-114894999I0J-249999D01*
G01*
X150830000Y-115545001D01*
G75*
G02*
X150580001Y-115795000I-249999J0D01*
G01*
G37*
G36*
G01*
X150580001Y-112845000D02*
X149279999Y-112845000D01*
G75*
G02*
X149030000Y-112595001I0J249999D01*
G01*
X149030000Y-111944999D01*
G75*
G02*
X149279999Y-111695000I249999J0D01*
G01*
X150580001Y-111695000D01*
G75*
G02*
X150830000Y-111944999I0J-249999D01*
G01*
X150830000Y-112595001D01*
G75*
G02*
X150580001Y-112845000I-249999J0D01*
G01*
G37*
G36*
G01*
X148900000Y-84570000D02*
X148560000Y-84570000D01*
G75*
G02*
X148420000Y-84430000I0J140000D01*
G01*
X148420000Y-84150000D01*
G75*
G02*
X148560000Y-84010000I140000J0D01*
G01*
X148900000Y-84010000D01*
G75*
G02*
X149040000Y-84150000I0J-140000D01*
G01*
X149040000Y-84430000D01*
G75*
G02*
X148900000Y-84570000I-140000J0D01*
G01*
G37*
G36*
G01*
X148900000Y-83610000D02*
X148560000Y-83610000D01*
G75*
G02*
X148420000Y-83470000I0J140000D01*
G01*
X148420000Y-83190000D01*
G75*
G02*
X148560000Y-83050000I140000J0D01*
G01*
X148900000Y-83050000D01*
G75*
G02*
X149040000Y-83190000I0J-140000D01*
G01*
X149040000Y-83470000D01*
G75*
G02*
X148900000Y-83610000I-140000J0D01*
G01*
G37*
D37*
X164100000Y-57000000D03*
X162800000Y-57000000D03*
D15*
X217390000Y-43790000D03*
X217390000Y-40490000D03*
X214890000Y-43790000D03*
X214890000Y-40490000D03*
D43*
X212730000Y-109200000D03*
D44*
X210190000Y-107930000D03*
X212730000Y-106660000D03*
X210190000Y-105390000D03*
X212730000Y-104120000D03*
X210190000Y-102850000D03*
X212730000Y-101580000D03*
X210190000Y-100310000D03*
X212730000Y-95230000D03*
X210190000Y-93960000D03*
X212730000Y-92690000D03*
X210190000Y-91420000D03*
X212730000Y-90150000D03*
X210190000Y-88880000D03*
X212730000Y-87610000D03*
X210190000Y-86340000D03*
X212730000Y-81260000D03*
X210190000Y-79990000D03*
X212730000Y-78720000D03*
X210190000Y-77450000D03*
X212730000Y-76180000D03*
X210190000Y-74910000D03*
X212730000Y-73640000D03*
X210190000Y-72370000D03*
X212730000Y-67290000D03*
X210190000Y-66020000D03*
X212730000Y-64750000D03*
X210190000Y-63480000D03*
X212730000Y-62210000D03*
X210190000Y-60940000D03*
X212730000Y-59670000D03*
X210190000Y-58400000D03*
D45*
X223650000Y-113260000D03*
X208670000Y-97770000D03*
X208670000Y-83800000D03*
X208670000Y-69830000D03*
X223650000Y-54340000D03*
M02*
