M48
; DRILL file {KiCad (5.1.7)-1} date 11/09/20 22:13:32
; FORMAT={-:-/ absolute / inch / decimal}
; #@! TF.CreationDate,2020-11-09T22:13:32+01:00
; #@! TF.GenerationSoftware,Kicad,Pcbnew,(5.1.7)-1
; #@! TF.FileFunction,Plated,1,4,PTH
FMAT,2
INCH
T1C0.0157
T2C0.0177
T3C0.0181
T4C0.0197
T5C0.0236
T6C0.0335
T7C0.0433
T8C0.0650
T9C0.1260
%
G90
G05
T1
X5.1587Y-2.8681
X5.1606Y-3.1169
X5.1614Y-3.3559
X5.1945Y-2.7047
X5.2126Y-2.0528
X5.2823Y-4.4902
X5.2843Y-4.0504
X5.4413Y-3.1748
X5.4448Y-3.909
X5.4657Y-1.989
X5.5134Y-2.9047
X5.5197Y-3.1516
X5.5496Y-3.2146
X5.552Y-2.6102
X5.5543Y-3.8331
X5.5813Y-3.2441
X5.5921Y-4.3504
X5.6138Y-2.8354
X5.6189Y-2.0504
X5.6331Y-1.9039
X5.6449Y-2.45
X5.6697Y-1.6807
X5.692Y-4.2666
X5.7039Y-2.4157
X5.715Y-4.4079
X5.7213Y-2.2724
X5.7244Y-4.6193
X5.7569Y-1.9002
X5.7693Y-2.5965
X5.7921Y-3.2736
X5.7988Y-4.8913
X5.8039Y-5.1996
X5.8307Y-3.1024
X5.8327Y-1.9382
X5.8358Y-3.9228
X5.8378Y-4.2594
X5.8449Y-4.4193
X5.8453Y-1.6906
X5.8508Y-1.6217
X5.8516Y-1.7228
X5.8526Y-2.3553
X5.8539Y-3.7606
X5.8543Y-3.3441
X5.8551Y-3.713
X5.8559Y-2.1461
X5.872Y-4.6457
X5.8752Y-3.1118
X5.8831Y-1.9866
X5.898Y-3.2646
X5.9Y-2.0331
X5.9075Y-3.6472
X5.9163Y-3.3311
X5.9298Y-4.2885
X5.9539Y-3.2441
X5.9917Y-3.7941
X6.0024Y-3.9303
X6.0189Y-4.8614
X6.0248Y-2.098
X6.028Y-3.1142
X6.0303Y-2.1409
X6.0416Y-3.3512
X6.0453Y-3.7689
X6.0457Y-5.2055
X6.0488Y-3.8291
X6.0579Y-4.6898
X6.0622Y-2.0791
X6.0705Y-2.1567
X6.1043Y-3.8075
X6.1063Y-2.0827
X6.1173Y-2.1465
X6.1217Y-1.7004
X6.1299Y-1.6417
X6.1465Y-4.8591
X6.1579Y-1.7004
X6.1762Y-3.669
X6.1776Y-3.5059
X6.1807Y-3.4665
X6.1941Y-1.7004
X6.2161Y-3.6528
X6.2161Y-4.3902
X6.2291Y-1.7004
X6.239Y-3.3031
X6.2465Y-4.4232
X6.2492Y-4.6047
X6.2496Y-5.2079
X6.2657Y-1.7004
X6.2807Y-3.3022
X6.2866Y-1.4622
X6.2874Y-1.5598
X6.2984Y-3.4051
X6.2988Y-4.1543
X6.3004Y-3.9411
X6.3031Y-1.7004
X6.322Y-4.2736
X6.322Y-4.8465
X6.3244Y-4.7409
X6.3311Y-3.9657
X6.3366Y-4.1429
X6.3368Y-3.4325
X6.3434Y-3.3071
X6.3681Y-3.665
X6.3862Y-3.3022
X6.3909Y-3.9615
X6.4024Y-3.724
X6.4031Y-3.3657
X6.4157Y-3.2736
X6.4157Y-5.2118
X6.4161Y-5.1508
X6.4169Y-5.0835
X6.4189Y-3.0028
X6.4205Y-3.9306
X6.4291Y-4.5598
X6.4382Y-4.235
X6.4445Y-3.3638
X6.4449Y-3.4445
X6.4477Y-4.0468
X6.45Y-3.9028
X6.4597Y-3.6833
X6.476Y-4.8449
X6.4796Y-4.0237
X6.4815Y-4.7445
X6.4886Y-4.989
X6.489Y-4.9335
X6.4898Y-5.037
X6.5051Y-3.687
X6.5051Y-3.9937
X6.5244Y-1.7102
X6.5345Y-2.5156
X6.548Y-4.9898
X6.548Y-5.037
X6.5488Y-4.8516
X6.5488Y-4.9004
X6.5492Y-4.9417
X6.562Y-4.7455
X6.5659Y-3.8838
X6.5756Y-4.263
X6.5957Y-4.2937
X6.6205Y-5.1535
X6.6205Y-5.2122
X6.6209Y-5.0874
X6.6395Y-2.5006
X6.7047Y-2.5197
X6.7251Y-2.9287
X6.7504Y-2.8941
X6.776Y-1.7957
X6.7764Y-4.2591
X6.7803Y-3.4984
X6.7945Y-3.5417
X6.8071Y-1.7717
X6.8094Y-4.9472
X6.813Y-5.2071
X6.8228Y-1.7362
X6.8228Y-2.6969
X6.8342Y-2.6566
X6.8398Y-2.4429
X6.8453Y-2.3933
X6.851Y-3.999
X6.865Y-2.7858
X6.8929Y-2.752
X6.9189Y-2.7156
X6.9358Y-4.3303
X6.9417Y-3.3378
X6.9583Y-3.4941
X6.9669Y-2.7161
X6.9724Y-3.3051
X6.9768Y-4.339
X7.002Y-3.5161
X7.0087Y-4.2638
X7.0087Y-5.2106
X7.0091Y-4.9488
X7.0106Y-2.5547
X7.0283Y-2.7156
X7.0863Y-2.7158
X7.1035Y-2.3539
X7.1094Y-4.0512
X7.111Y-2.8043
X7.1386Y-4.137
X7.1657Y-2.7681
X7.1854Y-1.8346
X7.2177Y-1.998
X7.2792Y-3.6413
X7.2858Y-3.3606
X7.2917Y-1.95
X7.2965Y-3.4693
X7.3248Y-4.3102
X7.3841Y-3.6719
X7.3918Y-4.3422
X7.4646Y-3.5189
X7.4807Y-4.474
X7.5132Y-4.3872
X7.529Y-4.4485
X7.537Y-4.3512
X7.5638Y-1.9008
X7.5638Y-2.0736
X7.577Y-4.3651
X7.613Y-4.3016
X7.6165Y-3.5193
X7.678Y-4.3047
X7.6858Y-3.6602
X7.7697Y-3.6988
X7.778Y-4.1472
X7.7791Y-4.9988
X7.7809Y-1.6309
X7.7965Y-4.0709
X7.8063Y-3.9646
X7.8071Y-4.2094
X7.8102Y-1.5937
X7.82Y-4.55
X7.8283Y-2.1091
X7.848Y-4.1799
X7.8614Y-1.4512
X7.8622Y-1.4098
X7.8717Y-2.1091
X7.8803Y-3.5843
X7.9081Y-2.4325
X7.935Y-2.4594
X7.95Y-1.4516
X7.9571Y-3.4382
X7.9583Y-3.3831
X7.9638Y-4.2335
X7.9646Y-1.6969
X7.976Y-1.6508
X7.9906Y-3.5382
X7.9921Y-3.6189
X8.0165Y-3.3906
X8.0232Y-4.7969
X8.0287Y-3.8441
X8.05Y-4.211
X8.1031Y-4.1327
X8.1059Y-4.085
X8.1295Y-3.539
X8.2941Y-4.5823
X8.3717Y-5.1669
X8.3854Y-1.726
X8.4106Y-4.5713
X8.4224Y-5.1697
X8.4732Y-5.1697
X8.7Y-4.5528
X8.7406Y-4.7961
T2
X5.6697Y-3.0244
X5.6783Y-2.8488
X5.7476Y-2.8378
X5.8953Y-2.8705
X5.8957Y-5.0433
X5.9091Y-2.9441
X5.9917Y-2.9843
X5.9949Y-2.7106
X5.9973Y-2.8724
X6.0059Y-4.2539
X6.0516Y-2.9441
X6.0693Y-4.2563
X6.0972Y-3.1693
X6.1299Y-3.1
X6.1323Y-4.5547
X6.1327Y-4.5102
X6.1413Y-4.7075
X6.1437Y-3.8854
X6.1953Y-3.7465
X6.2083Y-4.187
X6.2203Y-4.2245
X6.228Y-3.0531
X6.2429Y-2.9146
X6.2482Y-4.2523
X6.253Y-2.9578
X6.2555Y-3.7512
X6.2756Y-3.1402
X6.3346Y-3.75
X6.3354Y-2.9776
X6.3429Y-3.3465
X6.3563Y-2.7386
X6.3567Y-4.2413
X6.3598Y-3.1312
X6.3606Y-2.4673
X6.4496Y-3.087
X6.4575Y-4.7098
X6.4614Y-2.9705
X6.4783Y-3.3031
X6.4874Y-3.002
X6.5079Y-3.3579
X6.5189Y-3.611
X6.5669Y-3.3575
X6.5815Y-3.9878
X6.59Y-3.5973
X6.6035Y-3.337
X6.6098Y-3.2713
X6.6138Y-3.6547
X6.6157Y-3.7008
X6.6236Y-3.7524
X6.6465Y-3.5961
X6.6567Y-3.715
X6.6689Y-3.9626
X6.6709Y-3.8528
X6.6713Y-4.5272
X6.7113Y-3.1272
X6.728Y-3.1976
X6.7339Y-3.865
X6.7831Y-3.6976
X6.7925Y-3.2366
X6.7992Y-3.6059
X6.8031Y-3.0031
X6.8126Y-3.7336
X6.813Y-3.865
X6.8164Y-3.4447
X6.8354Y-2.5083
X6.8406Y-3.5965
X6.8415Y-3.2439
X6.8447Y-3.5573
X6.8586Y-3.4445
X6.8586Y-3.6354
X6.8992Y-3.0028
X6.9106Y-3.3051
X7.0052Y-3.7528
X7.0307Y-4.1795
X7.0335Y-3.4642
X7.0343Y-3.9531
X7.0409Y-3.8906
X7.0418Y-3.7287
X7.0717Y-3.4445
X7.0791Y-3.7413
X7.0835Y-3.9531
X7.0969Y-3.8287
X7.1091Y-3.7764
X7.1224Y-3.9685
X7.1504Y-3.4445
X7.1551Y-3.3067
X7.1846Y-3.5343
X7.2299Y-3.5295
X7.2321Y-3.6324
X7.3083Y-3.5362
X7.8835Y-4.0102
T3
X6.3814Y-5.0329
X6.6564Y-5.0329
T4
X7.224Y-2.7323
X7.224Y-2.7815
X7.224Y-2.8307
X7.224Y-2.8799
X7.224Y-2.9291
X7.224Y-2.9783
X5.6657Y-1.4598
X5.715Y-1.4598
X6.6539Y-3.0531
X6.7031Y-3.0531
X6.7524Y-3.0531
X6.8016Y-3.0531
X6.8508Y-3.0531
X6.9Y-3.0531
X5.6539Y-5.035
X5.7031Y-5.035
X5.7524Y-5.035
X5.8016Y-5.035
X7.8472Y-4.3307
X7.8965Y-4.3307
X7.9457Y-4.3307
X7.9949Y-4.3307
X5.6866Y-3.2929
X5.6866Y-3.3421
X5.6866Y-3.3913
X5.6866Y-3.4406
X6.9543Y-4.6004
X6.9543Y-4.6496
X6.9543Y-4.6988
X6.9543Y-4.748
X5.7677Y-3.7244
X5.7677Y-3.7736
X5.7677Y-3.8228
X5.7677Y-3.872
X6.6587Y-4.1906
X6.7079Y-4.1906
X6.7571Y-4.1906
X6.8063Y-4.1906
X6.8555Y-4.1906
X6.9047Y-4.1906
X7.6303Y-2.6752
X7.6303Y-2.7244
X7.6303Y-2.7736
X7.6303Y-2.8228
X6.4949Y-1.5827
X6.5441Y-1.5827
X6.5933Y-1.5827
X6.6425Y-1.5827
X6.6917Y-1.5827
X6.7409Y-1.5827
X7.8004Y-2.572
X7.8004Y-2.6213
X7.8004Y-2.6705
X7.8004Y-2.7197
X5.6182Y-2.9752
X5.6674Y-2.9752
X7.4957Y-2.2949
X7.4957Y-2.3441
X7.4957Y-2.3933
X6.0114Y-3.9941
X6.0606Y-3.9941
X6.1098Y-3.9941
X6.1591Y-3.9941
X6.2083Y-3.9941
X6.2575Y-3.9941
X6.1346Y-2.4437
X6.1346Y-2.4929
X6.1346Y-2.5421
X6.1346Y-2.5913
T6
X5.2784Y-4.1866
X5.2784Y-4.3835
X5.2781Y-3.7484
X5.2781Y-3.9453
T7
X8.2752Y-2.2992
X8.2752Y-2.3992
X8.2752Y-2.4992
X8.2752Y-2.5992
X8.2752Y-2.8492
X8.2752Y-2.9492
X8.2752Y-3.0492
X8.2752Y-3.1492
X8.2752Y-3.3992
X8.2752Y-3.4992
X8.2752Y-3.5992
X8.2752Y-3.6992
X8.2752Y-3.9492
X8.2752Y-4.0492
X8.2752Y-4.1492
X8.2752Y-4.2492
X8.3752Y-2.3492
X8.3752Y-2.4492
X8.3752Y-2.5492
X8.3752Y-2.6492
X8.3752Y-2.8992
X8.3752Y-2.9992
X8.3752Y-3.0992
X8.3752Y-3.1992
X8.3752Y-3.4492
X8.3752Y-3.5492
X8.3752Y-3.6492
X8.3752Y-3.7492
X8.3752Y-3.9992
X8.3752Y-4.0992
X8.3752Y-4.1992
X8.3752Y-4.2992
T8
X8.2154Y-2.7492
X8.2154Y-3.2992
X8.2154Y-3.8492
X8.8051Y-2.1394
X8.8051Y-4.4591
T9
X5.2827Y-1.9087
X5.2827Y-4.7075
X7.8827Y-1.9087
X7.8827Y-4.7075
X8.8827Y-1.9075
X8.8827Y-4.7075
T5
G00X5.1584Y-4.1472
M15
G01X5.1859Y-4.1472
M16
G05
G00X5.1859Y-4.4228
M15
G01X5.1584Y-4.4228
M16
G05
G00X5.158Y-3.7091
M15
G01X5.1855Y-3.7091
M16
G05
G00X5.1855Y-3.9846
M15
G01X5.158Y-3.9846
M16
G05
T0
M30
