G04 #@! TF.GenerationSoftware,KiCad,Pcbnew,(5.1.7)-1*
G04 #@! TF.CreationDate,2020-11-09T22:13:17+01:00*
G04 #@! TF.ProjectId,vario,76617269-6f2e-46b6-9963-61645f706362,v1.0*
G04 #@! TF.SameCoordinates,Original*
G04 #@! TF.FileFunction,Soldermask,Bot*
G04 #@! TF.FilePolarity,Negative*
%FSLAX46Y46*%
G04 Gerber Fmt 4.6, Leading zero omitted, Abs format (unit mm)*
G04 Created by KiCad (PCBNEW (5.1.7)-1) date 2020-11-09 22:13:17*
%MOMM*%
%LPD*%
G01*
G04 APERTURE LIST*
%ADD10C,5.940000*%
%ADD11O,1.300000X0.800000*%
%ADD12O,0.800000X1.300000*%
%ADD13R,2.665000X4.190000*%
%ADD14O,1.900000X1.200000*%
%ADD15C,1.450000*%
%ADD16R,1.650000X1.650000*%
%ADD17C,1.650000*%
%ADD18C,2.475000*%
G04 APERTURE END LIST*
D10*
X200220000Y-119570000D03*
X200220000Y-48480000D03*
X134180000Y-119570000D03*
X225620000Y-119570000D03*
X225620000Y-48450000D03*
X134180000Y-48480000D03*
G36*
G01*
X183940000Y-76050000D02*
X183040000Y-76050000D01*
G75*
G02*
X182840000Y-75850000I0J200000D01*
G01*
X182840000Y-75450000D01*
G75*
G02*
X183040000Y-75250000I200000J0D01*
G01*
X183940000Y-75250000D01*
G75*
G02*
X184140000Y-75450000I0J-200000D01*
G01*
X184140000Y-75850000D01*
G75*
G02*
X183940000Y-76050000I-200000J0D01*
G01*
G37*
D11*
X183490000Y-74400000D03*
X183490000Y-73150000D03*
X183490000Y-71900000D03*
X183490000Y-70650000D03*
X183490000Y-69400000D03*
D12*
X142702000Y-75570000D03*
G36*
G01*
X144352000Y-75120000D02*
X144352000Y-76020000D01*
G75*
G02*
X144152000Y-76220000I-200000J0D01*
G01*
X143752000Y-76220000D01*
G75*
G02*
X143552000Y-76020000I0J200000D01*
G01*
X143552000Y-75120000D01*
G75*
G02*
X143752000Y-74920000I200000J0D01*
G01*
X144152000Y-74920000D01*
G75*
G02*
X144352000Y-75120000I0J-200000D01*
G01*
G37*
G36*
G01*
X152290000Y-101900000D02*
X152290000Y-101000000D01*
G75*
G02*
X152490000Y-100800000I200000J0D01*
G01*
X152890000Y-100800000D01*
G75*
G02*
X153090000Y-101000000I0J-200000D01*
G01*
X153090000Y-101900000D01*
G75*
G02*
X152890000Y-102100000I-200000J0D01*
G01*
X152490000Y-102100000D01*
G75*
G02*
X152290000Y-101900000I0J200000D01*
G01*
G37*
X153940000Y-101450000D03*
X155190000Y-101450000D03*
X156440000Y-101450000D03*
X157690000Y-101450000D03*
X158940000Y-101450000D03*
G36*
G01*
X143210000Y-128340000D02*
X143210000Y-127440000D01*
G75*
G02*
X143410000Y-127240000I200000J0D01*
G01*
X143810000Y-127240000D01*
G75*
G02*
X144010000Y-127440000I0J-200000D01*
G01*
X144010000Y-128340000D01*
G75*
G02*
X143810000Y-128540000I-200000J0D01*
G01*
X143410000Y-128540000D01*
G75*
G02*
X143210000Y-128340000I0J200000D01*
G01*
G37*
X144860000Y-127890000D03*
X146110000Y-127890000D03*
X147360000Y-127890000D03*
G36*
G01*
X155370000Y-61670000D02*
X156270000Y-61670000D01*
G75*
G02*
X156470000Y-61870000I0J-200000D01*
G01*
X156470000Y-62270000D01*
G75*
G02*
X156270000Y-62470000I-200000J0D01*
G01*
X155370000Y-62470000D01*
G75*
G02*
X155170000Y-62270000I0J200000D01*
G01*
X155170000Y-61870000D01*
G75*
G02*
X155370000Y-61670000I200000J0D01*
G01*
G37*
D11*
X155820000Y-63320000D03*
X155820000Y-64570000D03*
X155820000Y-65820000D03*
G36*
G01*
X145560000Y-36630000D02*
X145560000Y-37530000D01*
G75*
G02*
X145360000Y-37730000I-200000J0D01*
G01*
X144960000Y-37730000D01*
G75*
G02*
X144760000Y-37530000I0J200000D01*
G01*
X144760000Y-36630000D01*
G75*
G02*
X144960000Y-36430000I200000J0D01*
G01*
X145360000Y-36430000D01*
G75*
G02*
X145560000Y-36630000I0J-200000D01*
G01*
G37*
D12*
X143910000Y-37080000D03*
D11*
X176640000Y-120600000D03*
X176640000Y-119350000D03*
X176640000Y-118100000D03*
G36*
G01*
X176190000Y-116450000D02*
X177090000Y-116450000D01*
G75*
G02*
X177290000Y-116650000I0J-200000D01*
G01*
X177290000Y-117050000D01*
G75*
G02*
X177090000Y-117250000I-200000J0D01*
G01*
X176190000Y-117250000D01*
G75*
G02*
X175990000Y-117050000I0J200000D01*
G01*
X175990000Y-116650000D01*
G75*
G02*
X176190000Y-116450000I200000J0D01*
G01*
G37*
G36*
G01*
X146050000Y-94200000D02*
X146950000Y-94200000D01*
G75*
G02*
X147150000Y-94400000I0J-200000D01*
G01*
X147150000Y-94800000D01*
G75*
G02*
X146950000Y-95000000I-200000J0D01*
G01*
X146050000Y-95000000D01*
G75*
G02*
X145850000Y-94800000I0J200000D01*
G01*
X145850000Y-94400000D01*
G75*
G02*
X146050000Y-94200000I200000J0D01*
G01*
G37*
X146500000Y-95850000D03*
X146500000Y-97100000D03*
X146500000Y-98350000D03*
X193810000Y-71700000D03*
X193810000Y-70450000D03*
X193810000Y-69200000D03*
G36*
G01*
X193360000Y-67550000D02*
X194260000Y-67550000D01*
G75*
G02*
X194460000Y-67750000I0J-200000D01*
G01*
X194460000Y-68150000D01*
G75*
G02*
X194260000Y-68350000I-200000J0D01*
G01*
X193360000Y-68350000D01*
G75*
G02*
X193160000Y-68150000I0J200000D01*
G01*
X193160000Y-67750000D01*
G75*
G02*
X193360000Y-67550000I200000J0D01*
G01*
G37*
G36*
G01*
X189940000Y-57890000D02*
X190840000Y-57890000D01*
G75*
G02*
X191040000Y-58090000I0J-200000D01*
G01*
X191040000Y-58490000D01*
G75*
G02*
X190840000Y-58690000I-200000J0D01*
G01*
X189940000Y-58690000D01*
G75*
G02*
X189740000Y-58490000I0J200000D01*
G01*
X189740000Y-58090000D01*
G75*
G02*
X189940000Y-57890000I200000J0D01*
G01*
G37*
X190390000Y-59540000D03*
X190390000Y-60790000D03*
G36*
G01*
X198580000Y-69480000D02*
X197680000Y-69480000D01*
G75*
G02*
X197480000Y-69280000I0J200000D01*
G01*
X197480000Y-68880000D01*
G75*
G02*
X197680000Y-68680000I200000J0D01*
G01*
X198580000Y-68680000D01*
G75*
G02*
X198780000Y-68880000I0J-200000D01*
G01*
X198780000Y-69280000D01*
G75*
G02*
X198580000Y-69480000I-200000J0D01*
G01*
G37*
X198130000Y-67830000D03*
X198130000Y-66580000D03*
X198130000Y-65330000D03*
D12*
X169130000Y-106440000D03*
X170380000Y-106440000D03*
X171630000Y-106440000D03*
X172880000Y-106440000D03*
X174130000Y-106440000D03*
G36*
G01*
X175780000Y-105990000D02*
X175780000Y-106890000D01*
G75*
G02*
X175580000Y-107090000I-200000J0D01*
G01*
X175180000Y-107090000D01*
G75*
G02*
X174980000Y-106890000I0J200000D01*
G01*
X174980000Y-105990000D01*
G75*
G02*
X175180000Y-105790000I200000J0D01*
G01*
X175580000Y-105790000D01*
G75*
G02*
X175780000Y-105990000I0J-200000D01*
G01*
G37*
X164970000Y-40200000D03*
X166220000Y-40200000D03*
X167470000Y-40200000D03*
X168720000Y-40200000D03*
X169970000Y-40200000D03*
G36*
G01*
X171620000Y-39750000D02*
X171620000Y-40650000D01*
G75*
G02*
X171420000Y-40850000I-200000J0D01*
G01*
X171020000Y-40850000D01*
G75*
G02*
X170820000Y-40650000I0J200000D01*
G01*
X170820000Y-39750000D01*
G75*
G02*
X171020000Y-39550000I200000J0D01*
G01*
X171420000Y-39550000D01*
G75*
G02*
X171620000Y-39750000I0J-200000D01*
G01*
G37*
X203070000Y-110000000D03*
X201820000Y-110000000D03*
X200570000Y-110000000D03*
G36*
G01*
X198920000Y-110450000D02*
X198920000Y-109550000D01*
G75*
G02*
X199120000Y-109350000I200000J0D01*
G01*
X199520000Y-109350000D01*
G75*
G02*
X199720000Y-109550000I0J-200000D01*
G01*
X199720000Y-110450000D01*
G75*
G02*
X199520000Y-110650000I-200000J0D01*
G01*
X199120000Y-110650000D01*
G75*
G02*
X198920000Y-110450000I0J200000D01*
G01*
G37*
D11*
X144440000Y-87390000D03*
X144440000Y-86140000D03*
X144440000Y-84890000D03*
G36*
G01*
X143990000Y-83240000D02*
X144890000Y-83240000D01*
G75*
G02*
X145090000Y-83440000I0J-200000D01*
G01*
X145090000Y-83840000D01*
G75*
G02*
X144890000Y-84040000I-200000J0D01*
G01*
X143990000Y-84040000D01*
G75*
G02*
X143790000Y-83840000I0J200000D01*
G01*
X143790000Y-83440000D01*
G75*
G02*
X143990000Y-83240000I200000J0D01*
G01*
G37*
G36*
G01*
X175660000Y-77100000D02*
X175660000Y-78000000D01*
G75*
G02*
X175460000Y-78200000I-200000J0D01*
G01*
X175060000Y-78200000D01*
G75*
G02*
X174860000Y-78000000I0J200000D01*
G01*
X174860000Y-77100000D01*
G75*
G02*
X175060000Y-76900000I200000J0D01*
G01*
X175460000Y-76900000D01*
G75*
G02*
X175660000Y-77100000I0J-200000D01*
G01*
G37*
D12*
X174010000Y-77550000D03*
X172760000Y-77550000D03*
X171510000Y-77550000D03*
X170260000Y-77550000D03*
X169010000Y-77550000D03*
D13*
X162087500Y-130820000D03*
X169072500Y-130820000D03*
D14*
X131372500Y-112340000D03*
X131372500Y-105340000D03*
D15*
X134072500Y-111340000D03*
X134072500Y-106340000D03*
X134062500Y-95210000D03*
X134062500Y-100210000D03*
D14*
X131362500Y-94210000D03*
X131362500Y-101210000D03*
D16*
X212730000Y-109200000D03*
D17*
X210190000Y-107930000D03*
X212730000Y-106660000D03*
X210190000Y-105390000D03*
X212730000Y-104120000D03*
X210190000Y-102850000D03*
X212730000Y-101580000D03*
X210190000Y-100310000D03*
X212730000Y-95230000D03*
X210190000Y-93960000D03*
X212730000Y-92690000D03*
X210190000Y-91420000D03*
X212730000Y-90150000D03*
X210190000Y-88880000D03*
X212730000Y-87610000D03*
X210190000Y-86340000D03*
X212730000Y-81260000D03*
X210190000Y-79990000D03*
X212730000Y-78720000D03*
X210190000Y-77450000D03*
X212730000Y-76180000D03*
X210190000Y-74910000D03*
X212730000Y-73640000D03*
X210190000Y-72370000D03*
X212730000Y-67290000D03*
X210190000Y-66020000D03*
X212730000Y-64750000D03*
X210190000Y-63480000D03*
X212730000Y-62210000D03*
X210190000Y-60940000D03*
X212730000Y-59670000D03*
X210190000Y-58400000D03*
D18*
X223650000Y-113260000D03*
X208670000Y-97770000D03*
X208670000Y-83800000D03*
X208670000Y-69830000D03*
X223650000Y-54340000D03*
M02*
