G04 #@! TF.GenerationSoftware,KiCad,Pcbnew,(5.1.7)-1*
G04 #@! TF.CreationDate,2020-11-09T22:13:17+01:00*
G04 #@! TF.ProjectId,vario,76617269-6f2e-46b6-9963-61645f706362,v1.0*
G04 #@! TF.SameCoordinates,Original*
G04 #@! TF.FileFunction,Copper,L4,Bot*
G04 #@! TF.FilePolarity,Positive*
%FSLAX46Y46*%
G04 Gerber Fmt 4.6, Leading zero omitted, Abs format (unit mm)*
G04 Created by KiCad (PCBNEW (5.1.7)-1) date 2020-11-09 22:13:17*
%MOMM*%
%LPD*%
G01*
G04 APERTURE LIST*
G04 #@! TA.AperFunction,ComponentPad*
%ADD10C,5.940000*%
G04 #@! TD*
G04 #@! TA.AperFunction,ComponentPad*
%ADD11O,1.300000X0.800000*%
G04 #@! TD*
G04 #@! TA.AperFunction,ComponentPad*
%ADD12O,0.800000X1.300000*%
G04 #@! TD*
G04 #@! TA.AperFunction,SMDPad,CuDef*
%ADD13R,0.460000X0.890000*%
G04 #@! TD*
G04 #@! TA.AperFunction,ComponentPad*
%ADD14C,0.970000*%
G04 #@! TD*
G04 #@! TA.AperFunction,SMDPad,CuDef*
%ADD15R,2.665000X4.190000*%
G04 #@! TD*
G04 #@! TA.AperFunction,ComponentPad*
%ADD16O,1.900000X1.200000*%
G04 #@! TD*
G04 #@! TA.AperFunction,ComponentPad*
%ADD17C,1.450000*%
G04 #@! TD*
G04 #@! TA.AperFunction,ComponentPad*
%ADD18R,1.650000X1.650000*%
G04 #@! TD*
G04 #@! TA.AperFunction,ComponentPad*
%ADD19C,1.650000*%
G04 #@! TD*
G04 #@! TA.AperFunction,ComponentPad*
%ADD20C,2.475000*%
G04 #@! TD*
G04 #@! TA.AperFunction,ViaPad*
%ADD21C,0.800000*%
G04 #@! TD*
G04 #@! TA.AperFunction,Conductor*
%ADD22C,0.300000*%
G04 #@! TD*
G04 #@! TA.AperFunction,Conductor*
%ADD23C,0.750000*%
G04 #@! TD*
G04 #@! TA.AperFunction,Conductor*
%ADD24C,0.500000*%
G04 #@! TD*
G04 #@! TA.AperFunction,Conductor*
%ADD25C,0.261120*%
G04 #@! TD*
G04 APERTURE END LIST*
D10*
X200220000Y-119570000D03*
X200220000Y-48480000D03*
X134180000Y-119570000D03*
X225620000Y-119570000D03*
X225620000Y-48450000D03*
X134180000Y-48480000D03*
G04 #@! TA.AperFunction,ComponentPad*
G36*
G01*
X183940000Y-76050000D02*
X183040000Y-76050000D01*
G75*
G02*
X182840000Y-75850000I0J200000D01*
G01*
X182840000Y-75450000D01*
G75*
G02*
X183040000Y-75250000I200000J0D01*
G01*
X183940000Y-75250000D01*
G75*
G02*
X184140000Y-75450000I0J-200000D01*
G01*
X184140000Y-75850000D01*
G75*
G02*
X183940000Y-76050000I-200000J0D01*
G01*
G37*
G04 #@! TD.AperFunction*
D11*
X183490000Y-74400000D03*
X183490000Y-73150000D03*
X183490000Y-71900000D03*
X183490000Y-70650000D03*
X183490000Y-69400000D03*
D12*
X142702000Y-75570000D03*
G04 #@! TA.AperFunction,ComponentPad*
G36*
G01*
X144352000Y-75120000D02*
X144352000Y-76020000D01*
G75*
G02*
X144152000Y-76220000I-200000J0D01*
G01*
X143752000Y-76220000D01*
G75*
G02*
X143552000Y-76020000I0J200000D01*
G01*
X143552000Y-75120000D01*
G75*
G02*
X143752000Y-74920000I200000J0D01*
G01*
X144152000Y-74920000D01*
G75*
G02*
X144352000Y-75120000I0J-200000D01*
G01*
G37*
G04 #@! TD.AperFunction*
G04 #@! TA.AperFunction,ComponentPad*
G36*
G01*
X152290000Y-101900000D02*
X152290000Y-101000000D01*
G75*
G02*
X152490000Y-100800000I200000J0D01*
G01*
X152890000Y-100800000D01*
G75*
G02*
X153090000Y-101000000I0J-200000D01*
G01*
X153090000Y-101900000D01*
G75*
G02*
X152890000Y-102100000I-200000J0D01*
G01*
X152490000Y-102100000D01*
G75*
G02*
X152290000Y-101900000I0J200000D01*
G01*
G37*
G04 #@! TD.AperFunction*
X153940000Y-101450000D03*
X155190000Y-101450000D03*
X156440000Y-101450000D03*
X157690000Y-101450000D03*
X158940000Y-101450000D03*
G04 #@! TA.AperFunction,ComponentPad*
G36*
G01*
X143210000Y-128340000D02*
X143210000Y-127440000D01*
G75*
G02*
X143410000Y-127240000I200000J0D01*
G01*
X143810000Y-127240000D01*
G75*
G02*
X144010000Y-127440000I0J-200000D01*
G01*
X144010000Y-128340000D01*
G75*
G02*
X143810000Y-128540000I-200000J0D01*
G01*
X143410000Y-128540000D01*
G75*
G02*
X143210000Y-128340000I0J200000D01*
G01*
G37*
G04 #@! TD.AperFunction*
X144860000Y-127890000D03*
X146110000Y-127890000D03*
X147360000Y-127890000D03*
G04 #@! TA.AperFunction,ComponentPad*
G36*
G01*
X155370000Y-61670000D02*
X156270000Y-61670000D01*
G75*
G02*
X156470000Y-61870000I0J-200000D01*
G01*
X156470000Y-62270000D01*
G75*
G02*
X156270000Y-62470000I-200000J0D01*
G01*
X155370000Y-62470000D01*
G75*
G02*
X155170000Y-62270000I0J200000D01*
G01*
X155170000Y-61870000D01*
G75*
G02*
X155370000Y-61670000I200000J0D01*
G01*
G37*
G04 #@! TD.AperFunction*
D11*
X155820000Y-63320000D03*
X155820000Y-64570000D03*
X155820000Y-65820000D03*
G04 #@! TA.AperFunction,ComponentPad*
G36*
G01*
X145560000Y-36630000D02*
X145560000Y-37530000D01*
G75*
G02*
X145360000Y-37730000I-200000J0D01*
G01*
X144960000Y-37730000D01*
G75*
G02*
X144760000Y-37530000I0J200000D01*
G01*
X144760000Y-36630000D01*
G75*
G02*
X144960000Y-36430000I200000J0D01*
G01*
X145360000Y-36430000D01*
G75*
G02*
X145560000Y-36630000I0J-200000D01*
G01*
G37*
G04 #@! TD.AperFunction*
D12*
X143910000Y-37080000D03*
D11*
X176640000Y-120600000D03*
X176640000Y-119350000D03*
X176640000Y-118100000D03*
G04 #@! TA.AperFunction,ComponentPad*
G36*
G01*
X176190000Y-116450000D02*
X177090000Y-116450000D01*
G75*
G02*
X177290000Y-116650000I0J-200000D01*
G01*
X177290000Y-117050000D01*
G75*
G02*
X177090000Y-117250000I-200000J0D01*
G01*
X176190000Y-117250000D01*
G75*
G02*
X175990000Y-117050000I0J200000D01*
G01*
X175990000Y-116650000D01*
G75*
G02*
X176190000Y-116450000I200000J0D01*
G01*
G37*
G04 #@! TD.AperFunction*
G04 #@! TA.AperFunction,ComponentPad*
G36*
G01*
X146050000Y-94200000D02*
X146950000Y-94200000D01*
G75*
G02*
X147150000Y-94400000I0J-200000D01*
G01*
X147150000Y-94800000D01*
G75*
G02*
X146950000Y-95000000I-200000J0D01*
G01*
X146050000Y-95000000D01*
G75*
G02*
X145850000Y-94800000I0J200000D01*
G01*
X145850000Y-94400000D01*
G75*
G02*
X146050000Y-94200000I200000J0D01*
G01*
G37*
G04 #@! TD.AperFunction*
X146500000Y-95850000D03*
X146500000Y-97100000D03*
X146500000Y-98350000D03*
X193810000Y-71700000D03*
X193810000Y-70450000D03*
X193810000Y-69200000D03*
G04 #@! TA.AperFunction,ComponentPad*
G36*
G01*
X193360000Y-67550000D02*
X194260000Y-67550000D01*
G75*
G02*
X194460000Y-67750000I0J-200000D01*
G01*
X194460000Y-68150000D01*
G75*
G02*
X194260000Y-68350000I-200000J0D01*
G01*
X193360000Y-68350000D01*
G75*
G02*
X193160000Y-68150000I0J200000D01*
G01*
X193160000Y-67750000D01*
G75*
G02*
X193360000Y-67550000I200000J0D01*
G01*
G37*
G04 #@! TD.AperFunction*
G04 #@! TA.AperFunction,ComponentPad*
G36*
G01*
X189940000Y-57890000D02*
X190840000Y-57890000D01*
G75*
G02*
X191040000Y-58090000I0J-200000D01*
G01*
X191040000Y-58490000D01*
G75*
G02*
X190840000Y-58690000I-200000J0D01*
G01*
X189940000Y-58690000D01*
G75*
G02*
X189740000Y-58490000I0J200000D01*
G01*
X189740000Y-58090000D01*
G75*
G02*
X189940000Y-57890000I200000J0D01*
G01*
G37*
G04 #@! TD.AperFunction*
X190390000Y-59540000D03*
X190390000Y-60790000D03*
G04 #@! TA.AperFunction,ComponentPad*
G36*
G01*
X198580000Y-69480000D02*
X197680000Y-69480000D01*
G75*
G02*
X197480000Y-69280000I0J200000D01*
G01*
X197480000Y-68880000D01*
G75*
G02*
X197680000Y-68680000I200000J0D01*
G01*
X198580000Y-68680000D01*
G75*
G02*
X198780000Y-68880000I0J-200000D01*
G01*
X198780000Y-69280000D01*
G75*
G02*
X198580000Y-69480000I-200000J0D01*
G01*
G37*
G04 #@! TD.AperFunction*
X198130000Y-67830000D03*
X198130000Y-66580000D03*
X198130000Y-65330000D03*
D12*
X169130000Y-106440000D03*
X170380000Y-106440000D03*
X171630000Y-106440000D03*
X172880000Y-106440000D03*
X174130000Y-106440000D03*
G04 #@! TA.AperFunction,ComponentPad*
G36*
G01*
X175780000Y-105990000D02*
X175780000Y-106890000D01*
G75*
G02*
X175580000Y-107090000I-200000J0D01*
G01*
X175180000Y-107090000D01*
G75*
G02*
X174980000Y-106890000I0J200000D01*
G01*
X174980000Y-105990000D01*
G75*
G02*
X175180000Y-105790000I200000J0D01*
G01*
X175580000Y-105790000D01*
G75*
G02*
X175780000Y-105990000I0J-200000D01*
G01*
G37*
G04 #@! TD.AperFunction*
X164970000Y-40200000D03*
X166220000Y-40200000D03*
X167470000Y-40200000D03*
X168720000Y-40200000D03*
X169970000Y-40200000D03*
G04 #@! TA.AperFunction,ComponentPad*
G36*
G01*
X171620000Y-39750000D02*
X171620000Y-40650000D01*
G75*
G02*
X171420000Y-40850000I-200000J0D01*
G01*
X171020000Y-40850000D01*
G75*
G02*
X170820000Y-40650000I0J200000D01*
G01*
X170820000Y-39750000D01*
G75*
G02*
X171020000Y-39550000I200000J0D01*
G01*
X171420000Y-39550000D01*
G75*
G02*
X171620000Y-39750000I0J-200000D01*
G01*
G37*
G04 #@! TD.AperFunction*
X203070000Y-110000000D03*
X201820000Y-110000000D03*
X200570000Y-110000000D03*
G04 #@! TA.AperFunction,ComponentPad*
G36*
G01*
X198920000Y-110450000D02*
X198920000Y-109550000D01*
G75*
G02*
X199120000Y-109350000I200000J0D01*
G01*
X199520000Y-109350000D01*
G75*
G02*
X199720000Y-109550000I0J-200000D01*
G01*
X199720000Y-110450000D01*
G75*
G02*
X199520000Y-110650000I-200000J0D01*
G01*
X199120000Y-110650000D01*
G75*
G02*
X198920000Y-110450000I0J200000D01*
G01*
G37*
G04 #@! TD.AperFunction*
D11*
X144440000Y-87390000D03*
X144440000Y-86140000D03*
X144440000Y-84890000D03*
G04 #@! TA.AperFunction,ComponentPad*
G36*
G01*
X143990000Y-83240000D02*
X144890000Y-83240000D01*
G75*
G02*
X145090000Y-83440000I0J-200000D01*
G01*
X145090000Y-83840000D01*
G75*
G02*
X144890000Y-84040000I-200000J0D01*
G01*
X143990000Y-84040000D01*
G75*
G02*
X143790000Y-83840000I0J200000D01*
G01*
X143790000Y-83440000D01*
G75*
G02*
X143990000Y-83240000I200000J0D01*
G01*
G37*
G04 #@! TD.AperFunction*
G04 #@! TA.AperFunction,ComponentPad*
G36*
G01*
X175660000Y-77100000D02*
X175660000Y-78000000D01*
G75*
G02*
X175460000Y-78200000I-200000J0D01*
G01*
X175060000Y-78200000D01*
G75*
G02*
X174860000Y-78000000I0J200000D01*
G01*
X174860000Y-77100000D01*
G75*
G02*
X175060000Y-76900000I200000J0D01*
G01*
X175460000Y-76900000D01*
G75*
G02*
X175660000Y-77100000I0J-200000D01*
G01*
G37*
G04 #@! TD.AperFunction*
D12*
X174010000Y-77550000D03*
X172760000Y-77550000D03*
X171510000Y-77550000D03*
X170260000Y-77550000D03*
X169010000Y-77550000D03*
D13*
X169072500Y-128280000D03*
D14*
X169072500Y-127835000D03*
D15*
X162087500Y-130820000D03*
X169072500Y-130820000D03*
D14*
X162087500Y-127835000D03*
D13*
X162087500Y-128280000D03*
D16*
X131372500Y-112340000D03*
X131372500Y-105340000D03*
D17*
X134072500Y-111340000D03*
X134072500Y-106340000D03*
X134062500Y-95210000D03*
X134062500Y-100210000D03*
D16*
X131362500Y-94210000D03*
X131362500Y-101210000D03*
D18*
X212730000Y-109200000D03*
D19*
X210190000Y-107930000D03*
X212730000Y-106660000D03*
X210190000Y-105390000D03*
X212730000Y-104120000D03*
X210190000Y-102850000D03*
X212730000Y-101580000D03*
X210190000Y-100310000D03*
X212730000Y-95230000D03*
X210190000Y-93960000D03*
X212730000Y-92690000D03*
X210190000Y-91420000D03*
X212730000Y-90150000D03*
X210190000Y-88880000D03*
X212730000Y-87610000D03*
X210190000Y-86340000D03*
X212730000Y-81260000D03*
X210190000Y-79990000D03*
X212730000Y-78720000D03*
X210190000Y-77450000D03*
X212730000Y-76180000D03*
X210190000Y-74910000D03*
X212730000Y-73640000D03*
X210190000Y-72370000D03*
X212730000Y-67290000D03*
X210190000Y-66020000D03*
X212730000Y-64750000D03*
X210190000Y-63480000D03*
X212730000Y-62210000D03*
X210190000Y-60940000D03*
X212730000Y-59670000D03*
X210190000Y-58400000D03*
D20*
X223650000Y-113260000D03*
X208670000Y-97770000D03*
X208670000Y-83800000D03*
X208670000Y-69830000D03*
X223650000Y-54340000D03*
D21*
X156120000Y-123420000D03*
X152880000Y-123480000D03*
X162960000Y-132380000D03*
X162970000Y-130830000D03*
X162990000Y-129120000D03*
X168160000Y-132390000D03*
X168160000Y-130900000D03*
X168170000Y-129220000D03*
X156050000Y-98690000D03*
X171040000Y-98170000D03*
X172530000Y-82210000D03*
X152550000Y-108050000D03*
X169450000Y-114990000D03*
X161560000Y-62670000D03*
X161450000Y-69560000D03*
X144230000Y-72360000D03*
X145990000Y-72080000D03*
X172800000Y-76280000D03*
X155699668Y-78740332D03*
X167530000Y-109060000D03*
X167020000Y-108280000D03*
X148100000Y-78800000D03*
X164630000Y-120510000D03*
X166673900Y-120536100D03*
X164490000Y-123060000D03*
X166340000Y-123230000D03*
X166340000Y-124470000D03*
X164820000Y-125310000D03*
X166350000Y-125520000D03*
X164810000Y-126720000D03*
X166320000Y-126740000D03*
X164840000Y-127940000D03*
X166320000Y-127940000D03*
X173050000Y-132260000D03*
X178020000Y-132350000D03*
X178030000Y-125700000D03*
X158740000Y-132280000D03*
X153560000Y-132220000D03*
X147420000Y-132070000D03*
X148280000Y-108190000D03*
X178020000Y-108300000D03*
X172120000Y-108180000D03*
X160580000Y-123100000D03*
X160640000Y-120420000D03*
X142590000Y-72020000D03*
X153030000Y-53290000D03*
X153170000Y-54380000D03*
X153980000Y-52810000D03*
X154190000Y-54780000D03*
X155380000Y-54520000D03*
X155100000Y-52900000D03*
X144010000Y-42690000D03*
X146225000Y-48265000D03*
X148150000Y-49230000D03*
X155700000Y-41700000D03*
X173300000Y-44100000D03*
X172900000Y-45000000D03*
X170300000Y-64000000D03*
X172110000Y-45610000D03*
X156875874Y-93192628D03*
X150050000Y-92640000D03*
X156990331Y-88049669D03*
X150275267Y-84610946D03*
X148690000Y-95520000D03*
X148700000Y-84940000D03*
X201930000Y-36870000D03*
X173870000Y-60790000D03*
X189600000Y-89380000D03*
X148610000Y-41190000D03*
X203000000Y-91920000D03*
X200160000Y-91040000D03*
X195220000Y-92970000D03*
X197590000Y-126970000D03*
X198280000Y-100700000D03*
X199680000Y-36860000D03*
X199700000Y-35810000D03*
X202590000Y-41930000D03*
X202300000Y-43100000D03*
X132400000Y-52140000D03*
X142720000Y-52080000D03*
X131940000Y-68700000D03*
X146540000Y-65950000D03*
X145320000Y-57720000D03*
X192120000Y-48280000D03*
X134220000Y-102880000D03*
X134170000Y-114050000D03*
X142040000Y-110500000D03*
X138297888Y-99287888D03*
X149150000Y-118000000D03*
X148460000Y-112250000D03*
X163300000Y-115820000D03*
X158730000Y-116960000D03*
X172960000Y-125660000D03*
X195020000Y-109340000D03*
X199340000Y-106170000D03*
X202280000Y-107530000D03*
X204470000Y-106960000D03*
X222010000Y-121820000D03*
X210670000Y-116390000D03*
X203788019Y-121841894D03*
X215220000Y-131310000D03*
X198030000Y-103400000D03*
X131030000Y-72850000D03*
X131080000Y-79170000D03*
X131100000Y-85240000D03*
X200240000Y-101860000D03*
X154160000Y-108110000D03*
X157360000Y-95160000D03*
X170890000Y-81220000D03*
X167170000Y-101290000D03*
X169440000Y-97860000D03*
X158190000Y-77550000D03*
X144010000Y-76820000D03*
X175240000Y-76270000D03*
X173620000Y-63710000D03*
X154870000Y-80500000D03*
X160100000Y-43190000D03*
X159150000Y-43190000D03*
X158220000Y-43190000D03*
X157330000Y-43190000D03*
X156410000Y-43190000D03*
X155490000Y-43190000D03*
X212990000Y-43840000D03*
X157890000Y-92780000D03*
X153456342Y-85119716D03*
X156910000Y-89050000D03*
X147120000Y-83150000D03*
X173730000Y-62050000D03*
X193460000Y-89390000D03*
X148655000Y-59825000D03*
X138830000Y-50520000D03*
X192120000Y-52670000D03*
X150617660Y-108928444D03*
X197350000Y-93950500D03*
X213630000Y-116110000D03*
X160920000Y-75630000D03*
X153110000Y-79100000D03*
X149230000Y-79040000D03*
X149430000Y-50460000D03*
X148470000Y-42940000D03*
X149860000Y-51640000D03*
X148630000Y-43760000D03*
X148720000Y-94310000D03*
X193370000Y-109260000D03*
X201550000Y-62470000D03*
X198380000Y-40480000D03*
X197635000Y-41425000D03*
X200865000Y-61785000D03*
X202960000Y-89870000D03*
X206490000Y-89890000D03*
X190010000Y-113640000D03*
X148230000Y-99640000D03*
X140960000Y-81650000D03*
X159980000Y-86490000D03*
X143080000Y-48360000D03*
X141020000Y-66300000D03*
X165720000Y-43440000D03*
X165976500Y-63897500D03*
X168643500Y-63516500D03*
X159680000Y-37140000D03*
X141080000Y-97360000D03*
X145160000Y-111960000D03*
X159700000Y-39620000D03*
X144576377Y-108370455D03*
X158570000Y-74030000D03*
X140040000Y-73780000D03*
X158470000Y-83900000D03*
X138210000Y-80640000D03*
X162960000Y-83150000D03*
X140200000Y-80050000D03*
X159400000Y-79760000D03*
X199940000Y-53570000D03*
X198840000Y-53570000D03*
X171459249Y-73510751D03*
X170818500Y-74390000D03*
X158890000Y-95280000D03*
X192455331Y-110874669D03*
X152460331Y-99830331D03*
X191237116Y-112991137D03*
X190834674Y-111434664D03*
X191440000Y-110520000D03*
X168040000Y-94000000D03*
X155770000Y-114560000D03*
X157996708Y-107301807D03*
X167990000Y-92830000D03*
X155760000Y-115690000D03*
X158703816Y-108008914D03*
X178649846Y-87990010D03*
X173135331Y-87494669D03*
X173300000Y-68500000D03*
X174207288Y-87490000D03*
X179619989Y-87490000D03*
X173588062Y-67477500D03*
X173050000Y-98170000D03*
X180570000Y-95920000D03*
X185630000Y-89820000D03*
X187555000Y-93265000D03*
X173040000Y-94834164D03*
X177932891Y-95322207D03*
X169080000Y-94360000D03*
X179810000Y-95030000D03*
X183640000Y-89650000D03*
X184891307Y-92488050D03*
X172290000Y-93920000D03*
X178862581Y-94710000D03*
X182490001Y-89770001D03*
X183696011Y-92263989D03*
X161460331Y-107729980D03*
X158660000Y-112350000D03*
X176170000Y-109990000D03*
X153640000Y-97260000D03*
X180620000Y-71230000D03*
X174370000Y-70760000D03*
X157890000Y-111510000D03*
X160580000Y-108550000D03*
X177210000Y-110210000D03*
X155050000Y-96710000D03*
X175080000Y-69900000D03*
X182010000Y-70310000D03*
X152190000Y-96371247D03*
X153550000Y-95730000D03*
X161110000Y-85000000D03*
X202140000Y-85930000D03*
X198300000Y-106920000D03*
X212640000Y-131240000D03*
X159530000Y-83875597D03*
X202110000Y-87330000D03*
X203620000Y-86120000D03*
X197560000Y-105340000D03*
X213930000Y-131310000D03*
X172580000Y-89960000D03*
X177850000Y-89310000D03*
X179991103Y-68981113D03*
X182510000Y-46600000D03*
X172220000Y-88860000D03*
X176740000Y-88750000D03*
X178520000Y-68977500D03*
X183330000Y-50750000D03*
X160810000Y-100730000D03*
X160950000Y-105229959D03*
X160030132Y-100104053D03*
X159990000Y-105520000D03*
X163530000Y-107570000D03*
X162620331Y-94590331D03*
X162330000Y-100623219D03*
X163772037Y-102788624D03*
X164075526Y-93556188D03*
X163080000Y-99837152D03*
X164581053Y-102200835D03*
X165230000Y-93650000D03*
X163830000Y-99130000D03*
X165230000Y-101440000D03*
X169390000Y-100650000D03*
X187751500Y-110291500D03*
X166772931Y-98647945D03*
X186050000Y-109480000D03*
X162210000Y-83875597D03*
X163690000Y-85440000D03*
X163700000Y-87490000D03*
X149809825Y-82920175D03*
X161121235Y-84000061D03*
X162638083Y-85489990D03*
X160954224Y-87184886D03*
X151230000Y-82400000D03*
X170468025Y-79431313D03*
X164118989Y-75450040D03*
X152190000Y-75800000D03*
X150091500Y-74780000D03*
X149741498Y-72910000D03*
X148740000Y-54510000D03*
X164550000Y-83900000D03*
X153710000Y-74780000D03*
X152331109Y-72958891D03*
X152270000Y-68850000D03*
X143379980Y-62230000D03*
X144879980Y-61360000D03*
X165300000Y-85290000D03*
X158827199Y-75127858D03*
X164020000Y-119630000D03*
X149750000Y-128100000D03*
X161750000Y-93090000D03*
X141766082Y-82400000D03*
X180910000Y-100800000D03*
X172700000Y-91590000D03*
X174207288Y-92340000D03*
X180579980Y-102900000D03*
X173750000Y-91350000D03*
X181320000Y-105080000D03*
X198628000Y-115570000D03*
X220980000Y-115640000D03*
X181620000Y-87490000D03*
X161540000Y-79532954D03*
X163820000Y-78410010D03*
X164780000Y-76250000D03*
X181740000Y-83989960D03*
X173775331Y-82394669D03*
X175530000Y-83949999D03*
X203930000Y-97640000D03*
X179920000Y-100407500D03*
X168820000Y-91340000D03*
X166800001Y-85280000D03*
X180430000Y-59790000D03*
X177100000Y-83949999D03*
X176960000Y-68990000D03*
X167730000Y-84760000D03*
X178070000Y-64890000D03*
X176320000Y-84780000D03*
X175740000Y-68977500D03*
X167386190Y-91370733D03*
X155990000Y-119570000D03*
X157690010Y-106350000D03*
X153870000Y-119120000D03*
X163040000Y-76270000D03*
X185210000Y-49530000D03*
X160900000Y-95250000D03*
X165580000Y-91720000D03*
X168239998Y-95310000D03*
X178840000Y-98820000D03*
X180260000Y-97250000D03*
X178670000Y-100407500D03*
X178579970Y-106160000D03*
X174014258Y-101574258D03*
X173855294Y-90355557D03*
X205890000Y-103760000D03*
X167890000Y-83090000D03*
X185330000Y-88120000D03*
X185060000Y-85360000D03*
X205820000Y-104970000D03*
X147290000Y-124240000D03*
X145400000Y-117330000D03*
D22*
X172760000Y-76320000D02*
X172800000Y-76280000D01*
X161849961Y-74700039D02*
X168880039Y-74700039D01*
X160920000Y-75630000D02*
X161849961Y-74700039D01*
X170260000Y-76080000D02*
X170260000Y-77550000D01*
X168880039Y-74700039D02*
X170260000Y-76080000D01*
X149290000Y-79100000D02*
X149230000Y-79040000D01*
X153110000Y-79100000D02*
X149290000Y-79100000D01*
D23*
X149430000Y-50460000D02*
X149670000Y-50220000D01*
X149670000Y-44140000D02*
X148470000Y-42940000D01*
X149670000Y-50220000D02*
X149670000Y-44140000D01*
X149430000Y-51210000D02*
X149860000Y-51640000D01*
X149430000Y-50460000D02*
X149430000Y-51210000D01*
X148470000Y-43530000D02*
X148620000Y-43680000D01*
X148470000Y-42940000D02*
X148470000Y-43530000D01*
D24*
X195680000Y-56600000D02*
X195680000Y-43380000D01*
X198380000Y-40680000D02*
X198380000Y-40480000D01*
X197635000Y-41425000D02*
X198380000Y-40680000D01*
X195680000Y-43380000D02*
X197635000Y-41425000D01*
X200865000Y-61785000D02*
X195680000Y-56600000D01*
X201550000Y-62470000D02*
X200865000Y-61785000D01*
X206470000Y-89870000D02*
X206490000Y-89890000D01*
X202960000Y-89870000D02*
X206470000Y-89870000D01*
X192799999Y-114070001D02*
X193389001Y-113480999D01*
X193389001Y-109279001D02*
X193370000Y-109260000D01*
X191011999Y-114070001D02*
X192799999Y-114070001D01*
X190581998Y-113640000D02*
X191011999Y-114070001D01*
X193389001Y-113480999D02*
X193389001Y-109279001D01*
X151180000Y-113610000D02*
X189120000Y-113610000D01*
X146800000Y-102540000D02*
X146800000Y-109230000D01*
X189120000Y-113610000D02*
X189150000Y-113640000D01*
X146800000Y-109230000D02*
X151180000Y-113610000D01*
X190010000Y-113640000D02*
X190581998Y-113640000D01*
X189150000Y-113640000D02*
X190010000Y-113640000D01*
X146800000Y-101070000D02*
X148230000Y-99640000D01*
X146800000Y-102540000D02*
X146800000Y-101070000D01*
D22*
X144690000Y-81650000D02*
X140960000Y-81650000D01*
X144834309Y-81650000D02*
X144690000Y-81650000D01*
X159980000Y-86490000D02*
X158115627Y-84625627D01*
X158115627Y-84625627D02*
X156471385Y-84625627D01*
X153495758Y-81650000D02*
X144690000Y-81650000D01*
X156471385Y-84625627D02*
X153495758Y-81650000D01*
X144780000Y-50060000D02*
X143080000Y-48360000D01*
X144780000Y-54870000D02*
X144780000Y-50060000D01*
X142110000Y-65210000D02*
X142110000Y-57540000D01*
X142110000Y-57540000D02*
X144780000Y-54870000D01*
X141020000Y-66300000D02*
X142110000Y-65210000D01*
D24*
X168720000Y-40200000D02*
X167470000Y-40200000D01*
X167470000Y-41690000D02*
X167470000Y-40200000D01*
X165720000Y-43440000D02*
X167470000Y-41690000D01*
D22*
X168262500Y-63897500D02*
X168643500Y-63516500D01*
X165976500Y-63897500D02*
X168262500Y-63897500D01*
D24*
X154030000Y-37600000D02*
X159220000Y-37600000D01*
X135629992Y-58740046D02*
X140299990Y-54070048D01*
X159220000Y-37600000D02*
X159680000Y-37140000D01*
X135629992Y-67959954D02*
X135629992Y-58740046D01*
X136379999Y-68709961D02*
X135629992Y-67959954D01*
X136379999Y-91719999D02*
X136379999Y-68709961D01*
X152500010Y-39129990D02*
X154030000Y-37600000D01*
X140481838Y-95821838D02*
X136379999Y-91719999D01*
X140481838Y-97360000D02*
X140481838Y-95821838D01*
X141080000Y-97360000D02*
X140481838Y-97360000D01*
X146312008Y-39129990D02*
X152500010Y-39129990D01*
X140299990Y-45142008D02*
X146312008Y-39129990D01*
X140299990Y-54070048D02*
X140299990Y-45142008D01*
X145631838Y-112431838D02*
X145160000Y-111960000D01*
X144615922Y-108410000D02*
X145160000Y-108410000D01*
X144576377Y-108370455D02*
X144615922Y-108410000D01*
X145160000Y-108410000D02*
X145160000Y-111960000D01*
X159490000Y-39830000D02*
X159700000Y-39620000D01*
X148730000Y-39830000D02*
X159490000Y-39830000D01*
X141000000Y-54360000D02*
X141000000Y-47560000D01*
X141000000Y-47560000D02*
X148730000Y-39830000D01*
X136330000Y-67670000D02*
X136330000Y-59030000D01*
X137080009Y-68420008D02*
X136330000Y-67670000D01*
X141930001Y-96280039D02*
X137080009Y-91430047D01*
X137080009Y-91430047D02*
X137080009Y-68420008D01*
X141930001Y-96310001D02*
X141930001Y-96280039D01*
X145160000Y-99540000D02*
X141930001Y-96310001D01*
X136330000Y-59030000D02*
X141000000Y-54360000D01*
X145160000Y-108410000D02*
X145160000Y-99540000D01*
D22*
X158570000Y-74030000D02*
X149050002Y-74030000D01*
X148819992Y-73799990D02*
X140059990Y-73799990D01*
X140059990Y-73799990D02*
X140040000Y-73780000D01*
X149050002Y-74030000D02*
X148819992Y-73799990D01*
X141280002Y-80860000D02*
X139813664Y-80860000D01*
X153702868Y-81149990D02*
X141569992Y-81149990D01*
X156452878Y-83900000D02*
X153702868Y-81149990D01*
X141569992Y-81149990D02*
X141280002Y-80860000D01*
X158470000Y-83900000D02*
X156452878Y-83900000D01*
X138430000Y-80860000D02*
X138210000Y-80640000D01*
X139813664Y-80860000D02*
X138430000Y-80860000D01*
X162935597Y-83125597D02*
X156745597Y-83125597D01*
X162960000Y-83150000D02*
X162935597Y-83125597D01*
X153659998Y-80400000D02*
X142460000Y-80400000D01*
X156385595Y-83125597D02*
X153659998Y-80400000D01*
X156745597Y-83125597D02*
X156385595Y-83125597D01*
X140509990Y-80359990D02*
X140200000Y-80050000D01*
X142419990Y-80359990D02*
X140509990Y-80359990D01*
X142460000Y-80400000D02*
X142419990Y-80359990D01*
X157779998Y-79760000D02*
X155399997Y-77379999D01*
X159400000Y-79760000D02*
X157779998Y-79760000D01*
X153330001Y-76550001D02*
X150790001Y-76550001D01*
X154159999Y-77379999D02*
X153330001Y-76550001D01*
X155399997Y-77379999D02*
X154159999Y-77379999D01*
X150790001Y-76550001D02*
X148540000Y-74300000D01*
X148540000Y-74300000D02*
X143060000Y-74300000D01*
X142702000Y-74658000D02*
X142702000Y-75570000D01*
X143060000Y-74300000D02*
X142702000Y-74658000D01*
D23*
X205360000Y-53570000D02*
X210190000Y-58400000D01*
X199940000Y-53570000D02*
X205360000Y-53570000D01*
X211460000Y-58400000D02*
X212730000Y-59670000D01*
X210190000Y-58400000D02*
X211460000Y-58400000D01*
D24*
X212730000Y-59670000D02*
X213320000Y-59670000D01*
D23*
X212730000Y-59670000D02*
X214300000Y-59670000D01*
X214300000Y-59670000D02*
X215850000Y-61220000D01*
X215850000Y-61220000D02*
X215850000Y-71970000D01*
X214180000Y-73640000D02*
X212730000Y-73640000D01*
X215850000Y-71970000D02*
X214180000Y-73640000D01*
X211460000Y-72370000D02*
X212730000Y-73640000D01*
X210190000Y-72370000D02*
X211460000Y-72370000D01*
X214180000Y-73640000D02*
X214580000Y-73640000D01*
X214580000Y-73640000D02*
X216070000Y-75130000D01*
X216070000Y-75130000D02*
X216070000Y-86390000D01*
X214850000Y-87610000D02*
X212730000Y-87610000D01*
X216070000Y-86390000D02*
X214850000Y-87610000D01*
X211460000Y-86340000D02*
X212730000Y-87610000D01*
X210190000Y-86340000D02*
X211460000Y-86340000D01*
X211460000Y-100310000D02*
X212730000Y-101580000D01*
X210190000Y-100310000D02*
X211460000Y-100310000D01*
X217410000Y-75130000D02*
X216070000Y-75130000D01*
X212730000Y-100950000D02*
X227980000Y-85700000D01*
X212730000Y-101580000D02*
X212730000Y-100950000D01*
X199940000Y-53570000D02*
X198840000Y-53570000D01*
X227980000Y-85700000D02*
X227980000Y-76660000D01*
X226450000Y-75130000D02*
X217410000Y-75130000D01*
X227980000Y-76660000D02*
X226450000Y-75130000D01*
D22*
X210190000Y-91420000D02*
X209100000Y-91420000D01*
X209100000Y-91420000D02*
X206230000Y-94290000D01*
X206230000Y-94290000D02*
X206230000Y-98010000D01*
X206230000Y-98010000D02*
X208130000Y-99910000D01*
X208130000Y-99910000D02*
X208130000Y-104890000D01*
X208630000Y-105390000D02*
X210190000Y-105390000D01*
X208130000Y-104890000D02*
X208630000Y-105390000D01*
X181820000Y-77450000D02*
X210190000Y-77450000D01*
X177880751Y-73510751D02*
X181820000Y-77450000D01*
X171459249Y-73510751D02*
X177880751Y-73510751D01*
X170948500Y-74520000D02*
X170818500Y-74390000D01*
X175530000Y-74520000D02*
X170948500Y-74520000D01*
X212635001Y-78625001D02*
X212730000Y-78720000D01*
X179635001Y-78625001D02*
X212635001Y-78625001D01*
X175530000Y-74520000D02*
X179635001Y-78625001D01*
X158890000Y-95280000D02*
X156580000Y-97590000D01*
X156580000Y-97590000D02*
X155420000Y-97590000D01*
X153940000Y-99070000D02*
X153940000Y-101450000D01*
X155420000Y-97590000D02*
X153940000Y-99070000D01*
X153940000Y-105720000D02*
X153940000Y-101450000D01*
X159850000Y-111630000D02*
X153940000Y-105720000D01*
X159850000Y-111630000D02*
X160479990Y-112259990D01*
X160479990Y-112259990D02*
X161840000Y-112259990D01*
X161840000Y-112259990D02*
X187820000Y-112259990D01*
X187820000Y-112259990D02*
X188590008Y-112259990D01*
X191070010Y-112259990D02*
X192455331Y-110874669D01*
X188590008Y-112259990D02*
X191070010Y-112259990D01*
X188900000Y-112760000D02*
X160272880Y-112760000D01*
X153190000Y-105677120D02*
X153190000Y-103007288D01*
X160272880Y-112760000D02*
X153190000Y-105677120D01*
X153190000Y-103007288D02*
X152287288Y-103007288D01*
X152287288Y-103007288D02*
X151370000Y-102090000D01*
X151370000Y-100920662D02*
X152460331Y-99830331D01*
X151370000Y-102090000D02*
X151370000Y-100920662D01*
X188900000Y-112760000D02*
X189210000Y-112760000D01*
X189210000Y-112760000D02*
X190960000Y-112760000D01*
X191005979Y-112760000D02*
X191237116Y-112991137D01*
X190960000Y-112760000D02*
X191005979Y-112760000D01*
X156440000Y-107512880D02*
X158407120Y-109480000D01*
X156440000Y-101450000D02*
X156440000Y-107512880D01*
X158407120Y-109480000D02*
X160057112Y-111129992D01*
X160057112Y-111129992D02*
X160687100Y-111759980D01*
X160687100Y-111759980D02*
X188382898Y-111759980D01*
X188382898Y-111759980D02*
X190530000Y-111759980D01*
X190530000Y-111739338D02*
X190834674Y-111434664D01*
X190530000Y-111759980D02*
X190530000Y-111739338D01*
X157690000Y-101840000D02*
X157690000Y-101450000D01*
X156940010Y-107305770D02*
X156940010Y-102589990D01*
X188140030Y-111259970D02*
X160894210Y-111259970D01*
X156940010Y-102589990D02*
X157690000Y-101840000D01*
X160894210Y-111259970D02*
X156940010Y-107305770D01*
X188140030Y-111259970D02*
X189880030Y-111259970D01*
X190620000Y-110520000D02*
X191440000Y-110520000D01*
X189880030Y-111259970D02*
X190620000Y-110520000D01*
X168040000Y-94000000D02*
X168740001Y-93299999D01*
X166619990Y-96983764D02*
X165399990Y-98203764D01*
X168740001Y-93299999D02*
X168740001Y-92469999D01*
X158068515Y-107230000D02*
X157996708Y-107301807D01*
X168740001Y-92469999D02*
X168350001Y-92079999D01*
X160862911Y-106479969D02*
X160112880Y-107230000D01*
X168350001Y-92079999D02*
X167629999Y-92079999D01*
X167629999Y-92079999D02*
X166619990Y-93090008D01*
X165399990Y-98203764D02*
X165399990Y-99392890D01*
X166619990Y-93090008D02*
X166619990Y-96983764D01*
X165399990Y-99392890D02*
X162489990Y-102302890D01*
X162489990Y-106479969D02*
X160862911Y-106479969D01*
X162489990Y-102302890D02*
X162489990Y-106479969D01*
X160112880Y-107230000D02*
X158068515Y-107230000D01*
X154744338Y-114560000D02*
X148350000Y-120954338D01*
X155770000Y-114560000D02*
X154744338Y-114560000D01*
X145569999Y-126480001D02*
X148340001Y-126480001D01*
X144860000Y-127190000D02*
X145569999Y-126480001D01*
X148340001Y-126480001D02*
X148350000Y-126490000D01*
X148350000Y-120954338D02*
X148350000Y-126490000D01*
X144860000Y-127890000D02*
X144860000Y-127190000D01*
X167970000Y-92830000D02*
X167990000Y-92830000D01*
X160041086Y-108008914D02*
X158703816Y-108008914D01*
X161070021Y-106979979D02*
X160041086Y-108008914D01*
X162719979Y-106979979D02*
X161070021Y-106979979D01*
X162990000Y-106709958D02*
X162719979Y-106979979D01*
X165900000Y-99600000D02*
X162990000Y-102510000D01*
X165900000Y-98410874D02*
X165900000Y-99600000D01*
X162990000Y-102510000D02*
X162990000Y-106709958D01*
X167120000Y-93320000D02*
X167120000Y-97190874D01*
X167120000Y-97190874D02*
X165900000Y-98410874D01*
X167859991Y-92580009D02*
X167120000Y-93320000D01*
X167859991Y-92699991D02*
X167859991Y-92580009D01*
X167990000Y-92830000D02*
X167859991Y-92699991D01*
X149149990Y-127590008D02*
X148999999Y-127739999D01*
X154321458Y-115690000D02*
X149149990Y-120861468D01*
X155760000Y-115690000D02*
X154321458Y-115690000D01*
X146110000Y-127890000D02*
X146110000Y-128180000D01*
X146110000Y-128180000D02*
X147570000Y-129640000D01*
X147570000Y-129640000D02*
X148510000Y-129640000D01*
X148510000Y-128199980D02*
X149149990Y-127559990D01*
X148510000Y-129640000D02*
X148510000Y-128199980D01*
X149149990Y-127559990D02*
X149149990Y-127590008D01*
X149149990Y-120861468D02*
X149149990Y-127559990D01*
X178399856Y-87740020D02*
X178649846Y-87990010D01*
X176109980Y-87740020D02*
X178399856Y-87740020D01*
X173740001Y-88240001D02*
X173030000Y-87530000D01*
X175609999Y-88240001D02*
X173740001Y-88240001D01*
X176109980Y-87740020D02*
X175609999Y-88240001D01*
X155000000Y-63320000D02*
X155820000Y-63320000D01*
X154180000Y-64140000D02*
X155000000Y-63320000D01*
X154180000Y-66320000D02*
X154180000Y-64140000D01*
X155170008Y-67310008D02*
X154180000Y-66320000D01*
X172680008Y-67310008D02*
X155170008Y-67310008D01*
X172680008Y-67880008D02*
X173300000Y-68500000D01*
X172680008Y-67310008D02*
X172680008Y-67880008D01*
X174820000Y-87490000D02*
X175069990Y-87240010D01*
X174207288Y-87490000D02*
X174820000Y-87490000D01*
X179369999Y-87240010D02*
X179619989Y-87490000D01*
X175069990Y-87240010D02*
X179369999Y-87240010D01*
X156910000Y-64570000D02*
X155820000Y-64570000D01*
X159150000Y-66810000D02*
X156910000Y-64570000D01*
X173554620Y-67477500D02*
X173588062Y-67477500D01*
X172887120Y-66810000D02*
X173554620Y-67477500D01*
X159150000Y-66810000D02*
X172887120Y-66810000D01*
X173070000Y-98190000D02*
X173050000Y-98170000D01*
X177540000Y-98190000D02*
X173070000Y-98190000D01*
X179810000Y-95920000D02*
X180570000Y-95920000D01*
X177540000Y-98190000D02*
X179810000Y-95920000D01*
X185780000Y-89970000D02*
X185780000Y-91490000D01*
X185630000Y-89820000D02*
X185780000Y-89970000D01*
X185780000Y-91490000D02*
X187555000Y-93265000D01*
X173040000Y-94834164D02*
X174895806Y-96689970D01*
X176565128Y-96689970D02*
X177932891Y-95322207D01*
X174895806Y-96689970D02*
X176565128Y-96689970D01*
X169100000Y-94340000D02*
X169080000Y-94360000D01*
X170580000Y-94340000D02*
X169100000Y-94340000D01*
X170700000Y-94460000D02*
X170580000Y-94340000D01*
X170750000Y-94460000D02*
X170700000Y-94460000D01*
X177332890Y-97689990D02*
X173979990Y-97689990D01*
X179810000Y-95212880D02*
X177332890Y-97689990D01*
X173979990Y-97689990D02*
X170750000Y-94460000D01*
X179810000Y-95030000D02*
X179810000Y-95212880D01*
X184280000Y-90290000D02*
X184280000Y-91310000D01*
X183640000Y-89650000D02*
X184280000Y-90290000D01*
X184280000Y-91310000D02*
X184840000Y-91870000D01*
X184840000Y-92436743D02*
X184891307Y-92488050D01*
X184840000Y-91870000D02*
X184840000Y-92436743D01*
X172290000Y-94700002D02*
X172290000Y-93920000D01*
X172290000Y-94700002D02*
X172290000Y-95292880D01*
X172290000Y-95292880D02*
X174187100Y-97189980D01*
X174187100Y-97189980D02*
X177125780Y-97189980D01*
X178862581Y-95453179D02*
X178862581Y-94710000D01*
X177125780Y-97189980D02*
X178862581Y-95453179D01*
X182490001Y-91057979D02*
X183696011Y-92263989D01*
X182490001Y-89770001D02*
X182490001Y-91057979D01*
X150009989Y-106637109D02*
X151299989Y-107927109D01*
X151299989Y-107927109D02*
X151299989Y-108617111D01*
X150009989Y-102269989D02*
X150009989Y-106637109D01*
X151299989Y-108617111D02*
X154692888Y-112010010D01*
X154692888Y-112010010D02*
X156590000Y-112010010D01*
X156929990Y-112350000D02*
X158660000Y-112350000D01*
X156590000Y-112010010D02*
X156929990Y-112350000D01*
X176170000Y-109990000D02*
X175900050Y-110259950D01*
X175900050Y-110259950D02*
X161939950Y-110259950D01*
X161460331Y-109780331D02*
X161460331Y-107729980D01*
X161939950Y-110259950D02*
X161460331Y-109780331D01*
X150009989Y-100463551D02*
X153203540Y-97270000D01*
X150009989Y-102269989D02*
X150009989Y-100463551D01*
X153630000Y-97270000D02*
X153640000Y-97260000D01*
X153203540Y-97270000D02*
X153630000Y-97270000D01*
X180620000Y-71230000D02*
X180270000Y-70880000D01*
X174490000Y-70880000D02*
X174370000Y-70760000D01*
X180270000Y-70880000D02*
X174490000Y-70880000D01*
X160580000Y-108550000D02*
X160650020Y-108479980D01*
X160580000Y-108550000D02*
X160580000Y-110238640D01*
X160580000Y-110238640D02*
X160995680Y-110654320D01*
X160995680Y-110654320D02*
X161101320Y-110759960D01*
X176660040Y-110759960D02*
X177210000Y-110210000D01*
X161101320Y-110759960D02*
X176660040Y-110759960D01*
X155050000Y-97252880D02*
X155050000Y-96710000D01*
X154262880Y-98040000D02*
X155050000Y-97252880D01*
X150509999Y-106429999D02*
X150509999Y-100670661D01*
X151799999Y-107719999D02*
X150509999Y-106429999D01*
X150509999Y-100670661D02*
X153140660Y-98040000D01*
X151799999Y-108410001D02*
X151799999Y-107719999D01*
X154899998Y-111510000D02*
X151799999Y-108410001D01*
X157890000Y-111510000D02*
X154899998Y-111510000D01*
X153140660Y-98040000D02*
X154262880Y-98040000D01*
X175490000Y-70310000D02*
X175080000Y-69900000D01*
X182010000Y-70310000D02*
X175490000Y-70310000D01*
X147470000Y-95850000D02*
X146500000Y-95850000D01*
X147991247Y-96371247D02*
X147470000Y-95850000D01*
X152190000Y-96371247D02*
X147991247Y-96371247D01*
X153550000Y-95730000D02*
X153441246Y-95621246D01*
D25*
X153550000Y-96092478D02*
X152382478Y-97260000D01*
X153550000Y-95730000D02*
X153550000Y-96092478D01*
D22*
X146660000Y-97260000D02*
X146500000Y-97100000D01*
X152382478Y-97260000D02*
X146660000Y-97260000D01*
X161110000Y-85340000D02*
X161110000Y-85000000D01*
X162009990Y-86239990D02*
X161110000Y-85340000D01*
X201580031Y-86239990D02*
X201610010Y-86239990D01*
X201610010Y-86239990D02*
X162009990Y-86239990D01*
X201830010Y-86239990D02*
X202140000Y-85930000D01*
X201580031Y-86239990D02*
X201830010Y-86239990D01*
X197750000Y-112440000D02*
X197750000Y-107470000D01*
X196350000Y-113840000D02*
X197750000Y-112440000D01*
X196350000Y-127690000D02*
X196350000Y-113840000D01*
X199840000Y-131180000D02*
X196350000Y-127690000D01*
X212270000Y-131180000D02*
X199840000Y-131180000D01*
X197750000Y-107470000D02*
X198300000Y-106920000D01*
X212580000Y-131490000D02*
X212270000Y-131180000D01*
X159530000Y-84700000D02*
X159530000Y-83875597D01*
X161570000Y-86740000D02*
X159530000Y-84700000D01*
X161570000Y-86740000D02*
X201520000Y-86740000D01*
X201520000Y-86740000D02*
X202110000Y-87330000D01*
X203320000Y-86120000D02*
X202110000Y-87330000D01*
X203620000Y-86120000D02*
X203320000Y-86120000D01*
X197400000Y-105500000D02*
X197560000Y-105340000D01*
X213409999Y-132240001D02*
X213930000Y-131720000D01*
X200120001Y-132167121D02*
X200120001Y-132240001D01*
X213930000Y-131720000D02*
X213930000Y-131310000D01*
X195849990Y-113040010D02*
X195849990Y-127897110D01*
X200120001Y-132240001D02*
X213409999Y-132240001D01*
X196910000Y-111980000D02*
X195849990Y-113040010D01*
X196910000Y-105990000D02*
X196910000Y-111980000D01*
X195849990Y-127897110D02*
X200120001Y-132167121D01*
X197560000Y-105340000D02*
X196910000Y-105990000D01*
X177554444Y-89605556D02*
X177850000Y-89310000D01*
X172934444Y-89605556D02*
X177554444Y-89605556D01*
X172580000Y-89960000D02*
X172934444Y-89605556D01*
X197210000Y-67830000D02*
X198130000Y-67830000D01*
X195610000Y-66230000D02*
X197210000Y-67830000D01*
X182770000Y-66230000D02*
X195610000Y-66230000D01*
X180018887Y-68981113D02*
X182770000Y-66230000D01*
X179991103Y-68981113D02*
X180018887Y-68981113D01*
X183390002Y-46600000D02*
X187530000Y-50739998D01*
X182510000Y-46600000D02*
X183390002Y-46600000D01*
X187530000Y-63420000D02*
X189249990Y-65139990D01*
X187530000Y-50739998D02*
X187530000Y-63420000D01*
X189249990Y-65139990D02*
X195710010Y-65139990D01*
X197290000Y-63560000D02*
X198470000Y-63560000D01*
X195710010Y-65139990D02*
X197290000Y-63560000D01*
X198470000Y-63560000D02*
X199910000Y-65000000D01*
X199910000Y-65000000D02*
X199910000Y-67370000D01*
X199450000Y-67830000D02*
X198130000Y-67830000D01*
X199910000Y-67370000D02*
X199450000Y-67830000D01*
X174010000Y-88860000D02*
X174020000Y-88850000D01*
X172220000Y-88860000D02*
X174010000Y-88860000D01*
X176640000Y-88850000D02*
X176740000Y-88750000D01*
X174020000Y-88850000D02*
X176640000Y-88850000D01*
X179262214Y-68600000D02*
X182222214Y-65640000D01*
X178897500Y-68600000D02*
X179262214Y-68600000D01*
X178520000Y-68977500D02*
X178897500Y-68600000D01*
X182222214Y-65640000D02*
X196070000Y-65640000D01*
X197010000Y-66580000D02*
X198130000Y-66580000D01*
X196070000Y-65640000D02*
X197010000Y-66580000D01*
X182222214Y-51857786D02*
X183330000Y-50750000D01*
X182222214Y-65640000D02*
X182222214Y-51857786D01*
X160950000Y-100870000D02*
X160950000Y-105229959D01*
X160810000Y-100730000D02*
X160950000Y-100870000D01*
X159990000Y-100144185D02*
X159990000Y-105520000D01*
X160030132Y-100104053D02*
X159990000Y-100144185D01*
X163570001Y-107529999D02*
X171270001Y-107529999D01*
X163530000Y-107570000D02*
X163570001Y-107529999D01*
X171630000Y-107170000D02*
X171630000Y-106440000D01*
X171270001Y-107529999D02*
X171630000Y-107170000D01*
X162620331Y-94820331D02*
X162969980Y-95169980D01*
X162620331Y-94590331D02*
X162620331Y-94820331D01*
X162969980Y-95169980D02*
X162969980Y-98172898D01*
X162330000Y-98812878D02*
X162330000Y-100623219D01*
X162969980Y-98172898D02*
X162330000Y-98812878D01*
X164903098Y-103230000D02*
X165093118Y-103420020D01*
X164213413Y-103230000D02*
X164903098Y-103230000D01*
X163772037Y-102788624D02*
X164213413Y-103230000D01*
X165093118Y-103420020D02*
X172570020Y-103420020D01*
X172880000Y-103730000D02*
X172880000Y-106440000D01*
X172570020Y-103420020D02*
X172880000Y-103730000D01*
X163760000Y-94412880D02*
X163469990Y-94702890D01*
X163760000Y-93871714D02*
X163760000Y-94412880D01*
X164075526Y-93556188D02*
X163760000Y-93871714D01*
X163469990Y-94702890D02*
X163469990Y-97970000D01*
X163469990Y-98380008D02*
X163079999Y-98769999D01*
X163469990Y-97970000D02*
X163469990Y-98380008D01*
X163079999Y-99837151D02*
X163080000Y-99837152D01*
X163079999Y-98769999D02*
X163079999Y-99837151D01*
X164581053Y-102200835D02*
X165300228Y-102920010D01*
X165300228Y-102920010D02*
X173680010Y-102920010D01*
X174130000Y-103370000D02*
X174130000Y-106440000D01*
X173680010Y-102920010D02*
X174130000Y-103370000D01*
X163970000Y-94910000D02*
X163970000Y-98820000D01*
X165230000Y-93650000D02*
X163970000Y-94910000D01*
X163970000Y-98990000D02*
X163830000Y-99130000D01*
X163970000Y-98820000D02*
X163970000Y-98990000D01*
X165230000Y-101440000D02*
X166210000Y-102420000D01*
X166210000Y-102420000D02*
X174132850Y-102420000D01*
X175380000Y-103667150D02*
X175380000Y-106440000D01*
X174132850Y-102420000D02*
X175380000Y-103667150D01*
X183831500Y-110291500D02*
X187751500Y-110291500D01*
X179420000Y-105880000D02*
X183831500Y-110291500D01*
X174210000Y-100650000D02*
X179420000Y-105860000D01*
X169390000Y-100650000D02*
X174210000Y-100650000D01*
X179420000Y-105860000D02*
X179420000Y-105880000D01*
X167359998Y-99235012D02*
X166772931Y-98647945D01*
X167359998Y-99590000D02*
X167359998Y-99235012D01*
X167359998Y-99590000D02*
X167360000Y-99590000D01*
X167669999Y-99899999D02*
X174167119Y-99899999D01*
X167360000Y-99590000D02*
X167669999Y-99899999D01*
X183747120Y-109480000D02*
X186050000Y-109480000D01*
X174167119Y-99899999D02*
X183747120Y-109480000D01*
X187930000Y-107600000D02*
X190990000Y-104540000D01*
X187930000Y-107610000D02*
X187930000Y-107600000D01*
X190990000Y-104540000D02*
X199830000Y-104540000D01*
X186490001Y-109049999D02*
X187930000Y-107610000D01*
X186480001Y-109049999D02*
X186490001Y-109049999D01*
X199830000Y-104540000D02*
X200530000Y-105240000D01*
X186050000Y-109480000D02*
X186480001Y-109049999D01*
X200530000Y-109960000D02*
X200570000Y-110000000D01*
X200530000Y-105240000D02*
X200530000Y-109960000D01*
X162210000Y-83960000D02*
X163690000Y-85440000D01*
X162210000Y-83875597D02*
X162210000Y-83960000D01*
X154920400Y-84836000D02*
X154896000Y-84836000D01*
X155710047Y-85625647D02*
X154920400Y-84836000D01*
X157298525Y-85625647D02*
X155710047Y-85625647D01*
X159607765Y-87934887D02*
X157298525Y-85625647D01*
X154896000Y-84836000D02*
X154290020Y-84230020D01*
X163255113Y-87934887D02*
X159607765Y-87934887D01*
X163700000Y-87490000D02*
X163255113Y-87934887D01*
X154290020Y-84230020D02*
X154280020Y-84230020D01*
X154280020Y-84230020D02*
X153200001Y-83150001D01*
X150039651Y-83150001D02*
X149809825Y-82920175D01*
X153200001Y-83150001D02*
X150039651Y-83150001D01*
X161220063Y-84000061D02*
X162638083Y-85418081D01*
X162638083Y-85418081D02*
X162638083Y-85489990D01*
X161121235Y-84000061D02*
X161220063Y-84000061D01*
X160899109Y-87240001D02*
X160954224Y-87184886D01*
X159619999Y-87240001D02*
X160899109Y-87240001D01*
X155917157Y-85125637D02*
X157505635Y-85125637D01*
X154271540Y-83480020D02*
X155917157Y-85125637D01*
X157505635Y-85125637D02*
X159619999Y-87240001D01*
X154271540Y-83480020D02*
X154271540Y-83471540D01*
X153200000Y-82400000D02*
X151230000Y-82400000D01*
X154271540Y-83471540D02*
X153200000Y-82400000D01*
X170468025Y-79431313D02*
X170989338Y-78910000D01*
X170989338Y-78910000D02*
X173560000Y-78910000D01*
X174010000Y-78460000D02*
X174010000Y-77550000D01*
X173560000Y-78910000D02*
X174010000Y-78460000D01*
X164118989Y-75450040D02*
X164239029Y-75330000D01*
X164239029Y-75330000D02*
X168680000Y-75330000D01*
X169010000Y-75660000D02*
X169010000Y-77550000D01*
X168680000Y-75330000D02*
X169010000Y-75660000D01*
X152190000Y-75800000D02*
X151540000Y-75150000D01*
X150461500Y-75150000D02*
X150091500Y-74780000D01*
X151540000Y-75150000D02*
X150461500Y-75150000D01*
X150360000Y-72910000D02*
X151831099Y-71438901D01*
X149741498Y-72910000D02*
X150360000Y-72910000D01*
X151831099Y-69521101D02*
X151519999Y-69210001D01*
X151831099Y-71438901D02*
X151831099Y-69521101D01*
X151519999Y-64099999D02*
X151519999Y-69210001D01*
X151519999Y-57289999D02*
X148740000Y-54510000D01*
X151519999Y-64099999D02*
X151519999Y-57289999D01*
X153920000Y-74570000D02*
X153710000Y-74780000D01*
X157159339Y-74570000D02*
X153920000Y-74570000D01*
X158280000Y-76397120D02*
X158280000Y-75690661D01*
X159542890Y-77660010D02*
X158280000Y-76397120D01*
X158280000Y-75690661D02*
X157159339Y-74570000D01*
X164322890Y-77660010D02*
X159542890Y-77660010D01*
X164780000Y-78117120D02*
X164322890Y-77660010D01*
X164780000Y-78630000D02*
X164780000Y-78117120D01*
X164799990Y-78649990D02*
X164780000Y-78630000D01*
X164799990Y-83480010D02*
X164799990Y-78649990D01*
X164550000Y-83730000D02*
X164799990Y-83480010D01*
X164550000Y-83900000D02*
X164550000Y-83730000D01*
X152331109Y-68911109D02*
X152270000Y-68850000D01*
X152331109Y-72958891D02*
X152331109Y-68911109D01*
X144009980Y-62230000D02*
X144879980Y-61360000D01*
X143379980Y-62230000D02*
X144009980Y-62230000D01*
X158827199Y-76237199D02*
X158827199Y-75127858D01*
X159750000Y-77160000D02*
X158827199Y-76237199D01*
X164530000Y-77160000D02*
X159750000Y-77160000D01*
X165300000Y-77930000D02*
X164530000Y-77160000D01*
X165300000Y-85290000D02*
X165300000Y-77930000D01*
D24*
X164020000Y-119630000D02*
X162530000Y-118140000D01*
X162530000Y-118140000D02*
X152720000Y-118140000D01*
X152720000Y-118140000D02*
X149750000Y-121110000D01*
X149750000Y-121110000D02*
X149750000Y-128100000D01*
D22*
X148439648Y-82660000D02*
X148439648Y-82639648D01*
X149529648Y-83750000D02*
X148439648Y-82660000D01*
X148200000Y-82400000D02*
X141766082Y-82400000D01*
X151100000Y-83750000D02*
X149529648Y-83750000D01*
X152070000Y-84720000D02*
X151100000Y-83750000D01*
X152070000Y-85140000D02*
X152070000Y-84720000D01*
X148439648Y-82639648D02*
X148200000Y-82400000D01*
X153055657Y-86125657D02*
X152070000Y-85140000D01*
X156875657Y-86125657D02*
X153055657Y-86125657D01*
X161750000Y-91000000D02*
X156875657Y-86125657D01*
X161750000Y-93090000D02*
X161750000Y-91000000D01*
X180910000Y-100800000D02*
X182410000Y-99300000D01*
X182410000Y-99300000D02*
X182410000Y-94160000D01*
X182410000Y-94160000D02*
X181480000Y-93230000D01*
X172700000Y-91942714D02*
X172700000Y-91590000D01*
X173987286Y-93230000D02*
X172700000Y-91942714D01*
X181480000Y-93230000D02*
X173987286Y-93230000D01*
X174207288Y-92102712D02*
X174207288Y-92340000D01*
X174207288Y-92637288D02*
X174299990Y-92729990D01*
X174207288Y-92340000D02*
X174207288Y-92637288D01*
X182910008Y-93952888D02*
X182910008Y-100469992D01*
X181687110Y-92729990D02*
X182910008Y-93952888D01*
X174299990Y-92729990D02*
X181687110Y-92729990D01*
X182910008Y-100569972D02*
X180579980Y-102900000D01*
X182910008Y-100469992D02*
X182910008Y-100569972D01*
X183610000Y-93945760D02*
X181894220Y-92229980D01*
X183610000Y-101030000D02*
X183610000Y-93945760D01*
X181894220Y-92229980D02*
X175170000Y-92229980D01*
X174290020Y-91350000D02*
X173750000Y-91350000D01*
X175170000Y-92229980D02*
X174290020Y-91350000D01*
X183610000Y-101030000D02*
X182709999Y-101930001D01*
X182709999Y-101930001D02*
X181320000Y-103320000D01*
X181320000Y-103320000D02*
X181320000Y-105080000D01*
X198628000Y-115570000D02*
X209520000Y-115570000D01*
X209520000Y-115570000D02*
X210230000Y-114860000D01*
X220200000Y-114860000D02*
X220980000Y-115640000D01*
X210230000Y-114860000D02*
X220200000Y-114860000D01*
X162697056Y-79532954D02*
X163820000Y-78410010D01*
X161540000Y-79532954D02*
X162697056Y-79532954D01*
X164780000Y-76702880D02*
X165800010Y-77722890D01*
X164780000Y-76250000D02*
X164780000Y-76702880D01*
X165800010Y-77722890D02*
X165800010Y-82440010D01*
X165880010Y-82440010D02*
X167280001Y-83840001D01*
X167280001Y-83840001D02*
X174209999Y-83840001D01*
X165800010Y-82440010D02*
X165880010Y-82440010D01*
X174319997Y-83949999D02*
X175530000Y-83949999D01*
X174209999Y-83840001D02*
X174319997Y-83949999D01*
X181620000Y-87490000D02*
X181810000Y-87300000D01*
X181740000Y-83100000D02*
X181740000Y-83989960D01*
X174080651Y-82699989D02*
X181339989Y-82699989D01*
X181339989Y-82699989D02*
X181740000Y-83100000D01*
X173775331Y-82394669D02*
X174080651Y-82699989D01*
X202557120Y-96680000D02*
X192897120Y-96680000D01*
X192897120Y-96680000D02*
X187440000Y-91222880D01*
X187440000Y-91222880D02*
X187440000Y-88910000D01*
X181740001Y-87369999D02*
X181620000Y-87490000D01*
X185899999Y-87369999D02*
X181740001Y-87369999D01*
X187440000Y-88910000D02*
X185899999Y-87369999D01*
X202557120Y-96680000D02*
X202620000Y-96680000D01*
X203337120Y-97460000D02*
X202557120Y-96680000D01*
X203750000Y-97460000D02*
X203930000Y-97640000D01*
X203337120Y-97460000D02*
X203750000Y-97460000D01*
X179920000Y-100407500D02*
X181520000Y-98807500D01*
X181520000Y-98807500D02*
X181520000Y-94800000D01*
X181520000Y-94800000D02*
X180680000Y-93960000D01*
X180680000Y-93960000D02*
X173620000Y-93960000D01*
X171000000Y-91340000D02*
X168820000Y-91340000D01*
X173620000Y-93960000D02*
X171000000Y-91340000D01*
X166800001Y-85490001D02*
X167049980Y-85739980D01*
X166800001Y-85280000D02*
X166800001Y-85490001D01*
X176470022Y-85739980D02*
X177070001Y-85140001D01*
X177070001Y-85140001D02*
X177070001Y-84330001D01*
X167049980Y-85739980D02*
X176470022Y-85739980D01*
X177100000Y-84300002D02*
X177100000Y-83949999D01*
X177070001Y-84330001D02*
X177100000Y-84300002D01*
X179810000Y-60410000D02*
X180430000Y-59790000D01*
X179810000Y-67100000D02*
X179810000Y-60410000D01*
X178839990Y-68070010D02*
X179810000Y-67100000D01*
X177879990Y-68070010D02*
X178839990Y-68070010D01*
X176960000Y-68990000D02*
X177879990Y-68070010D01*
X178070000Y-67570000D02*
X178070000Y-64890000D01*
X168209970Y-85239970D02*
X167730000Y-84760000D01*
X175860030Y-85239970D02*
X168209970Y-85239970D01*
X176320000Y-84780000D02*
X175860030Y-85239970D01*
X177147500Y-67570000D02*
X175740000Y-68977500D01*
X178070000Y-67570000D02*
X177147500Y-67570000D01*
X161980041Y-105979959D02*
X160655801Y-105979959D01*
X161989980Y-102095780D02*
X161989980Y-105970020D01*
X160655801Y-105979959D02*
X160285760Y-106350000D01*
X164899980Y-97996654D02*
X164899980Y-99185780D01*
X161989980Y-105970020D02*
X161980041Y-105979959D01*
X166119980Y-96776654D02*
X164899980Y-97996654D01*
X164899980Y-99185780D02*
X161989980Y-102095780D01*
X166119980Y-92882898D02*
X166119980Y-96776654D01*
X167386190Y-91616688D02*
X166119980Y-92882898D01*
X160285760Y-106350000D02*
X157690010Y-106350000D01*
X167386190Y-91370733D02*
X167386190Y-91616688D01*
X155990000Y-119570000D02*
X154320000Y-119570000D01*
X154320000Y-119570000D02*
X153870000Y-119120000D01*
X160169999Y-75269999D02*
X161529998Y-73910000D01*
X161390002Y-76270000D02*
X161280001Y-76380001D01*
X161280001Y-76380001D02*
X160559999Y-76380001D01*
X163040000Y-76270000D02*
X161390002Y-76270000D01*
X160559999Y-76380001D02*
X160169999Y-75990001D01*
X175860000Y-67680000D02*
X175860000Y-55600000D01*
X161529998Y-73910000D02*
X166690000Y-73910000D01*
X166690000Y-73910000D02*
X169620000Y-70980000D01*
X169620000Y-70980000D02*
X172560000Y-70980000D01*
X160169999Y-75990001D02*
X160169999Y-75269999D01*
X172560000Y-70980000D02*
X175860000Y-67680000D01*
X185210000Y-49530000D02*
X185090000Y-49410000D01*
X182050000Y-49410000D02*
X181725000Y-49735000D01*
X181725000Y-49735000D02*
X181870000Y-49590000D01*
X185090000Y-49410000D02*
X182050000Y-49410000D01*
X175860000Y-55600000D02*
X181725000Y-49735000D01*
X164430000Y-91720000D02*
X165580000Y-91720000D01*
X160900000Y-95250000D02*
X164430000Y-91720000D01*
X173410001Y-98920001D02*
X173510002Y-98820000D01*
X172689999Y-98920001D02*
X173410001Y-98920001D01*
X172299999Y-98530001D02*
X172689999Y-98920001D01*
X172299999Y-97809999D02*
X172299999Y-98530001D01*
X169800000Y-95310000D02*
X172299999Y-97809999D01*
X168239998Y-95310000D02*
X169800000Y-95310000D01*
X173510002Y-98820000D02*
X178840000Y-98820000D01*
X180260000Y-98817500D02*
X178670000Y-100407500D01*
X180260000Y-97250000D02*
X180260000Y-98817500D01*
X178579970Y-106160000D02*
X174109970Y-101690000D01*
X174109970Y-101669970D02*
X174014258Y-101574258D01*
X174109970Y-101690000D02*
X174109970Y-101669970D01*
X175377112Y-91729972D02*
X174002697Y-90355557D01*
X182101332Y-91729972D02*
X175377112Y-91729972D01*
X184679920Y-94308560D02*
X182101332Y-91729972D01*
X189111440Y-94308560D02*
X184679920Y-94308560D01*
X192652890Y-97850010D02*
X189111440Y-94308560D01*
X174002697Y-90355557D02*
X173855294Y-90355557D01*
X202170008Y-97850010D02*
X192652890Y-97850010D01*
X202170008Y-97905018D02*
X202170008Y-97850010D01*
X204190000Y-99925010D02*
X202170008Y-97905018D01*
X204190000Y-99925010D02*
X204205010Y-99925010D01*
X205890000Y-101610000D02*
X205890000Y-103760000D01*
X204205010Y-99925010D02*
X205890000Y-101610000D01*
X167760001Y-83199999D02*
X167690000Y-83270000D01*
X179840037Y-83199999D02*
X167760001Y-83199999D01*
X181810038Y-85170000D02*
X179840037Y-83199999D01*
X184870000Y-85170000D02*
X181810038Y-85170000D01*
X185060000Y-85360000D02*
X184870000Y-85170000D01*
X186920000Y-91410000D02*
X186920000Y-89710000D01*
X192860000Y-97350000D02*
X186920000Y-91410000D01*
X202377118Y-97350000D02*
X192860000Y-97350000D01*
X186920000Y-89710000D02*
X185330000Y-88120000D01*
X206640001Y-101612883D02*
X202377118Y-97350000D01*
X206640001Y-104149999D02*
X206640001Y-101612883D01*
X205820000Y-104970000D02*
X206640001Y-104149999D01*
D24*
X147290000Y-124240000D02*
X147290000Y-119220000D01*
X147290000Y-119220000D02*
X145400000Y-117330000D01*
M02*
